<?xml version="1.0" encoding="utf-8"?>
<!-- Generator: Adobe Illustrator 24.1.1, SVG Export Plug-In . SVG Version: 6.00 Build 0)  -->
<svg version="1.1" id="Layer_1" xmlns="http://www.w3.org/2000/svg" xmlns:xlink="http://www.w3.org/1999/xlink" x="0px" y="0px"
	 viewBox="0 0 1000 230" style="enable-background:new 0 0 1000 230;" xml:space="preserve">
<style type="text/css">
	.st0{fill:url(#SVGID_1_);}
	.st1{clip-path:url(#SVGID_2_);}
</style>
<g id="Layer_2_1_">
</g>
<g id="Logo">
	<linearGradient id="SVGID_1_" gradientUnits="userSpaceOnUse" x1="504.9904" y1="14.0856" x2="504.9904" y2="207.1069">
		<stop  offset="0" style="stop-color:#FFFFFF"/>
		<stop  offset="5.225452e-02" style="stop-color:#F8FBFC"/>
		<stop  offset="0.1232" style="stop-color:#E8F5F4"/>
		<stop  offset="0.2048" style="stop-color:#C9E7E7"/>
		<stop  offset="0.2944" style="stop-color:#A1D5D5"/>
		<stop  offset="0.3894" style="stop-color:#72C0C0"/>
		<stop  offset="0.4497" style="stop-color:#4CB0B0"/>
		<stop  offset="0.4908" style="stop-color:#449998"/>
		<stop  offset="0.5904" style="stop-color:#2E6A6A"/>
		<stop  offset="0.6846" style="stop-color:#1D4242"/>
		<stop  offset="0.7707" style="stop-color:#112626"/>
		<stop  offset="0.846" style="stop-color:#0D1616"/>
		<stop  offset="0.9022" style="stop-color:#0C1112"/>
	</linearGradient>
	<path class="st0" d="M190.1,15.6l-59-0.8l-46-0.8L63.7,25.6L40,51.6l-5.4,43.7l11.5,24.5L89,140.5l59.7-2.3l15.3,11.5l-3.8,13.8
		l-22.2,3.8H82.1l-32.9,35.2l64.3,3.8l59.7,0.8l17.6-13l12.3-28.3l2.3-21.4l5.4-4.6l11.5,13l23.7,16.9l29.9,3.8l39.8,0.8l39.1,0.8
		l-3.1-101.9l21.4-2.3l26-1.5l3.8,12.3l-30.6,29.1l10,22.2l24.5,39.1l18.4,13l16.9,7.7l29.9-18.4L553.2,60l13-15.3l5.4,8.4v112.6
		l29.1,6.9l46-2.3L642,78.4l6.9-0.8l46.7,66.6l-0.8,26l34.5,28.3l-5.4-95l6.9,0.8l4.6,22.2l15.3,27.6l41.4,15.3l21.4-0.8l18.4-7.7
		l16.1-13.8l11.5-28.3l3.8-19.1l3.8-2.3l10,10l62.8,9.2l5.4,18.4l-17.6,6.1l-39.8-1.5l-16.9,23l29.9,2.3l37.5-0.8l19.9-7.7
		l12.3-13.8l1.5-16.9l-3.8-14.6l-15.5-18l-4.7-1.7l-36.5,1.8l-18.4-7.7l-4.6-12.3l12.3-7.7l15.3-4.6h15.3l15.3,9.2l7.3-11.2
		l9.8-10.9l11.5-12.1L884.6,41L865.1,57l-4,20.7l4.6,16.7l-10.3,9.2l-44.8,7.5l1.1,20.1l-8,7.5l-25.9-5.7c0,0-16.1-36.8-15.5-37.3
		C762.8,95,772.6,68,772.6,68s25.3-9.8,25.9-10.3c0.6-0.6,16.1,3.4,16.1,3.4s5.2,8.6,5.7,9.2c0.6,0.6,17.2-26.4,17.2-26.4l-2.9-5.7
		L787,40.4l-24.1,8l-21.3,20.7l-10.9,27.6l-5.7-2.9l-4-51.1h-25.3l1.7,49.4l-12.6-8.6l-28.1-39.6L632.4,45l-16.7,9.8l1.1,110.9
		l-9.2,5.7l-8-1.7l-4-33.3V43.3l-37.3-1.1l-28.1,3.4l-4,12.6l-19,23l-14.9-11.5l-17.8-23l-9.2-4L443.4,45l5.2,8.6l9.8,11.5
		l24.1,24.7l5.7,9.2l-1.7,10.3l-48.8,64.3l-36.8-56.9l31-30.4l-0.6-25.3l-16.7-14.4l-89-0.6L322.2,99l1.1,73l-14.9,0.6l-21.3-32.7
		c0,0-25.3,4.6-24.7,4c0.6-0.6-16.7-4.6-16.7-4.6l-12.1-16.1l-2.9-25.9l10.3-20.1l21.3-5.7l20.1-0.6l5.7,2.9l10.9-21.8l-17.8-8.6
		l-23.6,2.9l-35.6,13.8l-18.4,25.3l-3.4,31.6l-12.1-2.9l-20.7-13.2l-41.9-2.9l-41.9-5.7l-6.3-14.9L89,62.8l46-2.9l27,1.1l21.3-28.1
		L190.1,15.6z"/>
	<g>
		<defs>
			<path id="SVGID_9_" d="M978.3,33.7c-1.5,0.3-3.1,0.4-4.7,0.5c-2.3,0.1-4.5,0.1-6.8,0.2c-4.5,0.3-8.9,0.7-13.3,0.9
				c-4,0.2-8.1,0.1-12.1,0.2c-1.7,0-3.4,0.3-5.1,0.3c-3.9,0-7.8-0.1-11.7-0.1c-3.3,0-6.6,0-10,0.1c-1.8,0.1-3.6,0.4-5.4,0.4
				c-3.6,0-7.1-0.2-10.6-0.4c-2.2-0.1-4.3,0.7-6.5-0.1c-0.9-0.4-2.3-0.4-3.1,0.1c-1,0.5-1.6,0.4-2.4,0c-1.6-0.7-2.7-0.2-3.3,1.5
				c-0.1,0.3-0.4,0.7-0.7,0.8c-1.3,0.6-2.8,1-4.1,1.7c-2.1,1-4.1,2-6.1,3.1c-1.1,0.6-2,1.5-2.9,2.2s-1.7,1.7-2.7,2.2
				c-1.3,0.6-2.1,1.3-2,2.9c0,0.5-0.4,1.1-0.7,1.5c-1,1.4-2.5,2.6-3,4.2c-0.7,2-1,4.1-1.9,6.1c-0.8,1.6-1,3.5-1.3,5.3
				c-0.4,2-0.7,4-0.7,6c0,2.3-0.6,4.7,0.8,7c0.5,0.8,0.7,1.9,0.7,2.8c-0.1,3,1.2,5.6,2.1,8.3c0.4,1.1,1.6,2.1,0.1,3.3
				c-1,0.8-1.8,1.8-2.8,2.5c-1,0.8-2.1,1.4-3.1,2.1c-0.4,0.3-0.8,0.6-1.3,0.8c-2.5,0.9-5.1,1.7-7.6,2.5c-0.8,0.3-1.7,0.5-2.4,0.9
				c-2,1.1-4.2,0.4-6.4,1.1c-3.9,1.3-8.2,1.6-12.4,2.3c-4.5,0.8-9.1,0.6-13.7,0.8c-2.7,0.2-5.5-1-8.3-1.5c-1.9-0.4-3.8-0.9-5.7-1.1
				c-0.5-0.1-1.4,0.5-1.7,1.1c-0.2,0.4,0,1.4,0.4,1.7c1.4,0.8,3,1.5,4.5,2.2c0.7,0.3,1.4,0,1.9,1c0.5,1.1,1.5,2,2.1,3
				c1.5,2.5,3,4.9,4.3,7.5c0.6,1.1,0.9,2.3,1,3.5s-0.2,2.3-0.4,3.5c0,0.3-0.1,0.8-0.3,1c-1.2,1.3-2.3,2.7-3.8,3.6
				c-3.3,2.1-6.9,2.9-10.7,1.8c-3.6-1.1-7.7-1.3-10.1-5c-0.1-0.1-0.3-0.1-0.4-0.2c-1.4-1.1-3.1-1.7-3.9-3.5c-0.7-1.5-1.7-3-3.7-3.4
				c-0.6-0.1-1.1-1.3-1.5-2.1c-0.7-1.4-1.2-2.8-1.9-4.2c-0.4-0.7-1.1-1.3-1.4-2c-0.6-2.1-1.2-4.2-1.4-6.4c-0.2-2.5-0.9-4.9-2.2-7.1
				c-0.2-0.3-0.4-0.8-0.4-1.1c0-2.8,1-5.6-0.1-8.4c0-0.1,0-0.2,0-0.3c0.4-1.3,0.7-2.7,1.3-4c1-2.2,2.1-4.2,2.2-6.7
				c0-0.4,0.3-0.9,0.5-1.3c1.7-2.3,3.3-4.7,5.2-6.7c1.8-1.9,2.9-4.5,5.6-5.5c1.3-0.5,2.6-1,3.8-1.7c2-1,3.9-2.2,6-3.2
				c0.8-0.4,1.8-0.4,2.7-0.6c1.2-0.2,2.3-0.2,3.5-0.4c1.4-0.2,2.8-0.6,4.1-0.5c2.1,0.2,4.2,0.9,6.3,1.3c2.5,0.4,4.5,1.9,6.2,3.5
				c1,0.9,1.3,2.4,2.2,3.5c1.1,1.4,1.4,2.9,1.7,4.6c0.2,1,1.3,1.9,2.2,2.5c0.3,0.2,1.6-1,2.1-1.8c0.7-1.1,0.7-2.6,2-3.4
				c0.2-0.1,0.2-0.7,0.3-1.1s0-1,0.2-1.3c1.2-2.3,2.5-4.7,3.7-7c0.5-0.9,1.1-1.8,1.6-2.7c2.6-4.2,5.2-8.6,9.1-11.9
				c1.9-1.6,3.4-3.8,6-4.6c0.8-0.2,1.4-0.9,2-1.4c0.8-0.6,1.5-1.3,2.4-1.6c1.5-0.5,3-0.9,3-2.4c1.1,0,2.1,0.3,2.9,0
				c0.4-0.1,0.5-1.1,0.8-1.7c-3-0.4-5.6-0.9-8.3-1.1c-1.4-0.1-2.9,0.4-4.4,0.7c-1,0.2-1.9,0.6-2.8,0.7c-2.1,0.1-4.1,0.1-6.2,0.1
				c-1.5,0-3,0.1-4.5,0.2c-1.7,0-3.5,0-5.3,0.1c-1,0-1.9,0.1-2.9,0.1c-2.4,0-4.8-0.2-7.2-0.1c-3,0.1-6.1,0.5-9.1,0.5
				c-4.4,0.1-8.7-0.2-13.1,0c-2.9,0.1-5.8,1.1-8.7,1.3c-5.3,0.3-10.1,2.3-14.9,4.1c-3.5,1.3-6.8,3.2-10.2,4.8
				c-0.8,0.4-1.6,0.7-2.3,1.2c-1,0.7-1.7,1.8-2.8,2.4c-2.3,1.3-4.3,2.7-6,4.7c-1.4,1.8-3.5,3-4.8,5c-1.1,1.7-3,2.8-3.9,4.6
				c-1.4,2.7-4.6,4.3-4.7,7.7c0,0.2-0.3,0.4-0.4,0.7c-1.3,2.7-3.5,4.9-3.8,8.1c-0.1,1-0.7,1.9-0.9,2.8c-0.5,2.3-1,4.5-1.5,6.8
				c-0.1,0.5-0.4,1-0.5,1.5c-0.1,0-0.3-0.1-0.4-0.1c0-1.1,0.1-2.3,0-3.4c-0.3-4.9-0.6-9.8-0.9-14.6c0-0.4,0.1-0.7,0.1-1.1
				c0.1-2.9,0.8-5.7,0.1-8.6c-0.6-2.6-0.1-5.2,0.6-7.8c0.9-3.2,1.3-6.5,2.2-9.7c0.6-2.2,2-3.7,4.3-4.5c1.8-0.6,3.5-1.7,5.3-2.5
				c1-0.5,0.2-1.3,0.5-1.9c-0.5-0.1-0.9-0.3-1.4-0.4c-1.7-0.4-3.5-0.1-5.1-1.1c-0.7-0.5-1.8-0.8-2.4,0.6c-0.2,0.4-1.1,0.7-1.7,0.8
				c-3.6,0.6-7.3-0.4-10.9,0.8c-0.2,0.1-0.4,0-0.6,0c-2.7-0.1-5.3-0.3-8-0.4c-0.3,0-0.7,0.1-1.1,0.2c-1.9,0.4-3.9,0.7-5.8,1.1
				c-0.1,0-0.2-0.1-0.3-0.1c-2.4-0.7-4.8-1.2-7.4-0.7c-1.7,0.3-3.4,0.2-5.1,0.2c-1.6,0-3.3-0.2-4.9-0.3c-0.9,0-1.8,0.1-2.6,0.2
				c0.2,0.7,0.3,1.3,0.4,1.8c0.6,0.2,1.2,0.3,1.8,0.5c2.3,1,4.7,2.2,5.6,4.6c1.1,2.8,1.5,5.9,1.6,8.9c0,1.3,0.1,2.7,0.1,4
				c-0.1,1.8-0.4,3.5-0.3,5.3c0.1,2.1,0.6,4.2,0.8,6.3c0.1,1,0,2.2-0.6,2.9c-0.6,0.8-0.7,1.2-0.4,2c1.4,3.7,0.3,7.4,0.2,11.2
				c-1.6-1.8-3-3.7-4.3-5.6c-0.9-1.3-1.5-2.9-2.7-4c-3.4-3.2-6-6.9-8.5-10.8c-2-3-4.4-5.8-6.6-8.7c-2.3-3.2-4.5-6.4-6.7-9.7
				c-0.5-0.7-1-1.3-1.5-2c-0.6-0.8-0.6-1.5,0.1-2.2c0.9-1,1.6-2.1,2.9-2.6c1.2-0.5,1.3-1.6,0.4-2.1c-0.8-0.4-1.7-0.7-2.5-0.7
				c-3.5,0.2-7.1,0.6-10.6,1c-2.2,0.2-4.3,0.4-6.5,0.5c-2.5,0.1-5,0.1-7.5,0.1c-3.1,0-6.3-0.1-9.4-0.1c-1.1,0-2.2,0.4-3.3,0.7
				c-0.8,0.2-1.5,0.6-2.1-0.5c-0.2-0.3-0.9-0.4-1.4-0.4c-2.5,0-5,0-7.4,0.3c-2.2,0.3-4.2,0.2-6.4-0.5s-4.7-0.4-7-0.3
				c-2.7,0.1-5.3,0.6-8,0.7c-1.8,0.1-3.5,0.1-5.3,0.1c-2.4-0.1-4.7-0.2-7.1-0.4c-0.5,0-0.9-0.1-1.4-0.1c-2.3,0.1-4.5,0.3-6.8,0.3
				c-3.2,0-6.4-0.3-9.6-0.3c-5.1,0-10.2,0.3-15.4,0.4c-4.7,0.1-9.3,0.2-14,0.3c-2.4,0.1-4.9,0.3-7.3,0.3c-2,0-4-0.1-6.1,0
				c-0.6,0-1.2,0.5-1.8,0.7c0.5,0.7,0.8,1.6,1.5,2c0.8,0.5,1.9,0.7,2.8,0.9c3,0.6,4.8,3.3,4.1,6.3c-0.2,1-0.7,2-1.2,2.9
				c-1.3,2.5-2.9,4.8-4.8,6.9c-2.4,2.6-4.4,5.6-6.5,8.5c-1.6,2.2-3.1,4.4-4.5,6.7c-1.2,2-3,2.1-4.6,0.4c-0.8-0.9-1.9-1.7-2.9-2.5
				c-1-0.9-2.2-1.7-3.1-2.7c-2.6-2.8-4.2-6.4-7.9-8.2c-0.1-0.1-0.2-0.2-0.3-0.3c-1.5-1.8-2.8-3.6-4.4-5.3c-1.8-2-3.8-3.8-5.6-5.8
				c-0.7-0.8-1.4-1.7-1.9-2.6c-0.8-1.4,0.2-4.6,1.6-5s1.5-1.4,2.1-2.6c-1-0.1-1.7-0.2-2.4-0.2c-1,0-2.1,0.4-2.9,0.1
				c-2.4-0.8-4.7,0.1-7,0c-0.5,0-1-0.1-1.5-0.1c-0.8,0.1-1.7,0.3-2.5,0.3c-1.1,0-2.2-0.2-3.4-0.2c-2.6,0-5.1,0.2-7.7,0.1
				c-4.3,0-8.5-0.2-12.8-0.2c-3.3,0-6.6,0.3-9.9,0.5c-0.5,0-1-0.2-1.5-0.3c-1-0.1-2-0.1-3-0.1c-0.6,0-1.1,0.3-1.7,0.4
				c-2.4,0.1-4.7,0.2-7.1,0.1c-1.3,0-1.9,0.4-1.7,1.7c0.1,0.3,0,0.6-0.1,1c-1.1-0.2-2.1-0.4-3.1-0.7c-3.3-1.3-7.2-0.5-10.3-2.6
				c-0.2-0.1-0.4-0.1-0.6-0.1c-3.6,0-7.3,0.1-10.9,0.1c-5.2,0-10.5,0-15.7,0c-3.1,0-6.2-0.2-9.3-0.1c-3.8,0.2-7.6,0.6-11.5,0.5
				c-6.3-0.2-12.6,0.2-19,0.2c-4.8,0-9.6-0.1-14.4-0.1c-2.5,0-5,0.5-7.5,0.6c-3.1,0-6.2-0.2-9.3-0.2c-5.2,0-10.3,0-15.5,0
				c-2.9,0-5.8,0.1-8.7,0c-2.1-0.1-4.1-0.6-6.2-0.5c-3.3,0.1-6.5,0.4-9.8,0.6c-1.4,0.1-2.9-0.1-4.4,0c-2.9,0.1-5.8,0.2-8.6,0.5
				c-1.4,0.1-2.7,0.6-4.1,1c-1.3,0.4-2.7,0.6-4,1.1c-2.8,1.1-5.6,2.3-8.4,3.4c-1.4,0.5-3.1,0.6-4.4,1.3c-3.5,1.9-6.3,5-9.9,6.8
				c-0.1,0.1-0.3,0.2-0.3,0.3c-0.2,1.5-1.5,1.8-2.4,2.6c-2.3,2-4.5,4.2-6.7,6.3c-0.1,0.1-0.2,0.4-0.3,0.5c-1.4,2.4-2.8,4.8-4.3,7.2
				c-1.4,2.2-3.1,4.3-4.1,6.7c-1.2,2.6-1.7,5.5-2.6,8.3c-0.1,0.3-0.3,0.7-0.4,1c-0.8,2-2,4-2.3,6.1c-0.4,3.3-0.2,6.7-0.3,10
				c0,2.8,0,5.7-0.1,8.5c0,0.4-0.2,0.8-0.3,1.1c-1.1-1-2.3-1.9-3.3-2.9c-1.5-1.4-2.7-3.2-4.3-4.4c-2.5-1.8-5.4-3.3-8.1-4.8
				c-1.5-0.9-3.1-1.7-4.7-2.4c-2-0.9-4.1-1.7-6.1-2.5c-0.4-0.2-0.8-0.4-1.2-0.4c-5.1-0.7-10.2-1.4-15.3-2c-1.1-0.1-2.4,0.6-3.3,0.1
				c-2.1-1-4.1,0-6.1-0.2c-3.6-0.3-7.3,0-11-0.1c-1.8,0-3.5-0.3-5.3-0.4c-3.8-0.1-7.6-0.2-11.5-0.3c-2.8-0.1-5.7,0-8.5-0.1
				c-3-0.1-6.3,0.4-8.8-2c-0.2-0.2-0.5-0.2-0.7-0.3c-2-0.4-4-0.7-5.9-1.4c-1.2-0.4-2.5-1.1-3.4-1.9c-0.8-0.8-1-2.3-1.9-3.2
				c-1-1-1.3-2-1.3-3.3c0-1.1-0.3-2.3-0.2-3.4c0.2-1.7,0.2-3.7,1-5.1c1.8-3,4.7-5.1,7.9-6.7c0.8-0.4,1.9-0.3,2.8-0.4s1.9,0,2.8-0.1
				c1.9-0.2,4-1.1,5.8-0.7c3.1,0.7,5.9-0.4,8.9-0.2c2.4,0.2,4.9-0.2,7.3-0.2c5,0,9.9,0.4,14.9,0.1c4-0.3,7.9,0.1,11.9,0.2
				c1.1,0,2.3,0.1,3.3,0.4c1.6,0.6,3.1,1.5,4.7,2.3c0.9,0.4,1.8,0.8,2.6,1.3c2,1.6,4.5,2.5,5.8,4.9c0.1,0.1,0.3,0.2,0.4,0.2
				c1.7,0.2,2.2,1.7,3.2,2.7c0.6,0.5,1.4,0.9,2.1,1.3c0.2-0.8,0.6-1.6,0.7-2.4c0.1-1.1-0.3-2.2-0.2-3.4c0.1-3.8,0.9-7.4,2.3-10.9
				c1.5-3.8,3-7.6,4.7-11.3c0.9-2.1,2.3-3.9,3.3-6c2.5-5.5,5.8-10.4,9.6-15c0.7-0.9,1.7-1.7,2.5-2.5c1.2-1.3,2.3-2.8,3.6-4
				c3.1-2.6,6.3-5.1,9.4-7.7c0.2-0.2,0.5-0.5,0.7-0.5c2.1-0.7,4-2.1,6.3-2.2c0.1,0,0.4,0,0.4-0.1c0.4-0.5,1-0.9,1-1.4
				c0-0.4-0.6-0.9-1-1.2c-0.5-0.3-1.1-0.5-1.6-0.5c-2.1-0.1-4.1-0.2-6.2-0.1c-4.5,0.1-9,0.3-13.5,0.4c-0.4,0-0.7,0.1-1.1,0.1
				c-2.6,0.2-5.2,0.5-7.7,0.6c-2.2,0.1-4.4-0.3-6.6-0.2c-3.2,0.1-6.4,0.4-9.6,0.4c-4.7,0.1-9.4-0.1-14.1,0
				c-5.4,0.1-10.8,0.3-16.2,0.6c-0.7,0-1.3,0.4-1.9,0.3c-2.1-0.1-4.2-0.4-6.3-0.4c-2.4-0.1-4.7-0.1-7.1,0c-2,0-3.9,0.2-5.9,0.3
				c-1.7,0-3.4-0.1-5.1-0.1c-2.5,0-5,0.1-7.4,0.2c-2.2,0.1-4.5,0.3-6.7,0.5c-0.2,0-0.4,0-0.6,0c-1-0.2-2-0.4-3.4-0.6
				c-0.6-0.1-1.6-0.7-2.4-0.5c-1.8,0.4-3.5,0.8-5.5,0.5c-1.9-0.3-4,0.5-5.9,1c-2.9,0.7-5.8,1.5-8.7,2.2c-0.4,0.1-0.7,0.4-1,0.6
				c-0.5,0.3-1,0.9-1.5,1c-1.2,0.3-2.3,0.4-3,1.7c-0.3,0.5-1.1,1-1.7,1.1c-2.4,0.2-3.7,2.2-5.6,3.3c-2.5,1.4-4.1,4.1-6.7,5.6
				c-1.5,0.9-2.7,2.2-4,3.4c-1.4,1.3-3.4,2.4-4.1,4c-1.5,3.2-3.9,5.7-6,8.4c-1.8,2.5-3.6,4.9-4,8.1c0,0.4-0.3,0.8-0.5,1.1
				c-1.3,1.5-2,3.2-2.2,5.2c0,0.4-0.3,0.8-0.5,1.1c-0.8,2.1-1.8,4.2-1.5,6.6c0.1,0.7-0.4,1.5-0.6,2.2c-0.4,1.4-0.9,2.7-1.3,4.1
				c-0.3,1.1-0.4,2.3-0.4,3.4c0,2.4-1.2,4.8,0,7.2c0.1,0.3,0.1,0.6,0.1,0.9c0.1,2.3,0.2,4.6,0.3,6.9c0,0.3,0.1,0.6,0.2,0.9
				c0.4,1.3,0.9,2.6,1.3,3.9c0.4,1.3,0.6,2.7,0.8,4.1c0.4,2.7,1.8,5,3.1,7.3c0.7,1.1,0.9,2.5,1.5,3.7c0.6,1.3,1.3,2.5,2.1,3.6
				c0.7,1.1,1.7,2,2.5,3c2.4,3,4.5,6.2,7.2,8.8c2.9,2.9,6.3,5.3,9.6,7.7c1.6,1.2,3.6,1.9,5.4,2.8c2.1,1.1,4.2,2.3,6.4,3.1
				c2.7,1,5.5,1.9,8.2,2.6c4,1,8.1,2,12.2,2.4c4.1,0.5,8.3,0.7,12.4,0.5c5.7-0.3,11.5-0.4,17.2-1.5c0.1,0,0.3,0,0.5,0
				c0.8,0,1.7,0,2.5-0.1c0.5,0,0.9-0.1,1.4,0c3.4,0.8,6.9,0.8,10.3,0.5c3.9-0.4,7.7-0.7,11.5,0.3c0.5,0.1,1.1,0.2,1.5,0.2
				c3.6-0.6,6.6,0.7,9.5,2.6c2.1,1.4,3.5,3.3,3.4,6c0,1,0.1,2,0.1,2.9c0,0.4-0.3,1-0.6,1.2c-2.4,1.5-5,2.7-7.3,4.3
				c-1.9,1.3-3.9,1.8-6.2,1.5c-0.8-0.1-1.5,0-2.3,0.1c-1.2,0.2-2.6,0.9-3.6,0.5c-1.8-0.7-3.3-0.3-5,0c-1.6,0.2-3.1,0.3-4.7,0.5
				c-1.2,0.1-2.3,0.1-3.5,0.1c-0.8,0.1-1.5,0.2-2.3,0.4c-0.5,0.1-1.1,0.4-1.6,0.6c-0.9-0.2-2-0.6-3-0.8c-1.1-0.1-2.2,0.2-3.2,0
				c-1.8-0.4-3.5-0.6-5.3-0.2c-1.5,0.3-3.1,0.1-4.6,0.1c-1.1,0-2.3-0.1-3.4-0.1c-1.9,0-3.9,0.3-5.8,0.1c-2.9-0.2-5.9-0.6-8.8-1
				c-0.9-0.1-1.8-0.7-2.6-1.2c-1.1-0.7-2.2-1.5-3.3-2.2c-1.1-0.7-2.4-1.2-3.5-1.9c-1.8-1.2-3.1-3.1-5.2-3.9
				c-0.5-0.2-1.1-0.3-1.6-0.2c-0.2,0-0.5,0.7-0.4,1c0.4,2.9-0.7,5.6-1.3,8.4c-0.3,1.4-1.2,2.6-1.7,4c-0.6,1.4-1.2,2.8-1.9,4.6
				c-1.3,0.3-1.5,2.1-2.2,3.5s-1.1,2.9-1.8,4.2c-1.2,2-2.5,3.9-3.8,5.9c-0.2,0.2-0.4,0.4-0.7,0.6c-0.8,0.6-1.7,1.2-2.3,1.9
				c-1.3,1.6-2.4,3.4-3.6,5c-2.5,3.5-5.7,6.3-9.1,8.8c-2.4,1.8-4.9,3.4-7.4,5.1c-0.3,0.2-0.5,0.3-0.8,0.5c-2.6,1.5-4.9,3.7-7.9,4.4
				c-0.3,0.1-0.5,0.4-0.8,0.5c-0.5,0.2-1.1,0.6-1.6,0.6c-2.1-0.3-3.4,1.2-4.9,2.2c-0.2,0.2-0.2,1.2,0,1.3c0.9,0.5,1.8,1.1,2.8,1.1
				c1.5,0.1,3.1-0.3,4.6-0.5c2.8-0.3,5.7-0.8,8.5-1c3.3-0.2,6.5-0.1,9.8-0.1c6.4,0,12.9,0,19.3,0c4.8,0,9.7-0.1,14.5-0.2
				c5.4-0.1,10.9-0.2,16.3-0.4c1.5,0,3-0.2,4.5-0.2c3.6,0.1,7.2,0.4,10.8,0.5c4.6,0.1,9.1-0.1,13.7-0.1c5.5-0.1,11.1-0.2,16.6-0.3
				c1.4,0,2.9,0.2,4.3,0.3c2.8,0.1,5.6,0,8.4,0c1.2,0,2.4,0.1,3.6-0.1c1.9-0.3,3.8-0.9,5.7-1.3c1.6-0.3,3.2-0.3,4.8-0.7
				c2.7-0.7,5.3-1.5,8-2.3c1.9-0.6,3.7-1.2,5.6-1.9c0.4-0.2,1-0.4,1.1-0.8c0.4-1.5,1.7-1.5,2.8-1.8c1-0.3,2.1-0.7,2.9-1.4
				c1.8-1.5,3.5-3.1,5.2-4.7c1.7-1.6,3.6-3.2,4.9-5.1c1.7-2.5,3.5-5,5.2-7.5c1-1.5,1.7-3.5,1.6-5.3c-0.2-2,0.6-3,1.8-4.2
				c0.4-0.4,0.7-1.1,0.8-1.6c0.2-2.1,2.1-3.9,1.2-6.3c-0.1-0.1,0.2-0.4,0.2-0.6c0.3-0.9,0.5-1.8,0.8-2.6c0.5-1.9,1.1-3.8,1.6-5.7
				c0.2-0.6,0.6-1.4,0.3-1.8c-1.2-1.7-1.1-3.7-1.2-5.5c-0.2-2.1,0.7-4.3,1.1-6.5c0.1,0.1,0.3,0.1,0.4,0.3c1.9,2,3.8,4,5.7,5.9
				c0.8,0.8,2,1.3,2.3,2.2c0.5,1.3,1.2,2.1,2.3,2.8c1.3,0.8,2.5,1.8,3.8,2.6c0.9,0.5,1.9,0.8,2.9,1.3c0.5,0.3,1,0.7,1.5,1.1
				c0.9,0.8,1.6,1.9,2.6,2.6c1.1,0.8,2.5,1.1,3.7,1.8c1.6,0.9,3.1,2.1,4.7,2.8c2.8,1.2,5.1,3.4,8.4,3.3c0.4,0,0.8,0.4,1.2,0.6
				c1.5,0.7,3,1.8,4.6,2.1c1.9,0.4,3.9,0.3,5.9,0.3c4.2,0,8.3,0,12.5-0.3c5.5-0.3,11.1,1.1,16.5-0.7c1-0.3,1.1,0.5,1.8,0.5
				c1.3-0.1,2.7,0.1,4,0.1c3.8,0.1,7.6,0.3,11.4,0.2c4.8-0.1,9.6-0.4,14.4-0.4c6.1,0,12.1,0.3,18.2,0.2c2.3,0,4.8,0.6,7-0.8
				c0.3-0.2,0.9,0.1,1.3,0.3c0.7,0.2,1.3,0.7,1.9,0.7c4.6,0,9.2,0,13.9-0.1c0.7,0,1.4-0.2,1.9-0.5c0.4-0.2,0.9-0.9,0.8-1.2
				c-0.2-0.6-0.8-1.5-1.2-1.5c-4.2,0.1-6.2-3-7.5-5.9c-1.3-3-1.5-6.6-1.7-9.9c-0.1-1.8,0.1-3.7-0.1-5.6c-0.5-3.9-0.1-7.9-0.1-11.8
				c0-2.7,0-5.5,0-8.2c0-1.3-0.3-2.7-0.2-4c0.1-3.9,1.4-7.9-0.1-11.8c-0.2-0.4-0.1-0.9-0.2-1.4c-0.1-3.7-0.1-7.3-0.1-11
				c-0.1-5.9-0.1-11.8-0.1-17.8c0-3.3,0-6.6,0-10.1c0.8-0.2,1.5-0.5,2.3-0.6c2-0.2,4.1-0.3,6.1-0.4c3.4-0.1,6.7-0.3,10.1-0.3
				c1.1,0,2.2,0.3,3.2,0.3c3.2,0,6.3-0.2,9.5-0.2c1.2,0,2.4,0.2,3.6,0.2c0.9,0,1.8-0.1,2.7-0.2c0.6,0,1.6-0.4,1.8-0.1
				c0.9,1.3,2.4,1.1,3.6,1.5c1.3,0.4,2.6,1.9,2.3,2.8c-0.7,1.7-1.3,3.4-2.9,4.7c-2.1,1.6-3.9,3.6-5.8,5.4c-0.5,0.5-0.8,1.4-1.4,1.8
				c-2.2,1.8-4.7,3.3-6.6,5.6c-0.8,1-2.2,1.5-2.7,2.8c0,0.1-0.3,0.3-0.4,0.2c-1.7-0.5-2.6,0.9-3.5,1.7c-3.2,2.7-6.5,5.2-10.4,6.6
				c-0.3,0.1-0.7,0.3-1,0.3c-1.8-0.3-1.9-0.3-1.6,1.6c0.1,0.6,0.4,1.1,0.8,1.6c1.4,1.9,2.9,3.7,4.2,5.7c3.1,4.9,6,9.8,9.1,14.7
				c2.5,4.1,5.1,8.3,7.7,12.4c0.9,1.4,1.9,2.7,2.7,4.1c1.2,2.1,2.3,4.3,3.3,6.4c0.6,1.3,2.2,2.1,2,3.9c0,0.2,0.2,0.5,0.4,0.7
				c0.9,1.1,2,2,2.7,3.2c1,1.7,2,3.5,2.5,5.5c0.5,1.7,0.5,3.5,0.6,5.2c0,0.9-0.3,1.9-0.3,2.8c0,0.6,0,1.3,0.4,1.7
				c0.5,0.6,1.2,1,1.9,1.4c1.1,0.5,2.2,0.9,3.3,1.4c0.9,0.4,1.8,1,2.7,1.4c1.8,0.9,3.7,1.7,5.5,2.6c2.4,1.3,4.8,2.6,7.2,4
				c0.3,0.2,0.6,0.6,0.6,0.9c-0.4,2.7-1.5,4.9-3.9,6.4c0.4,0.9-1.1,3.5-2.3,3.5c-1.4,0-1.3,0.8-1.4,1.7c-0.1,1-0.2,2-1.7,1.8
				c-0.4,0-1.3,0.4-1.4,0.8c-0.3,1.7-1.8,2.2-2.9,3.2c-0.8,0.7-1.4,1.5-2,2.3c-1.7,2-3.4,4-5,6.1c-1.2,1.4-2.4,2.8-3.4,4.4
				c-0.3,0.5,0.1,1.8,0.6,2.4c0.2,0.3,1.5,0.1,2-0.2c1.8-1.3,3.4-2.8,5-4.2c1.8-1.5,3.5-3,5.5-4.3c3.7-2.4,7-5.4,11.1-7.4
				c3.9-1.9,7.6-4.1,11.3-6.2c0.4-0.2,0.9-0.4,1-0.7c0.9-1.8,2.9-1.8,4.4-2.3c0.9-0.3,2.6-0.3,2.9,0.2c0.7,1.3,1.9,1.4,2.9,1.9
				c0.7,0.3,1.4,0.4,2.2,0.6c0.9,0.8,2,1.4,3.1,2c0.9,0.5,2,0.9,2.9,1.4c3.6,2.3,7.2,4.7,10.9,6.9c0.5,0.3,1.3,0.3,2,0.4
				c0-0.7,0.3-1.6,0-2.1c-1-1.5-2.3-2.9-3.4-4.4c-0.6-0.7-1-1.6-1.5-2.4c-2-3.3-4-6.5-6-9.8c-0.2-0.4-0.3-1.2,0-1.4
				c1-0.9,2.1-1.9,3.3-2.5c2.2-1.2,4.5-2.2,6.7-3.1c3.2-1.4,6.3-2.8,9.6-4c2.4-0.9,4.8-1.5,7.2-2.3c2-0.7,3.9-1.4,5.8-2.1
				c-0.4-1.6-0.9-2.4-2.3-2.6c-0.5-0.1-0.9-0.9-1.3-1.4c-0.3-0.5-0.4-1.1-0.7-1.5c-0.8-1-1-2.1-0.5-3.2c1.3-2.7,2.5-5.5,4-8.1
				c1.8-3.1,3.8-6.1,5.8-9.1c2.6-3.8,5.1-7.7,7.8-11.4c2.3-3.2,4.7-6.2,7-9.3c2.6-3.5,5.1-7.1,7.7-10.6c2.8-3.9,5.7-7.8,8.6-11.7
				c2.5-3.4,4.9-6.8,7.3-10.2c0.3-0.5,0.8-0.8,1.1-1.3c1.6-2.3,3.1-4.7,4.8-7.1c2.9-4,5.8-7.9,8.7-11.9c2.9-4.1,5.7-8.4,8.6-12.5
				c1.7-2.4,3.7-4.7,5.5-7.1c1.5-2,2.8-4.1,4.2-6.2c0.8-1.1,1.7-2.1,2.9-3.6c0.5,1.3,1.1,2.2,1.2,3.2c0.2,1.4,0.2,2.9,0,4.3
				c-0.7,4.8,1.5,9.6,0.3,14.4c0,0,0,0.1,0,0.2c0.1,3.2,0.3,6.3,0.4,9.5c0,0.8,0.2,1.7,0.2,2.5c0,2.1-0.3,4.1-0.3,6.2
				c0,3,0.2,6,0.3,8.9c0.1,4,0.1,8,0.1,12c0,2.8,0.2,5.7,0.1,8.5c0,3.5-0.4,6.9-0.3,10.4c0,3.6,0.3,7.2,0.4,10.8
				c0.1,3.9-0.1,7.7,0,11.6c0,0.7,0.3,1.4,0.4,1.9c-0.2,0.4-0.5,0.8-0.5,1.2c-0.3,3.2-0.9,6.3-2.4,9.1c-0.5,0.9-1.2,1.8-1.8,2.7
				c-0.7,0.9-1.6,1.8-2.2,2.8c-1.7,2.7-4.5,3.8-7.2,5.2c-0.7,0.4-1.5,1.2-1.7,1.9c-0.2,0.5,0.5,1.4,1,1.9c1,0.9,2.2,0.8,3.4,0.4
				c0.8-0.3,1.6-0.6,2.4-0.7c3.6-0.2,7.2-0.3,10.7-0.5c2.3-0.1,4.6-0.4,6.8-0.4c1.5,0,3-1,4.5-0.2c0.2,0.1,0.5,0,0.8,0
				c2.5,0.1,4.9,0.2,7.4,0.3c4.1,0.1,8.2,0.1,12.3,0.1c4.6,0,9.2-0.2,13.9-0.3c3.3-0.1,6.7-0.2,10-0.1c4.2,0.1,8.5,0.8,12.7,0
				c0.6-0.1,1.1-0.4,1.5-0.6c0.7,0.2,1.3,0.6,2,0.6c2.9,0.1,5.8,0.2,8.7,0.3c1.6,0.1,3.3,0.2,4.9,0.1c0.7,0,1.8-0.2,2.2-0.7
				s0.5-1.7,0.3-2.3c-0.2-0.5-1.2-0.8-1.9-0.9c-1.2-0.2-2.5-0.1-3.7-0.4c-2.6-0.6-4.4-3.4-4.6-6.1c-0.1-2-1-3.9-1.1-5.9
				c-0.3-4.7-0.4-9.5-0.4-14.2c0-2.2-0.4-4.4-0.2-6.7c0.3-3.1-0.3-6.3-0.3-9.5c0-1.4-0.8-3,0.3-4.3c0.2-0.2-0.1-0.7-0.1-1
				c-0.1-1.6-0.4-3.1-0.3-4.7c0.1-1.6-1.4-2.8-0.8-4.4c0.2-0.6,0.6-1.3,0.5-1.9c-0.2-2.8,0.6-5.6-0.5-8.3c-0.1-0.3,0-0.8,0.1-1.2
				c0.1-0.8,0.3-1.5,0.3-2.3c0-2.1-0.1-4.2-0.3-6.2c0-0.5-0.5-1-0.6-1.5c-0.1-0.4-0.3-0.9-0.2-1.2c0.2-0.7,0.8-1.4,0.8-2
				c0.1-1.6-0.2-3.2-0.2-4.8c0-0.6,0.5-1.2,0.8-1.8c0.6,0.4,1.3,0.7,1.8,1.2c0.7,0.7,1.1,1.6,1.8,2.3c1.5,1.7,3.1,3.2,4.5,4.9
				c1.7,2.1,3.2,4.4,4.9,6.6c1.1,1.4,2.5,2.7,3.3,4.2c0.9,1.7,1.7,3.2,3.1,4.6c2.4,2.3,4.2,5.3,6.2,8c0.5,0.7,0.9,1.5,1.4,2.2
				c0.9,1.6,1.8,3.2,2.8,4.7c2.5,3.5,5.1,7,7.6,10.5c2.2,3.2,4.5,6.4,6.4,9.8c1.1,1.9,2,4.1,2.1,6.2c0.3,4.7,0,9.5,0,14.2
				c0,0.6,0.1,1.4-0.3,1.7c-2,1.9-3.1,4.9-6.2,5.5c-1.3,0.3-1.9,1.2-1.5,2.6c0.1,0.4,0.2,0.9,0.3,1.3c1.5,0.6,3,1,4.3,1.8
				c2.1,1.3,4,2.8,6,4.2c2.5,1.8,5.1,3.7,7.6,5.6c1.4,1,2.9,1.9,4.2,2.9c1.3,1.1,2.3,2.5,3.6,3.5c2.4,1.9,4.9,3.7,7.4,5.6
				c2.3,1.7,4.7,3.4,7,5.1c1.4,1,2.6,2.2,3.9,3.3c2,1.6,3.8,3.4,6,4.6c1.3,0.7,2.2,1.5,2.5,2.8c0.2,1,0.8,1.4,1.8,1.3
				c0.5,0,1.3-0.2,1.3-0.5c0.1-0.8,0.3-2.2-0.1-2.5c-1.4-0.9-1.4-2.4-2-3.7c-1.7-3.5-2.9-7.1-3.6-10.9c-0.7-3.8-1.7-7.5-2.5-11.2
				c-0.6-3.3-1.1-6.6-1.6-9.8c-0.2-1,0.2-1.3,1.2-1.4c1.5-0.1,1.9-0.8,0.9-2c-0.6-0.7-1.4-1.3-2.3-1.9c-0.2-1.6-0.5-3.4-0.8-5.3
				c-0.3-2-0.9-3.9-1-5.9c-0.2-4.4-0.1-8.7-0.3-13.1c-0.1-5.7-0.4-11.3-0.5-17c-0.1-3.5-0.1-6.9-0.2-10.4c0-3.1,0-6.2,0-9.6
				c0.6,2.3,1.1,4.3,1.6,6.2c0.3,1,0.5,2.1,0.7,3.2c0.2,0.9,0.3,1.7,0.6,2.6c0.1,0.5,0.5,1.1,0.5,1.6c0,1.6,0.3,3.1,1.3,4.4
				c0.3,0.3,0.3,0.8,0.4,1.3c0.2,0.8,0.2,1.8,0.6,2.5c1.3,2.3,2.9,4.3,3.8,6.9c0.7,2.1,2.3,3.9,3.6,5.8c0.5,0.8,1.1,1.6,1.7,2.4
				c1.6,2.2,3.3,4.3,5,6.5c0.2,0.3,0.3,0.7,0.6,0.9c0.6,0.6,1.1,1.3,1.8,1.8c1.8,1.5,3.9,2.8,5.4,4.5c1.6,1.9,3.6,3.3,5.7,4.1
				c3.6,1.5,6.9,3.9,10.9,4.1c0.3,0,0.7,0.3,0.8,0.6c1,2,2.7,2.1,4.6,2c0.7-0.1,1.4,0,2.1,0.2c1.5,0.5,2.9,1.2,4.4,1.6
				c2.3,0.6,4.8-0.2,7.2,0.5c2,0.6,4.2,0.5,6.3,0.7c0.2,0,0.5-0.1,0.8-0.1c1.8-0.3,3.6-0.8,5.3-0.8c4.3,0,8.3-1.3,12.3-2.5
				c2.9-0.8,5.6-2,8.4-3.1c2.4-1,4.9-1.4,7.2-2.9c2.4-1.6,5.4-2.5,7.8-4.3c2.4-1.7,5.2-3,7.1-5.2c2.4-2.9,4.9-5.8,7.4-8.7
				c0.7-0.8,1.3-1.6,1.8-2.5c1.1-1.9,2.2-3.7,3.1-5.7c0.9-1.9,1.6-4,2.3-6c0.6-1.7,0.5-3.8,1.6-5.1c2.2-2.8,1.5-6.3,3-9.2
				c0.1-0.1-0.1-0.3-0.1-0.4c0-2.6,0-5.2,0-7.8c0-2.1-0.1-4.1-0.1-6.2c0-0.9,0.4-1.7,0.6-2.6c1.1,0.8,1.9,1.4,2.7,2
				c0.3,0.2,0.5,0.6,0.8,0.9c0.5,0.6,1,1.2,1.6,1.7c0.5,0.4,1,0.7,1.5,1.1c1.4,1.2,2.8,2.4,4.2,3.5c1.1,0.9,2,2,3.2,2.7s2.6,1,4,1.5
				c2,0.6,4,1,5.9,1.8c1.9,0.9,3.8,1,5.8,1c1.7,0,3.5-0.2,5.1,0.2c1.2,0.3,1.8,0.2,2.2-0.7c0.4,0.4,0.7,1,1,1
				c1.1,0.1,2.3,0.1,3.4,0.1c5.9-0.1,11.8-0.2,17.7-0.2c1.3,0,2.5,0.3,3.8,0.3c2,0.1,3.8,0.8,5.3,2.2c0.2,0.1,0.5,0.1,0.7,0.2
				c0.5,0.2,1.1,0.5,1.6,0.8s0.7,0.9,1.2,1.2c1.6,1,3.2,2.3,3,4.3c-0.1,1.5,2.1,3.7-1.1,4.4v0.1c-0.2,1.8-1.4,2.8-2.9,3.5
				c-2.4,1.2-4.7,2.7-7.2,3.5s-5.2,0.7-7.8,1c-1.2,0.2-2.4,0.5-3.6,0.8c-0.6,0.1-1.2,0.4-1.8,0.3c-2.2-0.3-4.4-0.9-6.7-1.2
				c-3.1-0.4-6.2-0.5-9.2-0.8c-3.9-0.4-7.7-1.4-11.1-3.7c-0.7-0.5-1.7-1.2-1.7-1.9c-0.1-1.9-1.1-1.4-2.2-1.4
				c-0.1,0.8-0.1,1.5-0.2,2.2c-0.2,1.8-0.4,3.7-0.9,5.4c-0.4,1.5-1.3,2.9-1.9,4.4c-1.4,3.8-3.6,7-6.3,9.9c-3.3,3.4-6.7,6.5-10.7,9.2
				c-1.8,1.2-3.4,2.5-5.6,3.2c-2.4,0.8-4.6,2.1-6.8,3.1c-0.5,0.2-1,0.4-1.3,0.8c-0.7,1.1-1.6,1.5-2.9,1.4c-0.7,0-1.4,0.1-2,0.4
				c-0.4,0.3-1,0.9-0.9,1.4c0,0.5,0.7,1,1.2,1.2c0.9,0.4,1.9,0.6,2.8,0.8c0.8,0.2,1.6,0.4,2.4,0.4c3.8-0.2,7.6-0.6,11.5-0.8
				c3.6-0.2,7.1-0.1,10.7-0.1c1.4,0,2.9,0.3,4.3,0.3c3.3,0.2,6.6,0.3,9.9,0.4c1,0,2,0,2.9-0.1c2.1-0.3,4.1-0.8,6.2-0.9
				c3.5-0.1,7.1,0,10.6,0c0.7,0,1.3-0.1,2-0.2c1.5-0.2,3.1-0.5,4.6-0.5c3.9,0.1,7.8,0.5,11.6,0.6c3.9,0.1,7.7-1.1,11.7-0.3
				c1.9,0.3,3.9-0.1,5.9-0.4c1.8-0.3,3.5-1,5.2-1.6c1.5-0.5,2.9-1,4.3-1.7c2-1,4-2.2,5.9-3.4c1.2-0.8,2.5-1.6,3.5-2.6
				c2.9-2.9,5.9-5.9,7.4-9.8c0.9-2.2,2.7-3.9,2.9-6.5c0.1-1.1,0.9-2.2,1.3-3.3c0.3-0.9,0.6-1.8,0.6-2.8c0.1-2.1-0.2-4.3,1.4-6
				c0.3-0.3,0.4-1,0.2-1.4c-0.5-1.1-0.7-2.2-1-3.3c-0.5-1.7,0.2-3.1,0.2-4.6c-0.4-0.6-0.7-1.2-0.8-1.8c-0.5-2.5-0.1-5.3-1.8-7.6
				c-0.6-0.9-0.9-1.9-1.4-2.9c-1.1-2.5-2-5.2-3.4-7.6c-2.7-4.9-6.9-8.6-11.9-11.1c-2.2-1.1-4.5-2.3-7-3c-3.2-0.9-6.5-1.6-9.7-2
				c-3.5-0.5-7-0.5-10.5-0.7c-0.6,0-1.1,0.1-1.7,0.2c-0.8,0.1-1.6,0.3-2.4,0.3c-1.6,0-3.2-0.1-4.8,0c-5.1,0.4-10.1,1.2-15.1-0.6
				c-3.6-1.3-6.9-2.7-8.8-6.3c-0.9-1.8-2.2-3.5-1.3-5.7c0.7-1.5,2.3-2.6,2.1-4.5c0-0.1,0.1-0.2,0.2-0.2c1.2-0.9,2.2-1.9,3.5-2.5
				c2.7-1.3,5.5-2.3,8.6-2.3c1.6,0,3.1,0,4.7-0.2c1.8-0.1,3.6-0.5,5.4-0.5c2.6,0,5.2,0.3,7.7,0.4c0.4,0,0.8,0,1.2,0.1
				c2.6,0.3,5.1,0.6,7.7,1c0.6,0.1,1.2,0.3,1.7,0.7c1.4,1,2.6,2,3.9,3.1c1.5,1.2,3.1,2.3,4.4,3.7c0.9,1,1.9,0.3,2.8,0.5
				c0.3,0.1,1-0.8,1.2-1.3c0.8-2.2,1.3-4.6,2.3-6.7c1-2.2,2.4-4.2,3.6-6.3c0.6-1,1.2-2.1,1.9-3c2.9-3.5,5.9-7,8.9-10.4
				c0.4-0.5,0.8-1,1.3-1.4c2.7-2.3,5.4-4.5,8.1-6.7c0.5-0.4,0.9-1.1,1.4-1.3c1.8-0.7,2.3-0.9,2.3-2c0-0.4,0-0.8-0.1-1.5
				C979.9,33.7,979.4,33.5,978.3,33.7z M321.7,151.9c-1.6,1.9-0.5,4.1-0.7,6.1c-0.1,1.7-0.3,3.4-0.5,5.1c-0.2,1.6-0.7,3.1-0.7,4.7
				c0,1.6-0.4,2.7-2.1,2.9c-0.8-0.3-1.5-0.4-2.2-0.7c-0.5-0.2-0.9-0.5-1.3-0.8c-0.7-0.5-1.3-1-2-1.5c-0.2-0.2-0.6-0.3-0.7-0.6
				c-1.1-2.2-3.2-3.4-4.9-5c-2.7-2.5-5.1-5.3-7.5-8c-2.6-2.9-3.6-6.7-5-10.2c-0.6-1.5-1.4-3-1.9-4.6c-0.3-0.8-0.2-1.7-0.3-2.6
				c-0.1-0.9-0.2-1.9-0.6-2.7c-0.3-0.7-1.1-1.8-1.5-1.7c-0.9,0.2-2.3,0.8-2.5,1.5c-1,2.9-3.7,3.6-5.9,4.7c-3.5,1.7-7.4,2.1-11.2,2.2
				c-2.7,0.1-5.4,0.2-8.1-0.2c-4.2-0.6-8.4-1.4-12.1-3.7c-2.2-1.3-4.1-3-6-4.6c-0.9-0.8-1.4-2.1-2-3.2c-0.1-0.2-0.2-0.5-0.1-0.6
				c1.1-1.7-0.2-2.2-1.3-2.9c-0.5-0.4-1.1-0.8-0.9-1.9c0.2-1,0.2-2.3-1.2-2.9c-0.1,0-0.2-0.2-0.2-0.3c-0.1-0.6,0-1.4-0.3-1.8
				s-1-0.3-1.7-0.5c1.5-1.3,2.1-4.3,1.1-5.8c-1.7-2.2-0.6-4.4-0.3-6.7c0-0.3,0.4-0.7,0.3-1c-0.6-3.2,0.9-5.8,2.2-8.5
				c0.2-0.4,0.5-0.9,0.4-1.3c-0.4-1.7,0.7-2.7,1.4-4s1.3-2.6,1.9-4c0.2-0.4,0.2-0.8,0.5-1.1c2-1.8,4.1-3.7,6.2-5.4
				c0.9-0.7,2.1-1.1,3.2-1.7c1.5-0.7,3.1-1.5,4.6-2.2c1.2-0.5,2.4-0.8,3.6-1.2c1-0.3,1.9-0.7,2.9-0.8c1.1-0.1,2.2-0.1,3.2-0.1
				c1.8,0.1,3.7,0.2,5.4,0.6c3.8,1,7.5,2.3,10.5,5.1c0.2,0.2,0.5,0.6,0.5,1c0.1,2.4,2,3.4,3.7,4.5c1.4,0.9,2.3,0.2,2.4-1.5
				c0.1-1.8,0.3-3.5,1.2-5.2c0.7-1.2,0.3-3,0.7-4.5c0.9-2.9,1.8-5.8,3.2-8.5c1.6-3.1,3.9-5.8,5.5-8.8c1.2-2.5,3.2-4.3,5-6.2
				c2-2.1,4.3-3.9,6.5-5.9c0.9-0.8,1.6-1.7,2.7-2.8c1.7,2.5,3.3,4.5,4.6,6.8c0.6,1.1,1,2.5,1,3.8c0,3.3-0.2,6.5-0.3,9.8
				c-0.1,4.5,0,8.9,0,13.4c0,2.1,0.2,4.1,0.3,6.2c0,2.3-0.1,4.6,0,6.9c0.1,1.9,0.5,3.7,0.7,5.6c0.1,1.1,0,2.2-0.1,3.3
				c0,0.2-0.1,0.5-0.1,0.7c0,2.2-0.1,4.4,0,6.6c0,1,0.2,2,0.3,3c0,1.8,0,3.7,0,5.5c-0.1,3-0.2,6.1-0.2,9.1c0,3.4,0,6.9,0,10.3
				c0,1.2,0.1,2.3,0.1,3.5c0.1,2.8,0.3,5.6,0.1,8.3c-0.1,2,0,3.9,0.5,5.8C321.7,151.4,321.8,151.8,321.7,151.9z M484.2,104.6
				c-1,2.6-2.3,5.1-3.7,7.4c-1.3,2.1-3,3.9-4.5,5.9c-2.4,3.3-4.6,6.7-7,10c-1.5,2.1-3.2,4.1-4.8,6.1c-0.4,0.5-0.9,0.9-1.2,1.4
				c-3.3,4.3-6.5,8.7-9.8,13.1c-2.3,3-4.7,6-7,9c-2.2,2.9-4.3,5.8-6.4,8.7c-0.2,0.3-0.5,0.6-1,1.2c-0.6-1-1.3-1.7-1.7-2.6
				c-1.1-2.3-2.2-4.4-4.2-6.2c-1.6-1.5-2.4-3.7-3.5-5.7c-1.9-3.2-3.6-6.5-5.5-9.7c-1.3-2.2-2.7-4.3-4-6.4c-1.3-2.2-2.3-4.8-4-6.7
				c-2.4-2.5-3.4-5.5-4.6-8.6c-0.3-0.9-1.2-1.7-1.9-2.4c-1.1-1.1-1.4-2.1-0.5-3.2c0.7-1,1.7-1.8,2.6-2.6c0.2-0.2,0.5-0.4,0.7-0.6
				c1.4-1.4,2.9-2.7,4.3-4.1c1.4-1.5,2.7-3.1,4-4.6c3.1-3.5,6.2-6.9,9.3-10.4c1.5-1.7,2.9-3.4,4.4-5.1c0.1-0.1,0.3-0.2,0.3-0.3
				c-0.4-2.8,2.1-5,1.6-7.9c-0.2-1.2-0.1-2.4,0-3.7c0-2.2,0.2-4.4,0.1-6.6c0-0.9-0.4-1.9-0.7-2.8c-0.3-1-0.9-1.9-1.1-2.8
				c-0.4-2.9-1.2-5.5-3.4-7.7c-0.4-0.4-0.5-1.3-0.5-2c0-1.3-0.5-2.2-1.7-2.9c-2.9-1.9-5.8-4-9-6.2c4.5-0.7,8.2-0.2,11.8,1.5
				c0.2,0.1,0.4,0.1,0.6,0.3c3.5,2.5,7.1,5,10.6,7.5c0.2,0.1,0.4,0.3,0.4,0.4c0.7,2.9,3.4,3.9,5.3,5.8c1.9,1.9,3.8,3.7,5.4,5.8
				c2.3,2.9,5,5.3,7.7,7.8c2.8,2.6,5.6,5.2,8.3,8c1.5,1.5,2.5,3.4,4.1,4.8c3.1,2.6,5.6,5.8,8.4,8.8c0.7,0.8,1.6,1.5,2.1,2.5
				C485.9,100.4,485,102.6,484.2,104.6z M615,141.6c-0.1,3.5-0.3,7-0.4,10.5c-0.1,1.5,0.1,3.1-0.2,4.6c-0.6,3.9-2.1,7.4-4.3,10.5
				c-1.1,1.5-3.4,2.2-5.3,3.2c-0.2,0.1-1.1-0.5-1.3-0.9c-0.8-1.4-1.9-2.7-2.2-4.2c-0.9-4-2.1-8-1.9-12.2c0.1-3.1-0.1-6.2-0.1-9.3
				c0-5.4-0.1-10.7-0.1-16.1c0-5.1-0.1-10.3-0.1-15.4c0-0.7-0.2-1.4-0.2-2.2c-0.2-6.5-0.4-12.9-0.5-19.4c-0.1-3.9-0.2-7.9-0.1-11.8
				c0.1-4.4,0.5-8.8,0.6-13.2c0.1-2-0.2-4,0-6c0.2-2.9-0.4-5.9,0.9-8.7c1-2.3,1.9-4.6,4.2-6c0.8-0.5,1.2-1.5,1.8-2.2
				c-0.1-0.1-0.1-0.2-0.2-0.4c0.1,0,0.2-0.1,0.3-0.1c1.7,0.7,3.6,1,4.9,2.1c1.1,1,1.4,2.9,1.9,4.4c0.3,0.9,0.3,1.9,0.5,2.8
				c0,0.3,0.2,0.6,0.1,0.7c-1.2,2.1-0.5,4.2-0.3,6.3c0.2,2.6,0,5.3,0.1,7.9c0.1,3.4,0.5,6.8,0.6,10.2c0.1,3-0.1,5.9,0,8.9
				c0.1,3.2,0.4,6.4,0.6,9.6c0.1,2.4,0.3,4.9,0.4,7.3c0.2,4.4,0.4,8.7,0.5,13.1c0.1,3.2-0.2,6.3-0.2,9.5c0,2.3,0.2,4.6,0.3,6.8
				c0,0.9,0,1.7,0,2.6C615,137,615.1,139.3,615,141.6z"/>
		</defs>
		<clipPath id="SVGID_2_">
			<use xlink:href="#SVGID_9_"  style="overflow:visible;"/>
		</clipPath>
		<g id="Black" class="st1">
			<path d="M211,147.4c-0.4,2.2-1.3,4.4-1.1,6.5c0.2,1.8,0.1,3.8,1.2,5.5c0.2,0.4-0.2,1.2-0.3,1.8c-0.5,1.9-1.1,3.8-1.6,5.7
				c-0.3,0.9-0.5,1.8-0.8,2.6c-0.1,0.2-0.3,0.4-0.2,0.6c0.8,2.3-1,4.1-1.2,6.3c-0.1,0.6-0.4,1.2-0.8,1.6c-1.1,1.2-1.9,2.2-1.8,4.2
				c0.1,1.7-0.6,3.8-1.6,5.3c-1.7,2.5-3.5,5-5.2,7.5c-1.3,1.9-3.2,3.4-4.9,5.1c-1.7,1.6-3.4,3.2-5.2,4.7c-0.8,0.7-1.9,1.1-2.9,1.4
				c-1.1,0.3-2.4,0.3-2.8,1.8c-0.1,0.3-0.7,0.6-1.1,0.8c-1.8,0.7-3.7,1.3-5.6,1.9c-2.7,0.8-5.3,1.7-8,2.3c-1.6,0.4-3.2,0.4-4.8,0.7
				c-1.9,0.4-3.8,0.9-5.7,1.3c-1.2,0.2-2.4,0.1-3.6,0.1c-2.8,0-5.6,0-8.4,0c-1.4,0-2.9-0.3-4.3-0.3c-5.5,0.1-11.1,0.2-16.6,0.3
				c-4.6,0.1-9.1,0.2-13.7,0.1c-3.6,0-7.2-0.4-10.8-0.5c-1.5,0-3,0.1-4.5,0.2c-5.4,0.1-10.9,0.3-16.3,0.4c-4.8,0.1-9.7,0.2-14.5,0.2
				c-6.4,0-12.9,0-19.3,0c-3.3,0-6.5,0-9.8,0.1c-2.9,0.2-5.7,0.6-8.5,1c-1.5,0.2-3.1,0.5-4.6,0.5c-0.9,0-1.9-0.6-2.8-1.1
				c-0.2-0.1-0.2-1.2,0-1.3c1.5-1,2.8-2.5,4.9-2.2c0.5,0.1,1.1-0.3,1.6-0.6c0.3-0.1,0.5-0.5,0.8-0.5c3.1-0.6,5.3-2.8,7.9-4.4
				c0.3-0.2,0.6-0.3,0.8-0.5c2.5-1.7,5-3.3,7.4-5.1c3.4-2.6,6.6-5.3,9.1-8.8c1.2-1.7,2.3-3.4,3.6-5c0.6-0.8,1.5-1.3,2.3-1.9
				c0.2-0.2,0.5-0.4,0.7-0.6c1.3-1.9,2.6-3.8,3.8-5.9c0.7-1.3,1.2-2.8,1.8-4.2c0.7-1.4,0.9-3.2,2.2-3.5c0.7-1.8,1.3-3.2,1.9-4.6
				c0.6-1.3,1.4-2.6,1.7-4c0.6-2.8,1.8-5.4,1.3-8.4c0-0.3,0.2-1,0.4-1c0.5-0.1,1.1,0,1.6,0.2c2.1,0.8,3.3,2.8,5.2,3.9
				c1.1,0.7,2.4,1.2,3.5,1.9s2.2,1.5,3.3,2.2c0.8,0.5,1.7,1.1,2.6,1.2c2.9,0.5,5.8,0.8,8.8,1c1.9,0.1,3.9-0.1,5.8-0.1
				c1.1,0,2.3,0.1,3.4,0.1c1.5,0,3.1,0.2,4.6-0.1c1.8-0.3,3.5-0.2,5.3,0.2c1,0.2,2.2-0.1,3.2,0c1.1,0.1,2.1,0.5,3,0.8
				c0.6-0.2,1.1-0.5,1.6-0.6c0.8-0.2,1.5-0.3,2.3-0.4c1.2-0.1,2.3-0.1,3.5-0.1c1.6-0.1,3.2-0.3,4.7-0.5c1.7-0.2,3.2-0.7,5,0
				c1,0.4,2.4-0.4,3.6-0.5c0.8-0.1,1.5-0.2,2.3-0.1c2.3,0.3,4.2-0.2,6.2-1.5c2.3-1.6,4.9-2.8,7.3-4.3c0.3-0.2,0.6-0.8,0.6-1.2
				c0.1-1-0.1-2-0.1-2.9c0.1-2.7-1.3-4.7-3.4-6c-2.9-1.9-5.9-3.1-9.5-2.6c-0.5,0.1-1,0-1.5-0.2c-3.8-0.9-7.7-0.6-11.5-0.3
				c-3.5,0.3-6.9,0.3-10.3-0.5c-0.4-0.1-0.9,0-1.4,0c-0.8,0-1.7,0-2.5,0.1c-0.2,0-0.3,0-0.5,0c-5.7,1.1-11.5,1.2-17.2,1.5
				c-4.1,0.2-8.3,0-12.4-0.5s-8.1-1.5-12.2-2.4c-2.8-0.7-5.6-1.5-8.2-2.6c-2.2-0.8-4.3-2.1-6.4-3.1c-1.8-0.9-3.8-1.6-5.4-2.8
				c-3.3-2.4-6.7-4.8-9.6-7.7c-2.7-2.6-4.8-5.9-7.2-8.8c-0.8-1-1.7-1.9-2.5-3c-0.8-1.2-1.5-2.4-2.1-3.6s-0.8-2.6-1.5-3.7
				c-1.4-2.3-2.7-4.6-3.1-7.3c-0.2-1.4-0.5-2.7-0.8-4.1c-0.4-1.3-0.9-2.6-1.3-3.9c-0.1-0.3-0.2-0.6-0.2-0.9
				c-0.1-2.3-0.2-4.6-0.3-6.9c0-0.3,0.1-0.7-0.1-0.9c-1.2-2.4,0-4.8,0-7.2c0-1.1,0.1-2.3,0.4-3.4c0.3-1.4,0.8-2.7,1.3-4.1
				c0.2-0.7,0.7-1.5,0.6-2.2c-0.3-2.4,0.7-4.5,1.5-6.6c0.1-0.4,0.4-0.8,0.5-1.1c0.2-2,0.9-3.7,2.2-5.2c0.3-0.3,0.5-0.7,0.5-1.1
				c0.4-3.2,2.2-5.6,4-8.1c2.1-2.8,4.5-5.2,6-8.4c0.8-1.6,2.7-2.7,4.1-4c1.3-1.2,2.5-2.6,4-3.4c2.6-1.5,4.2-4.2,6.7-5.6
				c1.9-1.1,3.2-3.1,5.6-3.3c0.6,0,1.4-0.6,1.7-1.1c0.7-1.3,1.8-1.5,3-1.7c0.6-0.1,1-0.7,1.5-1c0.3-0.2,0.7-0.5,1-0.6
				c2.9-0.8,5.8-1.6,8.7-2.2c2-0.5,4.1-1.3,5.9-1c2,0.3,3.6-0.1,5.5-0.5c0.8-0.2,1.9,0.4,2.4,0.5c1.4,0.3,2.4,0.5,3.4,0.6
				c0.2,0,0.4,0,0.6,0c2.2-0.2,4.5-0.4,6.7-0.5c2.5-0.1,4.9-0.2,7.4-0.2c1.7,0,3.4,0.1,5.1,0.1c2,0,3.9-0.2,5.9-0.3
				c2.4,0,4.7,0,7.1,0c2.1,0.1,4.2,0.3,6.3,0.4c0.6,0,1.3-0.3,1.9-0.3c5.4-0.2,10.8-0.5,16.2-0.6c4.7-0.1,9.4,0.1,14.1,0
				c3.2,0,6.4-0.4,9.6-0.4c2.2,0,4.4,0.3,6.6,0.2c2.6-0.1,5.2-0.4,7.7-0.6c0.4,0,0.7-0.1,1.1-0.1c4.5-0.1,9-0.3,13.5-0.4
				c2.1,0,4.1,0,6.2,0.1c0.5,0,1.1,0.2,1.6,0.5c0.4,0.3,1,0.8,1,1.2c-0.1,0.5-0.6,1-1,1.4c-0.1,0.1-0.3,0.1-0.4,0.1
				c-2.3,0-4.2,1.5-6.3,2.2c-0.3,0.1-0.5,0.3-0.7,0.5c-3.1,2.5-6.3,5-9.4,7.7c-1.3,1.2-2.4,2.6-3.6,4c-0.8,0.9-1.7,1.6-2.5,2.5
				c-3.7,4.7-7.1,9.6-9.6,15c-0.9,2.1-2.3,3.9-3.3,6c-1.7,3.7-3.2,7.5-4.7,11.3c-1.4,3.5-2.2,7.1-2.3,10.9c0,1.1,0.3,2.2,0.2,3.4
				c0,0.8-0.4,1.6-0.7,2.4c-0.7-0.4-1.5-0.7-2.1-1.3c-1-1-1.6-2.5-3.2-2.7c-0.1,0-0.3-0.1-0.4-0.2c-1.3-2.4-3.8-3.3-5.8-4.9
				c-0.8-0.6-1.7-0.9-2.6-1.3c-1.6-0.8-3.1-1.7-4.7-2.3c-1-0.4-2.2-0.4-3.3-0.4c-4-0.1-7.9-0.5-11.9-0.2c-4.9,0.3-9.9-0.1-14.9-0.1
				c-2.4,0-4.9,0.3-7.3,0.2c-3-0.2-5.8,0.9-8.9,0.2c-1.8-0.4-3.9,0.5-5.8,0.7c-0.9,0.1-1.8,0.1-2.8,0.1c-1,0.1-2,0-2.8,0.4
				c-3.2,1.5-6.1,3.6-7.9,6.7c-0.8,1.4-0.8,3.4-1,5.1c-0.1,1.1,0.2,2.3,0.2,3.4c0,1.3,0.3,2.3,1.3,3.3c0.8,0.9,1,2.4,1.9,3.2
				c0.9,0.9,2.2,1.6,3.4,1.9c1.9,0.6,3.9,0.9,5.9,1.4c0.2,0.1,0.5,0.1,0.7,0.3c2.5,2.4,5.8,1.9,8.8,2c2.8,0.1,5.7,0.1,8.5,0.1
				c3.8,0.1,7.6,0.1,11.5,0.3c1.8,0.1,3.5,0.4,5.3,0.4c3.7,0.1,7.4-0.2,11,0.1c2,0.2,4-0.8,6.1,0.2c0.9,0.4,2.2-0.3,3.3-0.1
				c5.1,0.6,10.2,1.3,15.3,2c0.4,0.1,0.8,0.3,1.2,0.4c2.1,0.8,4.1,1.6,6.1,2.5c1.6,0.7,3.2,1.5,4.7,2.4c2.7,1.6,5.5,3,8.1,4.8
				c1.6,1.2,2.8,2.9,4.3,4.4c1,1,2.2,1.9,3.3,2.9c0.1-0.2,0.3-0.6,0.3-1.1c0.1-2.8,0.1-5.7,0.1-8.5c0.1-3.4-0.1-6.7,0.3-10
				c0.3-2.1,1.5-4.1,2.3-6.1c0.1-0.3,0.3-0.7,0.4-1c0.8-2.8,1.4-5.7,2.6-8.3c1.1-2.4,2.8-4.5,4.1-6.7c1.5-2.4,2.9-4.8,4.3-7.2
				c0.1-0.2,0.2-0.4,0.3-0.5c2.2-2.1,4.4-4.3,6.7-6.3c0.9-0.8,2.2-1.1,2.4-2.6c0-0.1,0.2-0.2,0.3-0.3c3.6-1.8,6.4-4.9,9.9-6.8
				c1.3-0.7,2.9-0.8,4.4-1.3c2.8-1.1,5.6-2.3,8.4-3.4c1.3-0.5,2.6-0.8,4-1.1c1.3-0.4,2.7-0.8,4.1-1c2.9-0.3,5.8-0.4,8.6-0.5
				c1.4-0.1,2.9,0.1,4.4,0c3.3-0.2,6.5-0.6,9.8-0.6c2.1,0,4.1,0.4,6.2,0.5c2.9,0.1,5.8,0,8.7,0c5.2,0,10.3-0.1,15.5,0
				c3.1,0,6.2,0.3,9.3,0.2c2.5,0,5-0.5,7.5-0.6c4.8-0.1,9.6,0.1,14.4,0.1c6.3,0,12.6-0.4,19-0.2c3.9,0.1,7.6-0.3,11.5-0.5
				c3.1-0.1,6.2,0.1,9.3,0.1c5.2,0,10.5,0,15.7,0c3.6,0,7.3-0.1,10.9-0.1c0.2,0,0.5,0,0.6,0.1c3.1,2,7,1.3,10.3,2.6
				c0.9,0.4,2,0.5,3.1,0.7c0-0.4,0.1-0.7,0.1-1c-0.2-1.4,0.4-1.7,1.7-1.7c2.4,0,4.7-0.1,7.1-0.1c0.6,0,1.1-0.3,1.7-0.4
				c1,0,2,0,3,0.1c0.5,0,1,0.3,1.5,0.3c3.3-0.1,6.6-0.4,9.9-0.5c4.3,0,8.5,0.2,12.8,0.2c2.6,0,5.1-0.1,7.7-0.1
				c1.1,0,2.2,0.2,3.4,0.2c0.8,0,1.7-0.3,2.5-0.3c0.5,0,1,0,1.5,0.1c2.3,0.1,4.6-0.8,7,0c0.9,0.3,1.9-0.1,2.9-0.1
				c0.7,0,1.4,0.1,2.4,0.2c-0.6,1.2-0.8,2.3-2.1,2.6c-1.4,0.4-2.4,3.6-1.6,5c0.5,0.9,1.1,1.8,1.9,2.6c1.8,2,3.8,3.8,5.6,5.8
				c1.5,1.7,2.9,3.6,4.4,5.3c0.1,0.1,0.2,0.2,0.3,0.3c3.6,1.8,5.3,5.4,7.9,8.2c0.9,1,2,1.8,3.1,2.7c1,0.8,2.1,1.5,2.9,2.5
				c1.5,1.8,3.3,1.6,4.6-0.4c1.4-2.3,2.9-4.5,4.5-6.7c2.1-2.9,4.1-5.8,6.5-8.5c1.9-2.1,3.5-4.4,4.8-6.9c0.5-0.9,0.9-1.9,1.2-2.9
				c0.7-3-1.1-5.7-4.1-6.3c-1-0.2-2-0.4-2.8-0.9c-0.6-0.4-1-1.3-1.5-2c0.6-0.3,1.2-0.7,1.8-0.7c2-0.1,4,0.1,6.1,0
				c2.4-0.1,4.9-0.2,7.3-0.3c4.7-0.1,9.3-0.2,14-0.3c5.1-0.1,10.2-0.3,15.4-0.4c3.2,0,6.4,0.3,9.6,0.3c2.3,0,4.5-0.2,6.8-0.3
				c0.5,0,0.9,0.1,1.4,0.1c2.4,0.1,4.7,0.3,7.1,0.4c1.8,0.1,3.5,0,5.3-0.1c2.7-0.2,5.3-0.6,8-0.7c2.3-0.1,4.9-0.4,7,0.3
				c2.2,0.7,4.2,0.8,6.4,0.5c2.4-0.3,4.9-0.2,7.4-0.3c0.5,0,1.2,0.1,1.4,0.4c0.6,1.1,1.3,0.7,2.1,0.5c1.1-0.3,2.2-0.6,3.3-0.7
				c3.1-0.1,6.3,0.1,9.4,0.1c2.5,0,5,0,7.5-0.1c2.2-0.1,4.3-0.3,6.5-0.5c3.5-0.3,7.1-0.7,10.6-1c0.8-0.1,1.8,0.3,2.5,0.7
				c1,0.5,0.8,1.7-0.4,2.1c-1.4,0.5-2.1,1.6-2.9,2.6c-0.7,0.8-0.7,1.4-0.1,2.2c0.5,0.7,1,1.3,1.5,2c2.2,3.2,4.4,6.5,6.7,9.7
				c2.1,2.9,4.6,5.7,6.6,8.7c2.5,3.9,5.1,7.6,8.5,10.8c1.1,1.1,1.7,2.7,2.7,4c1.4,1.9,2.8,3.8,4.3,5.6c0.2-3.7,1.3-7.5-0.2-11.2
				c-0.3-0.8-0.3-1.3,0.4-2c0.6-0.7,0.7-1.9,0.6-2.9c-0.2-2.1-0.7-4.2-0.8-6.3c-0.1-1.8,0.3-3.5,0.3-5.3c0.1-1.3,0-2.7-0.1-4
				c-0.1-3.1-0.5-6.1-1.6-8.9c-1-2.4-3.3-3.6-5.6-4.6c-0.6-0.2-1.2-0.4-1.8-0.5c-0.1-0.5-0.2-1-0.4-1.8c0.9-0.1,1.8-0.2,2.6-0.2
				c1.6,0,3.3,0.3,4.9,0.3c1.7,0,3.4,0.1,5.1-0.2c2.6-0.4,5,0,7.4,0.7c0.1,0,0.2,0.2,0.3,0.1c1.9-0.4,3.9-0.7,5.8-1.1
				c0.4-0.1,0.7-0.2,1.1-0.2c2.7,0.1,5.3,0.2,8,0.4c0.2,0,0.4,0,0.6,0c3.6-1.2,7.3-0.2,10.9-0.8c0.6-0.1,1.5-0.4,1.7-0.8
				c0.6-1.5,1.7-1.1,2.4-0.6c1.6,1,3.4,0.7,5.1,1.1c0.5,0.1,0.9,0.2,1.4,0.4c-0.2,0.6,0.6,1.4-0.5,1.9c-1.8,0.8-3.5,1.8-5.3,2.5
				c-2.3,0.8-3.7,2.3-4.3,4.5c-0.9,3.2-1.3,6.5-2.2,9.7c-0.7,2.6-1.3,5.2-0.6,7.8c0.7,2.9,0,5.8-0.1,8.6c0,0.4-0.1,0.7-0.1,1.1
				c0.3,4.9,0.6,9.8,0.9,14.6c0.1,1.1,0,2.2,0,3.4c0.1,0,0.3,0.1,0.4,0.1c0.2-0.5,0.4-1,0.5-1.5c0.5-2.3,1-4.5,1.5-6.8
				c0.2-1,0.8-1.8,0.9-2.8c0.3-3.2,2.5-5.4,3.8-8.1c0.1-0.2,0.4-0.4,0.4-0.7c0.1-3.5,3.3-5,4.7-7.7c0.9-1.7,2.8-2.9,3.9-4.6
				c1.3-2,3.4-3.2,4.8-5c1.6-2,3.7-3.5,6-4.7c1-0.6,1.8-1.7,2.8-2.4c0.7-0.5,1.5-0.8,2.3-1.2c3.4-1.6,6.7-3.5,10.2-4.8
				c4.8-1.7,9.6-3.8,14.9-4.1c2.9-0.1,5.8-1.1,8.7-1.3c4.4-0.2,8.7,0.1,13.1,0c3,0,6.1-0.4,9.1-0.5c2.4-0.1,4.8,0.1,7.2,0.1
				c1,0,1.9-0.1,2.9-0.1c1.8,0,3.5,0,5.3-0.1c1.5,0,3-0.2,4.5-0.2c2.1,0,4.1,0,6.2-0.1c1-0.1,1.9-0.5,2.8-0.7
				c1.5-0.3,2.9-0.8,4.4-0.7c2.6,0.1,5.3,0.6,8.3,1.1c-0.3,0.7-0.4,1.6-0.8,1.7c-0.8,0.2-1.8,0-2.9,0c0,1.5-1.5,1.9-3,2.4
				c-0.9,0.3-1.6,1.1-2.4,1.6c-0.7,0.5-1.3,1.2-2,1.4c-2.6,0.8-4.1,2.9-6,4.6c-3.9,3.3-6.5,7.6-9.1,11.9c-0.5,0.9-1.1,1.8-1.6,2.7
				c-1.3,2.3-2.5,4.6-3.7,7c-0.2,0.4-0.1,0.9-0.2,1.3c-0.1,0.4-0.1,1-0.3,1.1c-1.3,0.8-1.3,2.3-2,3.4c-0.5,0.8-1.8,1.9-2.1,1.8
				c-0.9-0.5-2-1.5-2.2-2.5c-0.3-1.7-0.7-3.2-1.7-4.6c-0.8-1.1-1.2-2.5-2.2-3.5c-1.7-1.7-3.7-3.1-6.2-3.5c-2.1-0.4-4.1-1.1-6.3-1.3
				c-1.3-0.1-2.7,0.3-4.1,0.5c-1.2,0.1-2.3,0.2-3.5,0.4c-0.9,0.1-1.9,0.2-2.7,0.6c-2,1-4,2.1-6,3.2c-1.2,0.6-2.5,1.2-3.8,1.7
				c-2.7,0.9-3.8,3.6-5.6,5.5c-2,2-3.5,4.5-5.2,6.7c-0.3,0.4-0.5,0.8-0.5,1.3c0,2.5-1.2,4.5-2.2,6.7c-0.6,1.3-0.9,2.6-1.3,4
				c0,0.1-0.1,0.2,0,0.3c1.2,2.8,0.2,5.6,0.1,8.4c0,0.4,0.2,0.8,0.4,1.1c1.3,2.2,2,4.5,2.2,7.1c0.2,2.1,0.8,4.3,1.4,6.4
				c0.2,0.7,1,1.3,1.4,2c0.7,1.4,1.2,2.8,1.9,4.2c0.4,0.8,0.9,2,1.5,2.1c2,0.4,3,1.9,3.7,3.4c0.9,1.8,2.6,2.4,3.9,3.5
				c0.1,0.1,0.3,0.1,0.4,0.2c2.3,3.8,6.5,3.9,10.1,5c3.8,1.2,7.4,0.4,10.7-1.8c1.4-0.9,2.6-2.4,3.8-3.6c0.2-0.2,0.3-0.7,0.3-1
				c0.2-1.2,0.5-2.4,0.4-3.5c-0.1-1.2-0.5-2.4-1-3.5c-1.3-2.5-2.8-5-4.3-7.5c-0.6-1-1.6-1.9-2.1-3c-0.4-1-1.2-0.7-1.9-1
				c-1.5-0.6-3.1-1.3-4.5-2.2c-0.4-0.2-0.6-1.3-0.4-1.7c0.3-0.5,1.2-1.1,1.7-1.1c1.9,0.2,3.8,0.7,5.7,1.1c2.8,0.6,5.6,1.7,8.3,1.5
				c4.6-0.3,9.2,0,13.7-0.8c4.1-0.7,8.5-1,12.4-2.3c2.2-0.7,4.4,0,6.4-1.1c0.7-0.4,1.6-0.6,2.4-0.9c2.5-0.9,5.1-1.7,7.6-2.5
				c0.5-0.2,0.9-0.5,1.3-0.8c1.1-0.7,2.2-1.3,3.1-2.1c1-0.8,1.8-1.8,2.8-2.5c1.5-1.2,0.3-2.2-0.1-3.3c-0.9-2.7-2.2-5.3-2.1-8.3
				c0-0.9-0.2-2.1-0.7-2.8c-1.4-2.2-0.8-4.6-0.8-7c0-2,0.4-4,0.7-6c0.3-1.8,0.6-3.7,1.3-5.3c0.9-2,1.2-4.1,1.9-6.1
				c0.5-1.6,2-2.8,3-4.2c0.3-0.4,0.7-1,0.7-1.5c-0.1-1.6,0.7-2.3,2-2.9c1-0.5,1.8-1.5,2.7-2.2c1-0.8,1.9-1.6,2.9-2.2
				c2-1.1,4.1-2.2,6.1-3.1c1.3-0.6,2.7-1.1,4.1-1.7c0.3-0.1,0.5-0.5,0.7-0.8c0.6-1.6,1.7-2.2,3.3-1.5c0.8,0.4,1.4,0.5,2.4,0
				c0.8-0.4,2.2-0.4,3.1-0.1c2.2,0.8,4.3,0,6.5,0.1c3.5,0.2,7.1,0.3,10.6,0.4c1.8,0,3.6-0.3,5.4-0.4c3.3-0.1,6.6-0.2,10-0.1
				c3.9,0,7.8,0.1,11.7,0.1c1.7,0,3.4-0.2,5.1-0.3c4-0.1,8.1,0,12.1-0.2c4.5-0.2,8.9-0.6,13.3-0.9c2.3-0.1,4.5-0.1,6.8-0.2
				c1.6-0.1,3.1-0.2,4.7-0.5c1.1-0.2,1.6,0,1.7,1.1c0.3,2.5,0.3,2.5-2.2,3.4c-0.6,0.2-0.9,0.9-1.4,1.3c-2.7,2.2-5.4,4.5-8.1,6.7
				c-0.5,0.4-0.9,0.9-1.3,1.4c-3,3.5-5.9,6.9-8.9,10.4c-0.8,0.9-1.3,2-1.9,3c-1.2,2.1-2.6,4.1-3.6,6.3c-1,2.1-1.5,4.5-2.3,6.7
				c-0.2,0.5-0.9,1.4-1.2,1.3c-0.9-0.3-1.9,0.5-2.8-0.5c-1.3-1.4-2.9-2.5-4.4-3.7c-1.3-1-2.6-2.1-3.9-3.1c-0.5-0.3-1.1-0.6-1.7-0.7
				c-2.5-0.4-5.1-0.7-7.7-1c-0.4-0.1-0.8,0-1.2-0.1c-2.6-0.1-5.2-0.4-7.7-0.4c-1.8,0-3.6,0.3-5.4,0.5c-1.5,0.1-3.1,0.2-4.7,0.2
				c-3.1,0-5.9,1.1-8.6,2.3c-1.3,0.6-2.3,1.7-3.5,2.5c-0.1,0.1-0.2,0.2-0.2,0.2c0.1,1.9-1.4,3-2.1,4.5c-1,2.1,0.3,3.9,1.3,5.7
				c1.9,3.6,5.2,5,8.8,6.3c5,1.8,10,1,15.1,0.6c1.6-0.1,3.2,0,4.8,0c0.8,0,1.6-0.2,2.4-0.3c0.6-0.1,1.1-0.3,1.7-0.2
				c3.5,0.2,7,0.2,10.5,0.7c3.3,0.4,6.6,1.1,9.7,2c2.4,0.7,4.7,1.8,7,3c5,2.6,9.1,6.2,11.9,11.1c1.3,2.4,2.3,5,3.4,7.6
				c0.4,1,0.7,2.1,1.4,2.9c1.7,2.3,1.2,5.1,1.8,7.6c0.1,0.6,0.5,1.2,0.8,1.8c0,1.5-0.7,2.9-0.2,4.6c0.3,1.1,0.5,2.2,1,3.3
				c0.2,0.4,0.1,1.1-0.2,1.4c-1.7,1.7-1.3,3.9-1.4,6c-0.1,0.9-0.3,1.9-0.6,2.8c-0.4,1.1-1.2,2.2-1.3,3.3c-0.2,2.5-2,4.3-2.9,6.5
				c-1.6,3.9-4.5,6.9-7.4,9.8c-1,1-2.3,1.8-3.5,2.6c-1.9,1.2-3.9,2.3-5.9,3.4c-1.4,0.7-2.9,1.2-4.3,1.7c-1.7,0.6-3.4,1.2-5.2,1.6
				c-1.9,0.3-4,0.8-5.9,0.4c-4-0.7-7.8,0.4-11.7,0.3c-3.9-0.1-7.8-0.5-11.6-0.6c-1.5,0-3.1,0.3-4.6,0.5c-0.7,0.1-1.3,0.2-2,0.2
				c-3.5,0-7.1-0.1-10.6,0c-2.1,0.1-4.1,0.6-6.2,0.9c-1,0.1-2,0.1-2.9,0.1c-3.3-0.1-6.6-0.2-9.9-0.4c-1.5-0.1-2.9-0.3-4.3-0.3
				c-3.6,0-7.2,0-10.7,0.1c-3.8,0.2-7.6,0.5-11.5,0.8c-0.8,0-1.6-0.2-2.4-0.4c-1-0.2-1.9-0.4-2.8-0.8c-0.5-0.2-1.1-0.8-1.2-1.2
				c0-0.4,0.5-1.1,0.9-1.4c0.6-0.3,1.3-0.5,2-0.4c1.3,0.1,2.2-0.3,2.9-1.4c0.2-0.4,0.8-0.6,1.3-0.8c2.3-1.1,4.5-2.4,6.8-3.1
				c2.2-0.7,3.8-2,5.6-3.2c4-2.6,7.4-5.8,10.7-9.2c2.8-2.8,4.9-6.1,6.3-9.9c0.5-1.5,1.5-2.9,1.9-4.4c0.5-1.8,0.6-3.6,0.9-5.4
				c0.1-0.7,0.1-1.4,0.2-2.2c1.1-0.1,2.2-0.5,2.2,1.4c0,0.6,1,1.4,1.7,1.9c3.3,2.3,7.1,3.3,11.1,3.7c3.1,0.3,6.2,0.5,9.2,0.8
				c2.2,0.3,4.4,0.8,6.7,1.2c0.6,0.1,1.2-0.2,1.8-0.3c1.2-0.2,2.4-0.6,3.6-0.8c2.6-0.4,5.3-0.3,7.8-1c2.5-0.8,4.8-2.3,7.2-3.5
				c1.5-0.8,2.7-1.8,2.9-3.5c0-0.1,0-0.1,0-0.1c3.2-0.7,1-3,1.1-4.4c0.1-2-1.4-3.3-3-4.3c-0.5-0.3-0.7-0.9-1.2-1.2
				c-0.5-0.3-1-0.6-1.6-0.8c-0.2-0.1-0.6,0-0.7-0.2c-1.5-1.4-3.3-2.1-5.3-2.2c-1.3-0.1-2.5-0.3-3.8-0.3c-5.9,0-11.8,0.2-17.7,0.2
				c-1.1,0-2.3,0.1-3.4-0.1c-0.4,0-0.6-0.6-1-1c-0.4,0.9-1.1,1-2.2,0.7c-1.6-0.4-3.4-0.2-5.1-0.2c-2,0-3.9-0.1-5.8-1
				c-1.9-0.8-3.9-1.2-5.9-1.8c-1.4-0.4-2.8-0.8-4-1.5s-2.1-1.8-3.2-2.7c-1.4-1.2-2.8-2.4-4.2-3.5c-0.5-0.4-1.1-0.7-1.5-1.1
				c-0.6-0.5-1.1-1.1-1.6-1.7c-0.3-0.3-0.5-0.6-0.8-0.9c-0.8-0.6-1.6-1.2-2.7-2c-0.2,0.9-0.5,1.8-0.6,2.6c-0.1,2.1,0.1,4.1,0.1,6.2
				c0,2.6,0,5.2,0,7.8c0,0.2,0.1,0.3,0.1,0.4c-1.5,2.9-0.8,6.4-3,9.2c-1,1.3-1,3.4-1.6,5.1c-0.7,2-1.4,4.1-2.3,6
				c-0.9,2-2,3.8-3.1,5.7c-0.5,0.9-1.1,1.7-1.8,2.5c-2.5,2.9-4.9,5.8-7.4,8.7c-1.8,2.2-4.7,3.5-7.1,5.2c-2.4,1.8-5.4,2.7-7.8,4.3
				c-2.3,1.5-4.8,1.9-7.2,2.9c-2.8,1.1-5.5,2.3-8.4,3.1c-4,1.1-8,2.5-12.3,2.5c-1.8,0-3.6,0.5-5.3,0.8c-0.3,0-0.5,0.2-0.8,0.1
				c-2.1-0.2-4.3-0.1-6.3-0.7c-2.4-0.8-4.8,0-7.2-0.5c-1.5-0.4-2.9-1.1-4.4-1.6c-0.6-0.2-1.4-0.3-2.1-0.2c-1.9,0.2-3.6,0-4.6-2
				c-0.1-0.3-0.5-0.6-0.8-0.6c-4-0.3-7.3-2.7-10.9-4.1c-2.1-0.8-4-2.2-5.7-4.1c-1.5-1.7-3.6-3-5.4-4.5c-0.6-0.5-1.2-1.2-1.8-1.8
				c-0.2-0.3-0.4-0.6-0.6-0.9c-1.6-2.2-3.3-4.3-5-6.5c-0.6-0.8-1.1-1.6-1.7-2.4c-1.2-1.9-2.9-3.7-3.6-5.8c-0.9-2.6-2.5-4.6-3.8-6.9
				c-0.4-0.7-0.4-1.6-0.6-2.5c-0.1-0.4-0.2-0.9-0.4-1.3c-1-1.3-1.3-2.8-1.3-4.4c0-0.5-0.4-1-0.5-1.6c-0.2-0.9-0.4-1.7-0.6-2.6
				c-0.2-1.1-0.5-2.1-0.7-3.2c-0.5-1.9-1-3.9-1.6-6.2c0,3.4,0,6.5,0,9.6c0,3.5,0.1,6.9,0.2,10.4c0.1,5.7,0.4,11.3,0.5,17
				c0.1,4.4,0.1,8.7,0.3,13.1c0.1,2,0.6,4,1,5.9c0.3,1.8,0.5,3.7,0.8,5.3c0.8,0.7,1.7,1.2,2.3,1.9c0.9,1.2,0.6,1.9-0.9,2
				c-1,0.1-1.4,0.4-1.2,1.4c0.6,3.3,1,6.6,1.6,9.8c0.7,3.8,1.7,7.5,2.5,11.2c0.7,3.8,1.9,7.4,3.6,10.9c0.6,1.3,0.5,2.8,2,3.7
				c0.4,0.3,0.2,1.7,0.1,2.5c0,0.2-0.8,0.4-1.3,0.5c-0.9,0.1-1.6-0.3-1.8-1.3c-0.3-1.4-1.1-2.1-2.5-2.8c-2.2-1.2-4.1-3-6-4.6
				c-1.3-1.1-2.5-2.3-3.9-3.3c-2.3-1.7-4.7-3.4-7-5.1c-2.5-1.8-5-3.6-7.4-5.6c-1.3-1-2.3-2.5-3.6-3.5c-1.3-1.1-2.8-1.9-4.2-2.9
				c-2.5-1.8-5.1-3.7-7.6-5.6c-2-1.4-3.9-2.9-6-4.2c-1.3-0.8-2.8-1.2-4.3-1.8c-0.1-0.4-0.1-0.9-0.3-1.3c-0.4-1.4,0.2-2.3,1.5-2.6
				c3.1-0.7,4.2-3.6,6.2-5.5c0.3-0.3,0.3-1.1,0.3-1.7c0.1-4.7,0.3-9.5,0-14.2c-0.1-2.1-1-4.3-2.1-6.2c-1.9-3.4-4.2-6.6-6.4-9.8
				c-2.5-3.6-5.1-7-7.6-10.5c-1.1-1.5-1.9-3.2-2.8-4.7c-0.4-0.8-0.8-1.5-1.4-2.2c-2-2.7-3.8-5.7-6.2-8c-1.5-1.4-2.3-2.9-3.1-4.6
				c-0.8-1.6-2.2-2.8-3.3-4.2c-1.7-2.2-3.2-4.5-4.9-6.6c-1.4-1.7-3-3.3-4.5-4.9c-0.6-0.7-1.1-1.6-1.8-2.3c-0.5-0.5-1.2-0.8-1.8-1.2
				c-0.3,0.6-0.8,1.2-0.8,1.8c0,1.6,0.2,3.2,0.2,4.8c0,0.7-0.6,1.3-0.8,2c-0.1,0.4,0,0.8,0.2,1.2c0.2,0.5,0.6,1,0.6,1.5
				c0.2,2.1,0.3,4.1,0.3,6.2c0,0.8-0.2,1.5-0.3,2.3c0,0.4-0.2,0.9-0.1,1.2c1.2,2.7,0.3,5.6,0.5,8.3c0.1,0.6-0.3,1.3-0.5,1.9
				c-0.7,1.6,0.9,2.8,0.8,4.4c-0.1,1.5,0.2,3.1,0.3,4.7c0,0.4,0.3,0.8,0.1,1c-1.1,1.4-0.3,2.9-0.3,4.3c0,3.2,0.6,6.4,0.3,9.5
				c-0.2,2.3,0.3,4.5,0.2,6.7c-0.1,4.7,0.1,9.5,0.4,14.2c0.1,2,1,3.9,1.1,5.9c0.2,2.7,2,5.5,4.6,6.1c1.2,0.3,2.5,0.1,3.7,0.4
				c0.7,0.1,1.7,0.4,1.9,0.9c0.3,0.6,0.2,1.8-0.3,2.3c-0.4,0.5-1.4,0.6-2.2,0.7c-1.6,0-3.3-0.1-4.9-0.1c-2.9-0.1-5.8-0.1-8.7-0.3
				c-0.7,0-1.3-0.4-2-0.6c-0.4,0.2-1,0.5-1.5,0.6c-4.2,0.8-8.4,0.1-12.7,0c-3.3-0.1-6.6,0-10,0.1c-4.6,0.1-9.2,0.2-13.9,0.3
				c-4.1,0-8.2,0-12.3-0.1c-2.5,0-4.9-0.2-7.4-0.3c-0.3,0-0.6,0.1-0.8,0c-1.5-0.8-3,0.1-4.5,0.2c-2.3,0.1-4.6,0.3-6.8,0.4
				c-3.6,0.2-7.2,0.3-10.7,0.5c-0.8,0-1.6,0.4-2.4,0.7c-1.2,0.4-2.4,0.6-3.4-0.4c-0.5-0.5-1.1-1.4-1-1.9c0.2-0.8,1-1.6,1.7-1.9
				c2.7-1.4,5.5-2.5,7.2-5.2c0.6-1,1.5-1.8,2.2-2.8c0.7-0.9,1.3-1.7,1.8-2.7c1.5-2.8,2.1-6,2.4-9.1c0-0.4,0.3-0.8,0.5-1.2
				c-0.1-0.5-0.4-1.2-0.4-1.9c0-3.9,0.1-7.8,0-11.6c-0.1-3.6-0.4-7.2-0.4-10.8c0-3.5,0.3-6.9,0.3-10.4c0-2.8-0.1-5.7-0.1-8.5
				c-0.1-4,0-8-0.1-12c-0.1-3-0.2-6-0.3-8.9c0-2.1,0.2-4.1,0.3-6.2c0-0.8-0.2-1.6-0.2-2.5c-0.2-3.2-0.3-6.3-0.4-9.5
				c0-0.1,0-0.1,0-0.2c1.2-4.8-1-9.6-0.3-14.4c0.2-1.4,0.2-2.9,0-4.3c-0.1-1-0.7-1.9-1.2-3.2c-1.2,1.4-2.1,2.5-2.9,3.6
				c-1.4,2-2.7,4.2-4.2,6.2c-1.8,2.4-3.7,4.7-5.5,7.1c-2.9,4.1-5.7,8.4-8.6,12.5c-2.8,4-5.8,7.9-8.7,11.9c-1.6,2.3-3.2,4.7-4.8,7.1
				c-0.3,0.5-0.8,0.8-1.1,1.3c-2.5,3.4-4.9,6.8-7.3,10.2c-2.8,3.9-5.7,7.8-8.6,11.7c-2.6,3.5-5.1,7.1-7.7,10.6
				c-2.3,3.1-4.7,6.2-7,9.3c-2.7,3.8-5.3,7.6-7.8,11.4c-2,3-4,6-5.8,9.1c-1.5,2.6-2.7,5.4-4,8.1c-0.5,1.1-0.3,2.2,0.5,3.2
				c0.3,0.4,0.4,1.1,0.7,1.5c0.4,0.5,0.8,1.3,1.3,1.4c1.3,0.3,1.9,1.1,2.3,2.6c-1.9,0.7-3.9,1.4-5.8,2.1c-2.4,0.8-4.9,1.4-7.2,2.3
				c-3.2,1.2-6.4,2.6-9.6,4c-2.3,1-4.6,2-6.7,3.1c-1.2,0.6-2.3,1.6-3.3,2.5c-0.2,0.2-0.2,1.1,0,1.4c2,3.3,4,6.5,6,9.8
				c0.5,0.8,0.9,1.6,1.5,2.4c1.1,1.5,2.4,2.8,3.4,4.4c0.3,0.5,0,1.4,0,2.1c-0.7-0.1-1.5,0-2-0.4c-3.6-2.3-7.2-4.6-10.9-6.9
				c-0.9-0.6-1.9-0.9-2.9-1.4c-1.1-0.6-2.1-1.2-3.1-2c-0.7-0.2-1.5-0.3-2.2-0.6c-1-0.5-2.2-0.6-2.9-1.9c-0.3-0.5-2-0.5-2.9-0.2
				c-1.6,0.5-3.5,0.5-4.4,2.3c-0.2,0.3-0.7,0.5-1,0.7c-3.8,2.1-7.5,4.4-11.3,6.2c-4.1,2-7.4,5-11.1,7.4c-1.9,1.3-3.7,2.8-5.5,4.3
				c-1.7,1.4-3.3,2.9-5,4.2c-0.5,0.4-1.8,0.5-2,0.2c-0.5-0.7-0.9-1.9-0.6-2.4c0.9-1.6,2.2-3,3.4-4.4c1.7-2,3.4-4.1,5-6.1
				c0.7-0.8,1.3-1.6,2-2.3c1.1-1,2.6-1.5,2.9-3.2c0.1-0.3,0.9-0.8,1.4-0.8c1.5,0.1,1.6-0.8,1.7-1.8c0-0.9,0-1.7,1.4-1.7
				c1.2,0,2.8-2.5,2.3-3.5c2.4-1.5,3.5-3.7,3.9-6.4c0-0.3-0.3-0.7-0.6-0.9c-2.4-1.4-4.8-2.7-7.2-4c-1.8-0.9-3.7-1.7-5.5-2.6
				c-0.9-0.4-1.8-1-2.7-1.4c-1.1-0.5-2.2-0.9-3.3-1.4c-0.7-0.3-1.4-0.8-1.9-1.4c-0.3-0.4-0.4-1.1-0.4-1.7c0-0.9,0.3-1.9,0.3-2.8
				c-0.1-1.8-0.1-3.6-0.6-5.2c-0.6-1.9-1.5-3.7-2.5-5.5c-0.7-1.2-1.8-2.2-2.7-3.2c-0.2-0.2-0.4-0.5-0.4-0.7c0.2-1.7-1.3-2.6-2-3.9
				c-1.1-2.2-2.1-4.3-3.3-6.4c-0.8-1.4-1.9-2.7-2.7-4.1c-2.6-4.1-5.1-8.3-7.7-12.4c-3-4.9-6-9.9-9.1-14.7c-1.3-2-2.8-3.8-4.2-5.7
				c-0.3-0.5-0.7-1-0.8-1.6c-0.3-1.9-0.2-1.8,1.6-1.6c0.3,0,0.7-0.1,1-0.3c3.9-1.5,7.2-3.9,10.4-6.6c0.9-0.8,1.8-2.2,3.5-1.7
				c0.1,0,0.3-0.1,0.4-0.2c0.5-1.3,2-1.8,2.7-2.8c1.9-2.3,4.3-3.8,6.6-5.6c0.6-0.5,0.9-1.3,1.4-1.8c1.9-1.9,3.7-3.8,5.8-5.4
				c1.6-1.3,2.2-3,2.9-4.7c0.3-0.8-1-2.4-2.3-2.8c-1.2-0.4-2.7-0.2-3.6-1.5c-0.2-0.2-1.2,0.1-1.8,0.1c-0.9,0.1-1.8,0.2-2.7,0.2
				c-1.2,0-2.4-0.3-3.6-0.2c-3.2,0-6.3,0.2-9.5,0.2c-1.1,0-2.2-0.3-3.2-0.3c-3.4,0.1-6.7,0.2-10.1,0.3c-2,0.1-4.1,0.2-6.1,0.4
				c-0.8,0.1-1.6,0.4-2.3,0.6c0,3.4,0,6.8,0,10.1c0,5.9,0.1,11.8,0.1,17.8c0,3.7,0.1,7.3,0.1,11c0,0.5,0,1,0.2,1.4
				c1.4,3.9,0.2,7.9,0.1,11.8c0,1.3,0.2,2.7,0.2,4c0,2.7,0,5.5,0,8.2c0,4-0.4,7.9,0.1,11.8c0.2,1.9,0,3.8,0.1,5.6
				c0.2,3.4,0.4,6.9,1.7,9.9c1.3,2.9,3.3,6.1,7.5,5.9c0.4,0,1,0.9,1.2,1.5c0.1,0.3-0.4,1-0.8,1.2c-0.6,0.3-1.3,0.5-1.9,0.5
				c-4.6,0.1-9.2,0.1-13.9,0.1c-0.6,0-1.3-0.4-1.9-0.7c-0.4-0.1-1-0.4-1.3-0.3c-2.2,1.4-4.7,0.8-7,0.8c-6.1,0.1-12.1-0.2-18.2-0.2
				c-4.8,0-9.6,0.4-14.4,0.4c-3.8,0-7.6-0.1-11.4-0.2c-1.3,0-2.7-0.2-4-0.1c-0.7,0-0.8-0.8-1.8-0.5c-5.4,1.9-11,0.4-16.5,0.7
				c-4.1,0.2-8.3,0.2-12.5,0.3c-2,0-4,0.1-5.9-0.3c-1.6-0.3-3.1-1.4-4.6-2.1c-0.4-0.2-0.8-0.7-1.2-0.6c-3.3,0.1-5.6-2.1-8.4-3.3
				c-1.7-0.7-3.1-1.9-4.7-2.8c-1.2-0.7-2.6-1-3.7-1.8c-1-0.7-1.7-1.7-2.6-2.6c-0.4-0.4-0.9-0.8-1.5-1.1c-0.9-0.5-2-0.8-2.9-1.3
				c-1.3-0.8-2.5-1.8-3.8-2.6c-1.1-0.7-1.8-1.5-2.3-2.8c-0.3-0.9-1.6-1.4-2.3-2.2c-1.9-2-3.8-4-5.7-5.9
				C211.3,147.6,211.1,147.5,211,147.4z M317.7,170.8c1.7-0.3,2-1.4,2.1-2.9c0-1.6,0.5-3.1,0.7-4.7c0.2-1.7,0.4-3.4,0.5-5.1
				c0.1-2.1-0.9-4.2,0.7-6.1c0.1-0.1,0.1-0.5,0-0.7c-0.5-1.9-0.7-3.8-0.5-5.8c0.2-2.8-0.1-5.5-0.1-8.3c0-1.2-0.1-2.3-0.1-3.5
				c0-3.4,0-6.9,0-10.3c0-3,0.2-6.1,0.2-9.1c0-1.8,0-3.7,0-5.5c0-1-0.3-2-0.3-3c0-2.2,0-4.4,0-6.6c0-0.2,0.1-0.5,0.1-0.7
				c0-1.1,0.2-2.2,0.1-3.3c-0.2-1.9-0.6-3.7-0.7-5.6c-0.1-2.3,0.1-4.6,0-6.9c0-2.1-0.3-4.1-0.3-6.2c0-4.5-0.1-8.9,0-13.4
				c0-3.3,0.3-6.5,0.3-9.8c0-1.3-0.3-2.7-1-3.8c-1.3-2.2-2.9-4.3-4.6-6.8c-1.1,1.1-1.9,2-2.7,2.8c-2.2,2-4.5,3.7-6.5,5.9
				c-1.8,1.9-3.7,3.7-5,6.2c-1.5,3.1-3.9,5.8-5.5,8.8c-1.4,2.7-2.3,5.6-3.2,8.5c-0.5,1.4-0.1,3.2-0.7,4.5c-1,1.7-1.1,3.4-1.2,5.2
				c-0.1,1.7-1,2.4-2.4,1.5c-1.7-1.1-3.5-2.1-3.7-4.5c0-0.3-0.2-0.7-0.5-1c-2.9-2.8-6.6-4.2-10.5-5.1c-1.7-0.5-3.6-0.5-5.4-0.6
				c-1.1-0.1-2.2-0.1-3.2,0.1c-1,0.1-1.9,0.5-2.9,0.8c-1.2,0.4-2.5,0.7-3.6,1.2c-1.6,0.7-3.1,1.4-4.6,2.2c-1.1,0.5-2.2,0.9-3.2,1.7
				c-2.1,1.7-4.2,3.6-6.2,5.4c-0.3,0.2-0.3,0.7-0.5,1.1c-0.6,1.3-1.2,2.7-1.9,4c-0.7,1.2-1.8,2.3-1.4,4c0.1,0.4-0.2,0.9-0.4,1.3
				c-1.3,2.7-2.8,5.3-2.2,8.5c0.1,0.3-0.3,0.7-0.3,1c-0.3,2.2-1.3,4.4,0.3,6.7c1.1,1.4,0.4,4.4-1.1,5.8c0.7,0.2,1.4,0.2,1.7,0.5
				c0.3,0.4,0.2,1.2,0.3,1.8c0,0.1,0.1,0.2,0.2,0.3c1.3,0.6,1.3,1.9,1.2,2.9c-0.2,1,0.4,1.5,0.9,1.9c1.1,0.7,2.4,1.3,1.3,2.9
				c-0.1,0.1,0,0.4,0.1,0.6c0.7,1.1,1.1,2.3,2,3.2c1.9,1.7,3.9,3.3,6,4.6c3.7,2.3,7.9,3.1,12.1,3.7c2.6,0.4,5.4,0.2,8.1,0.2
				c3.9-0.1,7.7-0.5,11.2-2.2c2.3-1.1,4.9-1.8,5.9-4.7c0.3-0.8,1.6-1.3,2.5-1.5c0.4-0.1,1.2,1,1.5,1.7c0.4,0.8,0.4,1.8,0.6,2.7
				c0.1,0.9,0,1.8,0.3,2.6c0.5,1.6,1.3,3,1.9,4.6c1.4,3.5,2.4,7.3,5,10.2c2.4,2.8,4.8,5.5,7.5,8c1.7,1.6,3.8,2.9,4.9,5
				c0.1,0.2,0.5,0.4,0.7,0.6c0.7,0.5,1.3,1,2,1.5c0.4,0.3,0.8,0.6,1.3,0.8C316.2,170.4,316.9,170.6,317.7,170.8z M420,45.4
				c3.2,2.2,6,4.3,9,6.2c1.2,0.7,1.7,1.6,1.7,2.9c0,0.7,0.1,1.6,0.5,2c2.2,2.1,2.9,4.8,3.4,7.7c0.1,1,0.8,1.9,1.1,2.8
				c0.3,0.9,0.6,1.9,0.7,2.8c0.1,2.2-0.1,4.4-0.1,6.6c0,1.2-0.2,2.5,0,3.7c0.5,2.9-1.9,5.1-1.6,7.9c0,0.1-0.2,0.2-0.3,0.3
				c-1.5,1.7-2.9,3.4-4.4,5.1c-3.1,3.5-6.2,6.9-9.3,10.4c-1.4,1.5-2.6,3.2-4,4.6s-2.9,2.8-4.3,4.1c-0.2,0.2-0.5,0.4-0.7,0.6
				c-0.9,0.9-1.8,1.7-2.6,2.6c-0.9,1.2-0.6,2.2,0.5,3.2c0.7,0.7,1.6,1.5,1.9,2.4c1.2,3.1,2.2,6.1,4.6,8.6c1.7,1.9,2.7,4.4,4,6.7
				c1.3,2.2,2.7,4.2,4,6.4c1.9,3.2,3.7,6.5,5.5,9.7c1.1,1.9,1.9,4.2,3.5,5.7c1.9,1.8,3.1,3.9,4.2,6.2c0.4,0.9,1.1,1.7,1.7,2.6
				c0.5-0.6,0.7-0.9,1-1.2c2.1-2.9,4.2-5.9,6.4-8.7c2.3-3,4.7-6,7-9c3.3-4.3,6.5-8.7,9.8-13.1c0.4-0.5,0.9-0.9,1.2-1.4
				c1.6-2,3.3-4,4.8-6.1c2.4-3.3,4.6-6.7,7-10c1.4-2,3.2-3.8,4.5-5.9c1.4-2.4,2.7-4.9,3.7-7.4c0.8-2,1.6-4.2,0.4-6.3
				c-0.5-0.9-1.4-1.7-2.1-2.5c-2.7-3-5.2-6.2-8.4-8.8c-1.6-1.3-2.6-3.3-4.1-4.8c-2.7-2.7-5.5-5.4-8.3-8c-2.7-2.5-5.4-4.9-7.7-7.8
				c-1.6-2.1-3.5-3.9-5.4-5.8c-1.8-1.8-4.6-2.8-5.3-5.8c0-0.2-0.3-0.3-0.4-0.4c-3.5-2.5-7.1-5-10.6-7.5c-0.2-0.1-0.4-0.2-0.6-0.3
				C428.2,45.2,424.5,44.7,420,45.4z M605.5,42.4c0.1,0.1,0.1,0.2,0.2,0.4c-0.6,0.8-1,1.8-1.8,2.2c-2.3,1.4-3.2,3.7-4.2,6
				c-1.2,2.8-0.7,5.8-0.9,8.7c-0.1,2,0.1,4,0,6c-0.2,4.4-0.5,8.8-0.6,13.2c-0.1,3.9,0,7.9,0.1,11.8c0.1,6.5,0.3,12.9,0.5,19.4
				c0,0.7,0.2,1.4,0.2,2.2c0.1,5.1,0.1,10.3,0.1,15.4c0,5.4,0.1,10.7,0.1,16.1c0,3.1,0.2,6.2,0.1,9.3c-0.2,4.2,1,8.2,1.9,12.2
				c0.3,1.5,1.4,2.9,2.2,4.2c0.3,0.4,1.1,1,1.3,0.9c1.8-0.9,4.2-1.6,5.3-3.2c2.2-3.1,3.8-6.7,4.3-10.5c0.2-1.5,0.1-3.1,0.2-4.6
				c0.1-3.5,0.3-7,0.4-10.5c0.1-2.3,0-4.6,0-6.9c0-0.9,0-1.7,0-2.6c-0.1-2.3-0.3-4.6-0.3-6.8c0-3.2,0.2-6.3,0.2-9.5
				c-0.1-4.4-0.3-8.7-0.5-13.1c-0.1-2.4-0.3-4.9-0.4-7.3c-0.2-3.2-0.5-6.4-0.6-9.6c-0.1-3,0.1-5.9,0-8.9c-0.1-3.4-0.4-6.8-0.6-10.2
				c-0.1-2.6,0.1-5.3-0.1-7.9c-0.2-2.1-0.9-4.3,0.3-6.3c0.1-0.2-0.1-0.5-0.1-0.7c-0.1-0.9-0.2-1.9-0.5-2.8c-0.5-1.5-0.8-3.4-1.9-4.4
				C609.2,43.5,607.2,43.1,605.5,42.4C605.7,42.3,605.6,42.4,605.5,42.4z M44.8,50.7c1.6,0.5,2.6,1,3.7,1.2c1.2,0.2,1.4,1,1.2,1.9
				s-0.7,1.8-1,2.7c-1,2.7-1.9,5.5-2.8,8.2c-1.8,5.5-2.3,11.2-1.7,16.8c0.2,1.8,1,3.7,1.8,5.4c1.2,2.5,0.9,5.2-1.1,7.1
				c-1.1,1-2.2,1.7-3.8,0.7c-0.4-0.3-1.3-0.1-1.8,0.1c-0.3,0.1-0.4,0.9-0.4,1.4c0,1.1,0.4,2.1,1.5,2.7c0.4,0.2,0.7,0.7,0.9,1.2
				c1.1,2.5,3.7,3.3,6,2.1c0.7-0.4,1.8-0.8,2.2-0.4c1.4,1,2.6,2.3,3.7,3.6c0.3,0.3,0.2,1.2-0.1,1.6c-0.6,1-1,2.1-2.5,2.3
				c-0.7,0.1-1.5,0.6-2,1.1c-0.9,0.9-1.9,2.1-1.4,3.5c0.2,0.8,0.9,1.5,1.5,2.2c2.5,2.6,8,3.5,11.1,1.8c0.4-0.2,0.8-1.1,0.7-1.5
				c-0.7-2.2,0.3-3.3,2-4.3c1-0.6,1.4-1.5,0.5-2.6c-0.9-1.1-1.8-2.2-2.5-3.3c-0.8-1.2-1.4-2.5-2.1-3.8c-0.3-0.5-0.5-1.1-0.8-1.6
				c-1.1-1.6-2.2-3.2-3.4-4.9c-0.3,0.3-0.8,0.6-1.3,1.1c-0.8,0.8-1.4,1.6-2.2,2.4c-1.4,1.2-3.8,0.5-3.8-1.2c0-1.6,0.6-3.2,1-4.8
				c0-0.2,0.5-0.4,0.7-0.4c1.1-0.2,2.3-0.4,3.4-0.7c0.4-0.1,0.8-0.6,1-1.1c0.7-1.6-0.6-2.8-1.1-4c-1.7-4.4-1.9-9-1.6-13.5
				c0.1-1.8,1-3.6,1.5-5.4c0.4-1.2,0.6-2.5,1.1-3.7c0.8-2.1,1.9-4,2.5-6.1c1.1-3.5,3.2-6,6.3-7.8c2.1-1.3,3.5-0.7,4.6,1.4
				c0.4,0.8,1.3,1.8,2,1.9c1.1,0.1,2.3-0.2,2.9-1.7c0.7-1.7-0.8-4.3-3-4.9c-0.8-0.2-1.5-0.3-2.3-0.3c-1.8-0.1-2.5-1.1-1.7-2.7
				c0.4-0.9,1.1-1.9,1.9-2.2c1.8-0.6,3.1-1.8,4.2-3.2c1.3-1.6,3.2-1.5,4.9-1c1.2,0.4,1.2,1.8,1.3,3c0,0.4,0.6,1.1,1.1,1.3
				c2.8,1.3,4.2,5,3.6,7.4C81,50.6,81.3,51,82,51.5c1.4,1,1.7,2.1,0.8,3.6c-0.4,0.7-1,1.4-1.7,2c-0.9,0.8-1.1,3-0.4,4.5
				c0.7,1.3,1.7,0.7,2.6,0.5s1.7-0.3,2.4,0.5c0.6,0.7,1.1,0.5,1.7-0.4c0.8-1.2-0.1-3.1,1.6-3.9c0,0,0.1-0.2,0-0.3
				c-0.7-1.7-1.1-3.6-2.2-5c-1.3-1.8-2.3-3.7-1.3-5.1c0.8-1.1,0.3-2.1,0.2-3.1c-0.1-0.7-0.3-1.4-0.5-2.1c-0.2-1.2,0.2-2.6-1.3-3.2
				c-0.2-0.1-0.3-0.5-0.4-0.8c-0.7-2.1-0.5-4,1.2-5.7c1.3-1.3,2-1.6,3.6-0.9c0.5,0.2,1.1,0.5,1.4,0.9c1.1,1.3,2.6,1.7,4.2,1.9
				c2.3,0.4,4.8-1.7,4.7-4c-0.1-2.5,2.2-4.6,4.6-3.7c1.9,0.7,3.8,1,5.7,1.1c2.5,0.2,4.9,0.6,7.4,0.6c2.4,0,4.9-0.4,7.3-0.5
				c5.8-0.1,11.5,0,17.3,0c2.4,0,4.9-0.1,7.3,0.1c3.6,0.4,7.1,0,11-0.9c-0.6-1.3-1.1-2.5-1.8-3.5c-0.3-0.4-0.9-0.8-1.4-0.8
				c-3.3-0.1-6.5,0.1-9.8,0c-4.5-0.1-8.9-0.3-13.4-0.4c-1.5,0-3.1,0.2-4.6,0.1c-3.1-0.1-6.1-0.5-9.2-0.5c-3.7,0-7.3,0.3-11,0.3
				c-2.1,0-4.1-0.2-6.2-0.2c-2.3,0-4.7,0.2-7,0.3c-0.3,0-0.9-0.1-1-0.3c-1.3-2.3-3.8-2.9-5.7-4.4c-1.2-0.9-2.9-0.8-3.9,0
				c0.7,1.7,1.3,3.3,1.9,4.9c0.7,1.7,0.4,2.6-1.3,3.4c-0.8,0.4-1.7,0.6-2.5,0.8c-1.7,0.3-3.2,1.2-3.8,2.7c-1.5,3.4-2,3.9-5.6,3.7
				c-1.5-0.1-2.4-1.1-2.2-2.6c0.1-0.5,0.1-1,0.2-1.4c1.9-1.2,3.7-2.3,5.5-3.5c-1.3-1.6-4.5-2.3-6-1.3c-0.6,0.4-1.4,1.1-1.5,1.7
				c-0.4,2.2-2,3.4-3.4,4.7c-2.5,2.2-2.5,5.1-2.1,7.8c0.3,2.7-0.8,4.7-3.5,4.6c-1.8-0.1-3.6-0.7-5.5-0.9c-0.9-0.1-2.1-0.1-2.7,0.4
				c-1.5,1.3-3.6,1.9-4.5,3.9C46.6,48.1,45.7,49.3,44.8,50.7z M169.6,152.5c-0.3,1.1-0.4,2.1-0.8,3.1c-0.4,1,0,1.3,0.8,1.7
				c1,0.4,2,0.8,3,1.2c0.9,0.4,1.3,0.9,0.9,2c-0.1,0.3-0.1,0.7-0.2,1c-1,2.2-1.7,4.6-3,6.6c-2.1,3.2-5.1,5.3-8.7,6.7
				c-4.1,1.5-7.8,2.6-12,0c-2-1.2-3.5-2.5-3.9-4.6c-0.4-1.9-1.4-2-2.9-1.9c-0.3,0-0.6,0.1-0.9,0.1c-1.9,0.2-2,0.6-1.1,2.4
				c0.7,1.4,1.4,2.9,1.7,4.5c0.4,2.3-1.4,5-3.2,5c-2,0-4-0.3-5.4-2.2c-0.7-0.9-1.7-1.7-2.8-2.2c-0.6-0.3-1.7-0.3-2.1,0.1
				c-0.7,0.7-0.8,1.7,0.1,2.6c1.2,1.2,2.4,2.4,3.3,3.9c0.6,1,1.3,1.2,2.3,1.2c3.8,0,7.6,0,11.5,0.1c0.8,0,1.8,0.7,2.5,0.4
				c2.6-1,3.5,0.7,4.3,2.5c1.6,3.2-0.6,6.9-4.2,7c-0.9,0-1.9,0.5-2.6,1.1c-1.1,0.8-1.9,2-3,2.8c-3.9,2.8-8.2,3.6-12.7,1.7
				c-2.2-0.9-4.3-2.2-6.1-3.7c-2.6-2.3-5.6-2.4-8.7-2.5c-4.5-0.2-9,0-13.5,0c-1.6,0-3.8,1.3-4.1,2.6c-0.3,1.3,0.8,2.8,2.5,3.5
				c2.7,1.1,3.4,0.8,5.6-1.3c1.1-1.1,2.6-1.9,4.1-2.3c1.5-0.3,3.5,2.2,3.7,4c0.2,2.1,0.7,2.5,2.9,2.3c3.3-0.3,6.6-0.6,9.9-0.7
				c3.5-0.1,6.9,0.2,10.4,0.2c4,0,8-0.2,12-0.2c1.3,0,2.7-0.2,3.9,0.2c1.8,0.6,2.4,0.5,3.1-1.3c0.3-0.9,0.9-1.8,1.5-2.4
				c1.7-1.8,3.6-2.9,6.2-2.1c0.4,0.1,0.9,0,1.4-0.1c3.3-0.3,5.8,1.8,6.2,5c0.1,0.6,0.3,1.2,0.4,1.9c1.5-0.9,2.6-0.4,3.5,0.7
				c1.9-1.1,1.8-1,0.8-2.7c-0.5-0.8-0.8-1.8-1-2.7c-0.4-2,0.7-3.7,1.4-5.4c0.3-0.7,0.4-1.8,0.1-2.3c-0.4-0.6-1.6-1.3-2.2-1.1
				c-1.7,0.4-3.3,1.2-4.9,2.1c-2,1.2-4.3,0.1-4.8-2.2c-0.2-1.2-0.9-2.4-1.2-3.6c-0.2-0.7-0.4-1.8,0-2.1c1.2-1,2.1-2.5,4-2.4
				c0.4,0,0.8-0.5,1.2-0.7c0.5-0.4,1-0.8,1.5-1.2c0.9-0.7,1.9-1.4,2.7-2.2c0.7-0.9,1.1-2,1.8-2.9c1.1-1.4,2.7-2.4,3.5-3.9
				c1.4-2.5,2.6-5.2,3.6-7.9c0.7-1.8,0.8-3.9,1-5.7c0.2-2.4-0.4-4.9-0.8-7.3c-0.3-1.9,0.6-3.5,2.5-3.9c2.2-0.5,4.5-0.9,6.7-1.2
				c3-0.4,5.7,1.8,5.6,4.7c-0.1,3.4,0.9,6.8-0.6,10.1c-0.1,0.2-0.1,0.4,0,0.6c0.6,1.3-0.5,1.9-1.2,2.4c-0.5,0.3-1.4,0.1-2.2,0.1
				c0,0.8,0,1.9,0,3.1c2.6,0,4.3,1.3,5.5,3.5c0.7-2,1.2-4,1.7-5.9c0.3-1.1,0.8-2.2,0.9-3.4c0.1-1.3-0.3-2.7-0.3-4
				c-0.1-2.4,0-4.7,0-7.1c0-0.7,0-1.4-0.2-1.9c-0.5-1.2-1.3-2.2-1.6-3.4c-0.9-3-0.9-6.3-2.5-9.2c-1.1-1.9-1.6-4-3.8-5
				c-0.6-0.3-1.1-0.9-1.7-1.4c-1.1-0.8-1.8-2.3-3.6-2c-1.2,0.2-2.5,0.2-3.7,0.4c-0.4,0.1-0.7,0.6-1,1c-0.5,0.6-0.8,1.4-1.3,2
				c-0.7,0.8-1.4,1.6-0.8,2.7c0.2,0.5,0.2,1,0.4,1.5c0.3,0.6,0.7,1.2,1,1.8c0.6-0.4,1.3-0.7,1.8-1.2c0.9-1.1,3.5-1.9,4.7-1.1
				c1.2,0.8,2.4,1.6,3.3,2.8c0.3,0.4-0.7,1.6-1,2.5c-0.1,0.2-0.1,0.4-0.2,0.6c-0.5,0.5-1,1.3-1.6,1.5c-2.2,0.6-4.4,1.3-6.7,1.5
				c-1.8,0.1-2.8,1-3.2,2.4c-0.6,1.9-1.9,3.8-1.1,6c0.1,0.2,0,0.6-0.1,0.7c-0.8,0.7-1.5,1.6-2.4,2.1c-1.3,0.8-2.6,1.6-4.2,0.8
				C170.4,152.6,170,152.6,169.6,152.5z M708.1,138.2c-0.7,0.1-1.5,0.5-2.1,0.3c-0.9-0.4-1.9-1-2.5-1.8c-0.7-0.9,0.2-1.5,0.9-2
				c1.4-1,2.7-2.2,4.2-2.9c1.7-0.8,3.5-0.7,4.6,1.1c0.8,1.2,1,2.2,1,3.5c0,1.8,0.4,3.5,0.4,5.3s-0.5,3.6-0.5,5.4
				c0.1,4.6,0.1,9.3,0.5,13.9c0.2,2,0,4.5,2.2,5.7c1.3,0.7,2.8,1.2,4.3,1.5c0.5,0.1,1.2-0.7,1.7-1.2c1.5-1.5,0.8-4.3-1-5.1
				c-0.5-0.2-1.2-0.8-1.2-1.4c-0.3-2.5-0.5-4.9-0.7-7.4c-0.1-1.2-0.1-2.3-0.1-3.5c0-0.6-0.3-1.3-0.1-1.8c1.1-2.2,0-4.3-0.5-6.3
				c-0.2-0.8-0.4-1.7-0.3-2.5c0.1-3.9,0.3-7.7,0.3-11.6c0-2.7-0.4-5.5-0.5-8.2s0.1-5.5,0.1-8.2c0-3.4-0.1-6.7-0.3-10.1
				c-0.1-0.8-0.5-1.8-1.2-2.3c-1.6-1.3-2.5-3.4-1.9-5.3c0.6-2.1,2.1-3.3,4.3-3.4c0.3,0,0.6-0.1,0.5-0.1c0.1-1.2,0.2-2.1,0.2-3
				c0-1-0.3-1.9-0.3-2.9c-0.1-2.3-2.3-3.9-4.5-3.4s-4.6,4.1-4.3,6.6c0.1,0.9,0,1.8,0,2.6c-0.1,3.6-0.2,7.1-0.3,10.7
				c0,1,0.3,1.3,1.3,1.4s2,0.7,2.8,1.3c0.7,0.5,1,1.5,1.6,2.2c0.8,0.9,1.5,1.7,0.8,2.9c-0.7,1.2-1.7,2.1-3.2,1.6
				c-0.9-0.3-1.8-0.6-2.5-0.9c-0.1,1-0.2,2.1-0.2,3.2c0,0.3,0,0.7,0.1,1c0.9,2,0.4,3.6-1,5.1c-0.8,1-1.9,1.1-2.8,0.2
				c-1-1-2.1-2-2.9-3.1c-1.8-2.6-3.9-4.8-5.3-7.7c-1.4-2.9-3.6-5.5-5.5-8.2c-1.2-1.6-2.6-3.1-3.8-4.7c-0.9-1.1-1.6-2.3-2.4-3.4
				c-0.4-0.6-0.9-1.3-1.3-1.9c-2.5-2.9-4.9-5.9-7.4-8.8c-0.5-0.6-1-1.1-1.5-1.7c-1.6-2.1-3.5-4.2-4.8-6.5c-1.4-2.4-2.6-4.9-5-6.5
				c-0.9,1.2-1.8,2.2-2.6,3.4c-0.1,0.2,0.1,0.8,0.3,1.1c0.7,1,1.4,1.9,2.1,2.9c1.9,3,3.7,6.2,5.7,9.1c1.9,2.7,4.1,5.2,6.1,7.8
				c0.2,0.2,0.4,0.4,0.4,0.6c0.3,2.2,1.8,3.8,3.3,5.2c2.9,2.7,4.8,6.1,7.1,9.3c2.1,2.9,4.4,5.6,6.5,8.4c0.5,0.6,0.9,1.4,1,2.1
				c0.2,1.3,0,2.7,0,4c0,1.2-0.2,2.3-1.7,2.6c-0.4,0.1-0.8,0.4-1.2,0.7c-1.7,1.1-3.5,0.1-3.6-1.9c0-1.4-0.7-1.9-2.2-2.2
				c0.2,1.8-1.6,3.6,0.6,5.1c0.1,0.1,0.2,0.4,0.2,0.6c0.6,1.6,1.2,3.2,2.9,4c0.2,0.1,0.5,0.5,0.5,0.7c0.1,1.6,1.2,2.1,2.4,2.5
				c1.3,0.4,1.6,1.3,0.9,2.4c-0.9,1.4-0.7,2.8-0.2,4.3c1.3,3.8,5.5,5.5,9.1,4.2C707.5,142,708.7,139.8,708.1,138.2z M752.3,102.4
				c0.1,1.2,0.1,2.5,0.4,3.7c0.5,2.3,1.1,4.5,1.9,6.7c0.6,1.8,1.6,3.6,2.4,5.4c0.5,1.3,1.2,2.6,1.3,4c0.1,0.7-0.5,1.9-1.2,2.3
				c-1.6,1.1-5.8-0.1-6.6-1.8c-1.3-2.8-2.4-5.7-3.6-8.6c-0.4-0.9-0.8-1.9-1.1-2.9c-0.2-0.7-0.4-1.5-0.4-2.3
				c-0.1-2.4-0.1-4.7-0.3-7.1c-0.2-3-1.3-6,0.4-9c0.2-0.3,0.1-0.8,0.1-1.2c0.1-1.7,0.2-3.3,0.3-5c0-0.8,0-1.7-0.4-2.3
				c-0.7-1.2-1.7-2.2-2.6-3.2c-2.3-0.1-3.5,1.2-3.7,3.5c0,0.1-0.1,0.2-0.1,0.3c-2.2,4.8-2.1,9.7-1.2,14.8c0.2,1.1,0.4,2.3,0.2,3.4
				s-0.2,1.9,0.8,2.5c0.3,0.2,0.4,1.3,0.2,1.5c-0.8,0.7-1.9,1.2-2.8,1.9c-0.5,0.4-1,0.9-1.3,1.4c-0.4,0.7-0.7,1.5-1.2,2.4
				c0.4,1.3,0.9,3,1.3,4.2c1.7,0,3.3-0.1,4.8,0.1c0.5,0,1.1,0.6,1.3,1.1c1.1,2.4,1.9,5.1,3.3,7.4c1.1,1.8,2.5,3.6,4.2,4.9
				c1.4,1.1,3.3,1.6,5.4,2.6c2.3-0.8,2.5-0.8,2.4-3.2c0-1.9,0.8-3,2.5-3.2c1.4-0.2,3.2-0.4,4.3,0.3c0.7,0.4,0.9,2.4,0.7,3.6
				c-0.2,0.8-1.5,1.7-2.4,1.8c-1.6,0.1-2.3,1.1-3,2.1c-0.6,0.9-0.5,2.1,0.1,3.1c0.7-0.8,1.2-1.8,2-2.1c2.7-1.3,4.9-0.5,6.4,2.1
				c0.1,0.2,0.3,0.6,0.4,0.6c2.2,0.4,2.4,2.5,3.4,3.9c0.6,0.8,1.5,1.5,2.5,2.4c0.2-0.7,0.3-0.9,0.3-1.2c0.2-2,1.3-3.6,3.1-4.3
				c2.1-0.9,3.9,0.3,5.3,1.7c1.5,1.5,0.7,5-1.2,5.7c-0.6,0.2-1.1,0.5-1.6,0.8c0.4,0.6,0.7,1.4,1.2,1.7c1.4,0.7,3,1.2,4.5,1.8
				c2.3,0.9,2.3,0.9,3.6-1.3c1-1.6,2.6-2.5,4.1-2.2c2.1,0.4,3.3,1.7,3.6,3.8c0.1,0.5,0.3,0.9,0.4,1.4c0.8-0.5,1.3-1.1,1.9-1.2
				c2-0.3,3-1.4,3.1-3.3c0.1-1.2-0.2-2.5-0.5-3.7c-0.3-1.4-1.2-1.9-2.6-1.4c-1.5,0.5-3.1,0.8-4.7,0.1c-1.5-0.6-3.1-1.1-4.7-1.4
				c-3.9-0.8-7.5-2.5-10.5-5.1c-1.2-1-2.4-2-3.5-3c-2.8-2.6-5.6-5.1-7.5-8.4c-1.5-2.5-3-5.1-4.2-7.7c-1.1-2.5-1.8-5.2-2.6-7.8
				c-0.4-1.3-0.7-2.7-1.1-4C755.5,107.3,753.1,105.1,752.3,102.4z M228.1,94.8c1-2.9,1.9-5.7,2.9-8.4c0.6-1.6,1.6-3,2.1-4.7
				c0.7-2.4,2.4-4,4.1-5.5c2-1.8,4.4-3.1,6.7-4.6c1.3-0.8,2-2.5,1.4-3.5c-0.8-1.2-2.8-1.6-4.1-0.7c-0.4,0.3-0.9,0.5-1.4,0.7
				c-3.2,1.4-5.9,3.4-7.3,6.7c-0.2,0.5-0.7,1.1-1.2,1.4c-2.5,1.2-3.1,3.7-4.3,5.8c-0.6,1.1-1,2.3-1.4,3.4c-0.6,1.5-1.8,1.8-3.1,1.3
				c-1.6-0.7-3.1-1.6-4.5-2.6c-0.5-0.4-0.6-1.5-0.6-2.2c-0.1-0.5,0.4-1,0.3-1.5c-0.2-2.3,1.1-4,2.5-5.5c1.4-1.6,3.2-2.9,4.7-4.4
				c2.1-2.1,4.7-3.7,7.2-5.4c2.9-1.9,6.1-2.9,9.2-4.2c2.8-1.1,5.8-2,8.7-2.9c2.6-0.9,5.2-1.6,8-1c0.5,0.1,1.1-0.1,1.7-0.2
				c1.8-0.1,3.7-0.5,5.5-0.3c1.6,0.2,3.1,0.4,4.6-0.5c0.6-0.3,1.6-0.5,2.1-0.2c1.4,0.9,2.8,0.8,4.3,0.3c0.7-0.3,1.6-0.3,2.4-0.1
				c2.7,0.6,5.1,0.3,7.4-1.4c2.8-2.2,2.9-2.5,0.9-5.4c-0.6-0.8-1.6-1.6-2.5-1.8c-2.2-0.5-3.6,0.4-4.7,2.4c-0.6,1.1-1.4,1.7-2.7,1.6
				c-1.4-0.1-2.9-0.4-4.3-0.3c-3.7,0.3-7.3,0.7-11,1.1c-1.5,0.1-3.1,0.1-4.7,0.1c-4.7,0.1-9.4,0.1-13.7,2.2
				c-1.5,0.7-2.9,1.4-4.4,2.1c-3,1.4-6.4,2.4-9.1,4.3c-2.2,1.5-4.3,3.3-6.3,5.1c-2.3,1.9-4.1,4.5-6.2,6.7c-0.5,0.6-1.3,1.1-2,1.2
				c-1.9,0.4-2.7,1.7-2.2,3.6c0.1,0.4,0.2,0.9,0.1,1.4c-0.2,1.6-0.5,3.3-0.8,4.9c-0.3,1.5,0.2,2.4,1.5,3.2c1.9,1.3,2.7,4.2,1.8,5.9
				c-0.9,1.6-3.4,2.5-5.5,1.8c-2.6-0.9-2.6-0.9-3.9,1.6c-0.2,0.5-0.5,0.9-0.7,1.4c-0.1,0.3-0.2,0.7,0,0.9c1.4,1.3,2.8,2.8,4.4,3.8
				c1.1,0.8,2,1.5,1.6,2.8c-1.5,4.3,0.4,8.4,0.9,12.5c0.3,2.5,1.3,5,1.9,7.4c0.3,0.9,0.9,1.6,1.8,1.1c0.8-0.4,2.1-0.5,1.6-2
				c-0.6-1.9-1.2-3.8-1.5-5.8c-0.5-3.1-1.1-6.2-1.2-9.2c-0.1-2.8,0.2-5.7,0.4-8.5c0.1-1.6,0.8-2.9,2.6-3.2c0.7-0.1,1.4-0.5,1.9-0.9
				c0.3-0.2,0.6-1,0.4-1.2c-1.3-2.4,0.3-4,1.4-5.7c0.5-0.8,1.8-0.7,2.3,0.1c0.7,1.1,1.4,2.1,1.9,3.3
				C226.3,94.3,227.1,94.7,228.1,94.8z M70.2,118.6c-0.4-0.3-0.7-0.4-0.8-0.5c-0.9-1-1.7-0.1-2.5,0.1c0.3,0.6,0.6,1.2,0.9,1.7
				c0.2,0.3,0.6,0.4,0.9,0.6c1.8,0.8,3.7,1.6,5.6,2.3c0.9,0.3,2.2,0.1,2.9,0.7c1.4,1.1,3.1,1.1,4.7,1.4c2.2,0.3,2.7,1.6,1.3,3.4
				c-0.3,0.5-0.8,0.9-0.9,1.4c-0.4,1.6,1,3.6,2.6,4.1c1.9,0.5,4.1-0.4,4.8-1.9c0.6-1.2,1.3-2.4,2.1-3.4c2-2.4,2.2-4.7,0.9-7.5
				c-0.9-1.9-2.2-3.8-1.8-6.1c0.1-0.3-0.2-0.7-0.2-1.1c-0.4-2.1,0.6-3.8,2.5-4.7c0.4-0.2,0.8-0.6,1.1-1c1.1-2.2,2.1-4.4,4.4-5.7
				c0.1,0,0-0.2,0.1-0.5c-1.9-0.4-3.8-0.8-5.7-1.2c-0.5-0.1-1.3-0.2-1.6,0c-2.2,1.9-4.8,1-7.2,1.2c-0.1,0-0.3,0-0.4-0.1
				c-0.5-0.4-1.2-0.7-1.4-1.3c-0.2-0.4,0.3-1,0.7-1.8c-0.8,0.1-1.5,0-2.1,0.3c-1.3,0.7-2.2,0.3-3.3-0.4c-2.4-1.8-3.5-4.4-4.7-7
				c-0.9-1.8-1.6-3.6-1.3-5.7c0.2-2.1-1.6-3.2-2.8-4.6c-0.1-0.1-0.3-0.1-0.4-0.1c-2.9-0.6-4.2,0.2-4.5,3.1c-0.1,0.8,0.3,1.7,0.5,2.6
				c0.1,0.7,0.3,1.5,0.4,2.2c0.4,1.8,0.6,3.8,1.5,5.5c1.3,2.4,3.1,4.6,4.6,7c0.3,0.4,0.7,0.9,0.7,1.4c-0.2,2.4,1.4,3.5,3.2,4.4
				c0.7,0.4,1.5,0.6,2.3,0.8c1,0.3,2,0.4,3,0.7c0.5,0.1,1.1,0.4,1.5,0.3c2.1-0.8,2.5,0.9,3.3,2.1c-0.5,0.5-1,0.9-1.6,1.4
				c1.5,1.3,1.8,3,1.7,4.8c-0.1,2.2-0.7,2.8-2.9,2.7c-0.5,0-1-0.2-1.5-0.4c-1.4-0.5-2.9-0.8-4.2-1.6c-2.9-1.7-6.2-2.9-9.4-4.3
				c0.1,0.7,0.3,1.6,0.4,2.4C69.6,115.4,69.9,115.7,70.2,118.6z M102.3,101.7c0.9,1.3,1.6,2.1,2,3c0.4,1,0.5,2.1,0.8,3.1
				c0.1,0.3,0.5,0.6,0.7,0.6c1.8,0.2,3.6,0.8,5.3,0.5c3.9-0.6,7.8,0.2,11.6,0.3c1.3,0,2.6-0.2,3.9-0.2c8.7,0.2,17.5,0.3,26.2,0.6
				c3.8,0.1,7.6,0.7,11.4,1.1c0.7,0.1,1.5,0.5,1.8,1c0.8,1.5,2.1,1.8,3.6,2.1c0.8,0.1,1.7,0.3,2.3,0.8c2.1,1.4,4.3,2.5,6.7,3.4
				c3.1,1.2,5,0.8,6.6-2.1c0.3-0.5,0.4-1.6,0.1-1.9c-0.6-0.7-1.6-1.6-2.4-1.7c-1.7,0-3.3,0.5-5,0.7c-0.4,0.1-0.8,0.1-1.2,0
				c-1.5-0.3-2.8-2.5-2.3-4.4c0.4-1.4-0.1-2.1-1.1-2.6c-0.9-0.5-1.9-0.8-2.9-1c-1.9-0.5-3.7-0.9-5.6-1.3c-2.4-0.5-4.7-0.9-7.1-1.2
				c-1.6-0.2-3.4,0.2-4.8-0.4c-3.2-1.4-6.2-0.5-9.3-0.1c-1,0.1-2,0.1-3,0.2c-1.8,0-3.6,0-5.4,0.1c-1,0-2.1,0.4-3.1,0.2
				c-3.4-0.9-6.7-0.5-10-0.3c-1.4,0.1-2.9-0.5-4.3-0.8c-0.8-0.1-1.6-0.3-2.4-0.2c-1,0-2,0.2-2.9,0.2c-2.5,0-5.1-0.2-7.6-0.2
				C104.3,101,103.5,101.4,102.3,101.7z M381,107.9c0.6,0.3,1.4,1,1.9,0.8c2.2-0.8,4.5-1.5,6.4-2.8c2.4-1.7,4.3-3.9,6.5-5.9
				c0.3-0.2,0.5-0.5,0.8-0.7c1.6-1.3,3.2-2.6,4.8-4c2.3-2,4.5-4.1,7-6c2.3-1.8,4.7-3.5,5.6-6.3c0.8-2.4,1-5.1,1.4-7.6
				c0.1-0.5-0.1-1.1-0.4-1.5c-1.4-1.9-3.1-3.6-3.5-6.1c-0.1-0.5-0.2-1-0.1-1.4c0.6-1.3,1.3-2.5,1.9-3.9s1.5-1.4,2.7-1
				c1.3,0.4,2.8,0.8,4.2,0.7c1.7-0.1,4.1-3.4,4-5.1c0-0.7-0.3-1.4-0.8-2c-0.8-1-2.3-1.3-3-0.6c-2.6,2.5-4,2.7-6.9,0.8
				c-1.2-0.8-1.4-1.8-0.7-3c0.4-0.7,0.8-1.3,1.1-2.1c0.6-1.4,0.1-1.9-1.3-2c-0.6,0-1.2,0.1-1.7,0c-1.6-0.5-2.4-0.1-2.9,1.7
				c-0.5,2.1-3.1,3.3-4.5,2.3c-1.6-1.2-3.6-2-4.7-4c-0.5-0.9-1.5-1-2.2,0c-1,1.3-0.3,3.5,1.2,4.2c2.1,1.1,4.3,1.5,6.7,1.8
				c0.7,0.1,1.6,0.6,1.9,1.2c0.9,1.4,1.7,2.9,2.4,4.4c0.9,1.9,0.7,2.3-1.3,3.1c-1.5,0.7-3,1.4-4.7,0.8c-0.2-0.1-0.4,0.1-0.6,0.1
				c-0.9-0.2-1.7-0.3-2.5-0.6c-1.3-0.4-2.5-0.9-3.7-1.1c-1.1-0.2-2.3,0-3.4,0c-2.5-0.1-5.1-0.3-7.6-0.4c-3.2-0.1-6.3-0.1-9.5,0
				c-1.5,0-3.1,0.3-4.6,0.5c-1.3,0.2-1.3,1.4-1.5,2.3c-0.1,0.4,0.3,1.3,0.7,1.5c3.1,1.7,6.5,1.3,9.9,1.1c3.3-0.1,6.7-0.9,10-0.8
				c3.7,0.1,7.3,0.8,10.9,1.5c1.3,0.3,3,0.5,3.7,2.2c0.1,0.3,0.7,0.5,1.1,0.8c2.9,1.9,5.7,4.3,4.8,7.6c-0.5,1.9-1.6,3.7-2.4,5.5
				c-0.1,0.1-0.2,0.2-0.3,0.3c-1.6,1.5-3.2,2.9-4.8,4.4c-3.2,3.1-6.4,6.3-9.7,9.4c-2.1,2-4.2,4.2-6.6,5.9
				C384.9,105.3,383.9,108.1,381,107.9z M871.1,80.2c0-3.4,0-6.6,0-9.8c0-1.1,0.1-2.2,0.4-3.2c0.7-2.1,1.6-4.2,2.4-6.2
				c0.2-0.6,0.7-1,1-1.6c0.4-0.6,0.6-1.4,1-2c0.6-1,1.2-2.1,2.1-2.8c1.2-0.9,3.7-0.3,4.1,0.9c0.5,1.6,1,3.3,1.4,5
				c0.6,2.2,4.3,4.7,6.2,3.9c2-0.9,4-1.9,5.8-3.2c1.5-1,2.9-1.5,4.6-1.4c3.6,0.2,7.2-0.2,10.6-1.4c0.4-0.2,0.8-0.7,0.9-1.2
				c0.1-0.4-0.2-1.2-0.5-1.3c-3.2-1.2-6.6-1.2-9.6,0.2c-3.7,1.7-7,1.6-9.6-1.4c-1.3-1.4-1.1-3.5,0.4-3.9c1.4-0.4,2.8-0.7,4.3-0.8
				c4.3-0.1,8.7-0.1,13-0.1c1,0,2-0.2,3.1-0.2c0.9,0,1.8,0.4,2.7,0.4c2.1,0.1,4.1,0,6.2,0c2.8,0,5.6,0,8.4,0c0.7,0,1.5,0,2.2,0
				c0.1-0.2,0.2-0.3,0.3-0.5c-1.6-1.5-3.2-3-4.7-4.5c-0.1-0.1-0.4-0.2-0.6-0.2c-2.5,0.1-5.1,0.1-7.6,0.2c-1,0-2.1,0-3.1,0
				c-2.7,0-5.5,0.1-8.2-0.1c-2-0.1-4,0.9-6.1,0.2c-1.4-0.5-2.5-0.3-3.3,1c-0.6-0.2-1.1-0.4-1.6-0.6c-1.3-0.7-3-1.2-3.8-2.3
				c-0.9-1.3-1.8-1.4-3-1.2c-1.1,0.2-2.2,0.7-3.4,1c0.2,1.1,0.5,2.1,0.3,3c-0.1,0.8-0.6,2-1.2,2.3c-1.7,0.7-3.6,1.2-5.5,1.5
				c-3.4,0.5-6,2.2-8.2,4.6c-1.2,1.3-2,3.2-4.2,3c-0.3,0-0.7,0.5-0.9,0.9c-0.5,1.1-0.7,2.4-1.4,3.5c-1.1,1.8-0.7,3.5-0.2,5.4
				c0.2,0.5,0.4,1.2,0.2,1.6c-1.2,3.2-0.7,6.6-0.7,9.9c0,0.6,0.3,1.3,0.6,2.4C867.8,79.1,869.4,79.7,871.1,80.2z M628.5,68.9
				c-2.4-0.1-2.5-0.1-3.2-2.4c-0.4-1.1-2.2-1.9-3.1-1.3c-2.8,1.8-3.8,5.3-2.4,8.3c0.3,0.8,0.4,1.7,0.4,2.6c0,1.6-0.5,3.4,0.1,4.8
				c0.7,1.5,1.7,3,2.5,4.6c0.4,0.8,0.8,1.4,0.5,2.4c-0.2,0.6-0.1,1.3-0.1,2c0.1,4.5,0.3,9,0.4,13.5c0.1,2.3,0,4.7-0.1,7
				c-0.1,2.5-0.2,4.9-0.3,7.4c-0.1,2.3-0.2,4.6-0.1,6.8c0,1.9,0.1,3.8,0.3,5.7c0.1,0.9,0.4,1.7,0.5,2.4c1.2-0.3,2.1-0.8,3-0.8
				c1.3,0,1.4-0.5,1.2-1.5c-0.2-1.5-0.3-3.1-0.4-4.6c-0.1-1.5-0.2-3.1-0.3-4.6s-0.5-3.1-0.5-4.6c-0.1-3.6,0-7.1-0.1-10.7
				c0-0.5-0.2-0.9-0.2-1.4c-0.1-1.3-0.2-2.7-0.2-4c0-2.9,0.5-5.9,0.1-8.7c-0.3-2.3-0.4-4.4-0.2-6.6c0.2-1.8,2.2-3.7,3.7-3.7
				s3.4,2.1,3.5,3.9c0.1,2.6,0.2,5.2,0.1,7.8c-0.1,2.3-0.4,4.7-0.6,7c-0.1,2.2-0.2,4.4-0.2,6.5c0,3,0,6.1,0,8.8
				c1.4,0.3,2.8,0.2,3.4,0.9c2.2,2.5,1.7,6.4-1.2,7.8c-0.6,0.3-1.3,0.7-1.4,1.3c-0.7,2.2,0.2,4.4,2.1,5.8c1-1.2,2-2.4,2.9-3.7
				c0.2-0.3,0.3-0.7,0.3-1c0.3-2.4,0.6-4.7,0.8-7.1c0.1-0.9,0-1.9-0.3-2.7c-1.1-2.8-2-5.6-1.6-8.6c0.2-2,0-4-0.2-5.9
				c-0.3-3.6-0.4-7.1,0-10.7c0.1-1.4-0.1-2.9,0.1-4.3c0.6-3.9-1.8-7.6-0.8-11.6c0-0.1-0.1-0.2,0-0.1c-1-0.2-1.9-0.3-2.7-0.6
				c-1.7-0.5-2.5-0.2-3.3,1.5c-0.6,1.3-2.5,2.1-4,1.7c-1.3-0.3-3-1.8-2.8-2.8c0.2-1.4,1.4-1.9,2.7-2.2c0.1,0,0.2-0.1,0.3-0.1
				c1.9-0.6,1.9-0.7,1.5-2.7C628.5,69.7,628.5,69.4,628.5,68.9z M931.3,95c-1.9-0.3-3.8-0.6-5.7-0.8c-0.7-0.1-2.1,0.2-2.2,0.5
				c-0.5,1.9-1.9,1.7-3.2,1.6c-3.8-0.3-7.7-0.6-11.5-1c-2-0.2-4-0.4-6-0.7c-1-0.1-2-0.5-3-0.6c-2.4-0.1-4.4-0.7-5.6-3
				c-0.2-0.3-1.2-0.6-1.4-0.4c-1.6,1.3-3.2,2.6-4.7,4.1c-1.3,1.2-2.3,2.7-3.6,3.9c-0.4,0.3-1.1,0.3-1.7,0.4c-0.4,0.1-1,0-1.2,0.3
				c-1.7,1.7-2.3,3.9-1.7,6.1c0.3,0.9,2.1,1.3,3.2,1.9c0.1,0.1,0.3,0.1,0.5,0.1c2.2,0.5,5.6-1.1,6.3-2.5c-0.4-1.4-1-2.4-0.9-3.3
				c0.1-0.6,1-1.2,1.6-1.6c1.4-1,2.8-1.8,4.7-1.1c1.7,0.6,3.5,1,5.3,1.2c3.1,0.2,6.3,0.2,9.4,0.3c3,0,6,0.7,8.9-0.5
				c0.1-0.1,0.3-0.1,0.4,0c2.6,1.3,5.1,0.1,7.6-0.4c1.5-0.3,2.9-0.2,3.6,1c0.7,1.3,0.6,2.9,0.8,4.4c0,0.1-0.1,0.2-0.2,0.3
				c-1,0.7-2,1.5-3.2,2c-1.1,0.5-1.4,1.1-0.8,2c0.4,0.6,1.1,1.1,1.7,1.6c0.7,0.5,1.6,0.7,2,1.3c0.9,1.3,2.1,1.4,3.4,1.4
				c1.3,0,2.5-0.1,3.8-0.2c-0.1-0.8-0.3-1.3-0.3-1.7c0.2-1.6-0.3-2.5-1.9-3c-1.2-0.4-1.4-2-0.8-3.2c0.9-1.9,2.8-2,4.6-2.6
				c0.6-0.2,1.4-0.6,1.5-1c0.4-1.6,1.3-2.3,2.9-2.4c2.4-0.1,4.8-0.3,6.4,2.1c0.1,0.2,0.5,0.3,0.8,0.5c1.3,0.9,3,1.6,3.6,2.8
				c0.7,1.4,2.1,1.8,2.9,2.8c0.2,0.2,0.5,0.2,0.7,0.4c1.7,2.9,3.4,5.8,5,8.7c0.4,0.7,0.5,1.6,0.8,2.5c0.1,0.5,0.3,1,0.5,1.7
				c0.7-0.5,1.2-0.9,1.7-1.2c1.8-1.3,1.9-2.2,0.7-4.1c-1.3-2.1-2.8-4.1-3.8-6.4c-0.9-2.2-2.3-3.8-4.1-5.1c-1.5-1.1-3.2-1.9-4.8-2.8
				c-1.2-0.7-2.7-1.1-3.7-2c-2.2-2.2-5.1-2.3-7.7-3.4c-0.3-0.1-0.8,0.1-1.2,0.1c-1.7,0.2-2.8,1.3-3.9,2.4c-2,1.9-5.4,1.5-6.2-0.8
				C931.1,96.8,931.3,95.9,931.3,95z M594.4,147.5c-0.4-2.1-0.7-4.3-1.2-6.4c-0.1-0.5-0.6-1.2-1-1.4c-1.6-1-2.5-2.8-2.5-4.6
				c0.1-2,0-3.9-0.1-5.9c-0.1-2.2-0.5-4.3-0.6-6.5c-0.1-2.8-0.1-5.6-0.1-8.3c0-2.1-0.7-4.4-0.1-6.2c0.8-2.1,0.4-3.9,0.3-5.8
				c-0.2-2.6-0.4-5.1-0.4-7.7c0-2.1,0.5-4.3,0.5-6.4c0.1-2.4,0-4.9-0.1-7.3c0-1.3-0.3-2.7-0.3-4c0-2.8-1.4-6,2.2-7.8
				c0.1,0,0.2-0.1,0.2-0.2c0.1-2.5,0.5-4.9,0.2-7.4c-0.1-1.1-1.4-2.1-2.3-3c-0.5-0.5-1.5-1.2-1.8-1c-1,0.5-2.3,1.3-2.5,2.2
				c-0.5,2.3-0.7,4.7-0.7,7.1c0,3.1,0.5,6.1,0.4,9.2c-0.1,5-0.3,10,0.5,15c0.2,1.4-0.2,3-0.3,4.4c-0.4,3.2-1.4,6.2-0.7,9.5
				c0.7,3.2,0.5,6.6,0.7,9.9c0.1,1.7,0.1,3.4,0.2,5.1c0.1,2.2,0.3,4.3,0.4,6.5c0.1,1.3,0,2.6,0.3,3.9c0.7,3.1,0.6,6.2,0.2,9.3
				c-0.3,1.9-0.3,3.8-0.1,5.8c0.2,2.8,0.7,5.5,0.9,8.3c0.2,2.9-0.5,5.8,1.7,8.3c1.2,1.3,2.5,2,4.3,3c-0.1-1.7,0.2-3.2-0.4-4.1
				c-0.7-1-2.3-1.3-3.3-1.8c0-0.9,0-1.9,0-2.8c0-1.6-0.4-3.4-0.1-4.9C589.6,148.6,592.4,148.8,594.4,147.5z M433.9,183.2
				c0.1,0.1,0.1,0.1,0.2,0.2c0.2-0.2,0.5-0.3,0.7-0.5c2.3-1.8,4.7-3.6,7-5.4c1.2-1,2.3-2.1,3.6-3.1c0.9-0.8,1.9-1.5,2.9-2.2
				c0.6-0.4,1.4-0.7,2-1.2c2-1.7,3.9-3.3,5.8-5.1c0.9-0.9,1.6-2,2.4-2.9c0.2-0.2,0.5-0.4,0.8-0.6c0.9-0.6,1.9-1.1,2.7-1.8
				c1.3-1.1,2.4-2.5,3.7-3.5c2.9-2.4,5.1-5.2,7.1-8.3c2.3-3.6,4.8-7,7.4-10.4c1.6-2.1,3.3-4,4.9-6.1c1-1.2,2-2.4,2.8-3.7
				c1.7-2.8,2.6-6.1,5.4-8.1c0.2-0.1,0.2-0.3,0.3-0.5c0.8-1.3,1.7-2.6,2.3-4c0.5-1.2,0.9-2.6,0.6-3.8c-0.5-2.2-2.6-2.8-4.3-1.4
				c-1,0.8-2,1.8-2.9,2.8c-1.5,1.6-1.7,2.8-0.6,4.7c0.9,1.6,0.5,2.4-1.3,2.7c-0.5,0.1-1.1,0.1-1.4,0.4c-2.2,2.7-4.3,5.4-6.4,8.1
				c-1.5,1.9-2.8,3.9-4.2,5.8c-0.7,0.9-1.4,1.9-2.1,2.8c-1.3,2-2.5,4.1-3.8,6.2c-0.1,0.1-0.2,0.2-0.3,0.3c-1.4,1.7-2.8,3.5-4.3,5.2
				c-1.8,2-3.7,4.1-5.7,6c-0.5,0.4-1.5,0.4-2.3,0.4c-0.6,0-1.3-0.5-1.9-0.7c-1.2-0.5-2.3,0-2.3,1.3c0,0.9,0.5,1.9,0.9,2.8
				c0.7,1.1,1.5,2.2,0.7,3.6c-1.7,2.7-2.9,3.2-5.9,2.5c-0.9-0.2-1.5-0.1-2,0.6c-1.6,2.1-3.1,4.3-4.9,6.2c-2.6,2.8-3.4,6.9-6.6,9.3
				C434.5,182.1,434.3,182.7,433.9,183.2z M946.1,110.6c-0.1,1.4-0.2,2.3-0.2,3.3c0,0.3-0.1,0.8,0.1,1c0.6,0.9,1.3,1.7,1.9,2.7
				c1.4,2.2,2.9,4.4,4.1,6.8c1.7,3.6,0.2,11.9-4.1,14.9c-1.1,0.8-2.1,1.8-2,3.7c0.1,1.2-0.8,2.7-1.6,3.7s-2.1,1.1-3.2,0.2
				c-0.9-0.8-1.7-1.8-2.5-2.7c-1-1-1.2-2.1-0.1-3.2c-1.6-2.3-1.7-2.3-4-0.8c-0.8,0.5-1.6,1.1-2.1,1.9c-0.6,1-1,2.1-1.6,3.5
				c0,0.3,0.1,0.9,0.1,1.6c0,0.7-0.2,1.4-0.4,2.2c1.2,0,2.2,0.1,3.3,0c3.4-0.4,5,0.4,6.5,3.4c1.4,2.7,0.2,4.8-2.7,4.8
				c-3,0-5.9-0.1-8.9-0.1c-1.6,0-3.1,0-4.7,0.1c-1.2,0.1-2.7,1.8-2.6,2.7c0.2,1.5,0.9,2,2.8,1.9c2.7-0.1,5.3,0.1,8-0.4
				c3.7-0.6,7.6-0.4,11.4-0.5c1.9,0,4.3-1.6,4.9-3.3c1-2.4,0.8-4.5-0.9-6.7c-0.8-1.1-2-2.5-0.5-4.1c1.4-1.4,2.2-3.4,4.1-4.3
				c0.6-0.3,1.3-0.9,1.6-1.5c0.9-1.9,2.3-3.5,2.9-5.7c1-3.3,0.6-6.4,0.3-9.7c-0.1-1-0.8-1.8-1.3-2.8c-0.6-1.2-1.1-2.5-1.7-3.7
				c-0.7-1.3,0-3.4-2.3-3.8c-0.5-0.1-1-0.8-1.2-1.4C949,112.4,947.3,111.9,946.1,110.6z M340.1,76.1c0.1,1.9,0.2,3.4,0.3,4.9
				c0.1,1.7,0.1,3.5,0.1,5.2c0,0.5,0,1-0.1,1.5c-0.3,2-0.9,4-1,6c-0.2,2.4,0,4.8,0,7.2c0,1.7-0.2,3.3,0,5c0.3,2.6-0.1,5.6,2.9,7.3
				c0.3,0.2,0.5,0.6,0.7,1c1.5,3.5,0.8,6.9-2,9.5c-1,1-1.1,2.1-0.2,3.2c0.2,0.2,0.4,0.5,0.5,0.8c1.1,2.5,1.3,2.7,4,2.2
				c1.1-0.2,1.5-0.7,1.4-1.8c-0.1-1.7-0.2-3.4-0.2-5.1c0-1.2,0.1-2.4,0.1-3.6c-0.1-2.7-0.4-5.3-0.5-8c-0.1-3.6,0-7.3,0-10.9
				c0-3.8,0-7.7-0.1-11.5c0-1.9-0.1-3.8-0.3-5.7c-0.4-3.7-0.8-7.4,1.4-10.8c1.7-2.6,1.2-4-1.2-5.8c-1-0.7-2.3-1.1-3.1-2
				c-1.6-1.8-3.2-3.3-5.4-4.3c-1.1-0.6-1.7-2.2-2.7-3c-1.6-1.3-3.3-2.4-4.5-4.1c-0.7-1-1.8-0.8-2.5,0c-0.3,0.3,0.1,1.4,0.5,1.9
				c0.9,1.2,1.9,2.3,3.1,3.2c2.1,1.6,3.7,4.1,6.6,4.6c0.7,0.1,1.4,0.8,1.8,1.4c1.3,2.1,1.5,4.6,0.8,6.9c-0.5,1.7-1,3.1,0.2,4.6
				C340.3,76,340.1,76.2,340.1,76.1z M812.2,53.2c0.2-1.2,0.2-1.3-1.2-1.4c-4.2-0.4-8.4-0.9-12.6-1.3c-0.6-0.1-1.1,0.1-1.7,0.2
				c-2.7,0.6-5.3,1.6-8,1.6c-3.2,0-5.7,1.5-8.5,2.4c-4.1,1.4-7,4.6-10.2,7.4c-1.4,1.2-2.8,2.2-4.3,3.2c-0.4,0.3-1.2,0.1-1.7-0.1
				c-1.9-0.7-3.7-1.6-5.5-2.2c-1.2-0.4-1.8-1.3-1.2-2.4c0.8-1.3,1.5-2.7,2.5-3.8c1.1-1.2,2.7-2.1,3.9-3.3c2.9-3.2,6.5-5.1,10.8-5.3
				c0.5,0,0.9-0.8,1.3-1.2c-0.7-0.6,0-2.7-1.8-2c-2.3,0.9-4.5,2-6.7,3c-0.7,0.3-1.3,0.9-2,1.1c-2.3,0.6-4.3,1.8-5.8,3.7
				c-0.5,0.7-1.2,1.3-1.8,1.8c-3.1,2.3-6.4,4.4-8.4,8c-0.6,1.1-1.3,2.2-2,3.1c-1,1.2-1.1,2.8-0.2,4.1c0.6,0.9,1,1.8,1.6,2.8
				c1.2-0.1,3.4-2.5,3.7-4.4c0.2-1.2,0.8-1.7,1.8-1.7c1.2,0,2.5,0.3,3.7,0.2c3.5-0.4,5.8,2.1,8.9,3.3c1.4-1.3,2.9-2.9,4.7-4.2
				c1.5-1.1,2.3-3.4,4.8-2.8c0.2,0,0.4-0.3,0.6-0.4c1.2-0.7,2.3-1.5,3.5-2.1c1-0.5,2.1-0.9,3.1-1.3c2.1-0.9,4.2-2,6.3-2.8
				c1-0.4,2.2-0.1,3.2-0.4c1.2-0.3,2.3-1.2,3.6-1.5c2.5-0.6,5-1.6,7.6-0.3c0.3,0.1,0.7,0,1.1,0C807.5,54,809.7,53.6,812.2,53.2z
				 M510.5,93.8c0-0.2,0-0.4,0-0.6c-0.6-0.3-1.3-0.5-1.9-0.8c-1.5-1-4-1.4-3.6-3.7c0.4-2.3-0.5-3.5-2.2-4.5
				c-0.2-0.1-0.3-0.3-0.4-0.5c-2-2.1-3.8-4.6-6.2-6.3c-2.6-1.9-4.3-4.5-6.5-6.9c-2.2-2.5-3.8-5.6-6.9-7.2c-1.4-0.7-2.6-1.7-3.8-2.6
				c-1.1-0.9-2.3-1.8-3.2-2.9c-0.8-1-1.3-2.1-0.5-3.5c0.2-0.4,0.1-1.1-0.2-1.4c-0.7-0.8-1.5-1.3-2.3-2c-0.9-0.8-1.6-0.6-2.1,0.6
				c-0.8,1.7-1.2,3.3,0.1,5c0.5,0.7,1,1.5,1.5,2.1c0.9,1.1,1.9,2,2.8,3.1c2.7,3.4,5.1,7,7.9,10.3c3.2,3.6,6.8,6.9,10.3,10.3
				c0.6,0.5,1.4,0.7,2.1,1.1c0.6,0.4,1.1,0.8,1.5,1.3c0.4,0.4,0.5,1.1,0.9,1.5c2.3,2.2,4.6,4.3,7.1,6.3c1,0.8,1.4,1.3,0.4,2.3
				c-0.3,0.3-0.4,0.9-0.5,1.4c-0.7,2.4,0.1,4.6,0.8,6.8c0.4,1.4,1.2,2.3,2.5,2.9c1.2,0.6,2.5,0.7,2.9-0.6c0.4-1.4,0.2-2.9,0.2-4.4
				c-1.8-0.4-2.3-2.1-3.3-3.2c-1.3-1.4-1-2.7,0.9-3.3C509.2,94.2,509.8,94,510.5,93.8z M852.1,114.8c-1.4,0.9-2.3,1.6-1.7,3.2
				c0.2,0.5,0.1,1.1,0,1.7c-0.2,2.4-1.5,4.7-0.7,7.3c0.1,0.4-0.2,1-0.4,1.5c-0.3,0.8-0.6,1.7-0.9,2.5c-0.8,1.9-0.9,4-2.3,5.6
				c-1.5,1.6-2.8,3.4-4.2,5c-1.7,1.9-2.6,4.7-5.5,5.4c-0.2,0.1-0.4,0.4-0.6,0.7c-1.5,1.7-2.8,3.8-4.6,5.1c-3.2,2.4-6.4,4.9-10.3,6.2
				c-2.1,0.7-4.1,1.7-6.1,2.4c-1.3,0.5-2.6,0.7-3.9,1.1c-0.8,0.2-1.5,0.8-2.3,0.8c-2.6,0-5.1,1.4-7.8,0.8c-0.8-0.2-1.7-0.2-2.5,0.1
				c-2.1,0.6-4.1,1.3-6-0.3c-0.4,1.5-0.1,2.7,1.2,3c2,0.4,4,0.6,6,0.7c1.5,0,3.1-0.6,4.6-0.3c1.9,0.4,3.5-0.2,5.3-0.5
				c3.1-0.4,5.4-3.2,8.7-2.7c0.2,0,0.4-0.2,0.6-0.3c1.3-0.9,2.6-1.5,4.2-2c1.6-0.5,3-1.3,4.5-2s3-1.3,4.4-2.1
				c1.2-0.7,2.2-1.9,3.4-2.3c2.2-0.7,3.3-2.4,4.7-3.9c1.7-1.9,3.3-4.1,4.9-6.1c0.5-0.6,1-1.1,1.3-1.7c1.7-3.2,3.5-6.2,4.9-9.5
				c1-2.5,2.4-5.1,2.3-8c-0.1-1.6,0.4-3.2,0.5-4.8c0-0.3-0.2-0.5-0.3-0.8c-0.2-0.5-0.5-0.9-0.6-1.4
				C852.5,117.7,852.3,116.3,852.1,114.8z M121.8,184c-0.4-1.9-0.7-3.1-0.8-4.4c-0.2-2-0.8-2.7-2.9-2.6c-1.9,0.1-3.8,0-5.7,0.1
				c-2.9,0.1-5.8,0.5-8.8,0.5c-1.8,0-3.6-0.2-5.4-0.5c-0.8-0.1-1.5-0.8-2.1-1.3c-1.8-1.5-3.6-2.9-5.2-4.6c-0.9-1-2.4-1.7-3.5-1.1
				c-1.5,0.7-3.1,4.3-2.4,5.8c0.6,1.3,1.4,2.5,2.4,3.6c2.2,2.3,5,3.6,8,4.2c2.8,0.6,5.6,0.7,8.4,0.9c1.4,0.1,2.8,0.3,4.2,0.3
				c2.4,0,4.9-0.1,7.3-0.2C117.6,184.4,119.8,184.2,121.8,184z M327.4,100.3c1,0.3,1.6,0.5,2.1,0.7c0,1.1-0.1,2.2,0,3.2
				c0.2,1.9,0.6,3.8,0.7,5.7c0.1,2.8,0,5.7,0,8.5c0,2.1,0.2,2.2,2.3,1.9c0.2,0,0.4,0,0.6-0.1c1.8-0.2,2.4-1.4,1.5-3
				c-0.2-0.4-0.2-1-0.3-1.5c0-0.6,0.1-1.2,0.1-1.8c-0.2-3.2-0.6-6.4-0.7-9.6c-0.1-2,0.2-4,0.2-6c0-3.1,0-6.1-0.1-9.2
				c-0.1-1.9-0.5-3.7-0.7-5.6c0-0.2,0.2-0.5,0.2-0.7c0-0.8,0.1-1.6,0.1-2.4c-0.1-0.9-0.6-1.8-0.4-2.6c0.6-3-1.4-5-2.7-7.2
				c-0.4-0.6-1.2-1-1.4,0c-0.4,2.2-1,4.4-0.8,6.6c0.2,2,0.3,3.9-0.1,5.9c-0.2,1.4-0.4,3-0.1,4.3c0.6,2.3,0.6,2.7-1.7,3.3
				c-1.1,0.3-1.3,0.8-1.2,1.8c0.1,1.2,0.2,2.4,0.2,3.6c0,1.1,0.3,1.7,1.5,1.7c1.2,0.1,1.9,0.7,2.1,1.9
				C328.5,99.8,328.2,99.9,327.4,100.3z M127.6,52.7c1,0.1,1.8,0.3,2.5,0.1c1-0.3,2-0.8,2.7-1.4c0.7-0.5,1.1-1.4,1.5-2.2
				c0.3-0.5,0.6-1.1,0.5-1.5c-0.2-0.5-0.8-1.1-1.3-1.2c-1.1-0.2-2.2-0.1-3.2-0.1c-1.5,0-3,0.1-4.5,0c-1.9-0.1-3.8-0.3-5.7-0.3
				c-1.1,0-2.1,0.6-3.2,0.6c-3.3,0-6.7,0.3-9.9-0.2c-4.5-0.7-8.9-0.4-13.3,0c-0.3,0-1,0.8-0.9,1c0.5,1.6,1.2,3.1,1.9,4.6
				c0.1,0.3,0.6,0.5,0.9,0.5c2.7,0.2,5.5,0.5,8.2,0.5c5.9,0,11.9-0.9,17.8,0.1C123.6,53.5,125.7,52.9,127.6,52.7z M241.9,139.3
				c0.1-0.2,0.2-0.3,0.3-0.5c-0.4-0.6-0.7-1.7-1.2-1.8c-1.8-0.3-2.5-1.7-3.4-3c-1.5-2-3.1-4-4.5-6.1c-0.7-1-1.1-2.1-1.6-3.1
				c-0.4-0.8-1.1-1.5-1.2-2.2c-0.2-2.4-0.5-4.6-1.8-6.7c-0.3-0.4-0.2-1-0.3-1.5c-0.4-2.9-0.7-5.7-1.2-8.6c-0.1-0.5-0.8-1.2-1.1-1.2
				c-0.9,0.1-2.3-0.4-2.4,1c-0.2,2.5-0.3,5.1,0,7.6c0.2,2.1,1.1,4.1,1.5,6.2c0.6,3.3,1.9,6.3,4,8.9c1.2,1.5,1.7,3.2,1,4.6
				c-0.7,1.5-1.7,3.5-4.1,3.2c-3.6-0.4-5.1,2-6.1,4.8c-0.5,1.3-0.6,2.8-0.6,4.2c0,0.5,1.1,1.5,1.5,1.4c1.6-0.4,3.3-1,4.7-1.9
				c0.7-0.5,0.9-1.8,1.2-2.8c0.2-0.6,0.1-1.3,0.3-1.8s0.5-1.1,0.9-1.2c2.2-0.5,4.5-0.8,6.7,0.1c0.5,0.2,1.2,0.2,1.7,0
				c1.1-0.7,2.2-0.7,3.4-0.2C240.2,139,241.1,139.1,241.9,139.3z M389.8,54.8c-0.5-0.9-0.7-1.5-1.1-1.9c-1.1-1.5-2.2-2.4-4.4-2.2
				c-2.2,0.3-4.4-0.2-6.6-0.4c-2.5-0.2-5.1-1-7.4-0.5c-4.1,0.9-8-0.9-12-0.2c-1.3,0.2-2.8,0.1-4.2,0.1c-2.4,0.1-4.8,0.2-7.1,0.2
				c-0.5,0-1-0.4-1.5-0.6c-0.6-0.3-1.1-0.6-1.7-0.8c-0.8-0.2-1.7-0.2-2.6-0.4c-1.4-0.2-2.5,0.6-2.9,2.3c-0.3,1.1-0.2,2.3,1.1,2.7
				c1.2,0.4,2.4,0.7,3.6,0.8c3.2,0.3,6.3,1.3,9.6,0.5c0.4-0.1,0.8,0.1,1.2,0.1c3.1,0.2,6.2,0.5,9.4,0.5c3.3,0,6.6-0.2,9.9-0.3
				c2.1,0,4.2,0.4,6.2,0c2.1-0.4,4,0,6,0.1C386.6,55,388,54.8,389.8,54.8z M382.6,126.3c0.1,0.2,0.6,0.7,0.8,1.3
				c0.9,2.8,2.7,5,4.6,7.1c0.3,0.3,1,0.4,1.5,0.3c1.7-0.3,2.4,0.1,2.8,1.8c0.2,0.8,0.3,1.6,0.7,2.2c1.7,3,3.4,5.9,5.2,8.8
				c2.4,3.9,5,7.6,7.5,11.4c1,1.6,2,3.2,2.8,5c0.4,0.9,0.4,1.9,1.6,1.9c1.3,0,2.5-0.5,2.4-1.9c-0.1-1.6-0.7-3.3-1.4-4.8
				c-0.6-1.2-1.6-2.2-2.3-3.4c-2.1-3.5-4.2-7.2-6.4-10.7c-2.1-3.4-4.3-6.7-6.4-10.1c-0.8-1.3-1.3-2.9-2.3-4.1
				c-1.9-2.3-4.1-4.4-6.2-6.5c-0.9-0.9-2.1-1.5-2.9-2C383.9,124,383.3,125,382.6,126.3z M180.4,31c-2.9-1.2-3.9-1.1-6.4,0.9
				c-0.3,0.2-0.6,0.4-0.9,0.6c-3.5,1.8-6.9,3.6-10.4,5.5c-0.5,0.3-1,0.6-1.5,0.8c-2.9,1.4-5.4,3.7-8.7,4.2c-0.9,0.1-1.6,0.4-2.1,1.3
				c-0.2,0.4-0.9,0.7-1.4,0.8c-1.6,0.5-3.2,0.9-5.2,1.5c1.3,1.7,2,3.5,3.4,4.3c1.4,0.9,2.3,2.1,3.3,3.4c0.6,0.8,1.3,1.8,2.1,1.9
				c1,0.2,2.2-0.3,3.3-0.7c0.1,0-0.1-1.4-0.5-2c-0.6-0.9-1.3-1.7-2.1-2.5c-1.9-1.9-1.8-3.9,0.2-5.5c0.8-0.6,4.9-0.1,5.5,0.8
				c0.7,1,1.2,2.2,1.9,3.2c0.5,0.7,1.2,1.8,1.9,1.9c1.3,0.2,2.3-1.3,2.3-2.6c0-0.3,0.2-0.7,0.4-0.9c0.6-0.8,0.5-1.3-0.5-1.6
				c-1.4-0.4-2.3-1.4-3.1-2.6c-0.3-0.4-0.3-1.4-0.1-1.5c1.5-0.9,2.6-2.6,4.8-2.1c0.6,0.1,1.3,0.2,1.8,0c1.7-0.9,3.3-1.9,4.8-3.1
				c1.7-1.4,3.4-2.2,5.5-2.4c0.5,0,1-0.8,1.2-1.4C180.3,32.5,180.3,31.8,180.4,31z M671.9,101.4c0.7-1.5,1.3-2.6,1.7-3.8
				c0.2-0.5,0.2-1.3-0.1-1.8c-0.3-0.6-0.8-1.2-1.3-1.7c-1.4-1.7-2.9-3.4-4.3-5.2c-0.4-0.6-0.5-1.5-0.8-2.1c-1.2-2.2-3.9-3.4-4.5-6.1
				l-0.1-0.1c-1.6-1.8-3.2-3.6-4.7-5.5c-2.5-3.3-4.9-6.8-7.4-10.2c-0.2-0.3-0.8-0.6-1-0.5c-1.1,0.4-2.1,0.9-3.1,1.6
				c-1.8,1.1-3.4,2.5-5.2,3.4c-1.4,0.7-2.7,1.9-2.9,3.6c0.9-0.2,1.7-0.3,2.5-0.5c1.7-0.5,3.4-0.8,5-1.5c2.3-1.1,3.2-1.1,4.8,0.9
				c2.5,3.1,5,6.2,7.5,9.3c0.4,0.5,0.7,1,1.1,1.5c1.7,2.6,3.4,5.2,5.2,7.7c0.9,1.3,2.3,2.3,3.1,3.6
				C669.1,96.2,670.4,98.7,671.9,101.4z M325.8,136.5c3.1-0.8,4.8,0.3,5.5,3c0.1,0.3,0.2,0.6,0.3,0.9c0.5,1.5-0.4,3.3-1.9,3.8
				c-0.7,0.2-1.5,0.4-2.3,0.4c-1,0-1.2,0.4-1.1,1.3c0.2,1.1,0.2,2.2,0.2,3.3c0.1,2.1,2.4,3.8,4.4,3.1c0.5-0.2,0.9-0.7,1.2-1.2
				c0.5-0.9,0.9-1.8,1.1-2.7c0.5-2.4,1.1-4.8,1.3-7.2c0.2-2.2-0.1-4.5-0.1-6.8c0-2.1,0.2-4.1,0.2-6.2c0-0.4-0.5-1.3-0.8-1.3
				c-1.7,0-3.6-0.3-5.1,0.3c-3.3,1.2-3.2,1.4-3,5C325.9,133.5,325.8,134.9,325.8,136.5z M243.7,140.2c-0.2,0.1-0.3,0.1-0.5,0.2
				c0.9,2.5-0.4,3.8-2.2,4.9c-0.8,0.5-0.4,1.8,0.5,2.4c0.6,0.4,1.1,1.1,1.7,1.6c0.4,0.4,0.8,0.9,1.2,1.1c1.1,0.7,2.3,1.3,3.5,1.8
				c1.3,0.6,2.6,1,4.1,1.5c0.2-1.2,0.4-2.1,0.5-2.9c0.3-1.9,1.1-2.7,3.1-2.8c2.1-0.2,3.6,0.8,4.8,2.4c0.8,1.1,1.2,2.4,1.8,3.6
				c1.2-0.5,2.6-0.9,3.8-1.7c0.7-0.4,1.1-1.4,1.2-2.3c0.1-0.4-0.7-1.1-1.2-1.3c-1-0.5-2-0.8-2.3-2.1c-0.1-0.3-0.7-0.6-1.1-0.6
				c-1.8-0.2-3.6-0.3-5.5-0.4c-4.3-0.3-8.3-1.2-11.4-4.5C245.2,140.5,244.4,140.4,243.7,140.2z M76.2,178.2
				c-0.4,0.6-0.6,0.8-0.8,1.1c-1.4,2.5-2.8,5-5.2,6.8c-0.6,0.5-1,1.2-1.5,1.9c-0.6,0.9-1.1,1.8-1.9,2.6c-1.2,1.1-2.4,2.1-3.7,3
				c-1.2,0.9-2.5,1.6-3.7,2.5c-1.6,1.2-3.1,2.6-4.5,4c-0.7,0.7-0.5,1.5,0.6,1.7c2.1,0.4,4.2,0.4,6-1.3c0.3-0.3,0.8-0.7,1.2-0.7
				c1.7,0.3,2.7-0.7,3.6-1.8c2.8-3.1,5.6-6.1,8.1-9.4c2-2.5,2.6-5.6,2.6-8.8C76.9,179.3,76.5,178.9,76.2,178.2z M699.1,52.9
				c-0.2,0-0.3,0.1-0.5,0.1c0,1.3,0.1,2.7,0,4c-0.3,2.4,0.9,4.8-0.1,7.2c-0.5,1.2-0.7,2.8-0.6,4.1c0.3,4.6,0.2,9.2,1.6,13.7
				c0.2,0.5,0.7,0.9,1.3,1.6c0.4-1,0.4-1.8,0.8-2c1.6-0.8,1.2-2.2,1.2-3.5c0-0.7,0.1-1.5,0.2-2.2c0.2-2.4,0.9-4.9,0.5-7.2
				c-0.5-2.9-0.9-5.7-0.5-8.5C703.6,56.6,701.3,54.9,699.1,52.9z M488.8,88.7c-0.6-1.1-1.5-2.1-1.5-3.1c0-1.8-0.6-3.1-1.7-4.3
				c-0.6-0.7-1.2-1.4-1.9-2c-1.3-1.3-2.5-2.7-3.8-4c-1.2-1.1-2.5-2.1-3.7-3.2c-1.7-1.5-3.5-3-5.3-4.5c-0.2,0.3-0.5,0.5-0.5,0.7
				c0,1.6,0.1,3.2,0.1,4.8c0,0.1,0.2,0.3,0.3,0.4c3,3.2,6,6.5,9.1,9.7c0.7,0.8,1.6,1.4,2.5,2.1c1,0.8,1.9,1.5,2.9,2.2
				C486.2,88.9,486.6,89.2,488.8,88.7z M896,145.1c2.3,2.1,5.1,3,7.7,3.4c3.8,0.6,7.7,0.4,11.6,0.6c1.4,0.1,2.8,0.4,4.1,0.4
				c1.6,0,3.2-0.3,4.7-0.5c-0.3-1.1-0.5-1.8-0.8-2.5c-0.1-0.3-0.3-0.6-0.5-0.7c-1.9-0.5-3.9-1.3-5.9-1.4c-5.2-0.1-10.4,0.2-15.5-0.7
				C899.8,143.4,897.9,143.6,896,145.1z M484.6,145.4c0.1,0.1,0.3,0.2,0.4,0.4c0.5-0.2,1.2-0.3,1.5-0.6c1-1.1,1.9-1.1,2.9-0.1
				c0.8,0.8,1.4,0.4,1.6-0.5c0.2-0.5,0.2-1.2,0-1.6c-0.6-1.5-0.5-2.9,0.2-4.2c1.3-2.5,2.6-5.1,4.2-7.5c1.7-2.5,3.7-4.8,5.6-7.2
				c0.5-0.7,0.9-1.4,1.4-2.1c0.8-1.3,1.7-2.7,2.6-4.1c-1.8-0.7-3.6,0.5-4.7,2s-2.5,2.9-3.6,4.3c-0.5,0.6-0.9,1.2-1.2,1.9
				c-0.4,0.9-0.6,2.1-1.2,2.8c-1.8,2.4-3.6,4.8-5.7,7C485.9,138.7,486.4,142.4,484.6,145.4z M417,152.3c-1.4-2.3-2.7-4.6-4-6.9
				c-1-1.7-2-3.4-3-5.1c-1.5-2.5-2.9-5.1-4.4-7.6c-1.2-2.1-2.5-4.1-3.7-6.2c-0.2,0-0.5,0-0.7,0.1c-0.1,1.1-0.6,2.3-0.4,3.3
				c0.4,1.8,2.4,3.2,1.7,5.4c0,0.1,0.1,0.3,0.2,0.4c1.5,2.7,3.1,5.3,4.6,8l0.1,0.1c1.5,2.6,3.7,4.7,4.6,7.6
				C412.5,153.5,415.1,154,417,152.3z M849.7,110.6c-0.1-0.1-0.2-0.3-0.4-0.4c-0.3,0.2-0.6,0.3-0.9,0.5c-5.3,3.8-11.3,5.3-17.7,5.5
				c-1.1,0-2.4-0.1-3.3-0.7c-2.7-1.8-5.6-1.2-8.5-1c1.1,0.9,2.3,1.5,3.4,2.3c2.5,1.9,5,3.6,8.4,4c3,0.3,5.8-0.4,8.5-1.3
				c2.1-0.7,4.1-1.7,4.8-4.2c0.1-0.3,0.6-0.7,0.9-0.7C847.5,114.2,847.6,111.3,849.7,110.6z M513.5,90.2c0.5-0.9,0.9-1.6,1.3-2.3
				c0.5-0.8,0.9-1.8,1.7-2.4c2.9-2.2,4.3-5.5,6.5-8.3c1.6-2,3.1-4.1,4.5-6.2c0.5-0.7,0.8-1.7,0.9-2.6c0-0.3-1-0.6-1.5-1
				c-0.3-0.2-0.7-0.5-1-0.7c-0.5-0.4-1-1-1.7-0.2c-0.5,0.6-0.6,1.1,0,1.9c1.7,2.1,1.2,4.1-1.1,5.4c-1.1,0.6-2.3,1.3-3.6,1.5
				c-2.8,0.5-4.1,2.6-5.3,4.6c-0.8,1.2-1.3,2.5-2.4,3.5c-0.6,0.6-1.3,1.9-1.1,2.5C511.3,87.2,512.4,88.5,513.5,90.2z M750.9,147.2
				c0.1-0.1,0.1-0.3,0.2-0.4c0.7,0.4,1.5,0.8,2.2,1.1c0.3,0.1,0.6,0.1,0.9,0c1.7-0.7,3.4-1.4,5.1-2.1c1.2-0.5,1.6-2,0.9-3.2
				c-0.3-0.5-0.7-0.9-0.9-1.4c-0.4-1-0.9-1.3-2-0.8c-0.6,0.3-1.5,0-2.2-0.2c-1.8-0.6-3-1.8-3.9-3.3c-0.6-1-1.2-1-1.7,0
				c-0.8,1.6-1.3,3.2-0.9,5c0.1,0.5,0.1,1.2-0.1,1.7C747.4,145.7,748.4,147.2,750.9,147.2z M418.5,97.2c0.6-0.4,1.3-0.7,1.8-1.2
				c1.4-1.4,2.6-3.1,4.2-4.1c1.5-0.9,2.5-2,3.1-3.5c0.4-1,0.7-2.1,0.6-3.1c-0.1-0.8-0.7-1.8-1.3-2.3c-0.3-0.3-1.5,0.1-2,0.5
				c-1.9,1.6-3.8,3.3-5.4,5.2c-1.3,1.6-2.5,3.5-3.3,5.4C415.5,95.6,416.7,97,418.5,97.2z M301.3,166.5c-1.2-2.1-2.1-4-3.2-5.8
				c-0.8-1.3-2.1-2.3-3-3.5c-1.5-2-3-4-4.5-6.1c-0.6-0.9-1.5-1.2-2.2-0.7c-0.6,0.4-1.1,1.4-1,2.1c0.2,1.2,0.7,2.5,1.4,3.6
				c1.1,1.6,2.5,3,3.6,4.6C294.5,163.7,297.5,165.3,301.3,166.5z M118.5,122.8c-3.4,0-6.6,0-9.8,0c-0.3,0-0.7,0.3-0.8,0.6
				c-0.7,1.3-1.4,2.7-1.9,4.1c-0.1,0.4,0.3,1.3,0.6,1.4c0.9,0.3,1.8,0.3,2.7,0.3c2-0.1,4.1-0.2,6.1-0.4c0.7-0.1,1.7-0.3,1.8-0.7
				C117.9,126.4,118.1,124.7,118.5,122.8z M429.6,178.5c-2.6-2.9-5.6-4.9-9.2-6.2c-1.5-0.5-2.7-0.3-4,0.4c-0.9,0.5-1,1.2-0.2,1.9
				c1.1,0.9,2.2,1.8,3.3,2.6c1.3,1,3.1,1.6,3.8,2.9c1.1,1.9,2.7,1.1,4,1.4c0.3,0.1,0.8-0.4,1.1-0.7
				C428.8,180.1,429.1,179.3,429.6,178.5z M889.1,87.1c-1.3-2.7-2.9-5.3-3.7-8.1c-0.6-2.3-1.7-3.6-3.8-4.3c-0.9-0.3-1.3-0.2-1.3,0.8
				c0.1,5,1.3,9.7,4.5,13.5C886.3,88.4,887.7,87.8,889.1,87.1z M655.2,51.9c-0.5-0.7-1.2-1.1-1.4-1.8c-0.5-1.5-2-1.4-3.1-2.1
				c-1.8-1.1-2.4,0.2-3.2,1.3c-0.2,0.2-0.4,0.3-0.6,0.5c-1.8,1.2-2.4,3.1-0.9,4.7c1.3,1.3,3,2.2,4.6,2.9c1.4,0.6,3.7-1.3,3.2-2.6
				C653.4,53.4,653.7,52.5,655.2,51.9z M703.2,159c-1.9,0-4,2.1-4,4c0,1.8,2.8,5.3,4.1,5.4c1.9,0,4.7-2.8,4.6-4.7
				C707.6,160.2,706.5,159,703.2,159z M463.3,171.9c-8.3,4.7-15.6,10.3-22.6,16.3c1.9-0.5,3.7-1.1,5.4-2c2.2-1.3,4.2-2.8,6.3-4.1
				c2.9-1.9,5.8-3.7,8.8-5.5C462.3,175.7,463.7,173.3,463.3,171.9z M959,48.7c-0.6-0.1-1.1-0.4-1.4-0.3c-1.4,0.7-2.9,1.2-4,2.2
				c-2,1.9-3.9,3.9-4.9,6.6c-0.3,0.8-0.7,1.5-1.2,2.2c-0.5,0.8-0.7,5.4-0.1,6.3c0,0,0.1,0,0.4,0.2C950.7,59.8,954.6,54.3,959,48.7z
				 M238.4,145.6c-0.2-0.3-0.2-0.5-0.3-0.5c-0.6-0.4-1.1-0.8-1.7-1.1c-2-1.2-2-1.1-3.4,0.9c-0.9,1.4-2.1,2.5-3.1,3.8
				c-0.3,0.3-0.5,0.8-0.5,1.2c0,1.1,0.2,2.2,0.3,3c1.2,0.8,2.2,1.5,3.2,2c0.7,0.3,1.5,0.4,2,0.6c0.2-2.4,0.6-4.5,0.7-6.6
				C235.7,147,236.5,146,238.4,145.6z M820.8,63.4c2.5-2.4,3-6,5.8-8c0.1-0.1,0.1-0.2,0.1-0.3c0.2-1.6,1.6-2.1,2.6-3
				c1.3-1.1,2.4-2.4,3.7-3.8c-0.5-0.2-0.7-0.3-0.8-0.3c-3.5-0.2-5.7,2.4-8.4,3.9c-0.2,0.1-0.2,0.3-0.3,0.5c-0.5,0.9-0.9,1.7-1.4,2.6
				c-0.6,1.2-1.4,2.4-1.5,3.7C820.4,60.2,820.7,61.9,820.8,63.4z M758.6,98.4c-0.3-2.9,1.3-5.3-0.8-7.5c-0.1-0.1-0.1-0.4-0.2-0.6
				c-0.6-0.6-1.3-1.4-2-1.5s-1.7,0.4-2.1,1c-1.7,2.5-1.2,5.5-1.6,8.4c0,0.4,0.2,0.7,0.3,1.3C754.1,98.1,755.8,96.8,758.6,98.4z
				 M887.5,143.7c-0.1,0-0.2-0.1-0.3-0.1c-0.2,1.2-0.6,2.4-0.4,3.6c0.3,1.5-0.2,2.4-1.2,3.2c-0.5,0.4-1,0.9-1.4,1.4
				c-1.8,1.8-2.5,4.4-5.1,5.5c-0.5,0.2-0.8,1.1-1.2,1.6c0.1,0.1,0.2,0.3,0.3,0.4c0.8-0.3,1.6-0.5,2.4-0.8c1.1-0.5,2.1-1.3,3.3-1.4
				c3.5-0.5,4.5-3.4,6-5.8c0.2-0.4,0.1-1,0-1.5C889.1,147.7,888.3,145.7,887.5,143.7z M572.7,111.9c0,0.7-0.1,1-0.1,1.3
				c0,1.5,0.2,3.1,0.1,4.6c-0.1,2.5-0.3,5,2.1,6.7c0.7,0.5,1.1,1.3,1.7,2c0.3,0.3,0.8,0.7,1,0.6c0.4-0.2,0.8-0.6,0.8-1
				c0.1-1.5,0.3-3.1,0-4.6c-0.4-1.8-1.1-3.6-1.9-5.2C575.6,114.7,574.7,113,572.7,111.9z M294.6,55.2c-0.1-0.1-0.3-0.3-0.4-0.4
				c-1.2,0.8-2.5,1.4-3.5,2.3c-0.8,0.7-1.2,2-2,2.7c-2.2,2.1-3.1,4.7-3.5,7.6c0,0.3,0.2,0.7,0.4,0.9c2,1.1,2.2,1.4,3.1-0.9
				c0.7-1.8,1.5-3.6,2.4-5.3c1.1-2,2.3-3.9,3.5-5.8C294.7,56,294.6,55.6,294.6,55.2z M701.8,44c-0.1,0.2-0.1,0.3-0.2,0.5
				c0.5,0.8,1.1,1.5,1.5,2.3c1,1.9,2.2,3.5,4.7,3.3c0.4,0,0.9,0.2,1.3,0.4c1,0.3,1.6,0.2,2.4-0.7c0.7-0.9,1.9-1.5,2.9-2.2
				c0.3-0.2,0.5-0.4,0.8-0.6c-0.7-0.4-1.4-0.3-2.1-0.5c-2-0.6-4.1-0.4-6.1-1.8C705.9,43.6,703.6,44.1,701.8,44z M638.7,168.7
				c-3.3-2.5-6.5-4.7-9.6-7c-2.5,1.8-2.9,4.5-0.7,6C631.5,169.9,635,169.5,638.7,168.7z M172.5,23.9c-0.9-2.4-1.8-4.6-2.7-7.1
				c-0.4,0-0.9,0-1.5,0c-1.9,0-2.2,0.3-2.3,2.3c0,0.4-0.2,1-0.5,1.2c-0.7,0.6-0.6,1.2-0.2,1.9c0.4,0.8,0.8,1.6,1,2.4
				c0.4,1.2,1.1,1.6,2.2,1.1C169.8,25.2,171.1,24.5,172.5,23.9z M341.9,148.1c-0.2,0.1-0.4,0.2-0.5,0.3c0.5,2.1,0.9,4.3,1.7,6.3
				c0.5,1.2,1.4,2.3,2.4,3.3c0.4,0.4,1.2,0.5,1.8,0.7c0.2-0.6,0.5-1.1,0.5-1.7c-0.1-2.1-0.4-4.1-0.5-6.2c0-1-0.4-1.5-1.2-1.7
				C344.6,148.7,343.3,148.4,341.9,148.1z M447.6,45.9c0,0.1-0.1,0.3-0.1,0.4c0.3,0.2,0.6,0.5,0.9,0.5c2.6,0.8,5.4,1.5,7.9,2.4
				c2.4,0.9,4.5,0.4,6.5-0.6c0.3-0.2,0.7-0.9,0.6-1.2c-0.3-1-0.8-1.9-2.2-1.5c-0.5,0.1-1,0-1.5,0C455.6,45.9,451.6,45.9,447.6,45.9z
				 M813.5,122.1c0.1,2.1,0.2,4,0.3,6c0,0.4,0.4,0.8,0.6,1.2c0.7,0.8,1.4,1.5,2.1,2.2c0.7,0.7,1.3,1.4,2.1,2.3
				C820.9,128.3,818.5,123.1,813.5,122.1z M91.4,200.5c0-0.1,0.1-0.2,0.1-0.3c-0.5-1.7-1.2-3.3-0.7-5.1c0.1-0.3-0.4-0.9-0.7-1
				c-1.1-0.2-2.3-0.4-3.4-0.4c-1.6,0.1-2.7,1.7-2.7,3.5c0,1.7,1.1,3.1,2.7,3.2C88.3,200.6,89.9,200.5,91.4,200.5z M574.7,69.7
				c-0.1,0.5-0.2,0.9-0.2,1.2c0,3.8-0.1,7.5,0.2,11.3c0.1,0.9,1.2,1.7,1.8,2.5c0.6-0.6,1.4-1.1,1.8-1.8c0.3-0.6,0.3-1.4,0.2-2.1
				c-0.4-2.7-0.9-5.4-1.3-8.1C576.9,71.3,576.3,70.3,574.7,69.7z M725.2,180.7c-0.3-1.7-0.6-3.3-1-5c-0.1-0.6-0.6-1.1-1-1.6
				c-0.6,0.5-1.3,0.8-1.7,1.4c-1.8,2.8-1.6,5.6-0.2,8.5c0.1,0.2,0.6,0.5,0.8,0.4C724.3,184.1,725.1,182.9,725.2,180.7z M70.6,76.3
				c0.5-1.4,1.3-3,1.7-4.6c0.2-0.6-0.2-1.9-0.6-1.9c-1.7-0.4-3.5-0.5-5.3-0.6c-0.2,0-0.5,0.5-0.6,0.8c-0.3,1.2-0.6,2.4-0.8,3.4
				C66.9,74.3,68.7,75.2,70.6,76.3z M580,147.6c0.3-2.9-0.1-5.4-1.3-7.7c-0.5-1-1.3-1.3-2.5-1c-1.8,0.5-2,2.3-3,3.5
				c-0.4,0.6-0.1,1.2,0.8,1.6c1.3,0.6,2.5,1.5,3.8,2.3C578.5,146.8,579.2,147.2,580,147.6z M636.1,65c0.2-2.4,0.4-4.6,0.5-6.9
				c0-0.3-0.1-0.8-0.3-1s-0.7-0.5-1-0.4c-1,0.3-2,0.7-2.8,1.2c-0.5,0.3-0.9,0.9-1,1.4c-0.2,1.1-0.2,2.2-0.1,3.3c0,1,0,2.2,1.5,2.3
				C633.9,65,635,65,636.1,65z M346.2,171.8c-1.8-1.3-3.6-2.6-5.3-3.9c-1.3-1-3.3-1-3.8-3.1c-0.2-0.7-1-0.8-1.4,0.1
				c-0.5,1.1-0.8,2.2,0.3,3.1c1.3,1,2.6,2,3.8,3.1C341.1,172.5,344.2,173,346.2,171.8z M128.3,129.1c2,0,4.7-3,4.5-4.5
				c-0.2-1.3-0.8-2.2-2.3-2.2c-0.7,0-1.3-0.1-2-0.2c-1.8-0.2-2.6,0.8-2,2.6c0.4,1.2,0.7,2.4,1.2,3.5
				C127.7,128.7,128.2,129,128.3,129.1z M531.1,84.5c-0.7-0.9-1.2-1.9-2.1-2.5c-0.3-0.2-1.5,0.4-1.9,0.9c-1.1,1.2-2.1,2.5-3.1,3.9
				c-0.5,0.7-1.3,1.4-0.3,2.3c1.6,1.3,2.9,1.2,3.8,0.1c0.7-1,1.6-1.9,2.3-2.8C530.2,85.7,530.6,85.2,531.1,84.5z M938.8,45.2
				c1.4,1.3,2.5,2.4,3.6,3.3c0.4,0.3,1.1,0.3,1.6,0.2c1.5-0.6,2.9-1.2,4.3-1.9c0.5-0.3,1-0.7,1.7-1.2c-1.7-0.5-3.2-0.6-4.3-1.4
				C943,42.5,941.3,44.5,938.8,45.2z M548,65.4c0.8-1.1,1.8-2.4,2.7-3.9c0.2-0.3,0.1-0.8,0.1-1.2c-0.4,0-0.9,0-1.3,0
				c-0.6,0-1.2,0.3-1.8,0.2c-0.8-0.1-1.6-0.4-2.4-0.6c-1.6-0.3-2.7,0.9-2.4,2.3c0.2,0.6,0,1.3,0,2C544.2,64.6,545.9,64.9,548,65.4z
				 M621.1,155.1c1.4,0.5,2.6,1,4,1.6c0.8-2.3,1.6-4.6,2.3-7C622.2,148.6,621.1,150.9,621.1,155.1z M875.6,94.2c0-0.4,0-0.7-0.1-0.9
				c-0.7-1.4-1.4-2.7-2.1-4.1c-0.7-1.2-1.4-2.4-2-3.7c-0.6-1.1-1.5-0.8-1.9-0.2c-0.5,0.7-0.6,1.7-0.6,2.5c0.1,0.8,0.6,1.5,1,2.3
				C871.1,92.4,872.8,93.8,875.6,94.2z M531.4,59.2c0.7,1.3,1.4,2.5,2.1,3.9c1.2-1.7,2.5-3.5,3.7-5.4c0.7-1.1-0.5-3.3-1.7-3.6
				c-0.2,0-0.6,0-0.7,0.2c-0.9,1.2-1.8,2.3-2.7,3.5C531.8,58.3,531.6,58.8,531.4,59.2z M407.9,108.3c1.9-1.6,3.7-3.1,5.4-4.7
				c0.5-0.4,1-1.5,0.8-1.8c-0.9-1.1-2-1.9-3-2.9C409.5,100,406.9,107.1,407.9,108.3z M964.1,145.8c3.7,0.1,3.4-2.2,3.5-4.3
				c0-0.5,0.2-0.9,0.2-1.4c0-0.3-0.2-0.9-0.5-1c-1-0.4-2-0.7-3-1.1C963,140.7,961.6,143.3,964.1,145.8z M273,154
				c2.6,0.6,4.7-0.7,6.7-2.5c1.2-1.1,1.3-1.4,0.2-2.7c-0.5-0.6-1-1.2-1.5-1.8c-0.6-0.6-1.2-0.7-1.6,0.1
				C275.6,149.4,274.3,151.7,273,154z M905.7,157.9c-0.3,0-0.8,0-1.4,0c-2.1,0-4.1-0.1-6.2,0c-0.5,0-1.4,0.3-1.5,0.7
				c-0.3,0.7-0.3,1.5,0.8,1.9c2.1,0.7,4.1,1.4,6.1,2.1c0.4,0.1,1.2-0.4,1.3-0.7C905.3,160.6,905.4,159.4,905.7,157.9z M259.1,67.7
				c0-0.2,0-0.4,0.1-0.6c-0.6-0.4-1.2-0.8-1.9-1.1c-0.3-0.1-0.7-0.1-0.8-0.3c-1.2-2.1-2.8-1.7-4.7-1.1c-1.2,0.4-1.1,1.2-1,2.1
				c0.2,1.1,0.6,2.2,1.8,2.2c1.5,0,3-0.1,4.6-0.4C257.8,68.4,258.4,68,259.1,67.7z M476,158.5c0.1,0.3-0.1,1.3,0.4,1.7
				c0.5,0.5,1.9,0.9,2.3,0.6c1.1-1,1.9-2.3,2.8-3.5c0,0,0-0.1-0.1-0.1c-1.1-1.2-2-2.4-3.2-3.5c-1-0.8-1.8-0.4-1.9,0.9
				C476.1,155.8,476.1,157,476,158.5z M588,45.8c-1.4,0.2-2.2,0.9-3,1.9c-0.5,0.7-1.4,1.2-2.2,1.5c-0.5,0.2-1.4-0.1-1.2,0.9
				c0.1,0.5,0.8,1,1.3,1.1c0.7,0.1,1.5-0.3,2.2-0.4c0.5-0.1,1.2-0.4,1.6-0.3c1.1,0.3,1.9-0.1,2.5-0.8c0.7-0.8,1.1-1.8,1.7-2.7
				C589.9,46.5,588.9,46.1,588,45.8z M196,174.6c0.1-2.2-1.2-2-2-2.3c-2.8-1.1-3.5-0.8-4.3,2c-0.3,1.1,0.1,1.6,1.2,1.9
				c0.9,0.3,1.7,0.7,2.5,1c0.3,0.1,0.9,0.2,1.1,0C195.1,176.2,195.6,175.1,196,174.6z M965.9,125.2c-0.4,1.4-0.8,2.8-1.1,4.3
				c-0.1,0.4,0.2,1,0.4,1.2c0.8,0.5,1.6,0.8,2.5,1.1c0.8,0.2,1.7,0.2,1.8-0.9c0.1-1.4,0.1-2.8,0-4.2c0-0.4-0.6-0.9-1-1
				C967.7,125.4,966.9,125.3,965.9,125.2z M244.7,157.8c0.6,3.4,3.6,3.9,5,5.9c0.1,0.1,0.5,0.1,0.7,0.1c0.7-0.2,1.6-0.2,2.2-0.6
				c0.5-0.3,0.9-1.1,1.1-1.7c0.1-0.2-0.5-0.9-0.9-1c-0.9-0.3-1.8-0.4-2.7-0.5c-1.1-0.1-2.1-0.2-2.9-1.1
				C246.8,158.3,245.8,158.2,244.7,157.8z M808.2,147.3c0.6-0.7,1-1.1,1.2-1.6c0.4-0.8,0.6-1.8,1.1-2.5c1-1.3,0.3-2.3-0.7-2.6
				c-1.1-0.4-2.4-0.3-3.6-0.3c-0.3,0-0.8,1-0.7,1.3C806.3,143.4,807.2,145.2,808.2,147.3z M660.9,63.3c0.6-1,1-1.8,1.6-2.5
				c1-1.3,0.4-4.4-1.1-5.1c-0.2-0.1-0.4-0.1-0.6,0c-1.8,1.1-3.5,3.4-1.8,5.5C659.6,61.9,660.3,62.6,660.9,63.3z M677.9,108.8
				c1.1,1.5,2.1,3,3.2,4.4c1-0.9,1.7-1.5,2.4-2.1s0.6-1.2,0.1-1.9c-1-1.2-1.9-2.4-2.8-3.5C680,106.6,679.1,107.6,677.9,108.8z
				 M269.4,62.9C269.4,62.9,269.4,63,269.4,62.9c-0.5,0-1-0.1-1.4,0s-1,0.7-0.9,0.9c0.4,1.2,1,2.3,1.5,3.4c0,0.1,0.2,0.1,0.3,0.1
				c1.6,0.6,2.8,0.1,3.8-1.3c0.1-0.2,0.3-0.4,0.4-0.6c0.9-1,0.7-1.7-0.6-2C271.4,63.1,270.4,63.1,269.4,62.9z M428.5,64.2
				c-0.2,0.8-0.4,1.2-0.5,1.7s0.1,1.3-0.2,1.6c-1,0.9-2.1,1.6-3.2,2.2c-0.8,0.4-1,0.9-0.5,1.6c0.8,1,3.4,0.8,4.3-0.1
				c0.5-0.6,1.1-1.1,1.5-1.7c0.3-0.5,0.5-1.2,0.3-1.7C429.8,66.7,429.2,65.7,428.5,64.2z M783.3,46.3c2.1-0.2,4.1-0.3,6-0.5
				c0.2,0,0.5-0.4,0.6-0.6c0.2-0.9,0.4-1.8,0.6-2.9c-1.2,0.2-2.3,0.4-3.5,0.4C784.8,42.7,783.4,43.4,783.3,46.3z M493.7,94
				c-0.6,0.8-1.1,1.5-1.6,2.2c-1,1.4-0.6,2.6,1,3.1c0.6,0.2,1.2,0.5,1.8,0.5c0.6,0,1.5-0.2,1.7-0.5c0.3-0.6,0.4-1.6,0-2.1
				C495.9,96.2,494.8,95.2,493.7,94z M574.8,53.9c-0.2,0.1-0.4,0.1-0.6,0.2c0.1,1.8,0,3.6,0.5,5.3c0.2,0.8,1.4,1.8,2.2,1.7
				c1,0,1.5-1.1,1.5-2.3C578.3,56.1,576,55.4,574.8,53.9z M817.3,41.8c-0.3,2.5,0.2,3,2.3,2.4c0.8-0.2,1.7-0.4,2.6-0.5
				c1.8-0.2,3.7-0.4,5.5-0.6c0.3,0,0.6-0.5,0.9-0.8c-0.3-0.2-0.7-0.5-1-0.5C824.1,41.8,820.7,41.8,817.3,41.8z M462.9,60
				c-1.4-2.1-3-3.2-5.1-3.7c-1-0.2-1.9,0.8-1.3,1.6c1,1.2,2.2,2.4,3.5,3.1C460.6,61.4,461.8,60.5,462.9,60z M913.7,157.4
				c-0.2,1.6-0.4,2.6-0.4,3.7c0,0.3,0.5,0.9,0.7,0.9c3,0.3,3.6-0.4,3.2-3.3c0-0.3-0.1-0.7-0.2-0.9c-0.2-0.3-0.6-0.7-0.9-0.7
				C915.1,157.1,914.2,157.3,913.7,157.4z M926.3,58.7c0.1-0.2,0.1-0.4,0.2-0.6c-0.4-0.6-0.6-1.5-1.1-1.6c-1.3-0.4-2.6-0.6-4-0.6
				c-0.5,0-1.4,0.8-1.4,1.3c0,0.7,0.6,2,1,2C922.7,59.2,924.5,58.9,926.3,58.7z M762.6,73.5c-1.9-1.5-2.4-1.6-4.3-0.5
				c-0.5,0.3-0.8,1.2-1,1.9c-0.1,0.3,0.3,0.8,0.6,0.9C760.1,76.8,761.7,75.9,762.6,73.5z M575.4,159.9c0.3-0.1,0.5-0.2,0.8-0.4
				c0-2.4,0-4.8,0-7.2c0-1.3-0.6-1.9-1.9-1.7c0,2.7,0,5.4,0.1,8.2C574.4,159.2,575,159.6,575.4,159.9z M356.8,64.4
				c1.1,3.2,3.2,4.1,5.7,2.3c-1-1.2-1.9-2.4-2.8-3.5C358.7,63.7,357.7,64,356.8,64.4z M536.4,77.5c0.1-1.7,0.3-3.3,0.4-5
				c-0.2-0.1-0.4-0.2-0.6-0.3c-1.2,1.3-2.5,2.7-4,4.3C534,76.9,535.1,77.2,536.4,77.5z M423.6,161.2c-0.2-1.3-0.2-2.5-2-2
				c-0.3,0.1-0.6-0.2-0.9-0.2c-0.4,0-0.9,0.1-1.1,0.3s0,0.7,0.1,1c0.4,0.6,0.8,1.1,1.3,1.6s1.1,0.8,1.7,1.2
				C423.1,162.4,423.3,161.8,423.6,161.2z M619.1,58.1c1.5,0.2,2.7,0.4,4,0.6c0.3,0,0.5-0.1,0.8-0.2c-0.1-0.4-0.1-0.8-0.4-1.1
				c-0.5-0.5-1.1-0.9-1.8-1.2s-1.5-0.5-2.3-0.7c-0.2,0.7-0.3,1.4-0.4,2.1C619,57.9,619.1,58.1,619.1,58.1z M948.7,92.5
				c1.1,0.6,2.3,1.2,3.4,1.8c0.1-0.1,0.1-0.3,0.2-0.4C951.5,92.6,950.3,92.2,948.7,92.5z M954,43.4c0.8-0.6,1.5-1.2,2.4-1.9
				C954.1,40.6,954.2,42.3,954,43.4z"/>
			<path d="M706.5,126.7c-0.4,0.3-0.8,0.5-1,0.8c-0.9,1.9-2.3,2.1-4.2,2c-1.4,0-2.6-0.6-2.8-1.7c-0.2-0.9,0.4-2.2,0.9-3.1
				c0.3-0.7,1-1.4,1.7-1.6c1.7-0.7,3.5-1.3,5.4-1.8c0.3-0.1,1,0.5,1.3,1c0.7,0.9,1.5,1.8,1.8,2.9c0.2,0.7-0.1,1.9-0.6,2.4
				C708.1,128.3,707.1,128,706.5,126.7z"/>
			<path d="M890.3,61.4c-1.8-0.3-3.2-0.3-4.4-0.8c-0.7-0.3-1.2-1.3-1.6-2c-0.5-1-0.6-2.3-1.1-3.3c-1-2-0.6-3.1,1.6-3.7
				c0.7-0.2,1.4-0.6,2.2-0.7c1.4,0,3.1,1.9,3.4,3.5c0.3,1.2,0.8,2.4,1.2,3.6c0.2,0.7,0.8,1.7,0.5,2.2
				C891.7,60.8,890.7,61.1,890.3,61.4z"/>
		</g>
	</g>
</g>
</svg>
