<?xml version="1.0" encoding="utf-8"?>
<!-- Generator: Adobe Illustrator 24.1.1, SVG Export Plug-In . SVG Version: 6.00 Build 0)  -->
<svg version="1.1" id="Layer_1" xmlns="http://www.w3.org/2000/svg" xmlns:xlink="http://www.w3.org/1999/xlink" x="0px" y="0px"
	 viewBox="0 0 1000 230" style="enable-background:new 0 0 1000 230;" xml:space="preserve">
<style type="text/css">
	.st0{clip-path:url(#SVGID_1_);fill:url(#SVGID_2_);}
	.st1{clip-path:url(#SVGID_1_);}
</style>
<g id="Layer_2_1_">
</g>
<g>
	<defs>
		<path id="SVGID_4_" d="M978.7,33.2c-1.5,0.3-3.1,0.4-4.7,0.5c-2.3,0.1-4.5,0.1-6.8,0.2c-4.5,0.3-8.9,0.7-13.3,0.9
			c-4,0.2-8.1,0.1-12.1,0.2c-1.7,0-3.4,0.3-5.1,0.3c-3.9,0-7.8-0.1-11.7-0.1c-3.3,0-6.6,0-10,0.1c-1.8,0.1-3.6,0.4-5.4,0.4
			c-3.6,0-7.1-0.2-10.6-0.4c-2.2-0.1-4.3,0.7-6.5-0.1c-0.9-0.4-2.3-0.4-3.1,0.1c-1,0.5-1.6,0.4-2.4,0c-1.6-0.7-2.7-0.2-3.3,1.5
			c-0.1,0.3-0.4,0.7-0.7,0.8c-1.3,0.6-2.8,1-4.1,1.7c-2.1,1-4.1,2-6.1,3.1c-1.1,0.6-2,1.5-2.9,2.2c-0.9,0.7-1.7,1.7-2.7,2.2
			c-1.3,0.6-2.1,1.3-2,2.9c0,0.5-0.4,1.1-0.7,1.5c-1,1.4-2.5,2.6-3,4.2c-0.7,2-1,4.1-1.9,6.1c-0.8,1.6-1,3.5-1.3,5.3
			c-0.4,2-0.7,4-0.7,6c0,2.3-0.6,4.7,0.8,7c0.5,0.8,0.7,1.9,0.7,2.8c-0.1,3,1.2,5.6,2.1,8.3c0.4,1.1,1.6,2.1,0.1,3.3
			c-1,0.8-1.8,1.8-2.8,2.5c-1,0.8-2.1,1.4-3.1,2.1c-0.4,0.3-0.8,0.6-1.3,0.8c-2.5,0.9-5.1,1.7-7.6,2.5c-0.8,0.3-1.7,0.5-2.4,0.9
			c-2,1.1-4.2,0.4-6.4,1.1c-3.9,1.3-8.2,1.6-12.4,2.3c-4.5,0.8-9.1,0.6-13.7,0.8c-2.7,0.2-5.5-1-8.3-1.5c-1.9-0.4-3.8-0.9-5.7-1.1
			c-0.5-0.1-1.4,0.5-1.7,1.1c-0.2,0.4,0,1.4,0.4,1.7c1.4,0.8,3,1.5,4.5,2.2c0.7,0.3,1.4,0,1.9,1c0.5,1.1,1.5,2,2.1,3
			c1.5,2.5,3,4.9,4.3,7.5c0.6,1.1,0.9,2.3,1,3.5c0.1,1.2-0.2,2.3-0.4,3.5c0,0.3-0.1,0.8-0.3,1c-1.2,1.3-2.3,2.7-3.8,3.6
			c-3.3,2.1-6.9,2.9-10.7,1.8c-3.6-1.1-7.7-1.3-10.1-5c-0.1-0.1-0.3-0.1-0.4-0.2c-1.4-1.1-3.1-1.7-3.9-3.5c-0.7-1.5-1.7-3-3.7-3.4
			c-0.6-0.1-1.1-1.3-1.5-2.1c-0.7-1.4-1.2-2.8-1.9-4.2c-0.4-0.7-1.1-1.3-1.4-2c-0.6-2.1-1.2-4.2-1.4-6.4c-0.2-2.5-0.9-4.9-2.2-7.1
			c-0.2-0.3-0.4-0.8-0.4-1.1c0-2.8,1-5.6-0.1-8.4c0-0.1,0-0.2,0-0.3c0.4-1.3,0.7-2.7,1.3-4c1-2.2,2.1-4.2,2.2-6.7
			c0-0.4,0.3-0.9,0.5-1.3c1.7-2.3,3.3-4.7,5.2-6.7c1.8-1.9,2.9-4.5,5.6-5.5c1.3-0.5,2.6-1,3.8-1.7c2-1,3.9-2.2,6-3.2
			c0.8-0.4,1.8-0.4,2.7-0.6c1.2-0.2,2.3-0.2,3.5-0.4c1.4-0.2,2.8-0.6,4.1-0.5c2.1,0.2,4.2,0.9,6.3,1.3c2.5,0.4,4.5,1.9,6.2,3.5
			c1,0.9,1.3,2.4,2.2,3.5c1.1,1.4,1.4,2.9,1.7,4.6c0.2,1,1.3,1.9,2.2,2.5c0.3,0.2,1.6-1,2.1-1.8c0.7-1.1,0.7-2.6,2-3.4
			c0.2-0.1,0.2-0.7,0.3-1.1c0.1-0.4,0-1,0.2-1.3c1.2-2.3,2.5-4.7,3.7-7c0.5-0.9,1.1-1.8,1.6-2.7c2.6-4.2,5.2-8.6,9.1-11.9
			c1.9-1.6,3.4-3.8,6-4.6c0.8-0.2,1.4-0.9,2-1.4c0.8-0.6,1.5-1.3,2.4-1.6c1.5-0.5,3-0.9,3-2.4c1.1,0,2.1,0.3,2.9,0
			c0.4-0.1,0.5-1.1,0.8-1.7c-3-0.4-5.6-0.9-8.3-1.1c-1.4-0.1-2.9,0.4-4.4,0.7c-1,0.2-1.9,0.6-2.8,0.7c-2.1,0.1-4.1,0.1-6.2,0.1
			c-1.5,0-3,0.1-4.5,0.2c-1.7,0-3.5,0-5.3,0.1c-1,0-1.9,0.1-2.9,0.1c-2.4,0-4.8-0.2-7.2-0.1c-3,0.1-6.1,0.5-9.1,0.5
			c-4.4,0.1-8.7-0.2-13.1,0c-2.9,0.1-5.8,1.1-8.7,1.3c-5.3,0.3-10.1,2.3-14.9,4.1c-3.5,1.3-6.8,3.2-10.2,4.8
			c-0.8,0.4-1.6,0.7-2.3,1.2c-1,0.7-1.7,1.8-2.8,2.4c-2.3,1.3-4.3,2.7-6,4.7c-1.4,1.8-3.5,3-4.8,5c-1.1,1.7-3,2.8-3.9,4.6
			c-1.4,2.7-4.6,4.3-4.7,7.7c0,0.2-0.3,0.4-0.4,0.7c-1.3,2.7-3.5,4.9-3.8,8.1c-0.1,1-0.7,1.9-0.9,2.8c-0.5,2.3-1,4.5-1.5,6.8
			c-0.1,0.5-0.4,1-0.5,1.5c-0.1,0-0.3-0.1-0.4-0.1c0-1.1,0.1-2.3,0-3.4c-0.3-4.9-0.6-9.8-0.9-14.6c0-0.4,0.1-0.7,0.1-1.1
			c0.1-2.9,0.8-5.7,0.1-8.6c-0.6-2.6-0.1-5.2,0.6-7.8c0.9-3.2,1.3-6.5,2.2-9.7c0.6-2.2,2-3.7,4.3-4.5c1.8-0.6,3.5-1.7,5.3-2.5
			c1-0.5,0.2-1.3,0.5-1.9c-0.5-0.1-0.9-0.3-1.4-0.4c-1.7-0.4-3.5-0.1-5.1-1.1c-0.7-0.5-1.8-0.8-2.4,0.6c-0.2,0.4-1.1,0.7-1.7,0.8
			c-3.6,0.6-7.3-0.4-10.9,0.8c-0.2,0.1-0.4,0-0.6,0c-2.7-0.1-5.3-0.3-8-0.4c-0.3,0-0.7,0.1-1.1,0.2c-1.9,0.4-3.9,0.7-5.8,1.1
			c-0.1,0-0.2-0.1-0.3-0.1c-2.4-0.7-4.8-1.2-7.4-0.7c-1.7,0.3-3.4,0.2-5.1,0.2c-1.6,0-3.3-0.2-4.9-0.3c-0.9,0-1.8,0.1-2.6,0.2
			c0.2,0.7,0.3,1.3,0.4,1.8c0.6,0.2,1.2,0.3,1.8,0.5c2.3,1,4.7,2.2,5.6,4.6c1.1,2.8,1.5,5.9,1.6,8.9c0,1.3,0.1,2.7,0.1,4
			c-0.1,1.8-0.4,3.5-0.3,5.3c0.1,2.1,0.6,4.2,0.8,6.3c0.1,1,0,2.2-0.6,2.9c-0.6,0.8-0.7,1.2-0.4,2c1.4,3.7,0.3,7.4,0.2,11.2
			c-1.6-1.8-3-3.7-4.3-5.6c-0.9-1.3-1.5-2.9-2.7-4c-3.4-3.2-6-6.9-8.5-10.8c-2-3-4.4-5.8-6.6-8.7c-2.3-3.2-4.5-6.4-6.7-9.7
			c-0.5-0.7-1-1.3-1.5-2c-0.6-0.8-0.6-1.5,0.1-2.2c0.9-1,1.6-2.1,2.9-2.6c1.2-0.5,1.3-1.6,0.4-2.1c-0.8-0.4-1.7-0.7-2.5-0.7
			c-3.5,0.2-7.1,0.6-10.6,1c-2.2,0.2-4.3,0.4-6.5,0.5c-2.5,0.1-5,0.1-7.5,0.1c-3.1,0-6.3-0.1-9.4-0.1c-1.1,0-2.2,0.4-3.3,0.7
			c-0.8,0.2-1.5,0.6-2.1-0.5c-0.2-0.3-0.9-0.4-1.4-0.4c-2.5,0-5,0-7.4,0.3c-2.2,0.3-4.2,0.2-6.4-0.5c-2.2-0.7-4.7-0.4-7-0.3
			c-2.7,0.1-5.3,0.6-8,0.7c-1.8,0.1-3.5,0.1-5.3,0.1c-2.4-0.1-4.7-0.2-7.1-0.4c-0.5,0-0.9-0.1-1.4-0.1c-2.3,0.1-4.5,0.3-6.8,0.3
			c-3.2,0-6.4-0.3-9.6-0.3c-5.1,0-10.2,0.3-15.4,0.4c-4.7,0.1-9.3,0.2-14,0.3c-2.4,0.1-4.9,0.3-7.3,0.3c-2,0-4-0.1-6.1,0
			c-0.6,0-1.2,0.5-1.8,0.7c0.5,0.7,0.8,1.6,1.5,2c0.8,0.5,1.9,0.7,2.8,0.9c3,0.6,4.8,3.3,4.1,6.3c-0.2,1-0.7,2-1.2,2.9
			c-1.3,2.5-2.9,4.8-4.8,6.9c-2.4,2.6-4.4,5.6-6.5,8.5c-1.6,2.2-3.1,4.4-4.5,6.7c-1.2,2-3,2.1-4.6,0.4c-0.8-0.9-1.9-1.7-2.9-2.5
			c-1-0.9-2.2-1.7-3.1-2.7c-2.6-2.8-4.2-6.4-7.9-8.2c-0.1-0.1-0.2-0.2-0.3-0.3c-1.5-1.8-2.8-3.6-4.4-5.3c-1.8-2-3.8-3.8-5.6-5.8
			c-0.7-0.8-1.4-1.7-1.9-2.6c-0.8-1.4,0.2-4.6,1.6-5c1.4-0.4,1.5-1.4,2.1-2.6c-1-0.1-1.7-0.2-2.4-0.2c-1,0-2.1,0.4-2.9,0.1
			c-2.4-0.8-4.7,0.1-7,0c-0.5,0-1-0.1-1.5-0.1c-0.8,0.1-1.7,0.3-2.5,0.3c-1.1,0-2.2-0.2-3.4-0.2c-2.6,0-5.1,0.2-7.7,0.1
			c-4.3,0-8.5-0.2-12.8-0.2c-3.3,0-6.6,0.3-9.9,0.5c-0.5,0-1-0.2-1.5-0.3c-1-0.1-2-0.1-3-0.1c-0.6,0-1.1,0.3-1.7,0.4
			c-2.4,0.1-4.7,0.2-7.1,0.1c-1.3,0-1.9,0.4-1.7,1.7c0.1,0.3,0,0.6-0.1,1c-1.1-0.2-2.1-0.4-3.1-0.7c-3.3-1.3-7.2-0.5-10.3-2.6
			c-0.2-0.1-0.4-0.1-0.6-0.1c-3.6,0-7.3,0.1-10.9,0.1c-5.2,0-10.5,0-15.7,0c-3.1,0-6.2-0.2-9.3-0.1c-3.8,0.2-7.6,0.6-11.5,0.5
			c-6.3-0.2-12.6,0.2-19,0.2c-4.8,0-9.6-0.1-14.4-0.1c-2.5,0-5,0.5-7.5,0.6c-3.1,0-6.2-0.2-9.3-0.2c-5.2,0-10.3,0-15.5,0
			c-2.9,0-5.8,0.1-8.7,0c-2.1-0.1-4.1-0.6-6.2-0.5c-3.3,0.1-6.5,0.4-9.8,0.6c-1.4,0.1-2.9-0.1-4.4,0c-2.9,0.1-5.8,0.2-8.6,0.5
			c-1.4,0.1-2.7,0.6-4.1,1c-1.3,0.4-2.7,0.6-4,1.1c-2.8,1.1-5.6,2.3-8.4,3.4c-1.4,0.5-3.1,0.6-4.4,1.3c-3.5,1.9-6.3,5-9.9,6.8
			c-0.1,0.1-0.3,0.2-0.3,0.3c-0.2,1.5-1.5,1.8-2.4,2.6c-2.3,2-4.5,4.2-6.7,6.3c-0.1,0.1-0.2,0.4-0.3,0.5c-1.4,2.4-2.8,4.8-4.3,7.2
			c-1.4,2.2-3.1,4.3-4.1,6.7c-1.2,2.6-1.7,5.5-2.6,8.3c-0.1,0.3-0.3,0.7-0.4,1c-0.8,2-2,4-2.3,6.1c-0.4,3.3-0.2,6.7-0.3,10
			c0,2.8,0,5.7-0.1,8.5c0,0.4-0.2,0.8-0.3,1.1c-1.1-1-2.3-1.9-3.3-2.9c-1.5-1.4-2.7-3.2-4.3-4.4c-2.5-1.8-5.4-3.3-8.1-4.8
			c-1.5-0.9-3.1-1.7-4.7-2.4c-2-0.9-4.1-1.7-6.1-2.5c-0.4-0.2-0.8-0.4-1.2-0.4c-5.1-0.7-10.2-1.4-15.3-2c-1.1-0.1-2.4,0.6-3.3,0.1
			c-2.1-1-4.1,0-6.1-0.2c-3.6-0.3-7.3,0-11-0.1c-1.8,0-3.5-0.3-5.3-0.4c-3.8-0.1-7.6-0.2-11.5-0.3c-2.8-0.1-5.7,0-8.5-0.1
			c-3-0.1-6.3,0.4-8.8-2c-0.2-0.2-0.5-0.2-0.7-0.3c-2-0.4-4-0.7-5.9-1.4c-1.2-0.4-2.5-1.1-3.4-1.9c-0.8-0.8-1-2.3-1.9-3.2
			c-1-1-1.3-2-1.3-3.3c0-1.1-0.3-2.3-0.2-3.4c0.2-1.7,0.2-3.7,1-5.1c1.8-3,4.7-5.1,7.9-6.7c0.8-0.4,1.9-0.3,2.8-0.4
			c0.9-0.1,1.9,0,2.8-0.1c1.9-0.2,4-1.1,5.8-0.7c3.1,0.7,5.9-0.4,8.9-0.2c2.4,0.2,4.9-0.2,7.3-0.2c5,0,9.9,0.4,14.9,0.1
			c4-0.3,7.9,0.1,11.9,0.2c1.1,0,2.3,0.1,3.3,0.4c1.6,0.6,3.1,1.5,4.7,2.3c0.9,0.4,1.8,0.8,2.6,1.3c2,1.6,4.5,2.5,5.8,4.9
			c0.1,0.1,0.3,0.2,0.4,0.2c1.7,0.2,2.2,1.7,3.2,2.7c0.6,0.5,1.4,0.9,2.1,1.3c0.2-0.8,0.6-1.6,0.7-2.4c0.1-1.1-0.3-2.2-0.2-3.4
			c0.1-3.8,0.9-7.4,2.3-10.9c1.5-3.8,3-7.6,4.7-11.3c0.9-2.1,2.3-3.9,3.3-6c2.5-5.5,5.8-10.4,9.6-15c0.7-0.9,1.7-1.7,2.5-2.5
			c1.2-1.3,2.3-2.8,3.6-4c3.1-2.6,6.3-5.1,9.4-7.7c0.2-0.2,0.5-0.5,0.7-0.5c2.1-0.7,4-2.1,6.3-2.2c0.1,0,0.4,0,0.4-0.1
			c0.4-0.5,1-0.9,1-1.4c0-0.4-0.6-0.9-1-1.2c-0.5-0.3-1.1-0.5-1.6-0.5c-2.1-0.1-4.1-0.2-6.2-0.1c-4.5,0.1-9,0.3-13.5,0.4
			c-0.4,0-0.7,0.1-1.1,0.1c-2.6,0.2-5.2,0.5-7.7,0.6c-2.2,0.1-4.4-0.3-6.6-0.2c-3.2,0.1-6.4,0.4-9.6,0.4c-4.7,0.1-9.4-0.1-14.1,0
			c-5.4,0.1-10.8,0.3-16.2,0.6c-0.7,0-1.3,0.4-1.9,0.3c-2.1-0.1-4.2-0.4-6.3-0.4c-2.4-0.1-4.7-0.1-7.1,0c-2,0-3.9,0.2-5.9,0.3
			c-1.7,0-3.4-0.1-5.1-0.1c-2.5,0-5,0.1-7.4,0.2c-2.2,0.1-4.5,0.3-6.7,0.5c-0.2,0-0.4,0-0.6,0c-1-0.2-2-0.4-3.4-0.6
			c-0.6-0.1-1.6-0.7-2.4-0.5c-1.8,0.4-3.5,0.8-5.5,0.5c-1.9-0.3-4,0.5-5.9,1c-2.9,0.7-5.8,1.5-8.7,2.2c-0.4,0.1-0.7,0.4-1,0.6
			c-0.5,0.3-1,0.9-1.5,1c-1.2,0.3-2.3,0.4-3,1.7c-0.3,0.5-1.1,1-1.7,1.1c-2.4,0.2-3.7,2.2-5.6,3.3c-2.5,1.4-4.1,4.1-6.7,5.6
			c-1.5,0.9-2.7,2.2-4,3.4c-1.4,1.3-3.4,2.4-4.1,4c-1.5,3.2-3.9,5.7-6,8.4c-1.8,2.5-3.6,4.9-4,8.1c0,0.4-0.3,0.8-0.5,1.1
			c-1.3,1.5-2,3.2-2.2,5.2c0,0.4-0.3,0.8-0.5,1.1c-0.8,2.1-1.8,4.2-1.5,6.6c0.1,0.7-0.4,1.5-0.6,2.2c-0.4,1.4-0.9,2.7-1.3,4.1
			c-0.3,1.1-0.4,2.3-0.4,3.4c0,2.4-1.2,4.8,0,7.2c0.1,0.3,0.1,0.6,0.1,0.9c0.1,2.3,0.2,4.6,0.3,6.9c0,0.3,0.1,0.6,0.2,0.9
			c0.4,1.3,0.9,2.6,1.3,3.9c0.4,1.3,0.6,2.7,0.8,4.1c0.4,2.7,1.8,5,3.1,7.3c0.7,1.1,0.9,2.5,1.5,3.7c0.6,1.3,1.3,2.5,2.1,3.6
			c0.7,1.1,1.7,2,2.5,3c2.4,3,4.5,6.2,7.2,8.8c2.9,2.9,6.3,5.3,9.6,7.7c1.6,1.2,3.6,1.9,5.4,2.8c2.1,1.1,4.2,2.3,6.4,3.1
			c2.7,1,5.5,1.9,8.2,2.6c4,1,8.1,2,12.2,2.4c4.1,0.5,8.3,0.7,12.4,0.5c5.7-0.3,11.5-0.4,17.2-1.5c0.1,0,0.3,0,0.5,0
			c0.8,0,1.7,0,2.5-0.1c0.5,0,0.9-0.1,1.4,0c3.4,0.8,6.9,0.8,10.3,0.5c3.9-0.4,7.7-0.7,11.5,0.3c0.5,0.1,1.1,0.2,1.5,0.2
			c3.6-0.6,6.6,0.7,9.5,2.6c2.1,1.4,3.5,3.3,3.4,6c0,1,0.1,2,0.1,2.9c0,0.4-0.3,1-0.6,1.2c-2.4,1.5-5,2.7-7.3,4.3
			c-1.9,1.3-3.9,1.8-6.2,1.5c-0.8-0.1-1.5,0-2.3,0.1c-1.2,0.2-2.6,0.9-3.6,0.5c-1.8-0.7-3.3-0.3-5,0c-1.6,0.2-3.1,0.3-4.7,0.5
			c-1.2,0.1-2.3,0.1-3.5,0.1c-0.8,0.1-1.5,0.2-2.3,0.4c-0.5,0.1-1.1,0.4-1.6,0.6c-0.9-0.2-2-0.6-3-0.8c-1.1-0.1-2.2,0.2-3.2,0
			c-1.8-0.4-3.5-0.6-5.3-0.2c-1.5,0.3-3.1,0.1-4.6,0.1c-1.1,0-2.3-0.1-3.4-0.1c-1.9,0-3.9,0.3-5.8,0.1c-2.9-0.2-5.9-0.6-8.8-1
			c-0.9-0.1-1.8-0.7-2.6-1.2c-1.1-0.7-2.2-1.5-3.3-2.2c-1.1-0.7-2.4-1.2-3.5-1.9c-1.8-1.2-3.1-3.1-5.2-3.9c-0.5-0.2-1.1-0.3-1.6-0.2
			c-0.2,0-0.5,0.7-0.4,1c0.4,2.9-0.7,5.6-1.3,8.4c-0.3,1.4-1.2,2.6-1.7,4c-0.6,1.4-1.2,2.8-1.9,4.6c-1.3,0.3-1.5,2.1-2.2,3.5
			c-0.7,1.4-1.1,2.9-1.8,4.2c-1.2,2-2.5,3.9-3.8,5.9c-0.2,0.2-0.4,0.4-0.7,0.6c-0.8,0.6-1.7,1.2-2.3,1.9c-1.3,1.6-2.4,3.4-3.6,5
			c-2.5,3.5-5.7,6.3-9.1,8.8c-2.4,1.8-4.9,3.4-7.4,5.1c-0.3,0.2-0.5,0.3-0.8,0.5c-2.6,1.5-4.9,3.7-7.9,4.4c-0.3,0.1-0.5,0.4-0.8,0.5
			c-0.5,0.2-1.1,0.6-1.6,0.6c-2.1-0.3-3.4,1.2-4.9,2.2c-0.2,0.2-0.2,1.2,0,1.3c0.9,0.5,1.8,1.1,2.8,1.1c1.5,0.1,3.1-0.3,4.6-0.5
			c2.8-0.3,5.7-0.8,8.5-1c3.3-0.2,6.5-0.1,9.8-0.1c6.4,0,12.9,0,19.3,0c4.8,0,9.7-0.1,14.5-0.2c5.4-0.1,10.9-0.2,16.3-0.4
			c1.5,0,3-0.2,4.5-0.2c3.6,0.1,7.2,0.4,10.8,0.5c4.6,0.1,9.1-0.1,13.7-0.1c5.5-0.1,11.1-0.2,16.6-0.3c1.4,0,2.9,0.2,4.3,0.3
			c2.8,0.1,5.6,0,8.4,0c1.2,0,2.4,0.1,3.6-0.1c1.9-0.3,3.8-0.9,5.7-1.3c1.6-0.3,3.2-0.3,4.8-0.7c2.7-0.7,5.3-1.5,8-2.3
			c1.9-0.6,3.7-1.2,5.6-1.9c0.4-0.2,1-0.4,1.1-0.8c0.4-1.5,1.7-1.5,2.8-1.8c1-0.3,2.1-0.7,2.9-1.4c1.8-1.5,3.5-3.1,5.2-4.7
			c1.7-1.6,3.6-3.2,4.9-5.1c1.7-2.5,3.5-5,5.2-7.5c1-1.5,1.7-3.5,1.6-5.3c-0.2-2,0.6-3,1.8-4.2c0.4-0.4,0.7-1.1,0.8-1.6
			c0.2-2.1,2.1-3.9,1.2-6.3c-0.1-0.1,0.2-0.4,0.2-0.6c0.3-0.9,0.5-1.8,0.8-2.6c0.5-1.9,1.1-3.8,1.6-5.7c0.2-0.6,0.6-1.4,0.3-1.8
			c-1.2-1.7-1.1-3.7-1.2-5.5c-0.2-2.1,0.7-4.3,1.1-6.5c0.1,0.1,0.3,0.1,0.4,0.3c1.9,2,3.8,4,5.7,5.9c0.8,0.8,2,1.3,2.3,2.2
			c0.5,1.3,1.2,2.1,2.3,2.8c1.3,0.8,2.5,1.8,3.8,2.6c0.9,0.5,1.9,0.8,2.9,1.3c0.5,0.3,1,0.7,1.5,1.1c0.9,0.8,1.6,1.9,2.6,2.6
			c1.1,0.8,2.5,1.1,3.7,1.8c1.6,0.9,3.1,2.1,4.7,2.8c2.8,1.2,5.1,3.4,8.4,3.3c0.4,0,0.8,0.4,1.2,0.6c1.5,0.7,3,1.8,4.6,2.1
			c1.9,0.4,3.9,0.3,5.9,0.3c4.2,0,8.3,0,12.5-0.3c5.5-0.3,11.1,1.1,16.5-0.7c1-0.3,1.1,0.5,1.8,0.5c1.3-0.1,2.7,0.1,4,0.1
			c3.8,0.1,7.6,0.3,11.4,0.2c4.8-0.1,9.6-0.4,14.4-0.4c6.1,0,12.1,0.3,18.2,0.2c2.3,0,4.8,0.6,7-0.8c0.3-0.2,0.9,0.1,1.3,0.3
			c0.7,0.2,1.3,0.7,1.9,0.7c4.6,0,9.2,0,13.9-0.1c0.7,0,1.4-0.2,1.9-0.5c0.4-0.2,0.9-0.9,0.8-1.2c-0.2-0.6-0.8-1.5-1.2-1.5
			c-4.2,0.1-6.2-3-7.5-5.9c-1.3-3-1.5-6.6-1.7-9.9c-0.1-1.8,0.1-3.7-0.1-5.6c-0.5-3.9-0.1-7.9-0.1-11.8c0-2.7,0-5.5,0-8.2
			c0-1.3-0.3-2.7-0.2-4c0.1-3.9,1.4-7.9-0.1-11.8c-0.2-0.4-0.1-0.9-0.2-1.4c-0.1-3.7-0.1-7.3-0.1-11c-0.1-5.9-0.1-11.8-0.1-17.8
			c0-3.3,0-6.6,0-10.1c0.8-0.2,1.5-0.5,2.3-0.6c2-0.2,4.1-0.3,6.1-0.4c3.4-0.1,6.7-0.3,10.1-0.3c1.1,0,2.2,0.3,3.2,0.3
			c3.2,0,6.3-0.2,9.5-0.2c1.2,0,2.4,0.2,3.6,0.2c0.9,0,1.8-0.1,2.7-0.2c0.6,0,1.6-0.4,1.8-0.1c0.9,1.3,2.4,1.1,3.6,1.5
			c1.3,0.4,2.6,1.9,2.3,2.8c-0.7,1.7-1.3,3.4-2.9,4.7c-2.1,1.6-3.9,3.6-5.8,5.4c-0.5,0.5-0.8,1.4-1.4,1.8c-2.2,1.8-4.7,3.3-6.6,5.6
			c-0.8,1-2.2,1.5-2.7,2.8c0,0.1-0.3,0.3-0.4,0.2c-1.7-0.5-2.6,0.9-3.5,1.7c-3.2,2.7-6.5,5.2-10.4,6.6c-0.3,0.1-0.7,0.3-1,0.3
			c-1.8-0.3-1.9-0.3-1.6,1.6c0.1,0.6,0.4,1.1,0.8,1.6c1.4,1.9,2.9,3.7,4.2,5.7c3.1,4.9,6,9.8,9.1,14.7c2.5,4.1,5.1,8.3,7.7,12.4
			c0.9,1.4,1.9,2.7,2.7,4.1c1.2,2.1,2.3,4.3,3.3,6.4c0.6,1.3,2.2,2.1,2,3.9c0,0.2,0.2,0.5,0.4,0.7c0.9,1.1,2,2,2.7,3.2
			c1,1.7,2,3.5,2.5,5.5c0.5,1.7,0.5,3.5,0.6,5.2c0,0.9-0.3,1.9-0.3,2.8c0,0.6,0,1.3,0.4,1.7c0.5,0.6,1.2,1,1.9,1.4
			c1.1,0.5,2.2,0.9,3.3,1.4c0.9,0.4,1.8,1,2.7,1.4c1.8,0.9,3.7,1.7,5.5,2.6c2.4,1.3,4.8,2.6,7.2,4c0.3,0.2,0.6,0.6,0.6,0.9
			c-0.4,2.7-1.5,4.9-3.9,6.4c0.4,0.9-1.1,3.5-2.3,3.5c-1.4,0-1.3,0.8-1.4,1.7c-0.1,1-0.2,2-1.7,1.8c-0.4,0-1.3,0.4-1.4,0.8
			c-0.3,1.7-1.8,2.2-2.9,3.2c-0.8,0.7-1.4,1.5-2,2.3c-1.7,2-3.4,4-5,6.1c-1.2,1.4-2.4,2.8-3.4,4.4c-0.3,0.5,0.1,1.8,0.6,2.4
			c0.2,0.3,1.5,0.1,2-0.2c1.8-1.3,3.4-2.8,5-4.2c1.8-1.5,3.5-3,5.5-4.3c3.7-2.4,7-5.4,11.1-7.4c3.9-1.9,7.6-4.1,11.3-6.2
			c0.4-0.2,0.9-0.4,1-0.7c0.9-1.8,2.9-1.8,4.4-2.3c0.9-0.3,2.6-0.3,2.9,0.2c0.7,1.3,1.9,1.4,2.9,1.9c0.7,0.3,1.4,0.4,2.2,0.6
			c0.9,0.8,2,1.4,3.1,2c0.9,0.5,2,0.9,2.9,1.4c3.6,2.3,7.2,4.7,10.9,6.9c0.5,0.3,1.3,0.3,2,0.4c0-0.7,0.3-1.6,0-2.1
			c-1-1.5-2.3-2.9-3.4-4.4c-0.6-0.7-1-1.6-1.5-2.4c-2-3.3-4-6.5-6-9.8c-0.2-0.4-0.3-1.2,0-1.4c1-0.9,2.1-1.9,3.3-2.5
			c2.2-1.2,4.5-2.2,6.7-3.1c3.2-1.4,6.3-2.8,9.6-4c2.4-0.9,4.8-1.5,7.2-2.3c2-0.7,3.9-1.4,5.8-2.1c-0.4-1.6-0.9-2.4-2.3-2.6
			c-0.5-0.1-0.9-0.9-1.3-1.4c-0.3-0.5-0.4-1.1-0.7-1.5c-0.8-1-1-2.1-0.5-3.2c1.3-2.7,2.5-5.5,4-8.1c1.8-3.1,3.8-6.1,5.8-9.1
			c2.6-3.8,5.1-7.7,7.8-11.4c2.3-3.2,4.7-6.2,7-9.3c2.6-3.5,5.1-7.1,7.7-10.6c2.8-3.9,5.7-7.8,8.6-11.7c2.5-3.4,4.9-6.8,7.3-10.2
			c0.3-0.5,0.8-0.8,1.1-1.3c1.6-2.3,3.1-4.7,4.8-7.1c2.9-4,5.8-7.9,8.7-11.9c2.9-4.1,5.7-8.4,8.6-12.5c1.7-2.4,3.7-4.7,5.5-7.1
			c1.5-2,2.8-4.1,4.2-6.2c0.8-1.1,1.7-2.1,2.9-3.6c0.5,1.3,1.1,2.2,1.2,3.2c0.2,1.4,0.2,2.9,0,4.3c-0.7,4.8,1.5,9.6,0.3,14.4
			c0,0,0,0.1,0,0.2c0.1,3.2,0.3,6.3,0.4,9.5c0,0.8,0.2,1.7,0.2,2.5c0,2.1-0.3,4.1-0.3,6.2c0,3,0.2,6,0.3,8.9c0.1,4,0.1,8,0.1,12
			c0,2.8,0.2,5.7,0.1,8.5c0,3.5-0.4,6.9-0.3,10.4c0,3.6,0.3,7.2,0.4,10.8c0.1,3.9-0.1,7.7,0,11.6c0,0.7,0.3,1.4,0.4,1.9
			c-0.2,0.4-0.5,0.8-0.5,1.2c-0.3,3.2-0.9,6.3-2.4,9.1c-0.5,0.9-1.2,1.8-1.8,2.7c-0.7,0.9-1.6,1.8-2.2,2.8c-1.7,2.7-4.5,3.8-7.2,5.2
			c-0.7,0.4-1.5,1.2-1.7,1.9c-0.2,0.5,0.5,1.4,1,1.9c1,0.9,2.2,0.8,3.4,0.4c0.8-0.3,1.6-0.6,2.4-0.7c3.6-0.2,7.2-0.3,10.7-0.5
			c2.3-0.1,4.6-0.4,6.8-0.4c1.5,0,3-1,4.5-0.2c0.2,0.1,0.5,0,0.8,0c2.5,0.1,4.9,0.2,7.4,0.3c4.1,0.1,8.2,0.1,12.3,0.1
			c4.6,0,9.2-0.2,13.9-0.3c3.3-0.1,6.7-0.2,10-0.1c4.2,0.1,8.5,0.8,12.7,0c0.6-0.1,1.1-0.4,1.5-0.6c0.7,0.2,1.3,0.6,2,0.6
			c2.9,0.1,5.8,0.2,8.7,0.3c1.6,0.1,3.3,0.2,4.9,0.1c0.7,0,1.8-0.2,2.2-0.7c0.4-0.5,0.5-1.7,0.3-2.3c-0.2-0.5-1.2-0.8-1.9-0.9
			c-1.2-0.2-2.5-0.1-3.7-0.4c-2.6-0.6-4.4-3.4-4.6-6.1c-0.1-2-1-3.9-1.1-5.9c-0.3-4.7-0.4-9.5-0.4-14.2c0-2.2-0.4-4.4-0.2-6.7
			c0.3-3.1-0.3-6.3-0.3-9.5c0-1.4-0.8-3,0.3-4.3c0.2-0.2-0.1-0.7-0.1-1c-0.1-1.6-0.4-3.1-0.3-4.7c0.1-1.6-1.4-2.8-0.8-4.4
			c0.2-0.6,0.6-1.3,0.5-1.9c-0.2-2.8,0.6-5.6-0.5-8.3c-0.1-0.3,0-0.8,0.1-1.2c0.1-0.8,0.3-1.5,0.3-2.3c0-2.1-0.1-4.2-0.3-6.2
			c0-0.5-0.5-1-0.6-1.5c-0.1-0.4-0.3-0.9-0.2-1.2c0.2-0.7,0.8-1.4,0.8-2c0.1-1.6-0.2-3.2-0.2-4.8c0-0.6,0.5-1.2,0.8-1.8
			c0.6,0.4,1.3,0.7,1.8,1.2c0.7,0.7,1.1,1.6,1.8,2.3c1.5,1.7,3.1,3.2,4.5,4.9c1.7,2.1,3.2,4.4,4.9,6.6c1.1,1.4,2.5,2.7,3.3,4.2
			c0.9,1.7,1.7,3.2,3.1,4.6c2.4,2.3,4.2,5.3,6.2,8c0.5,0.7,0.9,1.5,1.4,2.2c0.9,1.6,1.8,3.2,2.8,4.7c2.5,3.5,5.1,7,7.6,10.5
			c2.2,3.2,4.5,6.4,6.4,9.8c1.1,1.9,2,4.1,2.1,6.2c0.3,4.7,0,9.5,0,14.2c0,0.6,0.1,1.4-0.3,1.7c-2,1.9-3.1,4.9-6.2,5.5
			c-1.3,0.3-1.9,1.2-1.5,2.6c0.1,0.4,0.2,0.9,0.3,1.3c1.5,0.6,3,1,4.3,1.8c2.1,1.3,4,2.8,6,4.2c2.5,1.8,5.1,3.7,7.6,5.6
			c1.4,1,2.9,1.9,4.2,2.9c1.3,1.1,2.3,2.5,3.6,3.5c2.4,1.9,4.9,3.7,7.4,5.6c2.3,1.7,4.7,3.4,7,5.1c1.4,1,2.6,2.2,3.9,3.3
			c2,1.6,3.8,3.4,6,4.6c1.3,0.7,2.2,1.5,2.5,2.8c0.2,1,0.8,1.4,1.8,1.3c0.5,0,1.3-0.2,1.3-0.5c0.1-0.8,0.3-2.2-0.1-2.5
			c-1.4-0.9-1.4-2.4-2-3.7c-1.7-3.5-2.9-7.1-3.6-10.9c-0.7-3.8-1.7-7.5-2.5-11.2c-0.6-3.3-1.1-6.6-1.6-9.8c-0.2-1,0.2-1.3,1.2-1.4
			c1.5-0.1,1.9-0.8,0.9-2c-0.6-0.7-1.4-1.3-2.3-1.9c-0.2-1.6-0.5-3.4-0.8-5.3c-0.3-2-0.9-3.9-1-5.9c-0.2-4.4-0.1-8.7-0.3-13.1
			c-0.1-5.7-0.4-11.3-0.5-17c-0.1-3.5-0.1-6.9-0.2-10.4c0-3.1,0-6.2,0-9.6c0.6,2.3,1.1,4.3,1.6,6.2c0.3,1,0.5,2.1,0.7,3.2
			c0.2,0.9,0.3,1.7,0.6,2.6c0.1,0.5,0.5,1.1,0.5,1.6c0,1.6,0.3,3.1,1.3,4.4c0.3,0.3,0.3,0.8,0.4,1.3c0.2,0.8,0.2,1.8,0.6,2.5
			c1.3,2.3,2.9,4.3,3.8,6.9c0.7,2.1,2.3,3.9,3.6,5.8c0.5,0.8,1.1,1.6,1.7,2.4c1.6,2.2,3.3,4.3,5,6.5c0.2,0.3,0.3,0.7,0.6,0.9
			c0.6,0.6,1.1,1.3,1.8,1.8c1.8,1.5,3.9,2.8,5.4,4.5c1.6,1.9,3.6,3.3,5.7,4.1c3.6,1.5,6.9,3.9,10.9,4.1c0.3,0,0.7,0.3,0.8,0.6
			c1,2,2.7,2.1,4.6,2c0.7-0.1,1.4,0,2.1,0.2c1.5,0.5,2.9,1.2,4.4,1.6c2.3,0.6,4.8-0.2,7.2,0.5c2,0.6,4.2,0.5,6.3,0.7
			c0.2,0,0.5-0.1,0.8-0.1c1.8-0.3,3.6-0.8,5.3-0.8c4.3,0,8.3-1.3,12.3-2.5c2.9-0.8,5.6-2,8.4-3.1c2.4-1,4.9-1.4,7.2-2.9
			c2.4-1.6,5.4-2.5,7.8-4.3c2.4-1.7,5.2-3,7.1-5.2c2.4-2.9,4.9-5.8,7.4-8.7c0.7-0.8,1.3-1.6,1.8-2.5c1.1-1.9,2.2-3.7,3.1-5.7
			c0.9-1.9,1.6-4,2.3-6c0.6-1.7,0.5-3.8,1.6-5.1c2.2-2.8,1.5-6.3,3-9.2c0.1-0.1-0.1-0.3-0.1-0.4c0-2.6,0-5.2,0-7.8
			c0-2.1-0.1-4.1-0.1-6.2c0-0.9,0.4-1.7,0.6-2.6c1.1,0.8,1.9,1.4,2.7,2c0.3,0.2,0.5,0.6,0.8,0.9c0.5,0.6,1,1.2,1.6,1.7
			c0.5,0.4,1,0.7,1.5,1.1c1.4,1.2,2.8,2.4,4.2,3.5c1.1,0.9,2,2,3.2,2.7c1.2,0.7,2.6,1,4,1.5c2,0.6,4,1,5.9,1.8c1.9,0.9,3.8,1,5.8,1
			c1.7,0,3.5-0.2,5.1,0.2c1.2,0.3,1.8,0.2,2.2-0.7c0.4,0.4,0.7,1,1,1c1.1,0.1,2.3,0.1,3.4,0.1c5.9-0.1,11.8-0.2,17.7-0.2
			c1.3,0,2.5,0.3,3.8,0.3c2,0.1,3.8,0.8,5.3,2.2c0.2,0.1,0.5,0.1,0.7,0.2c0.5,0.2,1.1,0.5,1.6,0.8c0.5,0.3,0.7,0.9,1.2,1.2
			c1.6,1,3.2,2.3,3,4.3c-0.1,1.5,2.1,3.7-1.1,4.4c0,0,0,0.1,0,0.1c-0.2,1.8-1.4,2.8-2.9,3.5c-2.4,1.2-4.7,2.7-7.2,3.5
			c-2.5,0.8-5.2,0.7-7.8,1c-1.2,0.2-2.4,0.5-3.6,0.8c-0.6,0.1-1.2,0.4-1.8,0.3c-2.2-0.3-4.4-0.9-6.7-1.2c-3.1-0.4-6.2-0.5-9.2-0.8
			c-3.9-0.4-7.7-1.4-11.1-3.7c-0.7-0.5-1.7-1.2-1.7-1.9c-0.1-1.9-1.1-1.4-2.2-1.4c-0.1,0.8-0.1,1.5-0.2,2.2
			c-0.2,1.8-0.4,3.7-0.9,5.4c-0.4,1.5-1.3,2.9-1.9,4.4c-1.4,3.8-3.6,7-6.3,9.9c-3.3,3.4-6.7,6.5-10.7,9.2c-1.8,1.2-3.4,2.5-5.6,3.2
			c-2.4,0.8-4.6,2.1-6.8,3.1c-0.5,0.2-1,0.4-1.3,0.8c-0.7,1.1-1.6,1.5-2.9,1.4c-0.7,0-1.4,0.1-2,0.4c-0.4,0.3-1,0.9-0.9,1.4
			c0,0.5,0.7,1,1.2,1.2c0.9,0.4,1.9,0.6,2.8,0.8c0.8,0.2,1.6,0.4,2.4,0.4c3.8-0.2,7.6-0.6,11.5-0.8c3.6-0.2,7.1-0.1,10.7-0.1
			c1.4,0,2.9,0.3,4.3,0.3c3.3,0.2,6.6,0.3,9.9,0.4c1,0,2,0,2.9-0.1c2.1-0.3,4.1-0.8,6.2-0.9c3.5-0.1,7.1,0,10.6,0
			c0.7,0,1.3-0.1,2-0.2c1.5-0.2,3.1-0.5,4.6-0.5c3.9,0.1,7.8,0.5,11.6,0.6c3.9,0.1,7.7-1.1,11.7-0.3c1.9,0.3,3.9-0.1,5.9-0.4
			c1.8-0.3,3.5-1,5.2-1.6c1.5-0.5,2.9-1,4.3-1.7c2-1,4-2.2,5.9-3.4c1.2-0.8,2.5-1.6,3.5-2.6c2.9-2.9,5.9-5.9,7.4-9.8
			c0.9-2.2,2.7-3.9,2.9-6.5c0.1-1.1,0.9-2.2,1.3-3.3c0.3-0.9,0.6-1.8,0.6-2.8c0.1-2.1-0.2-4.3,1.4-6c0.3-0.3,0.4-1,0.2-1.4
			c-0.5-1.1-0.7-2.2-1-3.3c-0.5-1.7,0.2-3.1,0.2-4.6c-0.4-0.6-0.7-1.2-0.8-1.8c-0.5-2.5-0.1-5.3-1.8-7.6c-0.6-0.9-0.9-1.9-1.4-2.9
			c-1.1-2.5-2-5.2-3.4-7.6c-2.7-4.9-6.9-8.6-11.9-11.1c-2.2-1.1-4.5-2.3-7-3c-3.2-0.9-6.5-1.6-9.7-2c-3.5-0.5-7-0.5-10.5-0.7
			c-0.6,0-1.1,0.1-1.7,0.2c-0.8,0.1-1.6,0.3-2.4,0.3c-1.6,0-3.2-0.1-4.8,0c-5.1,0.4-10.1,1.2-15.1-0.6c-3.6-1.3-6.9-2.7-8.8-6.3
			c-0.9-1.8-2.2-3.5-1.3-5.7c0.7-1.5,2.3-2.6,2.1-4.5c0-0.1,0.1-0.2,0.2-0.2c1.2-0.9,2.2-1.9,3.5-2.5c2.7-1.3,5.5-2.3,8.6-2.3
			c1.6,0,3.1,0,4.7-0.2c1.8-0.1,3.6-0.5,5.4-0.5c2.6,0,5.2,0.3,7.7,0.4c0.4,0,0.8,0,1.2,0.1c2.6,0.3,5.1,0.6,7.7,1
			c0.6,0.1,1.2,0.3,1.7,0.7c1.4,1,2.6,2,3.9,3.1c1.5,1.2,3.1,2.3,4.4,3.7c0.9,1,1.9,0.3,2.8,0.5c0.3,0.1,1-0.8,1.2-1.3
			c0.8-2.2,1.3-4.6,2.3-6.7c1-2.2,2.4-4.2,3.6-6.3c0.6-1,1.2-2.1,1.9-3c2.9-3.5,5.9-7,8.9-10.4c0.4-0.5,0.8-1,1.3-1.4
			c2.7-2.3,5.4-4.5,8.1-6.7c0.5-0.4,0.9-1.1,1.4-1.3c1.8-0.7,2.3-0.9,2.3-2c0-0.4,0-0.8-0.1-1.5C980.3,33.2,979.8,33,978.7,33.2z
			 M322.1,151.4c-1.6,1.9-0.5,4.1-0.7,6.1c-0.1,1.7-0.3,3.4-0.5,5.1c-0.2,1.6-0.7,3.1-0.7,4.7c0,1.6-0.4,2.7-2.1,2.9
			c-0.8-0.3-1.5-0.4-2.2-0.7c-0.5-0.2-0.9-0.5-1.3-0.8c-0.7-0.5-1.3-1-2-1.5c-0.2-0.2-0.6-0.3-0.7-0.6c-1.1-2.2-3.2-3.4-4.9-5
			c-2.7-2.5-5.1-5.3-7.5-8c-2.6-2.9-3.6-6.7-5-10.2c-0.6-1.5-1.4-3-1.9-4.6c-0.3-0.8-0.2-1.7-0.3-2.6c-0.1-0.9-0.2-1.9-0.6-2.7
			c-0.3-0.7-1.1-1.8-1.5-1.7c-0.9,0.2-2.3,0.8-2.5,1.5c-1,2.9-3.7,3.6-5.9,4.7c-3.5,1.7-7.4,2.1-11.2,2.2c-2.7,0.1-5.4,0.2-8.1-0.2
			c-4.2-0.6-8.4-1.4-12.1-3.7c-2.2-1.3-4.1-3-6-4.6c-0.9-0.8-1.4-2.1-2-3.2c-0.1-0.2-0.2-0.5-0.1-0.6c1.1-1.7-0.2-2.2-1.3-2.9
			c-0.5-0.4-1.1-0.8-0.9-1.9c0.2-1,0.2-2.3-1.2-2.9c-0.1,0-0.2-0.2-0.2-0.3c-0.1-0.6,0-1.4-0.3-1.8c-0.3-0.4-1-0.3-1.7-0.5
			c1.5-1.3,2.1-4.3,1.1-5.8c-1.7-2.2-0.6-4.4-0.3-6.7c0-0.3,0.4-0.7,0.3-1c-0.6-3.2,0.9-5.8,2.2-8.5c0.2-0.4,0.5-0.9,0.4-1.3
			c-0.4-1.7,0.7-2.7,1.4-4c0.7-1.3,1.3-2.6,1.9-4c0.2-0.4,0.2-0.8,0.5-1.1c2-1.8,4.1-3.7,6.2-5.4c0.9-0.7,2.1-1.1,3.2-1.7
			c1.5-0.7,3.1-1.5,4.6-2.2c1.2-0.5,2.4-0.8,3.6-1.2c1-0.3,1.9-0.7,2.9-0.8c1.1-0.1,2.2-0.1,3.2-0.1c1.8,0.1,3.7,0.2,5.4,0.6
			c3.8,1,7.5,2.3,10.5,5.1c0.2,0.2,0.5,0.6,0.5,1c0.1,2.4,2,3.4,3.7,4.5c1.4,0.9,2.3,0.2,2.4-1.5c0.1-1.8,0.3-3.5,1.2-5.2
			c0.7-1.2,0.3-3,0.7-4.5c0.9-2.9,1.8-5.8,3.2-8.5c1.6-3.1,3.9-5.8,5.5-8.8c1.2-2.5,3.2-4.3,5-6.2c2-2.1,4.3-3.9,6.5-5.9
			c0.9-0.8,1.6-1.7,2.7-2.8c1.7,2.5,3.3,4.5,4.6,6.8c0.6,1.1,1,2.5,1,3.8c0,3.3-0.2,6.5-0.3,9.8c-0.1,4.5,0,8.9,0,13.4
			c0,2.1,0.2,4.1,0.3,6.2c0,2.3-0.1,4.6,0,6.9c0.1,1.9,0.5,3.7,0.7,5.6c0.1,1.1,0,2.2-0.1,3.3c0,0.2-0.1,0.5-0.1,0.7
			c0,2.2-0.1,4.4,0,6.6c0,1,0.2,2,0.3,3c0,1.8,0,3.7,0,5.5c-0.1,3-0.2,6.1-0.2,9.1c0,3.4,0,6.9,0,10.3c0,1.2,0.1,2.3,0.1,3.5
			c0.1,2.8,0.3,5.6,0.1,8.3c-0.1,2,0,3.9,0.5,5.8C322.1,150.9,322.2,151.3,322.1,151.4z M484.6,104.1c-1,2.6-2.3,5.1-3.7,7.4
			c-1.3,2.1-3,3.9-4.5,5.9c-2.4,3.3-4.6,6.7-7,10c-1.5,2.1-3.2,4.1-4.8,6.1c-0.4,0.5-0.9,0.9-1.2,1.4c-3.3,4.3-6.5,8.7-9.8,13.1
			c-2.3,3-4.7,6-7,9c-2.2,2.9-4.3,5.8-6.4,8.7c-0.2,0.3-0.5,0.6-1,1.2c-0.6-1-1.3-1.7-1.7-2.6c-1.1-2.3-2.2-4.4-4.2-6.2
			c-1.6-1.5-2.4-3.7-3.5-5.7c-1.9-3.2-3.6-6.5-5.5-9.7c-1.3-2.2-2.7-4.3-4-6.4c-1.3-2.2-2.3-4.8-4-6.7c-2.4-2.5-3.4-5.5-4.6-8.6
			c-0.3-0.9-1.2-1.7-1.9-2.4c-1.1-1.1-1.4-2.1-0.5-3.2c0.7-1,1.7-1.8,2.6-2.6c0.2-0.2,0.5-0.4,0.7-0.6c1.4-1.4,2.9-2.7,4.3-4.1
			c1.4-1.5,2.7-3.1,4-4.6c3.1-3.5,6.2-6.9,9.3-10.4c1.5-1.7,2.9-3.4,4.4-5.1c0.1-0.1,0.3-0.2,0.3-0.3c-0.4-2.8,2.1-5,1.6-7.9
			c-0.2-1.2-0.1-2.4,0-3.7c0-2.2,0.2-4.4,0.1-6.6c0-0.9-0.4-1.9-0.7-2.8c-0.3-1-0.9-1.9-1.1-2.8c-0.4-2.9-1.2-5.5-3.4-7.7
			c-0.4-0.4-0.5-1.3-0.5-2c0-1.3-0.5-2.2-1.7-2.9c-2.9-1.9-5.8-4-9-6.2c4.5-0.7,8.2-0.2,11.8,1.5c0.2,0.1,0.4,0.1,0.6,0.3
			c3.5,2.5,7.1,5,10.6,7.5c0.2,0.1,0.4,0.3,0.4,0.4c0.7,2.9,3.4,3.9,5.3,5.8c1.9,1.9,3.8,3.7,5.4,5.8c2.3,2.9,5,5.3,7.7,7.8
			c2.8,2.6,5.6,5.2,8.3,8c1.5,1.5,2.5,3.4,4.1,4.8c3.1,2.6,5.6,5.8,8.4,8.8c0.7,0.8,1.6,1.5,2.1,2.5
			C486.3,99.9,485.4,102.1,484.6,104.1z M615.4,141.1c-0.1,3.5-0.3,7-0.4,10.5c-0.1,1.5,0.1,3.1-0.2,4.6c-0.6,3.9-2.1,7.4-4.3,10.5
			c-1.1,1.5-3.4,2.2-5.3,3.2c-0.2,0.1-1.1-0.5-1.3-0.9c-0.8-1.4-1.9-2.7-2.2-4.2c-0.9-4-2.1-8-1.9-12.2c0.1-3.1-0.1-6.2-0.1-9.3
			c0-5.4-0.1-10.7-0.1-16.1c0-5.1-0.1-10.3-0.1-15.4c0-0.7-0.2-1.4-0.2-2.2c-0.2-6.5-0.4-12.9-0.5-19.4c-0.1-3.9-0.2-7.9-0.1-11.8
			c0.1-4.4,0.5-8.8,0.6-13.2c0.1-2-0.2-4,0-6c0.2-2.9-0.4-5.9,0.9-8.7c1-2.3,1.9-4.6,4.2-6c0.8-0.5,1.2-1.5,1.8-2.2
			c-0.1-0.1-0.1-0.2-0.2-0.4c0.1,0,0.2-0.1,0.3-0.1c1.7,0.7,3.6,1,4.9,2.1c1.1,1,1.4,2.9,1.9,4.4c0.3,0.9,0.3,1.9,0.5,2.8
			c0,0.3,0.2,0.6,0.1,0.7c-1.2,2.1-0.5,4.2-0.3,6.3c0.2,2.6,0,5.3,0.1,7.9c0.1,3.4,0.5,6.8,0.6,10.2c0.1,3-0.1,5.9,0,8.9
			c0.1,3.2,0.4,6.4,0.6,9.6c0.1,2.4,0.3,4.9,0.4,7.3c0.2,4.4,0.4,8.7,0.5,13.1c0.1,3.2-0.2,6.3-0.2,9.5c0,2.3,0.2,4.6,0.3,6.8
			c0,0.9,0,1.7,0,2.6C615.4,136.5,615.5,138.8,615.4,141.1z"/>
	</defs>
	<clipPath id="SVGID_1_">
		<use xlink:href="#SVGID_4_"  style="overflow:visible;"/>
	</clipPath>
	<linearGradient id="SVGID_2_" gradientUnits="userSpaceOnUse" x1="500" y1="8.329" x2="500" y2="221.671">
		<stop  offset="0" style="stop-color:#FFFFFF"/>
		<stop  offset="5.225452e-02" style="stop-color:#F9FCFC"/>
		<stop  offset="0.1232" style="stop-color:#E8F5F5"/>
		<stop  offset="0.2048" style="stop-color:#CBE8E8"/>
		<stop  offset="0.2944" style="stop-color:#A3D7D7"/>
		<stop  offset="0.3894" style="stop-color:#71C1C1"/>
		<stop  offset="0.4497" style="stop-color:#4DB1B1"/>
		<stop  offset="0.4908" style="stop-color:#439A9A"/>
		<stop  offset="0.5904" style="stop-color:#2E6969"/>
		<stop  offset="0.6846" style="stop-color:#1D4242"/>
		<stop  offset="0.7707" style="stop-color:#112626"/>
		<stop  offset="0.846" style="stop-color:#0A1515"/>
		<stop  offset="0.9022" style="stop-color:#070F0F"/>
	</linearGradient>
	<rect x="19.5" y="8.3" class="st0" width="961" height="213.3"/>
	<g id="Black" class="st1">
		<path d="M211.4,146.9c-0.4,2.2-1.3,4.4-1.1,6.5c0.2,1.8,0.1,3.8,1.2,5.5c0.2,0.4-0.2,1.2-0.3,1.8c-0.5,1.9-1.1,3.8-1.6,5.7
			c-0.3,0.9-0.5,1.8-0.8,2.6c-0.1,0.2-0.3,0.4-0.2,0.6c0.8,2.3-1,4.1-1.2,6.3c-0.1,0.6-0.4,1.2-0.8,1.6c-1.1,1.2-1.9,2.2-1.8,4.2
			c0.1,1.7-0.6,3.8-1.6,5.3c-1.7,2.5-3.5,5-5.2,7.5c-1.3,1.9-3.2,3.4-4.9,5.1c-1.7,1.6-3.4,3.2-5.2,4.7c-0.8,0.7-1.9,1.1-2.9,1.4
			c-1.1,0.3-2.4,0.3-2.8,1.8c-0.1,0.3-0.7,0.6-1.1,0.8c-1.8,0.7-3.7,1.3-5.6,1.9c-2.7,0.8-5.3,1.7-8,2.3c-1.6,0.4-3.2,0.4-4.8,0.7
			c-1.9,0.4-3.8,0.9-5.7,1.3c-1.2,0.2-2.4,0.1-3.6,0.1c-2.8,0-5.6,0-8.4,0c-1.4,0-2.9-0.3-4.3-0.3c-5.5,0.1-11.1,0.2-16.6,0.3
			c-4.6,0.1-9.1,0.2-13.7,0.1c-3.6,0-7.2-0.4-10.8-0.5c-1.5,0-3,0.1-4.5,0.2c-5.4,0.1-10.9,0.3-16.3,0.4c-4.8,0.1-9.7,0.2-14.5,0.2
			c-6.4,0-12.9,0-19.3,0c-3.3,0-6.5,0-9.8,0.1c-2.9,0.2-5.7,0.6-8.5,1c-1.5,0.2-3.1,0.5-4.6,0.5c-0.9,0-1.9-0.6-2.8-1.1
			c-0.2-0.1-0.2-1.2,0-1.3c1.5-1,2.8-2.5,4.9-2.2c0.5,0.1,1.1-0.3,1.6-0.6c0.3-0.1,0.5-0.5,0.8-0.5c3.1-0.6,5.3-2.8,7.9-4.4
			c0.3-0.2,0.6-0.3,0.8-0.5c2.5-1.7,5-3.3,7.4-5.1c3.4-2.6,6.6-5.3,9.1-8.8c1.2-1.7,2.3-3.4,3.6-5c0.6-0.8,1.5-1.3,2.3-1.9
			c0.2-0.2,0.5-0.4,0.7-0.6c1.3-1.9,2.6-3.8,3.8-5.9c0.7-1.3,1.2-2.8,1.8-4.2c0.7-1.4,0.9-3.2,2.2-3.5c0.7-1.8,1.3-3.2,1.9-4.6
			c0.6-1.3,1.4-2.6,1.7-4c0.6-2.8,1.8-5.4,1.3-8.4c0-0.3,0.2-1,0.4-1c0.5-0.1,1.1,0,1.6,0.2c2.1,0.8,3.3,2.8,5.2,3.9
			c1.1,0.7,2.4,1.2,3.5,1.9c1.1,0.7,2.2,1.5,3.3,2.2c0.8,0.5,1.7,1.1,2.6,1.2c2.9,0.5,5.8,0.8,8.8,1c1.9,0.1,3.9-0.1,5.8-0.1
			c1.1,0,2.3,0.1,3.4,0.1c1.5,0,3.1,0.2,4.6-0.1c1.8-0.3,3.5-0.2,5.3,0.2c1,0.2,2.2-0.1,3.2,0c1.1,0.1,2.1,0.5,3,0.8
			c0.6-0.2,1.1-0.5,1.6-0.6c0.8-0.2,1.5-0.3,2.3-0.4c1.2-0.1,2.3-0.1,3.5-0.1c1.6-0.1,3.2-0.3,4.7-0.5c1.7-0.2,3.2-0.7,5,0
			c1,0.4,2.4-0.4,3.6-0.5c0.8-0.1,1.5-0.2,2.3-0.1c2.3,0.3,4.2-0.2,6.2-1.5c2.3-1.6,4.9-2.8,7.3-4.3c0.3-0.2,0.6-0.8,0.6-1.2
			c0.1-1-0.1-2-0.1-2.9c0.1-2.7-1.3-4.7-3.4-6c-2.9-1.9-5.9-3.1-9.5-2.6c-0.5,0.1-1,0-1.5-0.2c-3.8-0.9-7.7-0.6-11.5-0.3
			c-3.5,0.3-6.9,0.3-10.3-0.5c-0.4-0.1-0.9,0-1.4,0c-0.8,0-1.7,0-2.5,0.1c-0.2,0-0.3,0-0.5,0c-5.7,1.1-11.5,1.2-17.2,1.5
			c-4.1,0.2-8.3,0-12.4-0.5c-4.1-0.5-8.1-1.5-12.2-2.4c-2.8-0.7-5.6-1.5-8.2-2.6c-2.2-0.8-4.3-2.1-6.4-3.1c-1.8-0.9-3.8-1.6-5.4-2.8
			c-3.3-2.4-6.7-4.8-9.6-7.7c-2.7-2.6-4.8-5.9-7.2-8.8c-0.8-1-1.7-1.9-2.5-3c-0.8-1.2-1.5-2.4-2.1-3.6c-0.6-1.2-0.8-2.6-1.5-3.7
			c-1.4-2.3-2.7-4.6-3.1-7.3c-0.2-1.4-0.5-2.7-0.8-4.1c-0.4-1.3-0.9-2.6-1.3-3.9c-0.1-0.3-0.2-0.6-0.2-0.9c-0.1-2.3-0.2-4.6-0.3-6.9
			c0-0.3,0.1-0.7-0.1-0.9c-1.2-2.4,0-4.8,0-7.2c0-1.1,0.1-2.3,0.4-3.4c0.3-1.4,0.8-2.7,1.3-4.1c0.2-0.7,0.7-1.5,0.6-2.2
			c-0.3-2.4,0.7-4.5,1.5-6.6c0.1-0.4,0.4-0.8,0.5-1.1c0.2-2,0.9-3.7,2.2-5.2c0.3-0.3,0.5-0.7,0.5-1.1c0.4-3.2,2.2-5.6,4-8.1
			c2.1-2.8,4.5-5.2,6-8.4c0.8-1.6,2.7-2.7,4.1-4c1.3-1.2,2.5-2.6,4-3.4c2.6-1.5,4.2-4.2,6.7-5.6c1.9-1.1,3.2-3.1,5.6-3.3
			c0.6,0,1.4-0.6,1.7-1.1c0.7-1.3,1.8-1.5,3-1.7c0.6-0.1,1-0.7,1.5-1c0.3-0.2,0.7-0.5,1-0.6c2.9-0.8,5.8-1.6,8.7-2.2
			c2-0.5,4.1-1.3,5.9-1c2,0.3,3.6-0.1,5.5-0.5c0.8-0.2,1.9,0.4,2.4,0.5c1.4,0.3,2.4,0.5,3.4,0.6c0.2,0,0.4,0,0.6,0
			c2.2-0.2,4.5-0.4,6.7-0.5c2.5-0.1,4.9-0.2,7.4-0.2c1.7,0,3.4,0.1,5.1,0.1c2,0,3.9-0.2,5.9-0.3c2.4,0,4.7,0,7.1,0
			c2.1,0.1,4.2,0.3,6.3,0.4c0.6,0,1.3-0.3,1.9-0.3c5.4-0.2,10.8-0.5,16.2-0.6c4.7-0.1,9.4,0.1,14.1,0c3.2,0,6.4-0.4,9.6-0.4
			c2.2,0,4.4,0.3,6.6,0.2c2.6-0.1,5.2-0.4,7.7-0.6c0.4,0,0.7-0.1,1.1-0.1c4.5-0.1,9-0.3,13.5-0.4c2.1,0,4.1,0,6.2,0.1
			c0.5,0,1.1,0.2,1.6,0.5c0.4,0.3,1,0.8,1,1.2c-0.1,0.5-0.6,1-1,1.4c-0.1,0.1-0.3,0.1-0.4,0.1c-2.3,0-4.2,1.5-6.3,2.2
			c-0.3,0.1-0.5,0.3-0.7,0.5c-3.1,2.5-6.3,5-9.4,7.7c-1.3,1.2-2.4,2.6-3.6,4c-0.8,0.9-1.7,1.6-2.5,2.5c-3.7,4.7-7.1,9.6-9.6,15
			c-0.9,2.1-2.3,3.9-3.3,6c-1.7,3.7-3.2,7.5-4.7,11.3c-1.4,3.5-2.2,7.1-2.3,10.9c0,1.1,0.3,2.2,0.2,3.4c0,0.8-0.4,1.6-0.7,2.4
			c-0.7-0.4-1.5-0.7-2.1-1.3c-1-1-1.6-2.5-3.2-2.7c-0.1,0-0.3-0.1-0.4-0.2c-1.3-2.4-3.8-3.3-5.8-4.9c-0.8-0.6-1.7-0.9-2.6-1.3
			c-1.6-0.8-3.1-1.7-4.7-2.3c-1-0.4-2.2-0.4-3.3-0.4c-4-0.1-7.9-0.5-11.9-0.2c-4.9,0.3-9.9-0.1-14.9-0.1c-2.4,0-4.9,0.3-7.3,0.2
			c-3-0.2-5.8,0.9-8.9,0.2c-1.8-0.4-3.9,0.5-5.8,0.7c-0.9,0.1-1.8,0.1-2.8,0.1c-1,0.1-2,0-2.8,0.4c-3.2,1.5-6.1,3.6-7.9,6.7
			c-0.8,1.4-0.8,3.4-1,5.1c-0.1,1.1,0.2,2.3,0.2,3.4c0,1.3,0.3,2.3,1.3,3.3c0.8,0.9,1,2.4,1.9,3.2c0.9,0.9,2.2,1.6,3.4,1.9
			c1.9,0.6,3.9,0.9,5.9,1.4c0.2,0.1,0.5,0.1,0.7,0.3c2.5,2.4,5.8,1.9,8.8,2c2.8,0.1,5.7,0.1,8.5,0.1c3.8,0.1,7.6,0.1,11.5,0.3
			c1.8,0.1,3.5,0.4,5.3,0.4c3.7,0.1,7.4-0.2,11,0.1c2,0.2,4-0.8,6.1,0.2c0.9,0.4,2.2-0.3,3.3-0.1c5.1,0.6,10.2,1.3,15.3,2
			c0.4,0.1,0.8,0.3,1.2,0.4c2.1,0.8,4.1,1.6,6.1,2.5c1.6,0.7,3.2,1.5,4.7,2.4c2.7,1.6,5.5,3,8.1,4.8c1.6,1.2,2.8,2.9,4.3,4.4
			c1,1,2.2,1.9,3.3,2.9c0.1-0.2,0.3-0.6,0.3-1.1c0.1-2.8,0.1-5.7,0.1-8.5c0.1-3.4-0.1-6.7,0.3-10c0.3-2.1,1.5-4.1,2.3-6.1
			c0.1-0.3,0.3-0.7,0.4-1c0.8-2.8,1.4-5.7,2.6-8.3c1.1-2.4,2.8-4.5,4.1-6.7c1.5-2.4,2.9-4.8,4.3-7.2c0.1-0.2,0.2-0.4,0.3-0.5
			c2.2-2.1,4.4-4.3,6.7-6.3c0.9-0.8,2.2-1.1,2.4-2.6c0-0.1,0.2-0.2,0.3-0.3c3.6-1.8,6.4-4.9,9.9-6.8c1.3-0.7,2.9-0.8,4.4-1.3
			c2.8-1.1,5.6-2.3,8.4-3.4c1.3-0.5,2.6-0.8,4-1.1c1.3-0.4,2.7-0.8,4.1-1c2.9-0.3,5.8-0.4,8.6-0.5c1.4-0.1,2.9,0.1,4.4,0
			c3.3-0.2,6.5-0.6,9.8-0.6c2.1,0,4.1,0.4,6.2,0.5c2.9,0.1,5.8,0,8.7,0c5.2,0,10.3-0.1,15.5,0c3.1,0,6.2,0.3,9.3,0.2
			c2.5,0,5-0.5,7.5-0.6c4.8-0.1,9.6,0.1,14.4,0.1c6.3,0,12.6-0.4,19-0.2c3.9,0.1,7.6-0.3,11.5-0.5c3.1-0.1,6.2,0.1,9.3,0.1
			c5.2,0,10.5,0,15.7,0c3.6,0,7.3-0.1,10.9-0.1c0.2,0,0.5,0,0.6,0.1c3.1,2,7,1.3,10.3,2.6c0.9,0.4,2,0.5,3.1,0.7
			c0-0.4,0.1-0.7,0.1-1c-0.2-1.4,0.4-1.7,1.7-1.7c2.4,0,4.7-0.1,7.1-0.1c0.6,0,1.1-0.3,1.7-0.4c1,0,2,0,3,0.1c0.5,0,1,0.3,1.5,0.3
			c3.3-0.1,6.6-0.4,9.9-0.5c4.3,0,8.5,0.2,12.8,0.2c2.6,0,5.1-0.1,7.7-0.1c1.1,0,2.2,0.2,3.4,0.2c0.8,0,1.7-0.3,2.5-0.3
			c0.5,0,1,0,1.5,0.1c2.3,0.1,4.6-0.8,7,0c0.9,0.3,1.9-0.1,2.9-0.1c0.7,0,1.4,0.1,2.4,0.2c-0.6,1.2-0.8,2.3-2.1,2.6
			c-1.4,0.4-2.4,3.6-1.6,5c0.5,0.9,1.1,1.8,1.9,2.6c1.8,2,3.8,3.8,5.6,5.8c1.5,1.7,2.9,3.6,4.4,5.3c0.1,0.1,0.2,0.2,0.3,0.3
			c3.6,1.8,5.3,5.4,7.9,8.2c0.9,1,2,1.8,3.1,2.7c1,0.8,2.1,1.5,2.9,2.5c1.5,1.8,3.3,1.6,4.6-0.4c1.4-2.3,2.9-4.5,4.5-6.7
			c2.1-2.9,4.1-5.8,6.5-8.5c1.9-2.1,3.5-4.4,4.8-6.9c0.5-0.9,0.9-1.9,1.2-2.9c0.7-3-1.1-5.7-4.1-6.3c-1-0.2-2-0.4-2.8-0.9
			c-0.6-0.4-1-1.3-1.5-2c0.6-0.3,1.2-0.7,1.8-0.7c2-0.1,4,0.1,6.1,0c2.4-0.1,4.9-0.2,7.3-0.3c4.7-0.1,9.3-0.2,14-0.3
			c5.1-0.1,10.2-0.3,15.4-0.4c3.2,0,6.4,0.3,9.6,0.3c2.3,0,4.5-0.2,6.8-0.3c0.5,0,0.9,0.1,1.4,0.1c2.4,0.1,4.7,0.3,7.1,0.4
			c1.8,0.1,3.5,0,5.3-0.1c2.7-0.2,5.3-0.6,8-0.7c2.3-0.1,4.9-0.4,7,0.3c2.2,0.7,4.2,0.8,6.4,0.5c2.4-0.3,4.9-0.2,7.4-0.3
			c0.5,0,1.2,0.1,1.4,0.4c0.6,1.1,1.3,0.7,2.1,0.5c1.1-0.3,2.2-0.6,3.3-0.7c3.1-0.1,6.3,0.1,9.4,0.1c2.5,0,5,0,7.5-0.1
			c2.2-0.1,4.3-0.3,6.5-0.5c3.5-0.3,7.1-0.7,10.6-1c0.8-0.1,1.8,0.3,2.5,0.7c1,0.5,0.8,1.7-0.4,2.1c-1.4,0.5-2.1,1.6-2.9,2.6
			c-0.7,0.8-0.7,1.4-0.1,2.2c0.5,0.7,1,1.3,1.5,2c2.2,3.2,4.4,6.5,6.7,9.7c2.1,2.9,4.6,5.7,6.6,8.7c2.5,3.9,5.1,7.6,8.5,10.8
			c1.1,1.1,1.7,2.7,2.7,4c1.4,1.9,2.8,3.8,4.3,5.6c0.2-3.7,1.3-7.5-0.2-11.2c-0.3-0.8-0.3-1.3,0.4-2c0.6-0.7,0.7-1.9,0.6-2.9
			c-0.2-2.1-0.7-4.2-0.8-6.3c-0.1-1.8,0.3-3.5,0.3-5.3c0.1-1.3,0-2.7-0.1-4c-0.1-3.1-0.5-6.1-1.6-8.9c-1-2.4-3.3-3.6-5.6-4.6
			c-0.6-0.2-1.2-0.4-1.8-0.5c-0.1-0.5-0.2-1-0.4-1.8c0.9-0.1,1.8-0.2,2.6-0.2c1.6,0,3.3,0.3,4.9,0.3c1.7,0,3.4,0.1,5.1-0.2
			c2.6-0.4,5,0,7.4,0.7c0.1,0,0.2,0.2,0.3,0.1c1.9-0.4,3.9-0.7,5.8-1.1c0.4-0.1,0.7-0.2,1.1-0.2c2.7,0.1,5.3,0.2,8,0.4
			c0.2,0,0.4,0,0.6,0c3.6-1.2,7.3-0.2,10.9-0.8c0.6-0.1,1.5-0.4,1.7-0.8c0.6-1.5,1.7-1.1,2.4-0.6c1.6,1,3.4,0.7,5.1,1.1
			c0.5,0.1,0.9,0.2,1.4,0.4c-0.2,0.6,0.6,1.4-0.5,1.9c-1.8,0.8-3.5,1.8-5.3,2.5c-2.3,0.8-3.7,2.3-4.3,4.5c-0.9,3.2-1.3,6.5-2.2,9.7
			c-0.7,2.6-1.3,5.2-0.6,7.8c0.7,2.9,0,5.8-0.1,8.6c0,0.4-0.1,0.7-0.1,1.1c0.3,4.9,0.6,9.8,0.9,14.6c0.1,1.1,0,2.2,0,3.4
			c0.1,0,0.3,0.1,0.4,0.1c0.2-0.5,0.4-1,0.5-1.5c0.5-2.3,1-4.5,1.5-6.8c0.2-1,0.8-1.8,0.9-2.8c0.3-3.2,2.5-5.4,3.8-8.1
			c0.1-0.2,0.4-0.4,0.4-0.7c0.1-3.5,3.3-5,4.7-7.7c0.9-1.7,2.8-2.9,3.9-4.6c1.3-2,3.4-3.2,4.8-5c1.6-2,3.7-3.5,6-4.7
			c1-0.6,1.8-1.7,2.8-2.4c0.7-0.5,1.5-0.8,2.3-1.2c3.4-1.6,6.7-3.5,10.2-4.8c4.8-1.7,9.6-3.8,14.9-4.1c2.9-0.1,5.8-1.1,8.7-1.3
			c4.4-0.2,8.7,0.1,13.1,0c3,0,6.1-0.4,9.1-0.5c2.4-0.1,4.8,0.1,7.2,0.1c1,0,1.9-0.1,2.9-0.1c1.8,0,3.5,0,5.3-0.1
			c1.5,0,3-0.2,4.5-0.2c2.1,0,4.1,0,6.2-0.1c1-0.1,1.9-0.5,2.8-0.7c1.5-0.3,2.9-0.8,4.4-0.7c2.6,0.1,5.3,0.6,8.3,1.1
			c-0.3,0.7-0.4,1.6-0.8,1.7c-0.8,0.2-1.8,0-2.9,0c0,1.5-1.5,1.9-3,2.4c-0.9,0.3-1.6,1.1-2.4,1.6c-0.7,0.5-1.3,1.2-2,1.4
			c-2.6,0.8-4.1,2.9-6,4.6c-3.9,3.3-6.5,7.6-9.1,11.9c-0.5,0.9-1.1,1.8-1.6,2.7c-1.3,2.3-2.5,4.6-3.7,7c-0.2,0.4-0.1,0.9-0.2,1.3
			c-0.1,0.4-0.1,1-0.3,1.1c-1.3,0.8-1.3,2.3-2,3.4c-0.5,0.8-1.8,1.9-2.1,1.8c-0.9-0.5-2-1.5-2.2-2.5c-0.3-1.7-0.7-3.2-1.7-4.6
			c-0.8-1.1-1.2-2.5-2.2-3.5c-1.7-1.7-3.7-3.1-6.2-3.5c-2.1-0.4-4.1-1.1-6.3-1.3c-1.3-0.1-2.7,0.3-4.1,0.5c-1.2,0.1-2.3,0.2-3.5,0.4
			c-0.9,0.1-1.9,0.2-2.7,0.6c-2,1-4,2.1-6,3.2c-1.2,0.6-2.5,1.2-3.8,1.7c-2.7,0.9-3.8,3.6-5.6,5.5c-2,2-3.5,4.5-5.2,6.7
			c-0.3,0.4-0.5,0.8-0.5,1.3c0,2.5-1.2,4.5-2.2,6.7c-0.6,1.3-0.9,2.6-1.3,4c0,0.1-0.1,0.2,0,0.3c1.2,2.8,0.2,5.6,0.1,8.4
			c0,0.4,0.2,0.8,0.4,1.1c1.3,2.2,2,4.5,2.2,7.1c0.2,2.1,0.8,4.3,1.4,6.4c0.2,0.7,1,1.3,1.4,2c0.7,1.4,1.2,2.8,1.9,4.2
			c0.4,0.8,0.9,2,1.5,2.1c2,0.4,3,1.9,3.7,3.4c0.9,1.8,2.6,2.4,3.9,3.5c0.1,0.1,0.3,0.1,0.4,0.2c2.3,3.8,6.5,3.9,10.1,5
			c3.8,1.2,7.4,0.4,10.7-1.8c1.4-0.9,2.6-2.4,3.8-3.6c0.2-0.2,0.3-0.7,0.3-1c0.2-1.2,0.5-2.4,0.4-3.5c-0.1-1.2-0.5-2.4-1-3.5
			c-1.3-2.5-2.8-5-4.3-7.5c-0.6-1-1.6-1.9-2.1-3c-0.4-1-1.2-0.7-1.9-1c-1.5-0.6-3.1-1.3-4.5-2.2c-0.4-0.2-0.6-1.3-0.4-1.7
			c0.3-0.5,1.2-1.1,1.7-1.1c1.9,0.2,3.8,0.7,5.7,1.1c2.8,0.6,5.6,1.7,8.3,1.5c4.6-0.3,9.2,0,13.7-0.8c4.1-0.7,8.5-1,12.4-2.3
			c2.2-0.7,4.4,0,6.4-1.1c0.7-0.4,1.6-0.6,2.4-0.9c2.5-0.9,5.1-1.7,7.6-2.5c0.5-0.2,0.9-0.5,1.3-0.8c1.1-0.7,2.2-1.3,3.1-2.1
			c1-0.8,1.8-1.8,2.8-2.5c1.5-1.2,0.3-2.2-0.1-3.3c-0.9-2.7-2.2-5.3-2.1-8.3c0-0.9-0.2-2.1-0.7-2.8c-1.4-2.2-0.8-4.6-0.8-7
			c0-2,0.4-4,0.7-6c0.3-1.8,0.6-3.7,1.3-5.3c0.9-2,1.2-4.1,1.9-6.1c0.5-1.6,2-2.8,3-4.2c0.3-0.4,0.7-1,0.7-1.5
			c-0.1-1.6,0.7-2.3,2-2.9c1-0.5,1.8-1.5,2.7-2.2c1-0.8,1.9-1.6,2.9-2.2c2-1.1,4.1-2.2,6.1-3.1c1.3-0.6,2.7-1.1,4.1-1.7
			c0.3-0.1,0.5-0.5,0.7-0.8c0.6-1.6,1.7-2.2,3.3-1.5c0.8,0.4,1.4,0.5,2.4,0c0.8-0.4,2.2-0.4,3.1-0.1c2.2,0.8,4.3,0,6.5,0.1
			c3.5,0.2,7.1,0.3,10.6,0.4c1.8,0,3.6-0.3,5.4-0.4c3.3-0.1,6.6-0.2,10-0.1c3.9,0,7.8,0.1,11.7,0.1c1.7,0,3.4-0.2,5.1-0.3
			c4-0.1,8.1,0,12.1-0.2c4.5-0.2,8.9-0.6,13.3-0.9c2.3-0.1,4.5-0.1,6.8-0.2c1.6-0.1,3.1-0.2,4.7-0.5c1.1-0.2,1.6,0,1.7,1.1
			c0.3,2.5,0.3,2.5-2.2,3.4c-0.6,0.2-0.9,0.9-1.4,1.3c-2.7,2.2-5.4,4.5-8.1,6.7c-0.5,0.4-0.9,0.9-1.3,1.4c-3,3.5-5.9,6.9-8.9,10.4
			c-0.8,0.9-1.3,2-1.9,3c-1.2,2.1-2.6,4.1-3.6,6.3c-1,2.1-1.5,4.5-2.3,6.7c-0.2,0.5-0.9,1.4-1.2,1.3c-0.9-0.3-1.9,0.5-2.8-0.5
			c-1.3-1.4-2.9-2.5-4.4-3.7c-1.3-1-2.6-2.1-3.9-3.1c-0.5-0.3-1.1-0.6-1.7-0.7c-2.5-0.4-5.1-0.7-7.7-1c-0.4-0.1-0.8,0-1.2-0.1
			c-2.6-0.1-5.2-0.4-7.7-0.4c-1.8,0-3.6,0.3-5.4,0.5c-1.5,0.1-3.1,0.2-4.7,0.2c-3.1,0-5.9,1.1-8.6,2.3c-1.3,0.6-2.3,1.7-3.5,2.5
			c-0.1,0.1-0.2,0.2-0.2,0.2c0.1,1.9-1.4,3-2.1,4.5c-1,2.1,0.3,3.9,1.3,5.7c1.9,3.6,5.2,5,8.8,6.3c5,1.8,10,1,15.1,0.6
			c1.6-0.1,3.2,0,4.8,0c0.8,0,1.6-0.2,2.4-0.3c0.6-0.1,1.1-0.3,1.7-0.2c3.5,0.2,7,0.2,10.5,0.7c3.3,0.4,6.6,1.1,9.7,2
			c2.4,0.7,4.7,1.8,7,3c5,2.6,9.1,6.2,11.9,11.1c1.3,2.4,2.3,5,3.4,7.6c0.4,1,0.7,2.1,1.4,2.9c1.7,2.3,1.2,5.1,1.8,7.6
			c0.1,0.6,0.5,1.2,0.8,1.8c0,1.5-0.7,2.9-0.2,4.6c0.3,1.1,0.5,2.2,1,3.3c0.2,0.4,0.1,1.1-0.2,1.4c-1.7,1.7-1.3,3.9-1.4,6
			c-0.1,0.9-0.3,1.9-0.6,2.8c-0.4,1.1-1.2,2.2-1.3,3.3c-0.2,2.5-2,4.3-2.9,6.5c-1.6,3.9-4.5,6.9-7.4,9.8c-1,1-2.3,1.8-3.5,2.6
			c-1.9,1.2-3.9,2.3-5.9,3.4c-1.4,0.7-2.9,1.2-4.3,1.7c-1.7,0.6-3.4,1.2-5.2,1.6c-1.9,0.3-4,0.8-5.9,0.4c-4-0.7-7.8,0.4-11.7,0.3
			c-3.9-0.1-7.8-0.5-11.6-0.6c-1.5,0-3.1,0.3-4.6,0.5c-0.7,0.1-1.3,0.2-2,0.2c-3.5,0-7.1-0.1-10.6,0c-2.1,0.1-4.1,0.6-6.2,0.9
			c-1,0.1-2,0.1-2.9,0.1c-3.3-0.1-6.6-0.2-9.9-0.4c-1.5-0.1-2.9-0.3-4.3-0.3c-3.6,0-7.2,0-10.7,0.1c-3.8,0.2-7.6,0.5-11.5,0.8
			c-0.8,0-1.6-0.2-2.4-0.4c-1-0.2-1.9-0.4-2.8-0.8c-0.5-0.2-1.1-0.8-1.2-1.2c0-0.4,0.5-1.1,0.9-1.4c0.6-0.3,1.3-0.5,2-0.4
			c1.3,0.1,2.2-0.3,2.9-1.4c0.2-0.4,0.8-0.6,1.3-0.8c2.3-1.1,4.5-2.4,6.8-3.1c2.2-0.7,3.8-2,5.6-3.2c4-2.6,7.4-5.8,10.7-9.2
			c2.8-2.8,4.9-6.1,6.3-9.9c0.5-1.5,1.5-2.9,1.9-4.4c0.5-1.8,0.6-3.6,0.9-5.4c0.1-0.7,0.1-1.4,0.2-2.2c1.1-0.1,2.2-0.5,2.2,1.4
			c0,0.6,1,1.4,1.7,1.9c3.3,2.3,7.1,3.3,11.1,3.7c3.1,0.3,6.2,0.5,9.2,0.8c2.2,0.3,4.4,0.8,6.7,1.2c0.6,0.1,1.2-0.2,1.8-0.3
			c1.2-0.2,2.4-0.6,3.6-0.8c2.6-0.4,5.3-0.3,7.8-1c2.5-0.8,4.8-2.3,7.2-3.5c1.5-0.8,2.7-1.8,2.9-3.5c0-0.1,0-0.1,0-0.1
			c3.2-0.7,1-3,1.1-4.4c0.1-2-1.4-3.3-3-4.3c-0.5-0.3-0.7-0.9-1.2-1.2c-0.5-0.3-1-0.6-1.6-0.8c-0.2-0.1-0.6,0-0.7-0.2
			c-1.5-1.4-3.3-2.1-5.3-2.2c-1.3-0.1-2.5-0.3-3.8-0.3c-5.9,0-11.8,0.2-17.7,0.2c-1.1,0-2.3,0.1-3.4-0.1c-0.4,0-0.6-0.6-1-1
			c-0.4,0.9-1.1,1-2.2,0.7c-1.6-0.4-3.4-0.2-5.1-0.2c-2,0-3.9-0.1-5.8-1c-1.9-0.8-3.9-1.2-5.9-1.8c-1.4-0.4-2.8-0.8-4-1.5
			c-1.2-0.7-2.1-1.8-3.2-2.7c-1.4-1.2-2.8-2.4-4.2-3.5c-0.5-0.4-1.1-0.7-1.5-1.1c-0.6-0.5-1.1-1.1-1.6-1.7c-0.3-0.3-0.5-0.6-0.8-0.9
			c-0.8-0.6-1.6-1.2-2.7-2c-0.2,0.9-0.5,1.8-0.6,2.6c-0.1,2.1,0.1,4.1,0.1,6.2c0,2.6,0,5.2,0,7.8c0,0.2,0.1,0.3,0.1,0.4
			c-1.5,2.9-0.8,6.4-3,9.2c-1,1.3-1,3.4-1.6,5.1c-0.7,2-1.4,4.1-2.3,6c-0.9,2-2,3.8-3.1,5.7c-0.5,0.9-1.1,1.7-1.8,2.5
			c-2.5,2.9-4.9,5.8-7.4,8.7c-1.8,2.2-4.7,3.5-7.1,5.2c-2.4,1.8-5.4,2.7-7.8,4.3c-2.3,1.5-4.8,1.9-7.2,2.9c-2.8,1.1-5.5,2.3-8.4,3.1
			c-4,1.1-8,2.5-12.3,2.5c-1.8,0-3.6,0.5-5.3,0.8c-0.3,0-0.5,0.2-0.8,0.1c-2.1-0.2-4.3-0.1-6.3-0.7c-2.4-0.8-4.8,0-7.2-0.5
			c-1.5-0.4-2.9-1.1-4.4-1.6c-0.6-0.2-1.4-0.3-2.1-0.2c-1.9,0.2-3.6,0-4.6-2c-0.1-0.3-0.5-0.6-0.8-0.6c-4-0.3-7.3-2.7-10.9-4.1
			c-2.1-0.8-4-2.2-5.7-4.1c-1.5-1.7-3.6-3-5.4-4.5c-0.6-0.5-1.2-1.2-1.8-1.8c-0.2-0.3-0.4-0.6-0.6-0.9c-1.6-2.2-3.3-4.3-5-6.5
			c-0.6-0.8-1.1-1.6-1.7-2.4c-1.2-1.9-2.9-3.7-3.6-5.8c-0.9-2.6-2.5-4.6-3.8-6.9c-0.4-0.7-0.4-1.6-0.6-2.5c-0.1-0.4-0.2-0.9-0.4-1.3
			c-1-1.3-1.3-2.8-1.3-4.4c0-0.5-0.4-1-0.5-1.6c-0.2-0.9-0.4-1.7-0.6-2.6c-0.2-1.1-0.5-2.1-0.7-3.2c-0.5-1.9-1-3.9-1.6-6.2
			c0,3.4,0,6.5,0,9.6c0,3.5,0.1,6.9,0.2,10.4c0.1,5.7,0.4,11.3,0.5,17c0.1,4.4,0.1,8.7,0.3,13.1c0.1,2,0.6,4,1,5.9
			c0.3,1.8,0.5,3.7,0.8,5.3c0.8,0.7,1.7,1.2,2.3,1.9c0.9,1.2,0.6,1.9-0.9,2c-1,0.1-1.4,0.4-1.2,1.4c0.6,3.3,1,6.6,1.6,9.8
			c0.7,3.8,1.7,7.5,2.5,11.2c0.7,3.8,1.9,7.4,3.6,10.9c0.6,1.3,0.5,2.8,2,3.7c0.4,0.3,0.2,1.7,0.1,2.5c0,0.2-0.8,0.4-1.3,0.5
			c-0.9,0.1-1.6-0.3-1.8-1.3c-0.3-1.4-1.1-2.1-2.5-2.8c-2.2-1.2-4.1-3-6-4.6c-1.3-1.1-2.5-2.3-3.9-3.3c-2.3-1.7-4.7-3.4-7-5.1
			c-2.5-1.8-5-3.6-7.4-5.6c-1.3-1-2.3-2.5-3.6-3.5c-1.3-1.1-2.8-1.9-4.2-2.9c-2.5-1.8-5.1-3.7-7.6-5.6c-2-1.4-3.9-2.9-6-4.2
			c-1.3-0.8-2.8-1.2-4.3-1.8c-0.1-0.4-0.1-0.9-0.3-1.3c-0.4-1.4,0.2-2.3,1.5-2.6c3.1-0.7,4.2-3.6,6.2-5.5c0.3-0.3,0.3-1.1,0.3-1.7
			c0.1-4.7,0.3-9.5,0-14.2c-0.1-2.1-1-4.3-2.1-6.2c-1.9-3.4-4.2-6.6-6.4-9.8c-2.5-3.6-5.1-7-7.6-10.5c-1.1-1.5-1.9-3.2-2.8-4.7
			c-0.4-0.8-0.8-1.5-1.4-2.2c-2-2.7-3.8-5.7-6.2-8c-1.5-1.4-2.3-2.9-3.1-4.6c-0.8-1.6-2.2-2.8-3.3-4.2c-1.7-2.2-3.2-4.5-4.9-6.6
			c-1.4-1.7-3-3.3-4.5-4.9c-0.6-0.7-1.1-1.6-1.8-2.3c-0.5-0.5-1.2-0.8-1.8-1.2c-0.3,0.6-0.8,1.2-0.8,1.8c0,1.6,0.2,3.2,0.2,4.8
			c0,0.7-0.6,1.3-0.8,2c-0.1,0.4,0,0.8,0.2,1.2c0.2,0.5,0.6,1,0.6,1.5c0.2,2.1,0.3,4.1,0.3,6.2c0,0.8-0.2,1.5-0.3,2.3
			c0,0.4-0.2,0.9-0.1,1.2c1.2,2.7,0.3,5.6,0.5,8.3c0.1,0.6-0.3,1.3-0.5,1.9c-0.7,1.6,0.9,2.8,0.8,4.4c-0.1,1.5,0.2,3.1,0.3,4.7
			c0,0.4,0.3,0.8,0.1,1c-1.1,1.4-0.3,2.9-0.3,4.3c0,3.2,0.6,6.4,0.3,9.5c-0.2,2.3,0.3,4.5,0.2,6.7c-0.1,4.7,0.1,9.5,0.4,14.2
			c0.1,2,1,3.9,1.1,5.9c0.2,2.7,2,5.5,4.6,6.1c1.2,0.3,2.5,0.1,3.7,0.4c0.7,0.1,1.7,0.4,1.9,0.9c0.3,0.6,0.2,1.8-0.3,2.3
			c-0.4,0.5-1.4,0.6-2.2,0.7c-1.6,0-3.3-0.1-4.9-0.1c-2.9-0.1-5.8-0.1-8.7-0.3c-0.7,0-1.3-0.4-2-0.6c-0.4,0.2-1,0.5-1.5,0.6
			c-4.2,0.8-8.4,0.1-12.7,0c-3.3-0.1-6.6,0-10,0.1c-4.6,0.1-9.2,0.2-13.9,0.3c-4.1,0-8.2,0-12.3-0.1c-2.5,0-4.9-0.2-7.4-0.3
			c-0.3,0-0.6,0.1-0.8,0c-1.5-0.8-3,0.1-4.5,0.2c-2.3,0.1-4.6,0.3-6.8,0.4c-3.6,0.2-7.2,0.3-10.7,0.5c-0.8,0-1.6,0.4-2.4,0.7
			c-1.2,0.4-2.4,0.6-3.4-0.4c-0.5-0.5-1.1-1.4-1-1.9c0.2-0.8,1-1.6,1.7-1.9c2.7-1.4,5.5-2.5,7.2-5.2c0.6-1,1.5-1.8,2.2-2.8
			c0.7-0.9,1.3-1.7,1.8-2.7c1.5-2.8,2.1-6,2.4-9.1c0-0.4,0.3-0.8,0.5-1.2c-0.1-0.5-0.4-1.2-0.4-1.9c0-3.9,0.1-7.8,0-11.6
			c-0.1-3.6-0.4-7.2-0.4-10.8c0-3.5,0.3-6.9,0.3-10.4c0-2.8-0.1-5.7-0.1-8.5c-0.1-4,0-8-0.1-12c-0.1-3-0.2-6-0.3-8.9
			c0-2.1,0.2-4.1,0.3-6.2c0-0.8-0.2-1.6-0.2-2.5c-0.2-3.2-0.3-6.3-0.4-9.5c0-0.1,0-0.1,0-0.2c1.2-4.8-1-9.6-0.3-14.4
			c0.2-1.4,0.2-2.9,0-4.3c-0.1-1-0.7-1.9-1.2-3.2c-1.2,1.4-2.1,2.5-2.9,3.6c-1.4,2-2.7,4.2-4.2,6.2c-1.8,2.4-3.7,4.7-5.5,7.1
			c-2.9,4.1-5.7,8.4-8.6,12.5c-2.8,4-5.8,7.9-8.7,11.9c-1.6,2.3-3.2,4.7-4.8,7.1c-0.3,0.5-0.8,0.8-1.1,1.3
			c-2.5,3.4-4.9,6.8-7.3,10.2c-2.8,3.9-5.7,7.8-8.6,11.7c-2.6,3.5-5.1,7.1-7.7,10.6c-2.3,3.1-4.7,6.2-7,9.3
			c-2.7,3.8-5.3,7.6-7.8,11.4c-2,3-4,6-5.8,9.1c-1.5,2.6-2.7,5.4-4,8.1c-0.5,1.1-0.3,2.2,0.5,3.2c0.3,0.4,0.4,1.1,0.7,1.5
			c0.4,0.5,0.8,1.3,1.3,1.4c1.3,0.3,1.9,1.1,2.3,2.6c-1.9,0.7-3.9,1.4-5.8,2.1c-2.4,0.8-4.9,1.4-7.2,2.3c-3.2,1.2-6.4,2.6-9.6,4
			c-2.3,1-4.6,2-6.7,3.1c-1.2,0.6-2.3,1.6-3.3,2.5c-0.2,0.2-0.2,1.1,0,1.4c2,3.3,4,6.5,6,9.8c0.5,0.8,0.9,1.6,1.5,2.4
			c1.1,1.5,2.4,2.8,3.4,4.4c0.3,0.5,0,1.4,0,2.1c-0.7-0.1-1.5,0-2-0.4c-3.6-2.3-7.2-4.6-10.9-6.9c-0.9-0.6-1.9-0.9-2.9-1.4
			c-1.1-0.6-2.1-1.2-3.1-2c-0.7-0.2-1.5-0.3-2.2-0.6c-1-0.5-2.2-0.6-2.9-1.9c-0.3-0.5-2-0.5-2.9-0.2c-1.6,0.5-3.5,0.5-4.4,2.3
			c-0.2,0.3-0.7,0.5-1,0.7c-3.8,2.1-7.5,4.4-11.3,6.2c-4.1,2-7.4,5-11.1,7.4c-1.9,1.3-3.7,2.8-5.5,4.3c-1.7,1.4-3.3,2.9-5,4.2
			c-0.5,0.4-1.8,0.5-2,0.2c-0.5-0.7-0.9-1.9-0.6-2.4c0.9-1.6,2.2-3,3.4-4.4c1.7-2,3.4-4.1,5-6.1c0.7-0.8,1.3-1.6,2-2.3
			c1.1-1,2.6-1.5,2.9-3.2c0.1-0.3,0.9-0.8,1.4-0.8c1.5,0.1,1.6-0.8,1.7-1.8c0-0.9,0-1.7,1.4-1.7c1.2,0,2.8-2.5,2.3-3.5
			c2.4-1.5,3.5-3.7,3.9-6.4c0-0.3-0.3-0.7-0.6-0.9c-2.4-1.4-4.8-2.7-7.2-4c-1.8-0.9-3.7-1.7-5.5-2.6c-0.9-0.4-1.8-1-2.7-1.4
			c-1.1-0.5-2.2-0.9-3.3-1.4c-0.7-0.3-1.4-0.8-1.9-1.4c-0.3-0.4-0.4-1.1-0.4-1.7c0-0.9,0.3-1.9,0.3-2.8c-0.1-1.8-0.1-3.6-0.6-5.2
			c-0.6-1.9-1.5-3.7-2.5-5.5c-0.7-1.2-1.8-2.2-2.7-3.2c-0.2-0.2-0.4-0.5-0.4-0.7c0.2-1.7-1.3-2.6-2-3.9c-1.1-2.2-2.1-4.3-3.3-6.4
			c-0.8-1.4-1.9-2.7-2.7-4.1c-2.6-4.1-5.1-8.3-7.7-12.4c-3-4.9-6-9.9-9.1-14.7c-1.3-2-2.8-3.8-4.2-5.7c-0.3-0.5-0.7-1-0.8-1.6
			c-0.3-1.9-0.2-1.8,1.6-1.6c0.3,0,0.7-0.1,1-0.3c3.9-1.5,7.2-3.9,10.4-6.6c0.9-0.8,1.8-2.2,3.5-1.7c0.1,0,0.3-0.1,0.4-0.2
			c0.5-1.3,2-1.8,2.7-2.8c1.9-2.3,4.3-3.8,6.6-5.6c0.6-0.5,0.9-1.3,1.4-1.8c1.9-1.9,3.7-3.8,5.8-5.4c1.6-1.3,2.2-3,2.9-4.7
			c0.3-0.8-1-2.4-2.3-2.8c-1.2-0.4-2.7-0.2-3.6-1.5c-0.2-0.2-1.2,0.1-1.8,0.1c-0.9,0.1-1.8,0.2-2.7,0.2c-1.2,0-2.4-0.3-3.6-0.2
			c-3.2,0-6.3,0.2-9.5,0.2c-1.1,0-2.2-0.3-3.2-0.3c-3.4,0.1-6.7,0.2-10.1,0.3c-2,0.1-4.1,0.2-6.1,0.4c-0.8,0.1-1.6,0.4-2.3,0.6
			c0,3.4,0,6.8,0,10.1c0,5.9,0.1,11.8,0.1,17.8c0,3.7,0.1,7.3,0.1,11c0,0.5,0,1,0.2,1.4c1.4,3.9,0.2,7.9,0.1,11.8
			c0,1.3,0.2,2.7,0.2,4c0,2.7,0,5.5,0,8.2c0,4-0.4,7.9,0.1,11.8c0.2,1.9,0,3.8,0.1,5.6c0.2,3.4,0.4,6.9,1.7,9.9
			c1.3,2.9,3.3,6.1,7.5,5.9c0.4,0,1,0.9,1.2,1.5c0.1,0.3-0.4,1-0.8,1.2c-0.6,0.3-1.3,0.5-1.9,0.5c-4.6,0.1-9.2,0.1-13.9,0.1
			c-0.6,0-1.3-0.4-1.9-0.7c-0.4-0.1-1-0.4-1.3-0.3c-2.2,1.4-4.7,0.8-7,0.8c-6.1,0.1-12.1-0.2-18.2-0.2c-4.8,0-9.6,0.4-14.4,0.4
			c-3.8,0-7.6-0.1-11.4-0.2c-1.3,0-2.7-0.2-4-0.1c-0.7,0-0.8-0.8-1.8-0.5c-5.4,1.9-11,0.4-16.5,0.7c-4.1,0.2-8.3,0.2-12.5,0.3
			c-2,0-4,0.1-5.9-0.3c-1.6-0.3-3.1-1.4-4.6-2.1c-0.4-0.2-0.8-0.7-1.2-0.6c-3.3,0.1-5.6-2.1-8.4-3.3c-1.7-0.7-3.1-1.9-4.7-2.8
			c-1.2-0.7-2.6-1-3.7-1.8c-1-0.7-1.7-1.7-2.6-2.6c-0.4-0.4-0.9-0.8-1.5-1.1c-0.9-0.5-2-0.8-2.9-1.3c-1.3-0.8-2.5-1.8-3.8-2.6
			c-1.1-0.7-1.8-1.5-2.3-2.8c-0.3-0.9-1.6-1.4-2.3-2.2c-1.9-2-3.8-4-5.7-5.9C211.7,147.1,211.5,147,211.4,146.9z M318.1,170.3
			c1.7-0.3,2-1.4,2.1-2.9c0-1.6,0.5-3.1,0.7-4.7c0.2-1.7,0.4-3.4,0.5-5.1c0.1-2.1-0.9-4.2,0.7-6.1c0.1-0.1,0.1-0.5,0-0.7
			c-0.5-1.9-0.7-3.8-0.5-5.8c0.2-2.8-0.1-5.5-0.1-8.3c0-1.2-0.1-2.3-0.1-3.5c0-3.4,0-6.9,0-10.3c0-3,0.2-6.1,0.2-9.1
			c0-1.8,0-3.7,0-5.5c0-1-0.3-2-0.3-3c0-2.2,0-4.4,0-6.6c0-0.2,0.1-0.5,0.1-0.7c0-1.1,0.2-2.2,0.1-3.3c-0.2-1.9-0.6-3.7-0.7-5.6
			c-0.1-2.3,0.1-4.6,0-6.9c0-2.1-0.3-4.1-0.3-6.2c0-4.5-0.1-8.9,0-13.4c0-3.3,0.3-6.5,0.3-9.8c0-1.3-0.3-2.7-1-3.8
			c-1.3-2.2-2.9-4.3-4.6-6.8c-1.1,1.1-1.9,2-2.7,2.8c-2.2,2-4.5,3.7-6.5,5.9c-1.8,1.9-3.7,3.7-5,6.2c-1.5,3.1-3.9,5.8-5.5,8.8
			c-1.4,2.7-2.3,5.6-3.2,8.5c-0.5,1.4-0.1,3.2-0.7,4.5c-1,1.7-1.1,3.4-1.2,5.2c-0.1,1.7-1,2.4-2.4,1.5c-1.7-1.1-3.5-2.1-3.7-4.5
			c0-0.3-0.2-0.7-0.5-1c-2.9-2.8-6.6-4.2-10.5-5.1c-1.7-0.5-3.6-0.5-5.4-0.6c-1.1-0.1-2.2-0.1-3.2,0.1c-1,0.1-1.9,0.5-2.9,0.8
			c-1.2,0.4-2.5,0.7-3.6,1.2c-1.6,0.7-3.1,1.4-4.6,2.2c-1.1,0.5-2.2,0.9-3.2,1.7c-2.1,1.7-4.2,3.6-6.2,5.4c-0.3,0.2-0.3,0.7-0.5,1.1
			c-0.6,1.3-1.2,2.7-1.9,4c-0.7,1.2-1.8,2.3-1.4,4c0.1,0.4-0.2,0.9-0.4,1.3c-1.3,2.7-2.8,5.3-2.2,8.5c0.1,0.3-0.3,0.7-0.3,1
			c-0.3,2.2-1.3,4.4,0.3,6.7c1.1,1.4,0.4,4.4-1.1,5.8c0.7,0.2,1.4,0.2,1.7,0.5c0.3,0.4,0.2,1.2,0.3,1.8c0,0.1,0.1,0.2,0.2,0.3
			c1.3,0.6,1.3,1.9,1.2,2.9c-0.2,1,0.4,1.5,0.9,1.9c1.1,0.7,2.4,1.3,1.3,2.9c-0.1,0.1,0,0.4,0.1,0.6c0.7,1.1,1.1,2.3,2,3.2
			c1.9,1.7,3.9,3.3,6,4.6c3.7,2.3,7.9,3.1,12.1,3.7c2.6,0.4,5.4,0.2,8.1,0.2c3.9-0.1,7.7-0.5,11.2-2.2c2.3-1.1,4.9-1.8,5.9-4.7
			c0.3-0.8,1.6-1.3,2.5-1.5c0.4-0.1,1.2,1,1.5,1.7c0.4,0.8,0.4,1.8,0.6,2.7c0.1,0.9,0,1.8,0.3,2.6c0.5,1.6,1.3,3,1.9,4.6
			c1.4,3.5,2.4,7.3,5,10.2c2.4,2.8,4.8,5.5,7.5,8c1.7,1.6,3.8,2.9,4.9,5c0.1,0.2,0.5,0.4,0.7,0.6c0.7,0.5,1.3,1,2,1.5
			c0.4,0.3,0.8,0.6,1.3,0.8C316.6,169.9,317.3,170.1,318.1,170.3z M420.4,44.9c3.2,2.2,6,4.3,9,6.2c1.2,0.7,1.7,1.6,1.7,2.9
			c0,0.7,0.1,1.6,0.5,2c2.2,2.1,2.9,4.8,3.4,7.7c0.1,1,0.8,1.9,1.1,2.8c0.3,0.9,0.6,1.9,0.7,2.8c0.1,2.2-0.1,4.4-0.1,6.6
			c0,1.2-0.2,2.5,0,3.7c0.5,2.9-1.9,5.1-1.6,7.9c0,0.1-0.2,0.2-0.3,0.3c-1.5,1.7-2.9,3.4-4.4,5.1c-3.1,3.5-6.2,6.9-9.3,10.4
			c-1.4,1.5-2.6,3.2-4,4.6c-1.4,1.4-2.9,2.8-4.3,4.1c-0.2,0.2-0.5,0.4-0.7,0.6c-0.9,0.9-1.8,1.7-2.6,2.6c-0.9,1.2-0.6,2.2,0.5,3.2
			c0.7,0.7,1.6,1.5,1.9,2.4c1.2,3.1,2.2,6.1,4.6,8.6c1.7,1.9,2.7,4.4,4,6.7c1.3,2.2,2.7,4.2,4,6.4c1.9,3.2,3.7,6.5,5.5,9.7
			c1.1,1.9,1.9,4.2,3.5,5.7c1.9,1.8,3.1,3.9,4.2,6.2c0.4,0.9,1.1,1.7,1.7,2.6c0.5-0.6,0.7-0.9,1-1.2c2.1-2.9,4.2-5.9,6.4-8.7
			c2.3-3,4.7-6,7-9c3.3-4.3,6.5-8.7,9.8-13.1c0.4-0.5,0.9-0.9,1.2-1.4c1.6-2,3.3-4,4.8-6.1c2.4-3.3,4.6-6.7,7-10
			c1.4-2,3.2-3.8,4.5-5.9c1.4-2.4,2.7-4.9,3.7-7.4c0.8-2,1.6-4.2,0.4-6.3c-0.5-0.9-1.4-1.7-2.1-2.5c-2.7-3-5.2-6.2-8.4-8.8
			c-1.6-1.3-2.6-3.3-4.1-4.8c-2.7-2.7-5.5-5.4-8.3-8c-2.7-2.5-5.4-4.9-7.7-7.8c-1.6-2.1-3.5-3.9-5.4-5.8c-1.8-1.8-4.6-2.8-5.3-5.8
			c0-0.2-0.3-0.3-0.4-0.4c-3.5-2.5-7.1-5-10.6-7.5c-0.2-0.1-0.4-0.2-0.6-0.3C428.6,44.7,424.9,44.2,420.4,44.9z M605.9,41.9
			c0.1,0.1,0.1,0.2,0.2,0.4c-0.6,0.8-1,1.8-1.8,2.2c-2.3,1.4-3.2,3.7-4.2,6c-1.2,2.8-0.7,5.8-0.9,8.7c-0.1,2,0.1,4,0,6
			c-0.2,4.4-0.5,8.8-0.6,13.2c-0.1,3.9,0,7.9,0.1,11.8c0.1,6.5,0.3,12.9,0.5,19.4c0,0.7,0.2,1.4,0.2,2.2c0.1,5.1,0.1,10.3,0.1,15.4
			c0,5.4,0.1,10.7,0.1,16.1c0,3.1,0.2,6.2,0.1,9.3c-0.2,4.2,1,8.2,1.9,12.2c0.3,1.5,1.4,2.9,2.2,4.2c0.3,0.4,1.1,1,1.3,0.9
			c1.8-0.9,4.2-1.6,5.3-3.2c2.2-3.1,3.8-6.7,4.3-10.5c0.2-1.5,0.1-3.1,0.2-4.6c0.1-3.5,0.3-7,0.4-10.5c0.1-2.3,0-4.6,0-6.9
			c0-0.9,0-1.7,0-2.6c-0.1-2.3-0.3-4.6-0.3-6.8c0-3.2,0.2-6.3,0.2-9.5c-0.1-4.4-0.3-8.7-0.5-13.1c-0.1-2.4-0.3-4.9-0.4-7.3
			c-0.2-3.2-0.5-6.4-0.6-9.6c-0.1-3,0.1-5.9,0-8.9c-0.1-3.4-0.4-6.8-0.6-10.2c-0.1-2.6,0.1-5.3-0.1-7.9c-0.2-2.1-0.9-4.3,0.3-6.3
			c0.1-0.2-0.1-0.5-0.1-0.7c-0.1-0.9-0.2-1.9-0.5-2.8c-0.5-1.5-0.8-3.4-1.9-4.4c-1.2-1.1-3.2-1.5-4.9-2.1
			C606.1,41.8,606,41.9,605.9,41.9z M45.2,50.2c1.6,0.5,2.6,1,3.7,1.2c1.2,0.2,1.4,1,1.2,1.9c-0.2,0.9-0.7,1.8-1,2.7
			c-1,2.7-1.9,5.5-2.8,8.2C44.5,69.7,44,75.4,44.6,81c0.2,1.8,1,3.7,1.8,5.4c1.2,2.5,0.9,5.2-1.1,7.1c-1.1,1-2.2,1.7-3.8,0.7
			c-0.4-0.3-1.3-0.1-1.8,0.1c-0.3,0.1-0.4,0.9-0.4,1.4c0,1.1,0.4,2.1,1.5,2.7c0.4,0.2,0.7,0.7,0.9,1.2c1.1,2.5,3.7,3.3,6,2.1
			c0.7-0.4,1.8-0.8,2.2-0.4c1.4,1,2.6,2.3,3.7,3.6c0.3,0.3,0.2,1.2-0.1,1.6c-0.6,1-1,2.1-2.5,2.3c-0.7,0.1-1.5,0.6-2,1.1
			c-0.9,0.9-1.9,2.1-1.4,3.5c0.2,0.8,0.9,1.5,1.5,2.2c2.5,2.6,8,3.5,11.1,1.8c0.4-0.2,0.8-1.1,0.7-1.5c-0.7-2.2,0.3-3.3,2-4.3
			c1-0.6,1.4-1.5,0.5-2.6c-0.9-1.1-1.8-2.2-2.5-3.3c-0.8-1.2-1.4-2.5-2.1-3.8c-0.3-0.5-0.5-1.1-0.8-1.6c-1.1-1.6-2.2-3.2-3.4-4.9
			c-0.3,0.3-0.8,0.6-1.3,1.1c-0.8,0.8-1.4,1.6-2.2,2.4c-1.4,1.2-3.8,0.5-3.8-1.2c0-1.6,0.6-3.2,1-4.8c0-0.2,0.5-0.4,0.7-0.4
			c1.1-0.2,2.3-0.4,3.4-0.7c0.4-0.1,0.8-0.6,1-1.1c0.7-1.6-0.6-2.8-1.1-4c-1.7-4.4-1.9-9-1.6-13.5c0.1-1.8,1-3.6,1.5-5.4
			c0.4-1.2,0.6-2.5,1.1-3.7c0.8-2.1,1.9-4,2.5-6.1c1.1-3.5,3.2-6,6.3-7.8c2.1-1.3,3.5-0.7,4.6,1.4c0.4,0.8,1.3,1.8,2,1.9
			c1.1,0.1,2.3-0.2,2.9-1.7c0.7-1.7-0.8-4.3-3-4.9c-0.8-0.2-1.5-0.3-2.3-0.3c-1.8-0.1-2.5-1.1-1.7-2.7c0.4-0.9,1.1-1.9,1.9-2.2
			c1.8-0.6,3.1-1.8,4.2-3.2c1.3-1.6,3.2-1.5,4.9-1c1.2,0.4,1.2,1.8,1.3,3c0,0.4,0.6,1.1,1.1,1.3c2.8,1.3,4.2,5,3.6,7.4
			c-0.2,0.9,0.1,1.3,0.8,1.8c1.4,1,1.7,2.1,0.8,3.6c-0.4,0.7-1,1.4-1.7,2c-0.9,0.8-1.1,3-0.4,4.5c0.7,1.3,1.7,0.7,2.6,0.5
			c0.9-0.2,1.7-0.3,2.4,0.5c0.6,0.7,1.1,0.5,1.7-0.4c0.8-1.2-0.1-3.1,1.6-3.9c0,0,0.1-0.2,0-0.3c-0.7-1.7-1.1-3.6-2.2-5
			c-1.3-1.8-2.3-3.7-1.3-5.1c0.8-1.1,0.3-2.1,0.2-3.1c-0.1-0.7-0.3-1.4-0.5-2.1c-0.2-1.2,0.2-2.6-1.3-3.2c-0.2-0.1-0.3-0.5-0.4-0.8
			c-0.7-2.1-0.5-4,1.2-5.7c1.3-1.3,2-1.6,3.6-0.9c0.5,0.2,1.1,0.5,1.4,0.9c1.1,1.3,2.6,1.7,4.2,1.9c2.3,0.4,4.8-1.7,4.7-4
			c-0.1-2.5,2.2-4.6,4.6-3.7c1.9,0.7,3.8,1,5.7,1.1c2.5,0.2,4.9,0.6,7.4,0.6c2.4,0,4.9-0.4,7.3-0.5c5.8-0.1,11.5,0,17.3,0
			c2.4,0,4.9-0.1,7.3,0.1c3.6,0.4,7.1,0,11-0.9c-0.6-1.3-1.1-2.5-1.8-3.5c-0.3-0.4-0.9-0.8-1.4-0.8c-3.3-0.1-6.5,0.1-9.8,0
			c-4.5-0.1-8.9-0.3-13.4-0.4c-1.5,0-3.1,0.2-4.6,0.1c-3.1-0.1-6.1-0.5-9.2-0.5c-3.7,0-7.3,0.3-11,0.3c-2.1,0-4.1-0.2-6.2-0.2
			c-2.3,0-4.7,0.2-7,0.3c-0.3,0-0.9-0.1-1-0.3c-1.3-2.3-3.8-2.9-5.7-4.4c-1.2-0.9-2.9-0.8-3.9,0c0.7,1.7,1.3,3.3,1.9,4.9
			c0.7,1.7,0.4,2.6-1.3,3.4c-0.8,0.4-1.7,0.6-2.5,0.8c-1.7,0.3-3.2,1.2-3.8,2.7c-1.5,3.4-2,3.9-5.6,3.7c-1.5-0.1-2.4-1.1-2.2-2.6
			c0.1-0.5,0.1-1,0.2-1.4c1.9-1.2,3.7-2.3,5.5-3.5c-1.3-1.6-4.5-2.3-6-1.3c-0.6,0.4-1.4,1.1-1.5,1.7c-0.4,2.2-2,3.4-3.4,4.7
			c-2.5,2.2-2.5,5.1-2.1,7.8c0.3,2.7-0.8,4.7-3.5,4.6c-1.8-0.1-3.6-0.7-5.5-0.9c-0.9-0.1-2.1-0.1-2.7,0.4c-1.5,1.3-3.6,1.9-4.5,3.9
			C47,47.6,46.1,48.8,45.2,50.2z M170,152c-0.3,1.1-0.4,2.1-0.8,3.1c-0.4,1,0,1.3,0.8,1.7c1,0.4,2,0.8,3,1.2c0.9,0.4,1.3,0.9,0.9,2
			c-0.1,0.3-0.1,0.7-0.2,1c-1,2.2-1.7,4.6-3,6.6c-2.1,3.2-5.1,5.3-8.7,6.7c-4.1,1.5-7.8,2.6-12,0c-2-1.2-3.5-2.5-3.9-4.6
			c-0.4-1.9-1.4-2-2.9-1.9c-0.3,0-0.6,0.1-0.9,0.1c-1.9,0.2-2,0.6-1.1,2.4c0.7,1.4,1.4,2.9,1.7,4.5c0.4,2.3-1.4,5-3.2,5
			c-2,0-4-0.3-5.4-2.2c-0.7-0.9-1.7-1.7-2.8-2.2c-0.6-0.3-1.7-0.3-2.1,0.1c-0.7,0.7-0.8,1.7,0.1,2.6c1.2,1.2,2.4,2.4,3.3,3.9
			c0.6,1,1.3,1.2,2.3,1.2c3.8,0,7.6,0,11.5,0.1c0.8,0,1.8,0.7,2.5,0.4c2.6-1,3.5,0.7,4.3,2.5c1.6,3.2-0.6,6.9-4.2,7
			c-0.9,0-1.9,0.5-2.6,1.1c-1.1,0.8-1.9,2-3,2.8c-3.9,2.8-8.2,3.6-12.7,1.7c-2.2-0.9-4.3-2.2-6.1-3.7c-2.6-2.3-5.6-2.4-8.7-2.5
			c-4.5-0.2-9,0-13.5,0c-1.6,0-3.8,1.3-4.1,2.6c-0.3,1.3,0.8,2.8,2.5,3.5c2.7,1.1,3.4,0.8,5.6-1.3c1.1-1.1,2.6-1.9,4.1-2.3
			c1.5-0.3,3.5,2.2,3.7,4c0.2,2.1,0.7,2.5,2.9,2.3c3.3-0.3,6.6-0.6,9.9-0.7c3.5-0.1,6.9,0.2,10.4,0.2c4,0,8-0.2,12-0.2
			c1.3,0,2.7-0.2,3.9,0.2c1.8,0.6,2.4,0.5,3.1-1.3c0.3-0.9,0.9-1.8,1.5-2.4c1.7-1.8,3.6-2.9,6.2-2.1c0.4,0.1,0.9,0,1.4-0.1
			c3.3-0.3,5.8,1.8,6.2,5c0.1,0.6,0.3,1.2,0.4,1.9c1.5-0.9,2.6-0.4,3.5,0.7c1.9-1.1,1.8-1,0.8-2.7c-0.5-0.8-0.8-1.8-1-2.7
			c-0.4-2,0.7-3.7,1.4-5.4c0.3-0.7,0.4-1.8,0.1-2.3c-0.4-0.6-1.6-1.3-2.2-1.1c-1.7,0.4-3.3,1.2-4.9,2.1c-2,1.2-4.3,0.1-4.8-2.2
			c-0.2-1.2-0.9-2.4-1.2-3.6c-0.2-0.7-0.4-1.8,0-2.1c1.2-1,2.1-2.5,4-2.4c0.4,0,0.8-0.5,1.2-0.7c0.5-0.4,1-0.8,1.5-1.2
			c0.9-0.7,1.9-1.4,2.7-2.2c0.7-0.9,1.1-2,1.8-2.9c1.1-1.4,2.7-2.4,3.5-3.9c1.4-2.5,2.6-5.2,3.6-7.9c0.7-1.8,0.8-3.9,1-5.7
			c0.2-2.4-0.4-4.9-0.8-7.3c-0.3-1.9,0.6-3.5,2.5-3.9c2.2-0.5,4.5-0.9,6.7-1.2c3-0.4,5.7,1.8,5.6,4.7c-0.1,3.4,0.9,6.8-0.6,10.1
			c-0.1,0.2-0.1,0.4,0,0.6c0.6,1.3-0.5,1.9-1.2,2.4c-0.5,0.3-1.4,0.1-2.2,0.1c0,0.8,0,1.9,0,3.1c2.6,0,4.3,1.3,5.5,3.5
			c0.7-2,1.2-4,1.7-5.9c0.3-1.1,0.8-2.2,0.9-3.4c0.1-1.3-0.3-2.7-0.3-4c-0.1-2.4,0-4.7,0-7.1c0-0.7,0-1.4-0.2-1.9
			c-0.5-1.2-1.3-2.2-1.6-3.4c-0.9-3-0.9-6.3-2.5-9.2c-1.1-1.9-1.6-4-3.8-5c-0.6-0.3-1.1-0.9-1.7-1.4c-1.1-0.8-1.8-2.3-3.6-2
			c-1.2,0.2-2.5,0.2-3.7,0.4c-0.4,0.1-0.7,0.6-1,1c-0.5,0.6-0.8,1.4-1.3,2c-0.7,0.8-1.4,1.6-0.8,2.7c0.2,0.5,0.2,1,0.4,1.5
			c0.3,0.6,0.7,1.2,1,1.8c0.6-0.4,1.3-0.7,1.8-1.2c0.9-1.1,3.5-1.9,4.7-1.1c1.2,0.8,2.4,1.6,3.3,2.8c0.3,0.4-0.7,1.6-1,2.5
			c-0.1,0.2-0.1,0.4-0.2,0.6c-0.5,0.5-1,1.3-1.6,1.5c-2.2,0.6-4.4,1.3-6.7,1.5c-1.8,0.1-2.8,1-3.2,2.4c-0.6,1.9-1.9,3.8-1.1,6
			c0.1,0.2,0,0.6-0.1,0.7c-0.8,0.7-1.5,1.6-2.4,2.1c-1.3,0.8-2.6,1.6-4.2,0.8C170.8,152.1,170.4,152.1,170,152z M708.5,137.7
			c-0.7,0.1-1.5,0.5-2.1,0.3c-0.9-0.4-1.9-1-2.5-1.8c-0.7-0.9,0.2-1.5,0.9-2c1.4-1,2.7-2.2,4.2-2.9c1.7-0.8,3.5-0.7,4.6,1.1
			c0.8,1.2,1,2.2,1,3.5c0,1.8,0.4,3.5,0.4,5.3c0,1.8-0.5,3.6-0.5,5.4c0.1,4.6,0.1,9.3,0.5,13.9c0.2,2,0,4.5,2.2,5.7
			c1.3,0.7,2.8,1.2,4.3,1.5c0.5,0.1,1.2-0.7,1.7-1.2c1.5-1.5,0.8-4.3-1-5.1c-0.5-0.2-1.2-0.8-1.2-1.4c-0.3-2.5-0.5-4.9-0.7-7.4
			c-0.1-1.2-0.1-2.3-0.1-3.5c0-0.6-0.3-1.3-0.1-1.8c1.1-2.2,0-4.3-0.5-6.3c-0.2-0.8-0.4-1.7-0.3-2.5c0.1-3.9,0.3-7.7,0.3-11.6
			c0-2.7-0.4-5.5-0.5-8.2c-0.1-2.7,0.1-5.5,0.1-8.2c0-3.4-0.1-6.7-0.3-10.1c-0.1-0.8-0.5-1.8-1.2-2.3c-1.6-1.3-2.5-3.4-1.9-5.3
			c0.6-2.1,2.1-3.3,4.3-3.4c0.3,0,0.6-0.1,0.5-0.1c0.1-1.2,0.2-2.1,0.2-3c0-1-0.3-1.9-0.3-2.9c-0.1-2.3-2.3-3.9-4.5-3.4
			c-2.2,0.5-4.6,4.1-4.3,6.6c0.1,0.9,0,1.8,0,2.6c-0.1,3.6-0.2,7.1-0.3,10.7c0,1,0.3,1.3,1.3,1.4c1,0.1,2,0.7,2.8,1.3
			c0.7,0.5,1,1.5,1.6,2.2c0.8,0.9,1.5,1.7,0.8,2.9c-0.7,1.2-1.7,2.1-3.2,1.6c-0.9-0.3-1.8-0.6-2.5-0.9c-0.1,1-0.2,2.1-0.2,3.2
			c0,0.3,0,0.7,0.1,1c0.9,2,0.4,3.6-1,5.1c-0.8,1-1.9,1.1-2.8,0.2c-1-1-2.1-2-2.9-3.1c-1.8-2.6-3.9-4.8-5.3-7.7
			c-1.4-2.9-3.6-5.5-5.5-8.2c-1.2-1.6-2.6-3.1-3.8-4.7c-0.9-1.1-1.6-2.3-2.4-3.4c-0.4-0.6-0.9-1.3-1.3-1.9c-2.5-2.9-4.9-5.9-7.4-8.8
			c-0.5-0.6-1-1.1-1.5-1.7c-1.6-2.1-3.5-4.2-4.8-6.5c-1.4-2.4-2.6-4.9-5-6.5c-0.9,1.2-1.8,2.2-2.6,3.4c-0.1,0.2,0.1,0.8,0.3,1.1
			c0.7,1,1.4,1.9,2.1,2.9c1.9,3,3.7,6.2,5.7,9.1c1.9,2.7,4.1,5.2,6.1,7.8c0.2,0.2,0.4,0.4,0.4,0.6c0.3,2.2,1.8,3.8,3.3,5.2
			c2.9,2.7,4.8,6.1,7.1,9.3c2.1,2.9,4.4,5.6,6.5,8.4c0.5,0.6,0.9,1.4,1,2.1c0.2,1.3,0,2.7,0,4c0,1.2-0.2,2.3-1.7,2.6
			c-0.4,0.1-0.8,0.4-1.2,0.7c-1.7,1.1-3.5,0.1-3.6-1.9c0-1.4-0.7-1.9-2.2-2.2c0.2,1.8-1.6,3.6,0.6,5.1c0.1,0.1,0.2,0.4,0.2,0.6
			c0.6,1.6,1.2,3.2,2.9,4c0.2,0.1,0.5,0.5,0.5,0.7c0.1,1.6,1.2,2.1,2.4,2.5c1.3,0.4,1.6,1.3,0.9,2.4c-0.9,1.4-0.7,2.8-0.2,4.3
			c1.3,3.8,5.5,5.5,9.1,4.2C707.9,141.5,709.1,139.3,708.5,137.7z M752.7,101.9c0.1,1.2,0.1,2.5,0.4,3.7c0.5,2.3,1.1,4.5,1.9,6.7
			c0.6,1.8,1.6,3.6,2.4,5.4c0.5,1.3,1.2,2.6,1.3,4c0.1,0.7-0.5,1.9-1.2,2.3c-1.6,1.1-5.8-0.1-6.6-1.8c-1.3-2.8-2.4-5.7-3.6-8.6
			c-0.4-0.9-0.8-1.9-1.1-2.9c-0.2-0.7-0.4-1.5-0.4-2.3c-0.1-2.4-0.1-4.7-0.3-7.1c-0.2-3-1.3-6,0.4-9c0.2-0.3,0.1-0.8,0.1-1.2
			c0.1-1.7,0.2-3.3,0.3-5c0-0.8,0-1.7-0.4-2.3c-0.7-1.2-1.7-2.2-2.6-3.2c-2.3-0.1-3.5,1.2-3.7,3.5c0,0.1-0.1,0.2-0.1,0.3
			c-2.2,4.8-2.1,9.7-1.2,14.8c0.2,1.1,0.4,2.3,0.2,3.4c-0.2,1.1-0.2,1.9,0.8,2.5c0.3,0.2,0.4,1.3,0.2,1.5c-0.8,0.7-1.9,1.2-2.8,1.9
			c-0.5,0.4-1,0.9-1.3,1.4c-0.4,0.7-0.7,1.5-1.2,2.4c0.4,1.3,0.9,3,1.3,4.2c1.7,0,3.3-0.1,4.8,0.1c0.5,0,1.1,0.6,1.3,1.1
			c1.1,2.4,1.9,5.1,3.3,7.4c1.1,1.8,2.5,3.6,4.2,4.9c1.4,1.1,3.3,1.6,5.4,2.6c2.3-0.8,2.5-0.8,2.4-3.2c0-1.9,0.8-3,2.5-3.2
			c1.4-0.2,3.2-0.4,4.3,0.3c0.7,0.4,0.9,2.4,0.7,3.6c-0.2,0.8-1.5,1.7-2.4,1.8c-1.6,0.1-2.3,1.1-3,2.1c-0.6,0.9-0.5,2.1,0.1,3.1
			c0.7-0.8,1.2-1.8,2-2.1c2.7-1.3,4.9-0.5,6.4,2.1c0.1,0.2,0.3,0.6,0.4,0.6c2.2,0.4,2.4,2.5,3.4,3.9c0.6,0.8,1.5,1.5,2.5,2.4
			c0.2-0.7,0.3-0.9,0.3-1.2c0.2-2,1.3-3.6,3.1-4.3c2.1-0.9,3.9,0.3,5.3,1.7c1.5,1.5,0.7,5-1.2,5.7c-0.6,0.2-1.1,0.5-1.6,0.8
			c0.4,0.6,0.7,1.4,1.2,1.7c1.4,0.7,3,1.2,4.5,1.8c2.3,0.9,2.3,0.9,3.6-1.3c1-1.6,2.6-2.5,4.1-2.2c2.1,0.4,3.3,1.7,3.6,3.8
			c0.1,0.5,0.3,0.9,0.4,1.4c0.8-0.5,1.3-1.1,1.9-1.2c2-0.3,3-1.4,3.1-3.3c0.1-1.2-0.2-2.5-0.5-3.7c-0.3-1.4-1.2-1.9-2.6-1.4
			c-1.5,0.5-3.1,0.8-4.7,0.1c-1.5-0.6-3.1-1.1-4.7-1.4c-3.9-0.8-7.5-2.5-10.5-5.1c-1.2-1-2.4-2-3.5-3c-2.8-2.6-5.6-5.1-7.5-8.4
			c-1.5-2.5-3-5.1-4.2-7.7c-1.1-2.5-1.8-5.2-2.6-7.8c-0.4-1.3-0.7-2.7-1.1-4C755.9,106.8,753.5,104.6,752.7,101.9z M228.5,94.3
			c1-2.9,1.9-5.7,2.9-8.4c0.6-1.6,1.6-3,2.1-4.7c0.7-2.4,2.4-4,4.1-5.5c2-1.8,4.4-3.1,6.7-4.6c1.3-0.8,2-2.5,1.4-3.5
			c-0.8-1.2-2.8-1.6-4.1-0.7c-0.4,0.3-0.9,0.5-1.4,0.7c-3.2,1.4-5.9,3.4-7.3,6.7c-0.2,0.5-0.7,1.1-1.2,1.4c-2.5,1.2-3.1,3.7-4.3,5.8
			c-0.6,1.1-1,2.3-1.4,3.4c-0.6,1.5-1.8,1.8-3.1,1.3c-1.6-0.7-3.1-1.6-4.5-2.6c-0.5-0.4-0.6-1.5-0.6-2.2c-0.1-0.5,0.4-1,0.3-1.5
			c-0.2-2.3,1.1-4,2.5-5.5c1.4-1.6,3.2-2.9,4.7-4.4c2.1-2.1,4.7-3.7,7.2-5.4c2.9-1.9,6.1-2.9,9.2-4.2c2.8-1.1,5.8-2,8.7-2.9
			c2.6-0.9,5.2-1.6,8-1c0.5,0.1,1.1-0.1,1.7-0.2c1.8-0.1,3.7-0.5,5.5-0.3c1.6,0.2,3.1,0.4,4.6-0.5c0.6-0.3,1.6-0.5,2.1-0.2
			c1.4,0.9,2.8,0.8,4.3,0.3c0.7-0.3,1.6-0.3,2.4-0.1c2.7,0.6,5.1,0.3,7.4-1.4c2.8-2.2,2.9-2.5,0.9-5.4c-0.6-0.8-1.6-1.6-2.5-1.8
			c-2.2-0.5-3.6,0.4-4.7,2.4c-0.6,1.1-1.4,1.7-2.7,1.6c-1.4-0.1-2.9-0.4-4.3-0.3c-3.7,0.3-7.3,0.7-11,1.1c-1.5,0.1-3.1,0.1-4.7,0.1
			c-4.7,0.1-9.4,0.1-13.7,2.2c-1.5,0.7-2.9,1.4-4.4,2.1c-3,1.4-6.4,2.4-9.1,4.3c-2.2,1.5-4.3,3.3-6.3,5.1c-2.3,1.9-4.1,4.5-6.2,6.7
			c-0.5,0.6-1.3,1.1-2,1.2c-1.9,0.4-2.7,1.7-2.2,3.6c0.1,0.4,0.2,0.9,0.1,1.4c-0.2,1.6-0.5,3.3-0.8,4.9c-0.3,1.5,0.2,2.4,1.5,3.2
			c1.9,1.3,2.7,4.2,1.8,5.9c-0.9,1.6-3.4,2.5-5.5,1.8c-2.6-0.9-2.6-0.9-3.9,1.6c-0.2,0.5-0.5,0.9-0.7,1.4c-0.1,0.3-0.2,0.7,0,0.9
			c1.4,1.3,2.8,2.8,4.4,3.8c1.1,0.8,2,1.5,1.6,2.8c-1.5,4.3,0.4,8.4,0.9,12.5c0.3,2.5,1.3,5,1.9,7.4c0.3,0.9,0.9,1.6,1.8,1.1
			c0.8-0.4,2.1-0.5,1.6-2c-0.6-1.9-1.2-3.8-1.5-5.8c-0.5-3.1-1.1-6.2-1.2-9.2c-0.1-2.8,0.2-5.7,0.4-8.5c0.1-1.6,0.8-2.9,2.6-3.2
			c0.7-0.1,1.4-0.5,1.9-0.9c0.3-0.2,0.6-1,0.4-1.2c-1.3-2.4,0.3-4,1.4-5.7c0.5-0.8,1.8-0.7,2.3,0.1c0.7,1.1,1.4,2.1,1.9,3.3
			C226.7,93.8,227.5,94.2,228.5,94.3z M70.6,118.1c-0.4-0.3-0.7-0.4-0.8-0.5c-0.9-1-1.7-0.1-2.5,0.1c0.3,0.6,0.6,1.2,0.9,1.7
			c0.2,0.3,0.6,0.4,0.9,0.6c1.8,0.8,3.7,1.6,5.6,2.3c0.9,0.3,2.2,0.1,2.9,0.7c1.4,1.1,3.1,1.1,4.7,1.4c2.2,0.3,2.7,1.6,1.3,3.4
			c-0.3,0.5-0.8,0.9-0.9,1.4c-0.4,1.6,1,3.6,2.6,4.1c1.9,0.5,4.1-0.4,4.8-1.9c0.6-1.2,1.3-2.4,2.1-3.4c2-2.4,2.2-4.7,0.9-7.5
			c-0.9-1.9-2.2-3.8-1.8-6.1c0.1-0.3-0.2-0.7-0.2-1.1c-0.4-2.1,0.6-3.8,2.5-4.7c0.4-0.2,0.8-0.6,1.1-1c1.1-2.2,2.1-4.4,4.4-5.7
			c0.1,0,0-0.2,0.1-0.5c-1.9-0.4-3.8-0.8-5.7-1.2c-0.5-0.1-1.3-0.2-1.6,0c-2.2,1.9-4.8,1-7.2,1.2c-0.1,0-0.3,0-0.4-0.1
			c-0.5-0.4-1.2-0.7-1.4-1.3c-0.2-0.4,0.3-1,0.7-1.8c-0.8,0.1-1.5,0-2.1,0.3c-1.3,0.7-2.2,0.3-3.3-0.4c-2.4-1.8-3.5-4.4-4.7-7
			c-0.9-1.8-1.6-3.6-1.3-5.7c0.2-2.1-1.6-3.2-2.8-4.6c-0.1-0.1-0.3-0.1-0.4-0.1c-2.9-0.6-4.2,0.2-4.5,3.1c-0.1,0.8,0.3,1.7,0.5,2.6
			c0.1,0.7,0.3,1.5,0.4,2.2c0.4,1.8,0.6,3.8,1.5,5.5c1.3,2.4,3.1,4.6,4.6,7c0.3,0.4,0.7,0.9,0.7,1.4c-0.2,2.4,1.4,3.5,3.2,4.4
			c0.7,0.4,1.5,0.6,2.3,0.8c1,0.3,2,0.4,3,0.7c0.5,0.1,1.1,0.4,1.5,0.3c2.1-0.8,2.5,0.9,3.3,2.1c-0.5,0.5-1,0.9-1.6,1.4
			c1.5,1.3,1.8,3,1.7,4.8c-0.1,2.2-0.7,2.8-2.9,2.7c-0.5,0-1-0.2-1.5-0.4c-1.4-0.5-2.9-0.8-4.2-1.6c-2.9-1.7-6.2-2.9-9.4-4.3
			c0.1,0.7,0.3,1.6,0.4,2.4C70,114.9,70.3,115.2,70.6,118.1z M102.7,101.2c0.9,1.3,1.6,2.1,2,3c0.4,1,0.5,2.1,0.8,3.1
			c0.1,0.3,0.5,0.6,0.7,0.6c1.8,0.2,3.6,0.8,5.3,0.5c3.9-0.6,7.8,0.2,11.6,0.3c1.3,0,2.6-0.2,3.9-0.2c8.7,0.2,17.5,0.3,26.2,0.6
			c3.8,0.1,7.6,0.7,11.4,1.1c0.7,0.1,1.5,0.5,1.8,1c0.8,1.5,2.1,1.8,3.6,2.1c0.8,0.1,1.7,0.3,2.3,0.8c2.1,1.4,4.3,2.5,6.7,3.4
			c3.1,1.2,5,0.8,6.6-2.1c0.3-0.5,0.4-1.6,0.1-1.9c-0.6-0.7-1.6-1.6-2.4-1.7c-1.7,0-3.3,0.5-5,0.7c-0.4,0.1-0.8,0.1-1.2,0
			c-1.5-0.3-2.8-2.5-2.3-4.4c0.4-1.4-0.1-2.1-1.1-2.6c-0.9-0.5-1.9-0.8-2.9-1c-1.9-0.5-3.7-0.9-5.6-1.3c-2.4-0.5-4.7-0.9-7.1-1.2
			c-1.6-0.2-3.4,0.2-4.8-0.4c-3.2-1.4-6.2-0.5-9.3-0.1c-1,0.1-2,0.1-3,0.2c-1.8,0-3.6,0-5.4,0.1c-1,0-2.1,0.4-3.1,0.2
			c-3.4-0.9-6.7-0.5-10-0.3c-1.4,0.1-2.9-0.5-4.3-0.8c-0.8-0.1-1.6-0.3-2.4-0.2c-1,0-2,0.2-2.9,0.2c-2.5,0-5.1-0.2-7.6-0.2
			C104.7,100.5,103.9,100.9,102.7,101.2z M381.4,107.4c0.6,0.3,1.4,1,1.9,0.8c2.2-0.8,4.5-1.5,6.4-2.8c2.4-1.7,4.3-3.9,6.5-5.9
			c0.3-0.2,0.5-0.5,0.8-0.7c1.6-1.3,3.2-2.6,4.8-4c2.3-2,4.5-4.1,7-6c2.3-1.8,4.7-3.5,5.6-6.3c0.8-2.4,1-5.1,1.4-7.6
			c0.1-0.5-0.1-1.1-0.4-1.5c-1.4-1.9-3.1-3.6-3.5-6.1c-0.1-0.5-0.2-1-0.1-1.4c0.6-1.3,1.3-2.5,1.9-3.9c0.6-1.4,1.5-1.4,2.7-1
			c1.3,0.4,2.8,0.8,4.2,0.7c1.7-0.1,4.1-3.4,4-5.1c0-0.7-0.3-1.4-0.8-2c-0.8-1-2.3-1.3-3-0.6c-2.6,2.5-4,2.7-6.9,0.8
			c-1.2-0.8-1.4-1.8-0.7-3c0.4-0.7,0.8-1.3,1.1-2.1c0.6-1.4,0.1-1.9-1.3-2c-0.6,0-1.2,0.1-1.7,0c-1.6-0.5-2.4-0.1-2.9,1.7
			c-0.5,2.1-3.1,3.3-4.5,2.3c-1.6-1.2-3.6-2-4.7-4c-0.5-0.9-1.5-1-2.2,0c-1,1.3-0.3,3.5,1.2,4.2c2.1,1.1,4.3,1.5,6.7,1.8
			c0.7,0.1,1.6,0.6,1.9,1.2c0.9,1.4,1.7,2.9,2.4,4.4c0.9,1.9,0.7,2.3-1.3,3.1c-1.5,0.7-3,1.4-4.7,0.8c-0.2-0.1-0.4,0.1-0.6,0.1
			c-0.9-0.2-1.7-0.3-2.5-0.6c-1.3-0.4-2.5-0.9-3.7-1.1c-1.1-0.2-2.3,0-3.4,0c-2.5-0.1-5.1-0.3-7.6-0.4c-3.2-0.1-6.3-0.1-9.5,0
			c-1.5,0-3.1,0.3-4.6,0.5c-1.3,0.2-1.3,1.4-1.5,2.3c-0.1,0.4,0.3,1.3,0.7,1.5c3.1,1.7,6.5,1.3,9.9,1.1c3.3-0.1,6.7-0.9,10-0.8
			c3.7,0.1,7.3,0.8,10.9,1.5c1.3,0.3,3,0.5,3.7,2.2c0.1,0.3,0.7,0.5,1.1,0.8c2.9,1.9,5.7,4.3,4.8,7.6c-0.5,1.9-1.6,3.7-2.4,5.5
			c-0.1,0.1-0.2,0.2-0.3,0.3c-1.6,1.5-3.2,2.9-4.8,4.4c-3.2,3.1-6.4,6.3-9.7,9.4c-2.1,2-4.2,4.2-6.6,5.9
			C385.3,104.8,384.3,107.6,381.4,107.4z M871.5,79.7c0-3.4,0-6.6,0-9.8c0-1.1,0.1-2.2,0.4-3.2c0.7-2.1,1.6-4.2,2.4-6.2
			c0.2-0.6,0.7-1,1-1.6c0.4-0.6,0.6-1.4,1-2c0.6-1,1.2-2.1,2.1-2.8c1.2-0.9,3.7-0.3,4.1,0.9c0.5,1.6,1,3.3,1.4,5
			c0.6,2.2,4.3,4.7,6.2,3.9c2-0.9,4-1.9,5.8-3.2c1.5-1,2.9-1.5,4.6-1.4c3.6,0.2,7.2-0.2,10.6-1.4c0.4-0.2,0.8-0.7,0.9-1.2
			c0.1-0.4-0.2-1.2-0.5-1.3c-3.2-1.2-6.6-1.2-9.6,0.2c-3.7,1.7-7,1.6-9.6-1.4c-1.3-1.4-1.1-3.5,0.4-3.9c1.4-0.4,2.8-0.7,4.3-0.8
			c4.3-0.1,8.7-0.1,13-0.1c1,0,2-0.2,3.1-0.2c0.9,0,1.8,0.4,2.7,0.4c2.1,0.1,4.1,0,6.2,0c2.8,0,5.6,0,8.4,0c0.7,0,1.5,0,2.2,0
			c0.1-0.2,0.2-0.3,0.3-0.5c-1.6-1.5-3.2-3-4.7-4.5c-0.1-0.1-0.4-0.2-0.6-0.2c-2.5,0.1-5.1,0.1-7.6,0.2c-1,0-2.1,0-3.1,0
			c-2.7,0-5.5,0.1-8.2-0.1c-2-0.1-4,0.9-6.1,0.2c-1.4-0.5-2.5-0.3-3.3,1c-0.6-0.2-1.1-0.4-1.6-0.6c-1.3-0.7-3-1.2-3.8-2.3
			c-0.9-1.3-1.8-1.4-3-1.2c-1.1,0.2-2.2,0.7-3.4,1c0.2,1.1,0.5,2.1,0.3,3c-0.1,0.8-0.6,2-1.2,2.3c-1.7,0.7-3.6,1.2-5.5,1.5
			c-3.4,0.5-6,2.2-8.2,4.6c-1.2,1.3-2,3.2-4.2,3c-0.3,0-0.7,0.5-0.9,0.9c-0.5,1.1-0.7,2.4-1.4,3.5c-1.1,1.8-0.7,3.5-0.2,5.4
			c0.2,0.5,0.4,1.2,0.2,1.6c-1.2,3.2-0.7,6.6-0.7,9.9c0,0.6,0.3,1.3,0.6,2.4C868.2,78.6,869.8,79.2,871.5,79.7z M628.9,68.4
			c-2.4-0.1-2.5-0.1-3.2-2.4c-0.4-1.1-2.2-1.9-3.1-1.3c-2.8,1.8-3.8,5.3-2.4,8.3c0.3,0.8,0.4,1.7,0.4,2.6c0,1.6-0.5,3.4,0.1,4.8
			c0.7,1.5,1.7,3,2.5,4.6c0.4,0.8,0.8,1.4,0.5,2.4c-0.2,0.6-0.1,1.3-0.1,2c0.1,4.5,0.3,9,0.4,13.5c0.1,2.3,0,4.7-0.1,7
			c-0.1,2.5-0.2,4.9-0.3,7.4c-0.1,2.3-0.2,4.6-0.1,6.8c0,1.9,0.1,3.8,0.3,5.7c0.1,0.9,0.4,1.7,0.5,2.4c1.2-0.3,2.1-0.8,3-0.8
			c1.3,0,1.4-0.5,1.2-1.5c-0.2-1.5-0.3-3.1-0.4-4.6c-0.1-1.5-0.2-3.1-0.3-4.6c-0.1-1.5-0.5-3.1-0.5-4.6c-0.1-3.6,0-7.1-0.1-10.7
			c0-0.5-0.2-0.9-0.2-1.4c-0.1-1.3-0.2-2.7-0.2-4c0-2.9,0.5-5.9,0.1-8.7c-0.3-2.3-0.4-4.4-0.2-6.6c0.2-1.8,2.2-3.7,3.7-3.7
			c1.5,0,3.4,2.1,3.5,3.9c0.1,2.6,0.2,5.2,0.1,7.8c-0.1,2.3-0.4,4.7-0.6,7c-0.1,2.2-0.2,4.4-0.2,6.5c0,3,0,6.1,0,8.8
			c1.4,0.3,2.8,0.2,3.4,0.9c2.2,2.5,1.7,6.4-1.2,7.8c-0.6,0.3-1.3,0.7-1.4,1.3c-0.7,2.2,0.2,4.4,2.1,5.8c1-1.2,2-2.4,2.9-3.7
			c0.2-0.3,0.3-0.7,0.3-1c0.3-2.4,0.6-4.7,0.8-7.1c0.1-0.9,0-1.9-0.3-2.7c-1.1-2.8-2-5.6-1.6-8.6c0.2-2,0-4-0.2-5.9
			c-0.3-3.6-0.4-7.1,0-10.7c0.1-1.4-0.1-2.9,0.1-4.3c0.6-3.9-1.8-7.6-0.8-11.6c0-0.1-0.1-0.2,0-0.1c-1-0.2-1.9-0.3-2.7-0.6
			c-1.7-0.5-2.5-0.2-3.3,1.5c-0.6,1.3-2.5,2.1-4,1.7c-1.3-0.3-3-1.8-2.8-2.8c0.2-1.4,1.4-1.9,2.7-2.2c0.1,0,0.2-0.1,0.3-0.1
			c1.9-0.6,1.9-0.7,1.5-2.7C628.9,69.2,628.9,68.9,628.9,68.4z M931.7,94.5c-1.9-0.3-3.8-0.6-5.7-0.8c-0.7-0.1-2.1,0.2-2.2,0.5
			c-0.5,1.9-1.9,1.7-3.2,1.6c-3.8-0.3-7.7-0.6-11.5-1c-2-0.2-4-0.4-6-0.7c-1-0.1-2-0.5-3-0.6c-2.4-0.1-4.4-0.7-5.6-3
			c-0.2-0.3-1.2-0.6-1.4-0.4c-1.6,1.3-3.2,2.6-4.7,4.1c-1.3,1.2-2.3,2.7-3.6,3.9c-0.4,0.3-1.1,0.3-1.7,0.4c-0.4,0.1-1,0-1.2,0.3
			c-1.7,1.7-2.3,3.9-1.7,6.1c0.3,0.9,2.1,1.3,3.2,1.9c0.1,0.1,0.3,0.1,0.5,0.1c2.2,0.5,5.6-1.1,6.3-2.5c-0.4-1.4-1-2.4-0.9-3.3
			c0.1-0.6,1-1.2,1.6-1.6c1.4-1,2.8-1.8,4.7-1.1c1.7,0.6,3.5,1,5.3,1.2c3.1,0.2,6.3,0.2,9.4,0.3c3,0,6,0.7,8.9-0.5
			c0.1-0.1,0.3-0.1,0.4,0c2.6,1.3,5.1,0.1,7.6-0.4c1.5-0.3,2.9-0.2,3.6,1c0.7,1.3,0.6,2.9,0.8,4.4c0,0.1-0.1,0.2-0.2,0.3
			c-1,0.7-2,1.5-3.2,2c-1.1,0.5-1.4,1.1-0.8,2c0.4,0.6,1.1,1.1,1.7,1.6c0.7,0.5,1.6,0.7,2,1.3c0.9,1.3,2.1,1.4,3.4,1.4
			c1.3,0,2.5-0.1,3.8-0.2c-0.1-0.8-0.3-1.3-0.3-1.7c0.2-1.6-0.3-2.5-1.9-3c-1.2-0.4-1.4-2-0.8-3.2c0.9-1.9,2.8-2,4.6-2.6
			c0.6-0.2,1.4-0.6,1.5-1c0.4-1.6,1.3-2.3,2.9-2.4c2.4-0.1,4.8-0.3,6.4,2.1c0.1,0.2,0.5,0.3,0.8,0.5c1.3,0.9,3,1.6,3.6,2.8
			c0.7,1.4,2.1,1.8,2.9,2.8c0.2,0.2,0.5,0.2,0.7,0.4c1.7,2.9,3.4,5.8,5,8.7c0.4,0.7,0.5,1.6,0.8,2.5c0.1,0.5,0.3,1,0.5,1.7
			c0.7-0.5,1.2-0.9,1.7-1.2c1.8-1.3,1.9-2.2,0.7-4.1c-1.3-2.1-2.8-4.1-3.8-6.4c-0.9-2.2-2.3-3.8-4.1-5.1c-1.5-1.1-3.2-1.9-4.8-2.8
			c-1.2-0.7-2.7-1.1-3.7-2c-2.2-2.2-5.1-2.3-7.7-3.4c-0.3-0.1-0.8,0.1-1.2,0.1c-1.7,0.2-2.8,1.3-3.9,2.4c-2,1.9-5.4,1.5-6.2-0.8
			C931.5,96.3,931.7,95.4,931.7,94.5z M594.8,147c-0.4-2.1-0.7-4.3-1.2-6.4c-0.1-0.5-0.6-1.2-1-1.4c-1.6-1-2.5-2.8-2.5-4.6
			c0.1-2,0-3.9-0.1-5.9c-0.1-2.2-0.5-4.3-0.6-6.5c-0.1-2.8-0.1-5.6-0.1-8.3c0-2.1-0.7-4.4-0.1-6.2c0.8-2.1,0.4-3.9,0.3-5.8
			c-0.2-2.6-0.4-5.1-0.4-7.7c0-2.1,0.5-4.3,0.5-6.4c0.1-2.4,0-4.9-0.1-7.3c0-1.3-0.3-2.7-0.3-4c0-2.8-1.4-6,2.2-7.8
			c0.1,0,0.2-0.1,0.2-0.2c0.1-2.5,0.5-4.9,0.2-7.4c-0.1-1.1-1.4-2.1-2.3-3c-0.5-0.5-1.5-1.2-1.8-1c-1,0.5-2.3,1.3-2.5,2.2
			c-0.5,2.3-0.7,4.7-0.7,7.1c0,3.1,0.5,6.1,0.4,9.2c-0.1,5-0.3,10,0.5,15c0.2,1.4-0.2,3-0.3,4.4c-0.4,3.2-1.4,6.2-0.7,9.5
			c0.7,3.2,0.5,6.6,0.7,9.9c0.1,1.7,0.1,3.4,0.2,5.1c0.1,2.2,0.3,4.3,0.4,6.5c0.1,1.3,0,2.6,0.3,3.9c0.7,3.1,0.6,6.2,0.2,9.3
			c-0.3,1.9-0.3,3.8-0.1,5.8c0.2,2.8,0.7,5.5,0.9,8.3c0.2,2.9-0.5,5.8,1.7,8.3c1.2,1.3,2.5,2,4.3,3c-0.1-1.7,0.2-3.2-0.4-4.1
			c-0.7-1-2.3-1.3-3.3-1.8c0-0.9,0-1.9,0-2.8c0-1.6-0.4-3.4-0.1-4.9C590,148.1,592.8,148.3,594.8,147z M434.3,182.7
			c0.1,0.1,0.1,0.1,0.2,0.2c0.2-0.2,0.5-0.3,0.7-0.5c2.3-1.8,4.7-3.6,7-5.4c1.2-1,2.3-2.1,3.6-3.1c0.9-0.8,1.9-1.5,2.9-2.2
			c0.6-0.4,1.4-0.7,2-1.2c2-1.7,3.9-3.3,5.8-5.1c0.9-0.9,1.6-2,2.4-2.9c0.2-0.2,0.5-0.4,0.8-0.6c0.9-0.6,1.9-1.1,2.7-1.8
			c1.3-1.1,2.4-2.5,3.7-3.5c2.9-2.4,5.1-5.2,7.1-8.3c2.3-3.6,4.8-7,7.4-10.4c1.6-2.1,3.3-4,4.9-6.1c1-1.2,2-2.4,2.8-3.7
			c1.7-2.8,2.6-6.1,5.4-8.1c0.2-0.1,0.2-0.3,0.3-0.5c0.8-1.3,1.7-2.6,2.3-4c0.5-1.2,0.9-2.6,0.6-3.8c-0.5-2.2-2.6-2.8-4.3-1.4
			c-1,0.8-2,1.8-2.9,2.8c-1.5,1.6-1.7,2.8-0.6,4.7c0.9,1.6,0.5,2.4-1.3,2.7c-0.5,0.1-1.1,0.1-1.4,0.4c-2.2,2.7-4.3,5.4-6.4,8.1
			c-1.5,1.9-2.8,3.9-4.2,5.8c-0.7,0.9-1.4,1.9-2.1,2.8c-1.3,2-2.5,4.1-3.8,6.2c-0.1,0.1-0.2,0.2-0.3,0.3c-1.4,1.7-2.8,3.5-4.3,5.2
			c-1.8,2-3.7,4.1-5.7,6c-0.5,0.4-1.5,0.4-2.3,0.4c-0.6,0-1.3-0.5-1.9-0.7c-1.2-0.5-2.3,0-2.3,1.3c0,0.9,0.5,1.9,0.9,2.8
			c0.7,1.1,1.5,2.2,0.7,3.6c-1.7,2.7-2.9,3.2-5.9,2.5c-0.9-0.2-1.5-0.1-2,0.6c-1.6,2.1-3.1,4.3-4.9,6.2c-2.6,2.8-3.4,6.9-6.6,9.3
			C434.9,181.6,434.7,182.2,434.3,182.7z M946.5,110.1c-0.1,1.4-0.2,2.3-0.2,3.3c0,0.3-0.1,0.8,0.1,1c0.6,0.9,1.3,1.7,1.9,2.7
			c1.4,2.2,2.9,4.4,4.1,6.8c1.7,3.6,0.2,11.9-4.1,14.9c-1.1,0.8-2.1,1.8-2,3.7c0.1,1.2-0.8,2.7-1.6,3.7c-0.8,1-2.1,1.1-3.2,0.2
			c-0.9-0.8-1.7-1.8-2.5-2.7c-1-1-1.2-2.1-0.1-3.2c-1.6-2.3-1.7-2.3-4-0.8c-0.8,0.5-1.6,1.1-2.1,1.9c-0.6,1-1,2.1-1.6,3.5
			c0,0.3,0.1,0.9,0.1,1.6c0,0.7-0.2,1.4-0.4,2.2c1.2,0,2.2,0.1,3.3,0c3.4-0.4,5,0.4,6.5,3.4c1.4,2.7,0.2,4.8-2.7,4.8
			c-3,0-5.9-0.1-8.9-0.1c-1.6,0-3.1,0-4.7,0.1c-1.2,0.1-2.7,1.8-2.6,2.7c0.2,1.5,0.9,2,2.8,1.9c2.7-0.1,5.3,0.1,8-0.4
			c3.7-0.6,7.6-0.4,11.4-0.5c1.9,0,4.3-1.6,4.9-3.3c1-2.4,0.8-4.5-0.9-6.7c-0.8-1.1-2-2.5-0.5-4.1c1.4-1.4,2.2-3.4,4.1-4.3
			c0.6-0.3,1.3-0.9,1.6-1.5c0.9-1.9,2.3-3.5,2.9-5.7c1-3.3,0.6-6.4,0.3-9.7c-0.1-1-0.8-1.8-1.3-2.8c-0.6-1.2-1.1-2.5-1.7-3.7
			c-0.7-1.3,0-3.4-2.3-3.8c-0.5-0.1-1-0.8-1.2-1.4C949.4,111.9,947.7,111.4,946.5,110.1z M340.5,75.6c0.1,1.9,0.2,3.4,0.3,4.9
			c0.1,1.7,0.1,3.5,0.1,5.2c0,0.5,0,1-0.1,1.5c-0.3,2-0.9,4-1,6c-0.2,2.4,0,4.8,0,7.2c0,1.7-0.2,3.3,0,5c0.3,2.6-0.1,5.6,2.9,7.3
			c0.3,0.2,0.5,0.6,0.7,1c1.5,3.5,0.8,6.9-2,9.5c-1,1-1.1,2.1-0.2,3.2c0.2,0.2,0.4,0.5,0.5,0.8c1.1,2.5,1.3,2.7,4,2.2
			c1.1-0.2,1.5-0.7,1.4-1.8c-0.1-1.7-0.2-3.4-0.2-5.1c0-1.2,0.1-2.4,0.1-3.6c-0.1-2.7-0.4-5.3-0.5-8c-0.1-3.6,0-7.3,0-10.9
			c0-3.8,0-7.7-0.1-11.5c0-1.9-0.1-3.8-0.3-5.7c-0.4-3.7-0.8-7.4,1.4-10.8c1.7-2.6,1.2-4-1.2-5.8c-1-0.7-2.3-1.1-3.1-2
			c-1.6-1.8-3.2-3.3-5.4-4.3c-1.1-0.6-1.7-2.2-2.7-3c-1.6-1.3-3.3-2.4-4.5-4.1c-0.7-1-1.8-0.8-2.5,0c-0.3,0.3,0.1,1.4,0.5,1.9
			c0.9,1.2,1.9,2.3,3.1,3.2c2.1,1.6,3.7,4.1,6.6,4.6c0.7,0.1,1.4,0.8,1.8,1.4c1.3,2.1,1.5,4.6,0.8,6.9c-0.5,1.7-1,3.1,0.2,4.6
			C340.7,75.5,340.5,75.7,340.5,75.6z M812.6,52.7c0.2-1.2,0.2-1.3-1.2-1.4c-4.2-0.4-8.4-0.9-12.6-1.3c-0.6-0.1-1.1,0.1-1.7,0.2
			c-2.7,0.6-5.3,1.6-8,1.6c-3.2,0-5.7,1.5-8.5,2.4c-4.1,1.4-7,4.6-10.2,7.4c-1.4,1.2-2.8,2.2-4.3,3.2c-0.4,0.3-1.2,0.1-1.7-0.1
			c-1.9-0.7-3.7-1.6-5.5-2.2c-1.2-0.4-1.8-1.3-1.2-2.4c0.8-1.3,1.5-2.7,2.5-3.8c1.1-1.2,2.7-2.1,3.9-3.3c2.9-3.2,6.5-5.1,10.8-5.3
			c0.5,0,0.9-0.8,1.3-1.2c-0.7-0.6,0-2.7-1.8-2c-2.3,0.9-4.5,2-6.7,3c-0.7,0.3-1.3,0.9-2,1.1c-2.3,0.6-4.3,1.8-5.8,3.7
			c-0.5,0.7-1.2,1.3-1.8,1.8c-3.1,2.3-6.4,4.4-8.4,8c-0.6,1.1-1.3,2.2-2,3.1c-1,1.2-1.1,2.8-0.2,4.1c0.6,0.9,1,1.8,1.6,2.8
			c1.2-0.1,3.4-2.5,3.7-4.4c0.2-1.2,0.8-1.7,1.8-1.7c1.2,0,2.5,0.3,3.7,0.2c3.5-0.4,5.8,2.1,8.9,3.3c1.4-1.3,2.9-2.9,4.7-4.2
			c1.5-1.1,2.3-3.4,4.8-2.8c0.2,0,0.4-0.3,0.6-0.4c1.2-0.7,2.3-1.5,3.5-2.1c1-0.5,2.1-0.9,3.1-1.3c2.1-0.9,4.2-2,6.3-2.8
			c1-0.4,2.2-0.1,3.2-0.4c1.2-0.3,2.3-1.2,3.6-1.5c2.5-0.6,5-1.6,7.6-0.3c0.3,0.1,0.7,0,1.1,0C807.9,53.5,810.1,53.1,812.6,52.7z
			 M510.9,93.3c0-0.2,0-0.4,0-0.6c-0.6-0.3-1.3-0.5-1.9-0.8c-1.5-1-4-1.4-3.6-3.7c0.4-2.3-0.5-3.5-2.2-4.5c-0.2-0.1-0.3-0.3-0.4-0.5
			c-2-2.1-3.8-4.6-6.2-6.3c-2.6-1.9-4.3-4.5-6.5-6.9c-2.2-2.5-3.8-5.6-6.9-7.2c-1.4-0.7-2.6-1.7-3.8-2.6c-1.1-0.9-2.3-1.8-3.2-2.9
			c-0.8-1-1.3-2.1-0.5-3.5c0.2-0.4,0.1-1.1-0.2-1.4c-0.7-0.8-1.5-1.3-2.3-2c-0.9-0.8-1.6-0.6-2.1,0.6c-0.8,1.7-1.2,3.3,0.1,5
			c0.5,0.7,1,1.5,1.5,2.1c0.9,1.1,1.9,2,2.8,3.1c2.7,3.4,5.1,7,7.9,10.3c3.2,3.6,6.8,6.9,10.3,10.3c0.6,0.5,1.4,0.7,2.1,1.1
			c0.6,0.4,1.1,0.8,1.5,1.3c0.4,0.4,0.5,1.1,0.9,1.5c2.3,2.2,4.6,4.3,7.1,6.3c1,0.8,1.4,1.3,0.4,2.3c-0.3,0.3-0.4,0.9-0.5,1.4
			c-0.7,2.4,0.1,4.6,0.8,6.8c0.4,1.4,1.2,2.3,2.5,2.9c1.2,0.6,2.5,0.7,2.9-0.6c0.4-1.4,0.2-2.9,0.2-4.4c-1.8-0.4-2.3-2.1-3.3-3.2
			c-1.3-1.4-1-2.7,0.9-3.3C509.6,93.7,510.2,93.5,510.9,93.3z M852.5,114.3c-1.4,0.9-2.3,1.6-1.7,3.2c0.2,0.5,0.1,1.1,0,1.7
			c-0.2,2.4-1.5,4.7-0.7,7.3c0.1,0.4-0.2,1-0.4,1.5c-0.3,0.8-0.6,1.7-0.9,2.5c-0.8,1.9-0.9,4-2.3,5.6c-1.5,1.6-2.8,3.4-4.2,5
			c-1.7,1.9-2.6,4.7-5.5,5.4c-0.2,0.1-0.4,0.4-0.6,0.7c-1.5,1.7-2.8,3.8-4.6,5.1c-3.2,2.4-6.4,4.9-10.3,6.2
			c-2.1,0.7-4.1,1.7-6.1,2.4c-1.3,0.5-2.6,0.7-3.9,1.1c-0.8,0.2-1.5,0.8-2.3,0.8c-2.6,0-5.1,1.4-7.8,0.8c-0.8-0.2-1.7-0.2-2.5,0.1
			c-2.1,0.6-4.1,1.3-6-0.3c-0.4,1.5-0.1,2.7,1.2,3c2,0.4,4,0.6,6,0.7c1.5,0,3.1-0.6,4.6-0.3c1.9,0.4,3.5-0.2,5.3-0.5
			c3.1-0.4,5.4-3.2,8.7-2.7c0.2,0,0.4-0.2,0.6-0.3c1.3-0.9,2.6-1.5,4.2-2c1.6-0.5,3-1.3,4.5-2c1.5-0.7,3-1.3,4.4-2.1
			c1.2-0.7,2.2-1.9,3.4-2.3c2.2-0.7,3.3-2.4,4.7-3.9c1.7-1.9,3.3-4.1,4.9-6.1c0.5-0.6,1-1.1,1.3-1.7c1.7-3.2,3.5-6.2,4.9-9.5
			c1-2.5,2.4-5.1,2.3-8c-0.1-1.6,0.4-3.2,0.5-4.8c0-0.3-0.2-0.5-0.3-0.8c-0.2-0.5-0.5-0.9-0.6-1.4
			C852.9,117.2,852.7,115.8,852.5,114.3z M122.2,183.5c-0.4-1.9-0.7-3.1-0.8-4.4c-0.2-2-0.8-2.7-2.9-2.6c-1.9,0.1-3.8,0-5.7,0.1
			c-2.9,0.1-5.8,0.5-8.8,0.5c-1.8,0-3.6-0.2-5.4-0.5c-0.8-0.1-1.5-0.8-2.1-1.3c-1.8-1.5-3.6-2.9-5.2-4.6c-0.9-1-2.4-1.7-3.5-1.1
			c-1.5,0.7-3.1,4.3-2.4,5.8c0.6,1.3,1.4,2.5,2.4,3.6c2.2,2.3,5,3.6,8,4.2c2.8,0.6,5.6,0.7,8.4,0.9c1.4,0.1,2.8,0.3,4.2,0.3
			c2.4,0,4.9-0.1,7.3-0.2C118,183.9,120.2,183.7,122.2,183.5z M327.8,99.8c1,0.3,1.6,0.5,2.1,0.7c0,1.1-0.1,2.2,0,3.2
			c0.2,1.9,0.6,3.8,0.7,5.7c0.1,2.8,0,5.7,0,8.5c0,2.1,0.2,2.2,2.3,1.9c0.2,0,0.4,0,0.6-0.1c1.8-0.2,2.4-1.4,1.5-3
			c-0.2-0.4-0.2-1-0.3-1.5c0-0.6,0.1-1.2,0.1-1.8c-0.2-3.2-0.6-6.4-0.7-9.6c-0.1-2,0.2-4,0.2-6c0-3.1,0-6.1-0.1-9.2
			c-0.1-1.9-0.5-3.7-0.7-5.6c0-0.2,0.2-0.5,0.2-0.7c0-0.8,0.1-1.6,0.1-2.4c-0.1-0.9-0.6-1.8-0.4-2.6c0.6-3-1.4-5-2.7-7.2
			c-0.4-0.6-1.2-1-1.4,0c-0.4,2.2-1,4.4-0.8,6.6c0.2,2,0.3,3.9-0.1,5.9c-0.2,1.4-0.4,3-0.1,4.3c0.6,2.3,0.6,2.7-1.7,3.3
			c-1.1,0.3-1.3,0.8-1.2,1.8c0.1,1.2,0.2,2.4,0.2,3.6c0,1.1,0.3,1.7,1.5,1.7c1.2,0.1,1.9,0.7,2.1,1.9
			C328.9,99.3,328.6,99.4,327.8,99.8z M128,52.2c1,0.1,1.8,0.3,2.5,0.1c1-0.3,2-0.8,2.7-1.4c0.7-0.5,1.1-1.4,1.5-2.2
			c0.3-0.5,0.6-1.1,0.5-1.5c-0.2-0.5-0.8-1.1-1.3-1.2c-1.1-0.2-2.2-0.1-3.2-0.1c-1.5,0-3,0.1-4.5,0c-1.9-0.1-3.8-0.3-5.7-0.3
			c-1.1,0-2.1,0.6-3.2,0.6c-3.3,0-6.7,0.3-9.9-0.2c-4.5-0.7-8.9-0.4-13.3,0c-0.3,0-1,0.8-0.9,1c0.5,1.6,1.2,3.1,1.9,4.6
			c0.1,0.3,0.6,0.5,0.9,0.5c2.7,0.2,5.5,0.5,8.2,0.5c5.9,0,11.9-0.9,17.8,0.1C124,53,126.1,52.4,128,52.2z M242.3,138.8
			c0.1-0.2,0.2-0.3,0.3-0.5c-0.4-0.6-0.7-1.7-1.2-1.8c-1.8-0.3-2.5-1.7-3.4-3c-1.5-2-3.1-4-4.5-6.1c-0.7-1-1.1-2.1-1.6-3.1
			c-0.4-0.8-1.1-1.5-1.2-2.2c-0.2-2.4-0.5-4.6-1.8-6.7c-0.3-0.4-0.2-1-0.3-1.5c-0.4-2.9-0.7-5.7-1.2-8.6c-0.1-0.5-0.8-1.2-1.1-1.2
			c-0.9,0.1-2.3-0.4-2.4,1c-0.2,2.5-0.3,5.1,0,7.6c0.2,2.1,1.1,4.1,1.5,6.2c0.6,3.3,1.9,6.3,4,8.9c1.2,1.5,1.7,3.2,1,4.6
			c-0.7,1.5-1.7,3.5-4.1,3.2c-3.6-0.4-5.1,2-6.1,4.8c-0.5,1.3-0.6,2.8-0.6,4.2c0,0.5,1.1,1.5,1.5,1.4c1.6-0.4,3.3-1,4.7-1.9
			c0.7-0.5,0.9-1.8,1.2-2.8c0.2-0.6,0.1-1.3,0.3-1.8c0.2-0.5,0.5-1.1,0.9-1.2c2.2-0.5,4.5-0.8,6.7,0.1c0.5,0.2,1.2,0.2,1.7,0
			c1.1-0.7,2.2-0.7,3.4-0.2C240.6,138.5,241.5,138.6,242.3,138.8z M390.2,54.3c-0.5-0.9-0.7-1.5-1.1-1.9c-1.1-1.5-2.2-2.4-4.4-2.2
			c-2.2,0.3-4.4-0.2-6.6-0.4c-2.5-0.2-5.1-1-7.4-0.5c-4.1,0.9-8-0.9-12-0.2c-1.3,0.2-2.8,0.1-4.2,0.1c-2.4,0.1-4.8,0.2-7.1,0.2
			c-0.5,0-1-0.4-1.5-0.6c-0.6-0.3-1.1-0.6-1.7-0.8c-0.8-0.2-1.7-0.2-2.6-0.4c-1.4-0.2-2.5,0.6-2.9,2.3c-0.3,1.1-0.2,2.3,1.1,2.7
			c1.2,0.4,2.4,0.7,3.6,0.8c3.2,0.3,6.3,1.3,9.6,0.5c0.4-0.1,0.8,0.1,1.2,0.1c3.1,0.2,6.2,0.5,9.4,0.5c3.3,0,6.6-0.2,9.9-0.3
			c2.1,0,4.2,0.4,6.2,0c2.1-0.4,4,0,6,0.1C387,54.5,388.4,54.3,390.2,54.3z M383,125.8c0.1,0.2,0.6,0.7,0.8,1.3
			c0.9,2.8,2.7,5,4.6,7.1c0.3,0.3,1,0.4,1.5,0.3c1.7-0.3,2.4,0.1,2.8,1.8c0.2,0.8,0.3,1.6,0.7,2.2c1.7,3,3.4,5.9,5.2,8.8
			c2.4,3.9,5,7.6,7.5,11.4c1,1.6,2,3.2,2.8,5c0.4,0.9,0.4,1.9,1.6,1.9c1.3,0,2.5-0.5,2.4-1.9c-0.1-1.6-0.7-3.3-1.4-4.8
			c-0.6-1.2-1.6-2.2-2.3-3.4c-2.1-3.5-4.2-7.2-6.4-10.7c-2.1-3.4-4.3-6.7-6.4-10.1c-0.8-1.3-1.3-2.9-2.3-4.1
			c-1.9-2.3-4.1-4.4-6.2-6.5c-0.9-0.9-2.1-1.5-2.9-2C384.3,123.5,383.7,124.5,383,125.8z M180.8,30.5c-2.9-1.2-3.9-1.1-6.4,0.9
			c-0.3,0.2-0.6,0.4-0.9,0.6c-3.5,1.8-6.9,3.6-10.4,5.5c-0.5,0.3-1,0.6-1.5,0.8c-2.9,1.4-5.4,3.7-8.7,4.2c-0.9,0.1-1.6,0.4-2.1,1.3
			c-0.2,0.4-0.9,0.7-1.4,0.8c-1.6,0.5-3.2,0.9-5.2,1.5c1.3,1.7,2,3.5,3.4,4.3c1.4,0.9,2.3,2.1,3.3,3.4c0.6,0.8,1.3,1.8,2.1,1.9
			c1,0.2,2.2-0.3,3.3-0.7c0.1,0-0.1-1.4-0.5-2c-0.6-0.9-1.3-1.7-2.1-2.5c-1.9-1.9-1.8-3.9,0.2-5.5c0.8-0.6,4.9-0.1,5.5,0.8
			c0.7,1,1.2,2.2,1.9,3.2c0.5,0.7,1.2,1.8,1.9,1.9c1.3,0.2,2.3-1.3,2.3-2.6c0-0.3,0.2-0.7,0.4-0.9c0.6-0.8,0.5-1.3-0.5-1.6
			c-1.4-0.4-2.3-1.4-3.1-2.6c-0.3-0.4-0.3-1.4-0.1-1.5c1.5-0.9,2.6-2.6,4.8-2.1c0.6,0.1,1.3,0.2,1.8,0c1.7-0.9,3.3-1.9,4.8-3.1
			c1.7-1.4,3.4-2.2,5.5-2.4c0.5,0,1-0.8,1.2-1.4C180.7,32,180.7,31.3,180.8,30.5z M672.3,100.9c0.7-1.5,1.3-2.6,1.7-3.8
			c0.2-0.5,0.2-1.3-0.1-1.8c-0.3-0.6-0.8-1.2-1.3-1.7c-1.4-1.7-2.9-3.4-4.3-5.2c-0.4-0.6-0.5-1.5-0.8-2.1c-1.2-2.2-3.9-3.4-4.5-6.1
			c0,0-0.1-0.1-0.1-0.1c-1.6-1.8-3.2-3.6-4.7-5.5c-2.5-3.3-4.9-6.8-7.4-10.2c-0.2-0.3-0.8-0.6-1-0.5c-1.1,0.4-2.1,0.9-3.1,1.6
			c-1.8,1.1-3.4,2.5-5.2,3.4c-1.4,0.7-2.7,1.9-2.9,3.6c0.9-0.2,1.7-0.3,2.5-0.5c1.7-0.5,3.4-0.8,5-1.5c2.3-1.1,3.2-1.1,4.8,0.9
			c2.5,3.1,5,6.2,7.5,9.3c0.4,0.5,0.7,1,1.1,1.5c1.7,2.6,3.4,5.2,5.2,7.7c0.9,1.3,2.3,2.3,3.1,3.6
			C669.5,95.7,670.8,98.2,672.3,100.9z M326.2,136c3.1-0.8,4.8,0.3,5.5,3c0.1,0.3,0.2,0.6,0.3,0.9c0.5,1.5-0.4,3.3-1.9,3.8
			c-0.7,0.2-1.5,0.4-2.3,0.4c-1,0-1.2,0.4-1.1,1.3c0.2,1.1,0.2,2.2,0.2,3.3c0.1,2.1,2.4,3.8,4.4,3.1c0.5-0.2,0.9-0.7,1.2-1.2
			c0.5-0.9,0.9-1.8,1.1-2.7c0.5-2.4,1.1-4.8,1.3-7.2c0.2-2.2-0.1-4.5-0.1-6.8c0-2.1,0.2-4.1,0.2-6.2c0-0.4-0.5-1.3-0.8-1.3
			c-1.7,0-3.6-0.3-5.1,0.3c-3.3,1.2-3.2,1.4-3,5C326.3,133,326.2,134.4,326.2,136z M244.1,139.7c-0.2,0.1-0.3,0.1-0.5,0.2
			c0.9,2.5-0.4,3.8-2.2,4.9c-0.8,0.5-0.4,1.8,0.5,2.4c0.6,0.4,1.1,1.1,1.7,1.6c0.4,0.4,0.8,0.9,1.2,1.1c1.1,0.7,2.3,1.3,3.5,1.8
			c1.3,0.6,2.6,1,4.1,1.5c0.2-1.2,0.4-2.1,0.5-2.9c0.3-1.9,1.1-2.7,3.1-2.8c2.1-0.2,3.6,0.8,4.8,2.4c0.8,1.1,1.2,2.4,1.8,3.6
			c1.2-0.5,2.6-0.9,3.8-1.7c0.7-0.4,1.1-1.4,1.2-2.3c0.1-0.4-0.7-1.1-1.2-1.3c-1-0.5-2-0.8-2.3-2.1c-0.1-0.3-0.7-0.6-1.1-0.6
			c-1.8-0.2-3.6-0.3-5.5-0.4c-4.3-0.3-8.3-1.2-11.4-4.5C245.6,140,244.8,139.9,244.1,139.7z M76.6,177.7c-0.4,0.6-0.6,0.8-0.8,1.1
			c-1.4,2.5-2.8,5-5.2,6.8c-0.6,0.5-1,1.2-1.5,1.9c-0.6,0.9-1.1,1.8-1.9,2.6c-1.2,1.1-2.4,2.1-3.7,3c-1.2,0.9-2.5,1.6-3.7,2.5
			c-1.6,1.2-3.1,2.6-4.5,4c-0.7,0.7-0.5,1.5,0.6,1.7c2.1,0.4,4.2,0.4,6-1.3c0.3-0.3,0.8-0.7,1.2-0.7c1.7,0.3,2.7-0.7,3.6-1.8
			c2.8-3.1,5.6-6.1,8.1-9.4c2-2.5,2.6-5.6,2.6-8.8C77.3,178.8,76.9,178.4,76.6,177.7z M699.5,52.4c-0.2,0-0.3,0.1-0.5,0.1
			c0,1.3,0.1,2.7,0,4c-0.3,2.4,0.9,4.8-0.1,7.2c-0.5,1.2-0.7,2.8-0.6,4.1c0.3,4.6,0.2,9.2,1.6,13.7c0.2,0.5,0.7,0.9,1.3,1.6
			c0.4-1,0.4-1.8,0.8-2c1.6-0.8,1.2-2.2,1.2-3.5c0-0.7,0.1-1.5,0.2-2.2c0.2-2.4,0.9-4.9,0.5-7.2c-0.5-2.9-0.9-5.7-0.5-8.5
			C704,56.1,701.7,54.4,699.5,52.4z M489.2,88.2c-0.6-1.1-1.5-2.1-1.5-3.1c0-1.8-0.6-3.1-1.7-4.3c-0.6-0.7-1.2-1.4-1.9-2
			c-1.3-1.3-2.5-2.7-3.8-4c-1.2-1.1-2.5-2.1-3.7-3.2c-1.7-1.5-3.5-3-5.3-4.5c-0.2,0.3-0.5,0.5-0.5,0.7c0,1.6,0.1,3.2,0.1,4.8
			c0,0.1,0.2,0.3,0.3,0.4c3,3.2,6,6.5,9.1,9.7c0.7,0.8,1.6,1.4,2.5,2.1c1,0.8,1.9,1.5,2.9,2.2C486.6,88.4,487,88.7,489.2,88.2z
			 M896.4,144.6c2.3,2.1,5.1,3,7.7,3.4c3.8,0.6,7.7,0.4,11.6,0.6c1.4,0.1,2.8,0.4,4.1,0.4c1.6,0,3.2-0.3,4.7-0.5
			c-0.3-1.1-0.5-1.8-0.8-2.5c-0.1-0.3-0.3-0.6-0.5-0.7c-1.9-0.5-3.9-1.3-5.9-1.4c-5.2-0.1-10.4,0.2-15.5-0.7
			C900.2,142.9,898.3,143.1,896.4,144.6z M485,144.9c0.1,0.1,0.3,0.2,0.4,0.4c0.5-0.2,1.2-0.3,1.5-0.6c1-1.1,1.9-1.1,2.9-0.1
			c0.8,0.8,1.4,0.4,1.6-0.5c0.2-0.5,0.2-1.2,0-1.6c-0.6-1.5-0.5-2.9,0.2-4.2c1.3-2.5,2.6-5.1,4.2-7.5c1.7-2.5,3.7-4.8,5.6-7.2
			c0.5-0.7,0.9-1.4,1.4-2.1c0.8-1.3,1.7-2.7,2.6-4.1c-1.8-0.7-3.6,0.5-4.7,2c-1.1,1.5-2.5,2.9-3.6,4.3c-0.5,0.6-0.9,1.2-1.2,1.9
			c-0.4,0.9-0.6,2.1-1.2,2.8c-1.8,2.4-3.6,4.8-5.7,7C486.3,138.2,486.8,141.9,485,144.9z M417.4,151.8c-1.4-2.3-2.7-4.6-4-6.9
			c-1-1.7-2-3.4-3-5.1c-1.5-2.5-2.9-5.1-4.4-7.6c-1.2-2.1-2.5-4.1-3.7-6.2c-0.2,0-0.5,0-0.7,0.1c-0.1,1.1-0.6,2.3-0.4,3.3
			c0.4,1.8,2.4,3.2,1.7,5.4c0,0.1,0.1,0.3,0.2,0.4c1.5,2.7,3.1,5.3,4.6,8c0,0,0.1,0.1,0.1,0.1c1.5,2.6,3.7,4.7,4.6,7.6
			C412.9,153,415.5,153.5,417.4,151.8z M850.1,110.1c-0.1-0.1-0.2-0.3-0.4-0.4c-0.3,0.2-0.6,0.3-0.9,0.5c-5.3,3.8-11.3,5.3-17.7,5.5
			c-1.1,0-2.4-0.1-3.3-0.7c-2.7-1.8-5.6-1.2-8.5-1c1.1,0.9,2.3,1.5,3.4,2.3c2.5,1.9,5,3.6,8.4,4c3,0.3,5.8-0.4,8.5-1.3
			c2.1-0.7,4.1-1.7,4.8-4.2c0.1-0.3,0.6-0.7,0.9-0.7C847.9,113.7,848,110.8,850.1,110.1z M513.9,89.7c0.5-0.9,0.9-1.6,1.3-2.3
			c0.5-0.8,0.9-1.8,1.7-2.4c2.9-2.2,4.3-5.5,6.5-8.3c1.6-2,3.1-4.1,4.5-6.2c0.5-0.7,0.8-1.7,0.9-2.6c0-0.3-1-0.6-1.5-1
			c-0.3-0.2-0.7-0.5-1-0.7c-0.5-0.4-1-1-1.7-0.2c-0.5,0.6-0.6,1.1,0,1.9c1.7,2.1,1.2,4.1-1.1,5.4c-1.1,0.6-2.3,1.3-3.6,1.5
			c-2.8,0.5-4.1,2.6-5.3,4.6c-0.8,1.2-1.3,2.5-2.4,3.5c-0.6,0.6-1.3,1.9-1.1,2.5C511.7,86.7,512.8,88,513.9,89.7z M751.3,146.7
			c0.1-0.1,0.1-0.3,0.2-0.4c0.7,0.4,1.5,0.8,2.2,1.1c0.3,0.1,0.6,0.1,0.9,0c1.7-0.7,3.4-1.4,5.1-2.1c1.2-0.5,1.6-2,0.9-3.2
			c-0.3-0.5-0.7-0.9-0.9-1.4c-0.4-1-0.9-1.3-2-0.8c-0.6,0.3-1.5,0-2.2-0.2c-1.8-0.6-3-1.8-3.9-3.3c-0.6-1-1.2-1-1.7,0
			c-0.8,1.6-1.3,3.2-0.9,5c0.1,0.5,0.1,1.2-0.1,1.7C747.8,145.2,748.8,146.7,751.3,146.7z M418.9,96.7c0.6-0.4,1.3-0.7,1.8-1.2
			c1.4-1.4,2.6-3.1,4.2-4.1c1.5-0.9,2.5-2,3.1-3.5c0.4-1,0.7-2.1,0.6-3.1c-0.1-0.8-0.7-1.8-1.3-2.3c-0.3-0.3-1.5,0.1-2,0.5
			c-1.9,1.6-3.8,3.3-5.4,5.2c-1.3,1.6-2.5,3.5-3.3,5.4C415.9,95.1,417.1,96.5,418.9,96.7z M301.7,166c-1.2-2.1-2.1-4-3.2-5.8
			c-0.8-1.3-2.1-2.3-3-3.5c-1.5-2-3-4-4.5-6.1c-0.6-0.9-1.5-1.2-2.2-0.7c-0.6,0.4-1.1,1.4-1,2.1c0.2,1.2,0.7,2.5,1.4,3.6
			c1.1,1.6,2.5,3,3.6,4.6C294.9,163.2,297.9,164.8,301.7,166z M118.9,122.3c-3.4,0-6.6,0-9.8,0c-0.3,0-0.7,0.3-0.8,0.6
			c-0.7,1.3-1.4,2.7-1.9,4.1c-0.1,0.4,0.3,1.3,0.6,1.4c0.9,0.3,1.8,0.3,2.7,0.3c2-0.1,4.1-0.2,6.1-0.4c0.7-0.1,1.7-0.3,1.8-0.7
			C118.3,125.9,118.5,124.2,118.9,122.3z M430,178c-2.6-2.9-5.6-4.9-9.2-6.2c-1.5-0.5-2.7-0.3-4,0.4c-0.9,0.5-1,1.2-0.2,1.9
			c1.1,0.9,2.2,1.8,3.3,2.6c1.3,1,3.1,1.6,3.8,2.9c1.1,1.9,2.7,1.1,4,1.4c0.3,0.1,0.8-0.4,1.1-0.7C429.2,179.6,429.5,178.8,430,178z
			 M889.5,86.6c-1.3-2.7-2.9-5.3-3.7-8.1c-0.6-2.3-1.7-3.6-3.8-4.3c-0.9-0.3-1.3-0.2-1.3,0.8c0.1,5,1.3,9.7,4.5,13.5
			C886.7,87.9,888.1,87.3,889.5,86.6z M655.6,51.4c-0.5-0.7-1.2-1.1-1.4-1.8c-0.5-1.5-2-1.4-3.1-2.1c-1.8-1.1-2.4,0.2-3.2,1.3
			c-0.2,0.2-0.4,0.3-0.6,0.5c-1.8,1.2-2.4,3.1-0.9,4.7c1.3,1.3,3,2.2,4.6,2.9c1.4,0.6,3.7-1.3,3.2-2.6
			C653.8,52.9,654.1,52,655.6,51.4z M703.6,158.5c-1.9,0-4,2.1-4,4c0,1.8,2.8,5.3,4.1,5.4c1.9,0,4.7-2.8,4.6-4.7
			C708,159.7,706.9,158.5,703.6,158.5z M463.7,171.4c-8.3,4.7-15.6,10.3-22.6,16.3c1.9-0.5,3.7-1.1,5.4-2c2.2-1.3,4.2-2.8,6.3-4.1
			c2.9-1.9,5.8-3.7,8.8-5.5C462.7,175.2,464.1,172.8,463.7,171.4z M959.4,48.2c-0.6-0.1-1.1-0.4-1.4-0.3c-1.4,0.7-2.9,1.2-4,2.2
			c-2,1.9-3.9,3.9-4.9,6.6c-0.3,0.8-0.7,1.5-1.2,2.2c-0.5,0.8-0.7,5.4-0.1,6.3c0,0,0.1,0,0.4,0.2C951.1,59.3,955,53.8,959.4,48.2z
			 M238.8,145.1c-0.2-0.3-0.2-0.5-0.3-0.5c-0.6-0.4-1.1-0.8-1.7-1.1c-2-1.2-2-1.1-3.4,0.9c-0.9,1.4-2.1,2.5-3.1,3.8
			c-0.3,0.3-0.5,0.8-0.5,1.2c0,1.1,0.2,2.2,0.3,3c1.2,0.8,2.2,1.5,3.2,2c0.7,0.3,1.5,0.4,2,0.6c0.2-2.4,0.6-4.5,0.7-6.6
			C236.1,146.5,236.9,145.5,238.8,145.1z M821.2,62.9c2.5-2.4,3-6,5.8-8c0.1-0.1,0.1-0.2,0.1-0.3c0.2-1.6,1.6-2.1,2.6-3
			c1.3-1.1,2.4-2.4,3.7-3.8c-0.5-0.2-0.7-0.3-0.8-0.3c-3.5-0.2-5.7,2.4-8.4,3.9c-0.2,0.1-0.2,0.3-0.3,0.5c-0.5,0.9-0.9,1.7-1.4,2.6
			c-0.6,1.2-1.4,2.4-1.5,3.7C820.8,59.7,821.1,61.4,821.2,62.9z M759,97.9c-0.3-2.9,1.3-5.3-0.8-7.5c-0.1-0.1-0.1-0.4-0.2-0.6
			c-0.6-0.6-1.3-1.4-2-1.5c-0.7-0.1-1.7,0.4-2.1,1c-1.7,2.5-1.2,5.5-1.6,8.4c0,0.4,0.2,0.7,0.3,1.3C754.5,97.6,756.2,96.3,759,97.9z
			 M887.9,143.2c-0.1,0-0.2-0.1-0.3-0.1c-0.2,1.2-0.6,2.4-0.4,3.6c0.3,1.5-0.2,2.4-1.2,3.2c-0.5,0.4-1,0.9-1.4,1.4
			c-1.8,1.8-2.5,4.4-5.1,5.5c-0.5,0.2-0.8,1.1-1.2,1.6c0.1,0.1,0.2,0.3,0.3,0.4c0.8-0.3,1.6-0.5,2.4-0.8c1.1-0.5,2.1-1.3,3.3-1.4
			c3.5-0.5,4.5-3.4,6-5.8c0.2-0.4,0.1-1,0-1.5C889.5,147.2,888.7,145.2,887.9,143.2z M573.1,111.4c0,0.7-0.1,1-0.1,1.3
			c0,1.5,0.2,3.1,0.1,4.6c-0.1,2.5-0.3,5,2.1,6.7c0.7,0.5,1.1,1.3,1.7,2c0.3,0.3,0.8,0.7,1,0.6c0.4-0.2,0.8-0.6,0.8-1
			c0.1-1.5,0.3-3.1,0-4.6c-0.4-1.8-1.1-3.6-1.9-5.2C576,114.2,575.1,112.5,573.1,111.4z M295,54.7c-0.1-0.1-0.3-0.3-0.4-0.4
			c-1.2,0.8-2.5,1.4-3.5,2.3c-0.8,0.7-1.2,2-2,2.7c-2.2,2.1-3.1,4.7-3.5,7.6c0,0.3,0.2,0.7,0.4,0.9c2,1.1,2.2,1.4,3.1-0.9
			c0.7-1.8,1.5-3.6,2.4-5.3c1.1-2,2.3-3.9,3.5-5.8C295.1,55.5,295,55.1,295,54.7z M702.2,43.5c-0.1,0.2-0.1,0.3-0.2,0.5
			c0.5,0.8,1.1,1.5,1.5,2.3c1,1.9,2.2,3.5,4.7,3.3c0.4,0,0.9,0.2,1.3,0.4c1,0.3,1.6,0.2,2.4-0.7c0.7-0.9,1.9-1.5,2.9-2.2
			c0.3-0.2,0.5-0.4,0.8-0.6c-0.7-0.4-1.4-0.3-2.1-0.5c-2-0.6-4.1-0.4-6.1-1.8C706.3,43.1,704,43.6,702.2,43.5z M639.1,168.2
			c-3.3-2.5-6.5-4.7-9.6-7c-2.5,1.8-2.9,4.5-0.7,6C631.9,169.4,635.4,169,639.1,168.2z M172.9,23.4c-0.9-2.4-1.8-4.6-2.7-7.1
			c-0.4,0-0.9,0-1.5,0c-1.9,0-2.2,0.3-2.3,2.3c0,0.4-0.2,1-0.5,1.2c-0.7,0.6-0.6,1.2-0.2,1.9c0.4,0.8,0.8,1.6,1,2.4
			c0.4,1.2,1.1,1.6,2.2,1.1C170.2,24.7,171.5,24,172.9,23.4z M342.3,147.6c-0.2,0.1-0.4,0.2-0.5,0.3c0.5,2.1,0.9,4.3,1.7,6.3
			c0.5,1.2,1.4,2.3,2.4,3.3c0.4,0.4,1.2,0.5,1.8,0.7c0.2-0.6,0.5-1.1,0.5-1.7c-0.1-2.1-0.4-4.1-0.5-6.2c0-1-0.4-1.5-1.2-1.7
			C345,148.2,343.7,147.9,342.3,147.6z M448,45.4c0,0.1-0.1,0.3-0.1,0.4c0.3,0.2,0.6,0.5,0.9,0.5c2.6,0.8,5.4,1.5,7.9,2.4
			c2.4,0.9,4.5,0.4,6.5-0.6c0.3-0.2,0.7-0.9,0.6-1.2c-0.3-1-0.8-1.9-2.2-1.5c-0.5,0.1-1,0-1.5,0C456,45.4,452,45.4,448,45.4z
			 M813.9,121.6c0.1,2.1,0.2,4,0.3,6c0,0.4,0.4,0.8,0.6,1.2c0.7,0.8,1.4,1.5,2.1,2.2c0.7,0.7,1.3,1.4,2.1,2.3
			C821.3,127.8,818.9,122.6,813.9,121.6z M91.8,200c0-0.1,0.1-0.2,0.1-0.3c-0.5-1.7-1.2-3.3-0.7-5.1c0.1-0.3-0.4-0.9-0.7-1
			c-1.1-0.2-2.3-0.4-3.4-0.4c-1.6,0.1-2.7,1.7-2.7,3.5c0,1.7,1.1,3.1,2.7,3.2C88.7,200.1,90.3,200,91.8,200z M575.1,69.2
			c-0.1,0.5-0.2,0.9-0.2,1.2c0,3.8-0.1,7.5,0.2,11.3c0.1,0.9,1.2,1.7,1.8,2.5c0.6-0.6,1.4-1.1,1.8-1.8c0.3-0.6,0.3-1.4,0.2-2.1
			c-0.4-2.7-0.9-5.4-1.3-8.1C577.3,70.8,576.7,69.8,575.1,69.2z M725.6,180.2c-0.3-1.7-0.6-3.3-1-5c-0.1-0.6-0.6-1.1-1-1.6
			c-0.6,0.5-1.3,0.8-1.7,1.4c-1.8,2.8-1.6,5.6-0.2,8.5c0.1,0.2,0.6,0.5,0.8,0.4C724.7,183.6,725.5,182.4,725.6,180.2z M71,75.8
			c0.5-1.4,1.3-3,1.7-4.6c0.2-0.6-0.2-1.9-0.6-1.9c-1.7-0.4-3.5-0.5-5.3-0.6c-0.2,0-0.5,0.5-0.6,0.8c-0.3,1.2-0.6,2.4-0.8,3.4
			C67.3,73.8,69.1,74.7,71,75.8z M580.4,147.1c0.3-2.9-0.1-5.4-1.3-7.7c-0.5-1-1.3-1.3-2.5-1c-1.8,0.5-2,2.3-3,3.5
			c-0.4,0.6-0.1,1.2,0.8,1.6c1.3,0.6,2.5,1.5,3.8,2.3C578.9,146.3,579.6,146.7,580.4,147.1z M636.5,64.5c0.2-2.4,0.4-4.6,0.5-6.9
			c0-0.3-0.1-0.8-0.3-1c-0.2-0.2-0.7-0.5-1-0.4c-1,0.3-2,0.7-2.8,1.2c-0.5,0.3-0.9,0.9-1,1.4c-0.2,1.1-0.2,2.2-0.1,3.3
			c0,1,0,2.2,1.5,2.3C634.3,64.5,635.4,64.5,636.5,64.5z M346.6,171.3c-1.8-1.3-3.6-2.6-5.3-3.9c-1.3-1-3.3-1-3.8-3.1
			c-0.2-0.7-1-0.8-1.4,0.1c-0.5,1.1-0.8,2.2,0.3,3.1c1.3,1,2.6,2,3.8,3.1C341.5,172,344.6,172.5,346.6,171.3z M128.7,128.6
			c2,0,4.7-3,4.5-4.5c-0.2-1.3-0.8-2.2-2.3-2.2c-0.7,0-1.3-0.1-2-0.2c-1.8-0.2-2.6,0.8-2,2.6c0.4,1.2,0.7,2.4,1.2,3.5
			C128.1,128.2,128.6,128.5,128.7,128.6z M531.5,84c-0.7-0.9-1.2-1.9-2.1-2.5c-0.3-0.2-1.5,0.4-1.9,0.9c-1.1,1.2-2.1,2.5-3.1,3.9
			c-0.5,0.7-1.3,1.4-0.3,2.3c1.6,1.3,2.9,1.2,3.8,0.1c0.7-1,1.6-1.9,2.3-2.8C530.6,85.2,531,84.7,531.5,84z M939.2,44.7
			c1.4,1.3,2.5,2.4,3.6,3.3c0.4,0.3,1.1,0.3,1.6,0.2c1.5-0.6,2.9-1.2,4.3-1.9c0.5-0.3,1-0.7,1.7-1.2c-1.7-0.5-3.2-0.6-4.3-1.4
			C943.4,42,941.7,44,939.2,44.7z M548.4,64.9c0.8-1.1,1.8-2.4,2.7-3.9c0.2-0.3,0.1-0.8,0.1-1.2c-0.4,0-0.9,0-1.3,0
			c-0.6,0-1.2,0.3-1.8,0.2c-0.8-0.1-1.6-0.4-2.4-0.6c-1.6-0.3-2.7,0.9-2.4,2.3c0.2,0.6,0,1.3,0,2C544.6,64.1,546.3,64.4,548.4,64.9z
			 M621.5,154.6c1.4,0.5,2.6,1,4,1.6c0.8-2.3,1.6-4.6,2.3-7C622.6,148.1,621.5,150.4,621.5,154.6z M876,93.7c0-0.4,0-0.7-0.1-0.9
			c-0.7-1.4-1.4-2.7-2.1-4.1c-0.7-1.2-1.4-2.4-2-3.7c-0.6-1.1-1.5-0.8-1.9-0.2c-0.5,0.7-0.6,1.7-0.6,2.5c0.1,0.8,0.6,1.5,1,2.3
			C871.5,91.9,873.2,93.3,876,93.7z M531.8,58.7c0.7,1.3,1.4,2.5,2.1,3.9c1.2-1.7,2.5-3.5,3.7-5.4c0.7-1.1-0.5-3.3-1.7-3.6
			c-0.2,0-0.6,0-0.7,0.2c-0.9,1.2-1.8,2.3-2.7,3.5C532.2,57.8,532,58.3,531.8,58.7z M408.3,107.8c1.9-1.6,3.7-3.1,5.4-4.7
			c0.5-0.4,1-1.5,0.8-1.8c-0.9-1.1-2-1.9-3-2.9C409.9,99.5,407.3,106.6,408.3,107.8z M964.5,145.3c3.7,0.1,3.4-2.2,3.5-4.3
			c0-0.5,0.2-0.9,0.2-1.4c0-0.3-0.2-0.9-0.5-1c-1-0.4-2-0.7-3-1.1C963.4,140.2,962,142.8,964.5,145.3z M273.4,153.5
			c2.6,0.6,4.7-0.7,6.7-2.5c1.2-1.1,1.3-1.4,0.2-2.7c-0.5-0.6-1-1.2-1.5-1.8c-0.6-0.6-1.2-0.7-1.6,0.1
			C276,148.9,274.7,151.2,273.4,153.5z M906.1,157.4c-0.3,0-0.8,0-1.4,0c-2.1,0-4.1-0.1-6.2,0c-0.5,0-1.4,0.3-1.5,0.7
			c-0.3,0.7-0.3,1.5,0.8,1.9c2.1,0.7,4.1,1.4,6.1,2.1c0.4,0.1,1.2-0.4,1.3-0.7C905.7,160.1,905.8,158.9,906.1,157.4z M259.5,67.2
			c0-0.2,0-0.4,0.1-0.6c-0.6-0.4-1.2-0.8-1.9-1.1c-0.3-0.1-0.7-0.1-0.8-0.3c-1.2-2.1-2.8-1.7-4.7-1.1c-1.2,0.4-1.1,1.2-1,2.1
			c0.2,1.1,0.6,2.2,1.8,2.2c1.5,0,3-0.1,4.6-0.4C258.2,67.9,258.8,67.5,259.5,67.2z M476.4,158c0.1,0.3-0.1,1.3,0.4,1.7
			c0.5,0.5,1.9,0.9,2.3,0.6c1.1-1,1.9-2.3,2.8-3.5c0,0,0-0.1-0.1-0.1c-1.1-1.2-2-2.4-3.2-3.5c-1-0.8-1.8-0.4-1.9,0.9
			C476.5,155.3,476.5,156.5,476.4,158z M588.4,45.3c-1.4,0.2-2.2,0.9-3,1.9c-0.5,0.7-1.4,1.2-2.2,1.5c-0.5,0.2-1.4-0.1-1.2,0.9
			c0.1,0.5,0.8,1,1.3,1.1c0.7,0.1,1.5-0.3,2.2-0.4c0.5-0.1,1.2-0.4,1.6-0.3c1.1,0.3,1.9-0.1,2.5-0.8c0.7-0.8,1.1-1.8,1.7-2.7
			C590.3,46,589.3,45.6,588.4,45.3z M196.4,174.1c0.1-2.2-1.2-2-2-2.3c-2.8-1.1-3.5-0.8-4.3,2c-0.3,1.1,0.1,1.6,1.2,1.9
			c0.9,0.3,1.7,0.7,2.5,1c0.3,0.1,0.9,0.2,1.1,0C195.5,175.7,196,174.6,196.4,174.1z M966.3,124.7c-0.4,1.4-0.8,2.8-1.1,4.3
			c-0.1,0.4,0.2,1,0.4,1.2c0.8,0.5,1.6,0.8,2.5,1.1c0.8,0.2,1.7,0.2,1.8-0.9c0.1-1.4,0.1-2.8,0-4.2c0-0.4-0.6-0.9-1-1
			C968.1,124.9,967.3,124.8,966.3,124.7z M245.1,157.3c0.6,3.4,3.6,3.9,5,5.9c0.1,0.1,0.5,0.1,0.7,0.1c0.7-0.2,1.6-0.2,2.2-0.6
			c0.5-0.3,0.9-1.1,1.1-1.7c0.1-0.2-0.5-0.9-0.9-1c-0.9-0.3-1.8-0.4-2.7-0.5c-1.1-0.1-2.1-0.2-2.9-1.1
			C247.2,157.8,246.2,157.7,245.1,157.3z M808.6,146.8c0.6-0.7,1-1.1,1.2-1.6c0.4-0.8,0.6-1.8,1.1-2.5c1-1.3,0.3-2.3-0.7-2.6
			c-1.1-0.4-2.4-0.3-3.6-0.3c-0.3,0-0.8,1-0.7,1.3C806.7,142.9,807.6,144.7,808.6,146.8z M661.3,62.8c0.6-1,1-1.8,1.6-2.5
			c1-1.3,0.4-4.4-1.1-5.1c-0.2-0.1-0.4-0.1-0.6,0c-1.8,1.1-3.5,3.4-1.8,5.5C660,61.4,660.7,62.1,661.3,62.8z M678.3,108.3
			c1.1,1.5,2.1,3,3.2,4.4c1-0.9,1.7-1.5,2.4-2.1c0.7-0.6,0.6-1.2,0.1-1.9c-1-1.2-1.9-2.4-2.8-3.5
			C680.4,106.1,679.5,107.1,678.3,108.3z M269.8,62.4C269.8,62.4,269.8,62.5,269.8,62.4c-0.5,0-1-0.1-1.4,0c-0.4,0.1-1,0.7-0.9,0.9
			c0.4,1.2,1,2.3,1.5,3.4c0,0.1,0.2,0.1,0.3,0.1c1.6,0.6,2.8,0.1,3.8-1.3c0.1-0.2,0.3-0.4,0.4-0.6c0.9-1,0.7-1.7-0.6-2
			C271.8,62.6,270.8,62.6,269.8,62.4z M428.9,63.7c-0.2,0.8-0.4,1.2-0.5,1.7c-0.1,0.5,0.1,1.3-0.2,1.6c-1,0.9-2.1,1.6-3.2,2.2
			c-0.8,0.4-1,0.9-0.5,1.6c0.8,1,3.4,0.8,4.3-0.1c0.5-0.6,1.1-1.1,1.5-1.7c0.3-0.5,0.5-1.2,0.3-1.7
			C430.2,66.2,429.6,65.2,428.9,63.7z M783.7,45.8c2.1-0.2,4.1-0.3,6-0.5c0.2,0,0.5-0.4,0.6-0.6c0.2-0.9,0.4-1.8,0.6-2.9
			c-1.2,0.2-2.3,0.4-3.5,0.4C785.2,42.2,783.8,42.9,783.7,45.8z M494.1,93.5c-0.6,0.8-1.1,1.5-1.6,2.2c-1,1.4-0.6,2.6,1,3.1
			c0.6,0.2,1.2,0.5,1.8,0.5c0.6,0,1.5-0.2,1.7-0.5c0.3-0.6,0.4-1.6,0-2.1C496.3,95.7,495.2,94.7,494.1,93.5z M575.2,53.4
			c-0.2,0.1-0.4,0.1-0.6,0.2c0.1,1.8,0,3.6,0.5,5.3c0.2,0.8,1.4,1.8,2.2,1.7c1,0,1.5-1.1,1.5-2.3C578.7,55.6,576.4,54.9,575.2,53.4z
			 M817.7,41.3c-0.3,2.5,0.2,3,2.3,2.4c0.8-0.2,1.7-0.4,2.6-0.5c1.8-0.2,3.7-0.4,5.5-0.6c0.3,0,0.6-0.5,0.9-0.8
			c-0.3-0.2-0.7-0.5-1-0.5C824.5,41.3,821.1,41.3,817.7,41.3z M463.3,59.5c-1.4-2.1-3-3.2-5.1-3.7c-1-0.2-1.9,0.8-1.3,1.6
			c1,1.2,2.2,2.4,3.5,3.1C461,60.9,462.2,60,463.3,59.5z M914.1,156.9c-0.2,1.6-0.4,2.6-0.4,3.7c0,0.3,0.5,0.9,0.7,0.9
			c3,0.3,3.6-0.4,3.2-3.3c0-0.3-0.1-0.7-0.2-0.9c-0.2-0.3-0.6-0.7-0.9-0.7C915.5,156.6,914.6,156.8,914.1,156.9z M926.7,58.2
			c0.1-0.2,0.1-0.4,0.2-0.6c-0.4-0.6-0.6-1.5-1.1-1.6c-1.3-0.4-2.6-0.6-4-0.6c-0.5,0-1.4,0.8-1.4,1.3c0,0.7,0.6,2,1,2
			C923.1,58.7,924.9,58.4,926.7,58.2z M763,73c-1.9-1.5-2.4-1.6-4.3-0.5c-0.5,0.3-0.8,1.2-1,1.9c-0.1,0.3,0.3,0.8,0.6,0.9
			C760.5,76.3,762.1,75.4,763,73z M575.8,159.4c0.3-0.1,0.5-0.2,0.8-0.4c0-2.4,0-4.8,0-7.2c0-1.3-0.6-1.9-1.9-1.7
			c0,2.7,0,5.4,0.1,8.2C574.8,158.7,575.4,159.1,575.8,159.4z M357.2,63.9c1.1,3.2,3.2,4.1,5.7,2.3c-1-1.2-1.9-2.4-2.8-3.5
			C359.1,63.2,358.1,63.5,357.2,63.9z M536.8,77c0.1-1.7,0.3-3.3,0.4-5c-0.2-0.1-0.4-0.2-0.6-0.3c-1.2,1.3-2.5,2.7-4,4.3
			C534.4,76.4,535.5,76.7,536.8,77z M424,160.7c-0.2-1.3-0.2-2.5-2-2c-0.3,0.1-0.6-0.2-0.9-0.2c-0.4,0-0.9,0.1-1.1,0.3
			c-0.2,0.2,0,0.7,0.1,1c0.4,0.6,0.8,1.1,1.3,1.6c0.5,0.5,1.1,0.8,1.7,1.2C423.5,161.9,423.7,161.3,424,160.7z M619.5,57.6
			c1.5,0.2,2.7,0.4,4,0.6c0.3,0,0.5-0.1,0.8-0.2c-0.1-0.4-0.1-0.8-0.4-1.1c-0.5-0.5-1.1-0.9-1.8-1.2c-0.7-0.3-1.5-0.5-2.3-0.7
			c-0.2,0.7-0.3,1.4-0.4,2.1C619.4,57.4,619.5,57.6,619.5,57.6z M949.1,92c1.1,0.6,2.3,1.2,3.4,1.8c0.1-0.1,0.1-0.3,0.2-0.4
			C951.9,92.1,950.7,91.7,949.1,92z M954.4,42.9c0.8-0.6,1.5-1.2,2.4-1.9C954.5,40.1,954.6,41.8,954.4,42.9z"/>
		<path d="M706.9,126.2c-0.4,0.3-0.8,0.5-1,0.8c-0.9,1.9-2.3,2.1-4.2,2c-1.4,0-2.6-0.6-2.8-1.7c-0.2-0.9,0.4-2.2,0.9-3.1
			c0.3-0.7,1-1.4,1.7-1.6c1.7-0.7,3.5-1.3,5.4-1.8c0.3-0.1,1,0.5,1.3,1c0.7,0.9,1.5,1.8,1.8,2.9c0.2,0.7-0.1,1.9-0.6,2.4
			C708.5,127.8,707.5,127.5,706.9,126.2z"/>
		<path d="M890.7,60.9c-1.8-0.3-3.2-0.3-4.4-0.8c-0.7-0.3-1.2-1.3-1.6-2c-0.5-1-0.6-2.3-1.1-3.3c-1-2-0.6-3.1,1.6-3.7
			c0.7-0.2,1.4-0.6,2.2-0.7c1.4,0,3.1,1.9,3.4,3.5c0.3,1.2,0.8,2.4,1.2,3.6c0.2,0.7,0.8,1.7,0.5,2.2
			C892.1,60.3,891.1,60.6,890.7,60.9z"/>
	</g>
</g>
</svg>
